<?xml version='1.0' encoding='UTF-8'?>
<svg xmlns:rdf="http://www.w3.org/1999/02/22-rdf-syntax-ns#" xmlns:cc="http://creativecommons.org/ns#" xmlns:dc="http://purl.org/dc/elements/1.1/" viewBox="-25.0 -151.942088 165.45085 176.942088" xmlns="http://www.w3.org/2000/svg"><g><title>Tiling</title><desc>Finite tessellation of regular polygons</desc><g style="stroke:none"><title>Polygons</title><desc>Regular polygons</desc><g style="fill:hotpink"><title>Regular 5-gons</title><desc>Regular polygons with 5 sides</desc><polygon points="50.0,-50.0 50.0,-100.0 75.0,-126.942088 115.45085,-97.552826 100.0,-50.0"/></g><g style="fill:goldenrod"><title>Regular 4-gons</title><desc>Regular polygons with 4 sides</desc><polygon points="50.0,-50.0 100.0,-50.0 100.0,0.0 50.0,0.0"/><polygon points="50.0,-50.0 50.0,0.0 0.0,0.0 0.0,-50.0"/><polygon points="50.0,-100.0 50.0,-50.0 0.0,-50.0 0.0,-100.0"/></g></g><g style="stroke:black"><title>Edges</title><desc>Sides of the regular polygons</desc><line x1="0.0" y1="0.0" x2="50.0" y2="0.0"/><line x1="0.0" y1="-50.0" x2="0.0" y2="-100.0"/><line x1="0.0" y1="-100.0" x2="50.0" y2="-100.0"/><line x1="0.0" y1="-50.0" x2="50.0" y2="-50.0"/><line x1="50.0" y1="0.0" x2="100.0" y2="0.0"/><line x1="50.0" y1="-50.0" x2="100.0" y2="-50.0"/><line x1="0.0" y1="0.0" x2="0.0" y2="-50.0"/><line x1="50.0" y1="0.0" x2="50.0" y2="-50.0"/><line x1="100.0" y1="0.0" x2="100.0" y2="-50.0"/><line x1="100.0" y1="-50.0" x2="115.45085" y2="-97.552826"/><line x1="115.45085" y1="-97.552826" x2="75.0" y2="-126.942088"/><line x1="75.0" y1="-126.942088" x2="50.0" y2="-100.0"/><line x1="50.0" y1="-50.0" x2="50.0" y2="-100.0"/></g><polygon style="fill:none;stroke:blue;stroke-width:2" points="0.0,0.0 0.0,-50.0 0.0,-100.0 50.0,-100.0 75.0,-126.942088 115.45085,-97.552826 100.0,-50.0 100.0,0.0 50.0,0.0"/><g style="fill:#4a4a4a;text-anchor:middle;font-family:Arial,Helvetica,sans-serif"><title>Node labels</title><desc>Each node showing its value</desc><text style="fill:red" x="50.0" y="-50.0">5</text><text x="0.0" y="0.0">1</text><text x="100.0" y="-50.0">6</text><text x="50.0" y="-100.0">9</text><text x="50.0" y="0.0">2</text><text x="115.45085" y="-97.552826">7</text><text x="100.0" y="0.0">3</text><text x="75.0" y="-126.942088">8</text><text x="0.0" y="-50.0">4</text><text x="0.0" y="-100.0">10</text></g></g><metadata><rdf:RDF><cc:Work><dc:source rdf:resource="https://github.com/scala-tessella/tessella">Tessella</dc:source><cc:license rdf:resource="https://www.apache.org/licenses/LICENSE-2.0"/></cc:Work></rdf:RDF></metadata></svg>
