<?xml version='1.0' encoding='UTF-8'?>
<svg xmlns:rdf="http://www.w3.org/1999/02/22-rdf-syntax-ns#" xmlns:cc="http://creativecommons.org/ns#" xmlns:dc="http://purl.org/dc/elements/1.1/" viewBox="-50.0 -25.0 375.0 526.313972" xmlns="http://www.w3.org/2000/svg"><g><title>Tiling</title><desc>Finite tessellation of regular polygons</desc><g style="stroke:black"><title>Edges</title><desc>Sides of the regular polygons</desc><line x1="-25.0" y1="43.30127" x2="0.0" y2="86.60254"/><line x1="-25.0" y1="129.903811" x2="0.0" y2="173.205081"/><line x1="-25.0" y1="216.506351" x2="0.0" y2="259.807621"/><line x1="-25.0" y1="303.108891" x2="0.0" y2="346.410162"/><line x1="0.0" y1="0.0" x2="50.0" y2="0.0"/><line x1="0.0" y1="86.60254" x2="50.0" y2="86.60254"/><line x1="0.0" y1="173.205081" x2="50.0" y2="173.205081"/><line x1="0.0" y1="259.807621" x2="50.0" y2="259.807621"/><line x1="0.0" y1="346.410162" x2="50.0" y2="346.410162"/><line x1="50.0" y1="0.0" x2="75.0" y2="43.30127"/><line x1="50.0" y1="86.60254" x2="75.0" y2="129.903811"/><line x1="50.0" y1="173.205081" x2="75.0" y2="216.506351"/><line x1="50.0" y1="259.807621" x2="75.0" y2="303.108891"/><line x1="50.0" y1="346.410162" x2="75.0" y2="389.711432"/><line x1="75.0" y1="43.30127" x2="125.0" y2="43.30127"/><line x1="75.0" y1="129.903811" x2="125.0" y2="129.903811"/><line x1="75.0" y1="216.506351" x2="125.0" y2="216.506351"/><line x1="75.0" y1="303.108891" x2="125.0" y2="303.108891"/><line x1="75.0" y1="389.711432" x2="125.0" y2="389.711432"/><line x1="125.0" y1="43.30127" x2="150.0" y2="86.60254"/><line x1="125.0" y1="129.903811" x2="150.0" y2="173.205081"/><line x1="125.0" y1="216.506351" x2="150.0" y2="259.807621"/><line x1="125.0" y1="303.108891" x2="150.0" y2="346.410162"/><line x1="125.0" y1="389.711432" x2="150.0" y2="433.012702"/><line x1="150.0" y1="86.60254" x2="200.0" y2="86.60254"/><line x1="150.0" y1="173.205081" x2="200.0" y2="173.205081"/><line x1="150.0" y1="259.807621" x2="200.0" y2="259.807621"/><line x1="150.0" y1="346.410162" x2="200.0" y2="346.410162"/><line x1="150.0" y1="433.012702" x2="200.0" y2="433.012702"/><line x1="200.0" y1="86.60254" x2="225.0" y2="129.903811"/><line x1="200.0" y1="173.205081" x2="225.0" y2="216.506351"/><line x1="200.0" y1="259.807621" x2="225.0" y2="303.108891"/><line x1="200.0" y1="346.410162" x2="225.0" y2="389.711432"/><line x1="200.0" y1="433.012702" x2="225.0" y2="476.313972"/><line x1="225.0" y1="129.903811" x2="275.0" y2="129.903811"/><line x1="225.0" y1="216.506351" x2="275.0" y2="216.506351"/><line x1="225.0" y1="303.108891" x2="275.0" y2="303.108891"/><line x1="225.0" y1="389.711432" x2="275.0" y2="389.711432"/><line x1="225.0" y1="476.313972" x2="275.0" y2="476.313972"/><line x1="275.0" y1="129.903811" x2="300.0" y2="173.205081"/><line x1="275.0" y1="216.506351" x2="300.0" y2="259.807621"/><line x1="275.0" y1="303.108891" x2="300.0" y2="346.410162"/><line x1="275.0" y1="389.711432" x2="300.0" y2="433.012702"/><line x1="0.0" y1="0.0" x2="-25.0" y2="43.30127"/><line x1="0.0" y1="86.60254" x2="-25.0" y2="129.903811"/><line x1="0.0" y1="173.205081" x2="-25.0" y2="216.506351"/><line x1="0.0" y1="259.807621" x2="-25.0" y2="303.108891"/><line x1="75.0" y1="43.30127" x2="50.0" y2="86.60254"/><line x1="75.0" y1="129.903811" x2="50.0" y2="173.205081"/><line x1="75.0" y1="216.506351" x2="50.0" y2="259.807621"/><line x1="75.0" y1="303.108891" x2="50.0" y2="346.410162"/><line x1="150.0" y1="86.60254" x2="125.0" y2="129.903811"/><line x1="150.0" y1="173.205081" x2="125.0" y2="216.506351"/><line x1="150.0" y1="259.807621" x2="125.0" y2="303.108891"/><line x1="150.0" y1="346.410162" x2="125.0" y2="389.711432"/><line x1="225.0" y1="129.903811" x2="200.0" y2="173.205081"/><line x1="225.0" y1="216.506351" x2="200.0" y2="259.807621"/><line x1="225.0" y1="303.108891" x2="200.0" y2="346.410162"/><line x1="225.0" y1="389.711432" x2="200.0" y2="433.012702"/><line x1="300.0" y1="173.205081" x2="275.0" y2="216.506351"/><line x1="300.0" y1="259.807621" x2="275.0" y2="303.108891"/><line x1="300.0" y1="346.410162" x2="275.0" y2="389.711432"/><line x1="300.0" y1="433.012702" x2="275.0" y2="476.313972"/><line x1="0.0" y1="0.0" x2="25.0" y2="43.30127"/><line x1="50.0" y1="0.0" x2="25.0" y2="43.30127"/><line x1="75.0" y1="43.30127" x2="25.0" y2="43.30127"/><line x1="-25.0" y1="43.30127" x2="25.0" y2="43.30127"/><line x1="0.0" y1="86.60254" x2="25.0" y2="43.30127"/><line x1="50.0" y1="86.60254" x2="25.0" y2="43.30127"/><line x1="0.0" y1="86.60254" x2="25.0" y2="129.903811"/><line x1="50.0" y1="86.60254" x2="25.0" y2="129.903811"/><line x1="75.0" y1="129.903811" x2="25.0" y2="129.903811"/><line x1="-25.0" y1="129.903811" x2="25.0" y2="129.903811"/><line x1="0.0" y1="173.205081" x2="25.0" y2="129.903811"/><line x1="50.0" y1="173.205081" x2="25.0" y2="129.903811"/><line x1="0.0" y1="173.205081" x2="25.0" y2="216.506351"/><line x1="50.0" y1="173.205081" x2="25.0" y2="216.506351"/><line x1="75.0" y1="216.506351" x2="25.0" y2="216.506351"/><line x1="-25.0" y1="216.506351" x2="25.0" y2="216.506351"/><line x1="0.0" y1="259.807621" x2="25.0" y2="216.506351"/><line x1="50.0" y1="259.807621" x2="25.0" y2="216.506351"/><line x1="0.0" y1="259.807621" x2="25.0" y2="303.108891"/><line x1="50.0" y1="259.807621" x2="25.0" y2="303.108891"/><line x1="75.0" y1="303.108891" x2="25.0" y2="303.108891"/><line x1="-25.0" y1="303.108891" x2="25.0" y2="303.108891"/><line x1="0.0" y1="346.410162" x2="25.0" y2="303.108891"/><line x1="50.0" y1="346.410162" x2="25.0" y2="303.108891"/><line x1="75.0" y1="43.30127" x2="100.0" y2="86.60254"/><line x1="125.0" y1="43.30127" x2="100.0" y2="86.60254"/><line x1="150.0" y1="86.60254" x2="100.0" y2="86.60254"/><line x1="50.0" y1="86.60254" x2="100.0" y2="86.60254"/><line x1="75.0" y1="129.903811" x2="100.0" y2="86.60254"/><line x1="125.0" y1="129.903811" x2="100.0" y2="86.60254"/><line x1="75.0" y1="216.506351" x2="100.0" y2="259.807621"/><line x1="125.0" y1="216.506351" x2="100.0" y2="259.807621"/><line x1="150.0" y1="259.807621" x2="100.0" y2="259.807621"/><line x1="50.0" y1="259.807621" x2="100.0" y2="259.807621"/><line x1="75.0" y1="303.108891" x2="100.0" y2="259.807621"/><line x1="125.0" y1="303.108891" x2="100.0" y2="259.807621"/><line x1="150.0" y1="86.60254" x2="175.0" y2="129.903811"/><line x1="200.0" y1="86.60254" x2="175.0" y2="129.903811"/><line x1="225.0" y1="129.903811" x2="175.0" y2="129.903811"/><line x1="125.0" y1="129.903811" x2="175.0" y2="129.903811"/><line x1="150.0" y1="173.205081" x2="175.0" y2="129.903811"/><line x1="200.0" y1="173.205081" x2="175.0" y2="129.903811"/><line x1="150.0" y1="173.205081" x2="175.0" y2="216.506351"/><line x1="200.0" y1="173.205081" x2="175.0" y2="216.506351"/><line x1="225.0" y1="216.506351" x2="175.0" y2="216.506351"/><line x1="125.0" y1="216.506351" x2="175.0" y2="216.506351"/><line x1="150.0" y1="259.807621" x2="175.0" y2="216.506351"/><line x1="200.0" y1="259.807621" x2="175.0" y2="216.506351"/><line x1="150.0" y1="259.807621" x2="175.0" y2="303.108891"/><line x1="200.0" y1="259.807621" x2="175.0" y2="303.108891"/><line x1="225.0" y1="303.108891" x2="175.0" y2="303.108891"/><line x1="125.0" y1="303.108891" x2="175.0" y2="303.108891"/><line x1="150.0" y1="346.410162" x2="175.0" y2="303.108891"/><line x1="200.0" y1="346.410162" x2="175.0" y2="303.108891"/><line x1="150.0" y1="346.410162" x2="175.0" y2="389.711432"/><line x1="200.0" y1="346.410162" x2="175.0" y2="389.711432"/><line x1="225.0" y1="389.711432" x2="175.0" y2="389.711432"/><line x1="125.0" y1="389.711432" x2="175.0" y2="389.711432"/><line x1="150.0" y1="433.012702" x2="175.0" y2="389.711432"/><line x1="200.0" y1="433.012702" x2="175.0" y2="389.711432"/><line x1="225.0" y1="129.903811" x2="250.0" y2="173.205081"/><line x1="275.0" y1="129.903811" x2="250.0" y2="173.205081"/><line x1="300.0" y1="173.205081" x2="250.0" y2="173.205081"/><line x1="200.0" y1="173.205081" x2="250.0" y2="173.205081"/><line x1="225.0" y1="216.506351" x2="250.0" y2="173.205081"/><line x1="275.0" y1="216.506351" x2="250.0" y2="173.205081"/><line x1="225.0" y1="303.108891" x2="250.0" y2="346.410162"/><line x1="275.0" y1="303.108891" x2="250.0" y2="346.410162"/><line x1="300.0" y1="346.410162" x2="250.0" y2="346.410162"/><line x1="200.0" y1="346.410162" x2="250.0" y2="346.410162"/><line x1="225.0" y1="389.711432" x2="250.0" y2="346.410162"/><line x1="275.0" y1="389.711432" x2="250.0" y2="346.410162"/></g><g style="stroke:none"><title>Polygons</title><desc>Regular polygons</desc><g style="fill:grey"><title>Regular 6-gons</title><desc>Regular polygons with 6 sides</desc><polygon points="50.0,346.410162 75.0,389.711432 125.0,389.711432 150.0,346.410162 125.0,303.108891 75.0,303.108891"/><polygon points="225.0,476.313972 275.0,476.313972 300.0,433.012702 275.0,389.711432 225.0,389.711432 200.0,433.012702"/><polygon points="275.0,303.108891 300.0,259.807621 275.0,216.506351 225.0,216.506351 200.0,259.807621 225.0,303.108891"/><polygon points="125.0,129.903811 150.0,173.205081 125.0,216.506351 75.0,216.506351 50.0,173.205081 75.0,129.903811"/></g><g style="fill:yellow"><title>Regular 3-gons</title><desc>Regular polygons with 3 sides</desc><polygon points="150.0,86.60254 125.0,43.30127 100.0,86.60254"/><polygon points="150.0,86.60254 100.0,86.60254 125.0,129.903811"/><polygon points="150.0,86.60254 125.0,129.903811 175.0,129.903811"/><polygon points="150.0,86.60254 175.0,129.903811 200.0,86.60254"/><polygon points="-25.0,43.30127 0.0,86.60254 25.0,43.30127"/><polygon points="-25.0,43.30127 25.0,43.30127 0.0,0.0"/><polygon points="50.0,346.410162 75.0,303.108891 25.0,303.108891"/><polygon points="50.0,346.410162 25.0,303.108891 0.0,346.410162"/><polygon points="0.0,0.0 25.0,43.30127 50.0,0.0"/><polygon points="200.0,86.60254 175.0,129.903811 225.0,129.903811"/><polygon points="300.0,173.205081 275.0,129.903811 250.0,173.205081"/><polygon points="300.0,173.205081 250.0,173.205081 275.0,216.506351"/><polygon points="0.0,346.410162 25.0,303.108891 -25.0,303.108891"/><polygon points="50.0,0.0 25.0,43.30127 75.0,43.30127"/><polygon points="150.0,433.012702 200.0,433.012702 175.0,389.711432"/><polygon points="150.0,433.012702 175.0,389.711432 125.0,389.711432"/><polygon points="125.0,389.711432 175.0,389.711432 150.0,346.410162"/><polygon points="75.0,43.30127 25.0,43.30127 50.0,86.60254"/><polygon points="75.0,43.30127 50.0,86.60254 100.0,86.60254"/><polygon points="75.0,43.30127 100.0,86.60254 125.0,43.30127"/><polygon points="0.0,259.807621 -25.0,303.108891 25.0,303.108891"/><polygon points="0.0,259.807621 25.0,303.108891 50.0,259.807621"/><polygon points="0.0,259.807621 50.0,259.807621 25.0,216.506351"/><polygon points="0.0,259.807621 25.0,216.506351 -25.0,216.506351"/><polygon points="275.0,129.903811 225.0,129.903811 250.0,173.205081"/><polygon points="-25.0,129.903811 0.0,173.205081 25.0,129.903811"/><polygon points="-25.0,129.903811 25.0,129.903811 0.0,86.60254"/><polygon points="200.0,433.012702 225.0,389.711432 175.0,389.711432"/><polygon points="300.0,346.410162 275.0,303.108891 250.0,346.410162"/><polygon points="300.0,346.410162 250.0,346.410162 275.0,389.711432"/><polygon points="0.0,173.205081 -25.0,216.506351 25.0,216.506351"/><polygon points="0.0,173.205081 25.0,216.506351 50.0,173.205081"/><polygon points="0.0,173.205081 50.0,173.205081 25.0,129.903811"/><polygon points="275.0,303.108891 225.0,303.108891 250.0,346.410162"/><polygon points="275.0,389.711432 250.0,346.410162 225.0,389.711432"/><polygon points="225.0,129.903811 175.0,129.903811 200.0,173.205081"/><polygon points="225.0,129.903811 200.0,173.205081 250.0,173.205081"/><polygon points="275.0,216.506351 250.0,173.205081 225.0,216.506351"/><polygon points="0.0,86.60254 25.0,129.903811 50.0,86.60254"/><polygon points="0.0,86.60254 50.0,86.60254 25.0,43.30127"/><polygon points="225.0,389.711432 175.0,389.711432 200.0,346.410162"/><polygon points="225.0,389.711432 200.0,346.410162 250.0,346.410162"/><polygon points="250.0,346.410162 200.0,346.410162 225.0,303.108891"/><polygon points="75.0,303.108891 25.0,303.108891 50.0,259.807621"/><polygon points="75.0,303.108891 50.0,259.807621 100.0,259.807621"/><polygon points="75.0,303.108891 100.0,259.807621 125.0,303.108891"/><polygon points="100.0,86.60254 125.0,129.903811 75.0,129.903811"/><polygon points="100.0,86.60254 75.0,129.903811 50.0,86.60254"/><polygon points="50.0,86.60254 75.0,129.903811 25.0,129.903811"/><polygon points="150.0,346.410162 125.0,303.108891 175.0,303.108891"/><polygon points="150.0,346.410162 175.0,303.108891 200.0,346.410162"/><polygon points="150.0,346.410162 200.0,346.410162 175.0,389.711432"/><polygon points="25.0,216.506351 50.0,173.205081 75.0,216.506351"/><polygon points="25.0,216.506351 75.0,216.506351 50.0,259.807621"/><polygon points="125.0,129.903811 175.0,129.903811 150.0,173.205081"/><polygon points="225.0,216.506351 200.0,259.807621 175.0,216.506351"/><polygon points="225.0,216.506351 175.0,216.506351 200.0,173.205081"/><polygon points="225.0,216.506351 200.0,173.205081 250.0,173.205081"/><polygon points="50.0,259.807621 75.0,216.506351 100.0,259.807621"/><polygon points="125.0,303.108891 100.0,259.807621 150.0,259.807621"/><polygon points="125.0,303.108891 150.0,259.807621 175.0,303.108891"/><polygon points="50.0,173.205081 25.0,129.903811 75.0,129.903811"/><polygon points="225.0,303.108891 200.0,346.410162 175.0,303.108891"/><polygon points="225.0,303.108891 175.0,303.108891 200.0,259.807621"/><polygon points="200.0,173.205081 175.0,216.506351 150.0,173.205081"/><polygon points="200.0,173.205081 150.0,173.205081 175.0,129.903811"/><polygon points="200.0,259.807621 175.0,303.108891 150.0,259.807621"/><polygon points="200.0,259.807621 150.0,259.807621 175.0,216.506351"/><polygon points="175.0,216.506351 150.0,259.807621 125.0,216.506351"/><polygon points="175.0,216.506351 125.0,216.506351 150.0,173.205081"/><polygon points="100.0,259.807621 75.0,216.506351 125.0,216.506351"/><polygon points="100.0,259.807621 125.0,216.506351 150.0,259.807621"/></g></g></g><metadata><rdf:RDF><cc:Work><dc:source rdf:resource="https://github.com/scala-tessella/tessella">Tessella</dc:source><cc:license rdf:resource="https://www.apache.org/licenses/LICENSE-2.0"/></cc:Work></rdf:RDF></metadata></svg>
