<?xml version='1.0' encoding='UTF-8'?>
<svg xmlns:rdf="http://www.w3.org/1999/02/22-rdf-syntax-ns#" xmlns:cc="http://creativecommons.org/ns#" xmlns:dc="http://purl.org/dc/elements/1.1/" viewBox="-316.421356 -316.421356 682.842712 682.842712" xmlns="http://www.w3.org/2000/svg"><g><title>Tiling</title><desc>Finite tessellation of regular polygons</desc><g style="stroke:black"><title>Edges</title><desc>Sides of the regular polygons</desc><line x1="0.0" y1="0.0" x2="50.0" y2="0.0"/><line x1="50.0" y1="0.0" x2="50.0" y2="50.0"/><line x1="50.0" y1="50.0" x2="0.0" y2="50.0"/><line x1="0.0" y1="0.0" x2="0.0" y2="50.0"/><line x1="50.0" y1="0.0" x2="85.355339" y2="-35.355339"/><line x1="85.355339" y1="-35.355339" x2="85.355339" y2="-85.355339"/><line x1="85.355339" y1="-85.355339" x2="50.0" y2="-120.710678"/><line x1="50.0" y1="-120.710678" x2="0.0" y2="-120.710678"/><line x1="0.0" y1="-120.710678" x2="-35.355339" y2="-85.355339"/><line x1="-35.355339" y1="-85.355339" x2="-35.355339" y2="-35.355339"/><line x1="0.0" y1="0.0" x2="-35.355339" y2="-35.355339"/><line x1="0.0" y1="50.0" x2="-35.355339" y2="85.355339"/><line x1="-35.355339" y1="85.355339" x2="-85.355339" y2="85.355339"/><line x1="-85.355339" y1="85.355339" x2="-120.710678" y2="50.0"/><line x1="-120.710678" y1="50.0" x2="-120.710678" y2="0.0"/><line x1="-120.710678" y1="0.0" x2="-85.355339" y2="-35.355339"/><line x1="-35.355339" y1="-35.355339" x2="-85.355339" y2="-35.355339"/><line x1="-35.355339" y1="-85.355339" x2="-85.355339" y2="-85.355339"/><line x1="-85.355339" y1="-35.355339" x2="-85.355339" y2="-85.355339"/><line x1="50.0" y1="50.0" x2="85.355339" y2="85.355339"/><line x1="85.355339" y1="85.355339" x2="135.355339" y2="85.355339"/><line x1="135.355339" y1="85.355339" x2="170.710678" y2="50.0"/><line x1="170.710678" y1="50.0" x2="170.710678" y2="0.0"/><line x1="170.710678" y1="0.0" x2="135.355339" y2="-35.355339"/><line x1="85.355339" y1="-35.355339" x2="135.355339" y2="-35.355339"/><line x1="135.355339" y1="-35.355339" x2="135.355339" y2="-85.355339"/><line x1="85.355339" y1="-85.355339" x2="135.355339" y2="-85.355339"/><line x1="-35.355339" y1="85.355339" x2="-35.355339" y2="135.355339"/><line x1="-35.355339" y1="135.355339" x2="0.0" y2="170.710678"/><line x1="0.0" y1="170.710678" x2="50.0" y2="170.710678"/><line x1="50.0" y1="170.710678" x2="85.355339" y2="135.355339"/><line x1="85.355339" y1="85.355339" x2="85.355339" y2="135.355339"/><line x1="-35.355339" y1="135.355339" x2="-85.355339" y2="135.355339"/><line x1="-85.355339" y1="85.355339" x2="-85.355339" y2="135.355339"/><line x1="135.355339" y1="85.355339" x2="135.355339" y2="135.355339"/><line x1="85.355339" y1="135.355339" x2="135.355339" y2="135.355339"/><line x1="50.0" y1="-120.710678" x2="50.0" y2="-170.710678"/><line x1="50.0" y1="-170.710678" x2="85.355339" y2="-206.066017"/><line x1="85.355339" y1="-206.066017" x2="135.355339" y2="-206.066017"/><line x1="135.355339" y1="-206.066017" x2="170.710678" y2="-170.710678"/><line x1="170.710678" y1="-170.710678" x2="170.710678" y2="-120.710678"/><line x1="135.355339" y1="-85.355339" x2="170.710678" y2="-120.710678"/><line x1="0.0" y1="-120.710678" x2="0.0" y2="-170.710678"/><line x1="50.0" y1="-170.710678" x2="0.0" y2="-170.710678"/><line x1="-85.355339" y1="-85.355339" x2="-120.710678" y2="-120.710678"/><line x1="-120.710678" y1="-120.710678" x2="-120.710678" y2="-170.710678"/><line x1="-120.710678" y1="-170.710678" x2="-85.355339" y2="-206.066017"/><line x1="-85.355339" y1="-206.066017" x2="-35.355339" y2="-206.066017"/><line x1="0.0" y1="-170.710678" x2="-35.355339" y2="-206.066017"/><line x1="-120.710678" y1="50.0" x2="-170.710678" y2="50.0"/><line x1="-170.710678" y1="50.0" x2="-206.066017" y2="85.355339"/><line x1="-206.066017" y1="85.355339" x2="-206.066017" y2="135.355339"/><line x1="-206.066017" y1="135.355339" x2="-170.710678" y2="170.710678"/><line x1="-170.710678" y1="170.710678" x2="-120.710678" y2="170.710678"/><line x1="-85.355339" y1="135.355339" x2="-120.710678" y2="170.710678"/><line x1="-120.710678" y1="0.0" x2="-170.710678" y2="0.0"/><line x1="-170.710678" y1="50.0" x2="-170.710678" y2="0.0"/><line x1="-120.710678" y1="-120.710678" x2="-170.710678" y2="-120.710678"/><line x1="-170.710678" y1="-120.710678" x2="-206.066017" y2="-85.355339"/><line x1="-206.066017" y1="-85.355339" x2="-206.066017" y2="-35.355339"/><line x1="-170.710678" y1="0.0" x2="-206.066017" y2="-35.355339"/><line x1="-170.710678" y1="-120.710678" x2="-170.710678" y2="-170.710678"/><line x1="-120.710678" y1="-170.710678" x2="-170.710678" y2="-170.710678"/><line x1="170.710678" y1="50.0" x2="220.710678" y2="50.0"/><line x1="220.710678" y1="50.0" x2="256.066017" y2="85.355339"/><line x1="256.066017" y1="85.355339" x2="256.066017" y2="135.355339"/><line x1="256.066017" y1="135.355339" x2="220.710678" y2="170.710678"/><line x1="220.710678" y1="170.710678" x2="170.710678" y2="170.710678"/><line x1="135.355339" y1="135.355339" x2="170.710678" y2="170.710678"/><line x1="170.710678" y1="0.0" x2="220.710678" y2="0.0"/><line x1="220.710678" y1="50.0" x2="220.710678" y2="0.0"/><line x1="170.710678" y1="-120.710678" x2="220.710678" y2="-120.710678"/><line x1="220.710678" y1="-120.710678" x2="256.066017" y2="-85.355339"/><line x1="256.066017" y1="-85.355339" x2="256.066017" y2="-35.355339"/><line x1="220.710678" y1="0.0" x2="256.066017" y2="-35.355339"/><line x1="170.710678" y1="-170.710678" x2="220.710678" y2="-170.710678"/><line x1="220.710678" y1="-120.710678" x2="220.710678" y2="-170.710678"/><line x1="0.0" y1="170.710678" x2="0.0" y2="220.710678"/><line x1="0.0" y1="220.710678" x2="-35.355339" y2="256.066017"/><line x1="-35.355339" y1="256.066017" x2="-85.355339" y2="256.066017"/><line x1="-85.355339" y1="256.066017" x2="-120.710678" y2="220.710678"/><line x1="-120.710678" y1="170.710678" x2="-120.710678" y2="220.710678"/><line x1="50.0" y1="170.710678" x2="50.0" y2="220.710678"/><line x1="0.0" y1="220.710678" x2="50.0" y2="220.710678"/><line x1="-120.710678" y1="220.710678" x2="-170.710678" y2="220.710678"/><line x1="-170.710678" y1="170.710678" x2="-170.710678" y2="220.710678"/><line x1="170.710678" y1="170.710678" x2="170.710678" y2="220.710678"/><line x1="170.710678" y1="220.710678" x2="135.355339" y2="256.066017"/><line x1="135.355339" y1="256.066017" x2="85.355339" y2="256.066017"/><line x1="50.0" y1="220.710678" x2="85.355339" y2="256.066017"/><line x1="170.710678" y1="220.710678" x2="220.710678" y2="220.710678"/><line x1="220.710678" y1="170.710678" x2="220.710678" y2="220.710678"/><line x1="85.355339" y1="-206.066017" x2="85.355339" y2="-256.066017"/><line x1="85.355339" y1="-256.066017" x2="50.0" y2="-291.421356"/><line x1="50.0" y1="-291.421356" x2="0.0" y2="-291.421356"/><line x1="0.0" y1="-291.421356" x2="-35.355339" y2="-256.066017"/><line x1="-35.355339" y1="-206.066017" x2="-35.355339" y2="-256.066017"/><line x1="135.355339" y1="-206.066017" x2="135.355339" y2="-256.066017"/><line x1="85.355339" y1="-256.066017" x2="135.355339" y2="-256.066017"/><line x1="-35.355339" y1="-256.066017" x2="-85.355339" y2="-256.066017"/><line x1="-85.355339" y1="-206.066017" x2="-85.355339" y2="-256.066017"/><line x1="220.710678" y1="-170.710678" x2="256.066017" y2="-206.066017"/><line x1="256.066017" y1="-206.066017" x2="256.066017" y2="-256.066017"/><line x1="256.066017" y1="-256.066017" x2="220.710678" y2="-291.421356"/><line x1="220.710678" y1="-291.421356" x2="170.710678" y2="-291.421356"/><line x1="135.355339" y1="-256.066017" x2="170.710678" y2="-291.421356"/><line x1="-85.355339" y1="-256.066017" x2="-120.710678" y2="-291.421356"/><line x1="-120.710678" y1="-291.421356" x2="-170.710678" y2="-291.421356"/><line x1="-170.710678" y1="-291.421356" x2="-206.066017" y2="-256.066017"/><line x1="-206.066017" y1="-256.066017" x2="-206.066017" y2="-206.066017"/><line x1="-170.710678" y1="-170.710678" x2="-206.066017" y2="-206.066017"/><line x1="-206.066017" y1="85.355339" x2="-256.066017" y2="85.355339"/><line x1="-256.066017" y1="85.355339" x2="-291.421356" y2="50.0"/><line x1="-291.421356" y1="50.0" x2="-291.421356" y2="0.0"/><line x1="-291.421356" y1="0.0" x2="-256.066017" y2="-35.355339"/><line x1="-206.066017" y1="-35.355339" x2="-256.066017" y2="-35.355339"/><line x1="-206.066017" y1="135.355339" x2="-256.066017" y2="135.355339"/><line x1="-256.066017" y1="85.355339" x2="-256.066017" y2="135.355339"/><line x1="-256.066017" y1="-35.355339" x2="-256.066017" y2="-85.355339"/><line x1="-206.066017" y1="-85.355339" x2="-256.066017" y2="-85.355339"/><line x1="-170.710678" y1="220.710678" x2="-206.066017" y2="256.066017"/><line x1="-206.066017" y1="256.066017" x2="-256.066017" y2="256.066017"/><line x1="-256.066017" y1="256.066017" x2="-291.421356" y2="220.710678"/><line x1="-291.421356" y1="220.710678" x2="-291.421356" y2="170.710678"/><line x1="-256.066017" y1="135.355339" x2="-291.421356" y2="170.710678"/><line x1="-256.066017" y1="-85.355339" x2="-291.421356" y2="-120.710678"/><line x1="-291.421356" y1="-120.710678" x2="-291.421356" y2="-170.710678"/><line x1="-291.421356" y1="-170.710678" x2="-256.066017" y2="-206.066017"/><line x1="-206.066017" y1="-206.066017" x2="-256.066017" y2="-206.066017"/><line x1="-206.066017" y1="-256.066017" x2="-256.066017" y2="-256.066017"/><line x1="-256.066017" y1="-206.066017" x2="-256.066017" y2="-256.066017"/><line x1="256.066017" y1="85.355339" x2="306.066017" y2="85.355339"/><line x1="306.066017" y1="85.355339" x2="341.421356" y2="50.0"/><line x1="341.421356" y1="50.0" x2="341.421356" y2="0.0"/><line x1="341.421356" y1="0.0" x2="306.066017" y2="-35.355339"/><line x1="256.066017" y1="-35.355339" x2="306.066017" y2="-35.355339"/><line x1="256.066017" y1="135.355339" x2="306.066017" y2="135.355339"/><line x1="306.066017" y1="85.355339" x2="306.066017" y2="135.355339"/><line x1="306.066017" y1="-35.355339" x2="306.066017" y2="-85.355339"/><line x1="256.066017" y1="-85.355339" x2="306.066017" y2="-85.355339"/><line x1="220.710678" y1="220.710678" x2="256.066017" y2="256.066017"/><line x1="256.066017" y1="256.066017" x2="306.066017" y2="256.066017"/><line x1="306.066017" y1="256.066017" x2="341.421356" y2="220.710678"/><line x1="341.421356" y1="220.710678" x2="341.421356" y2="170.710678"/><line x1="306.066017" y1="135.355339" x2="341.421356" y2="170.710678"/><line x1="306.066017" y1="-85.355339" x2="341.421356" y2="-120.710678"/><line x1="341.421356" y1="-120.710678" x2="341.421356" y2="-170.710678"/><line x1="341.421356" y1="-170.710678" x2="306.066017" y2="-206.066017"/><line x1="256.066017" y1="-206.066017" x2="306.066017" y2="-206.066017"/><line x1="306.066017" y1="-206.066017" x2="306.066017" y2="-256.066017"/><line x1="256.066017" y1="-256.066017" x2="306.066017" y2="-256.066017"/><line x1="-35.355339" y1="256.066017" x2="-35.355339" y2="306.066017"/><line x1="-35.355339" y1="306.066017" x2="0.0" y2="341.421356"/><line x1="0.0" y1="341.421356" x2="50.0" y2="341.421356"/><line x1="50.0" y1="341.421356" x2="85.355339" y2="306.066017"/><line x1="85.355339" y1="256.066017" x2="85.355339" y2="306.066017"/><line x1="-85.355339" y1="256.066017" x2="-85.355339" y2="306.066017"/><line x1="-35.355339" y1="306.066017" x2="-85.355339" y2="306.066017"/><line x1="85.355339" y1="306.066017" x2="135.355339" y2="306.066017"/><line x1="135.355339" y1="256.066017" x2="135.355339" y2="306.066017"/><line x1="-206.066017" y1="256.066017" x2="-206.066017" y2="306.066017"/><line x1="-206.066017" y1="306.066017" x2="-170.710678" y2="341.421356"/><line x1="-170.710678" y1="341.421356" x2="-120.710678" y2="341.421356"/><line x1="-85.355339" y1="306.066017" x2="-120.710678" y2="341.421356"/><line x1="-256.066017" y1="256.066017" x2="-256.066017" y2="306.066017"/><line x1="-206.066017" y1="306.066017" x2="-256.066017" y2="306.066017"/><line x1="135.355339" y1="306.066017" x2="170.710678" y2="341.421356"/><line x1="170.710678" y1="341.421356" x2="220.710678" y2="341.421356"/><line x1="220.710678" y1="341.421356" x2="256.066017" y2="306.066017"/><line x1="256.066017" y1="256.066017" x2="256.066017" y2="306.066017"/><line x1="306.066017" y1="256.066017" x2="306.066017" y2="306.066017"/><line x1="256.066017" y1="306.066017" x2="306.066017" y2="306.066017"/></g><g style="stroke:none"><title>Polygons</title><desc>Regular polygons</desc><g style="fill:coral"><title>Regular 8-gons</title><desc>Regular polygons with 8 sides</desc><polygon points="50.0,-291.421356 85.355339,-256.066017 85.355339,-206.066017 50.0,-170.710678 0.0,-170.710678 -35.355339,-206.066017 -35.355339,-256.066017 0.0,-291.421356"/><polygon points="-170.710678,341.421356 -206.066017,306.066017 -206.066017,256.066017 -170.710678,220.710678 -120.710678,220.710678 -85.355339,256.066017 -85.355339,306.066017 -120.710678,341.421356"/><polygon points="-170.710678,-291.421356 -120.710678,-291.421356 -85.355339,-256.066017 -85.355339,-206.066017 -120.710678,-170.710678 -170.710678,-170.710678 -206.066017,-206.066017 -206.066017,-256.066017"/><polygon points="-256.066017,-206.066017 -206.066017,-206.066017 -170.710678,-170.710678 -170.710678,-120.710678 -206.066017,-85.355339 -256.066017,-85.355339 -291.421356,-120.710678 -291.421356,-170.710678"/><polygon points="85.355339,306.066017 50.0,341.421356 0.0,341.421356 -35.355339,306.066017 -35.355339,256.066017 0.0,220.710678 50.0,220.710678 85.355339,256.066017"/><polygon points="306.066017,135.355339 341.421356,170.710678 341.421356,220.710678 306.066017,256.066017 256.066017,256.066017 220.710678,220.710678 220.710678,170.710678 256.066017,135.355339"/><polygon points="170.710678,-291.421356 220.710678,-291.421356 256.066017,-256.066017 256.066017,-206.066017 220.710678,-170.710678 170.710678,-170.710678 135.355339,-206.066017 135.355339,-256.066017"/><polygon points="170.710678,341.421356 135.355339,306.066017 135.355339,256.066017 170.710678,220.710678 220.710678,220.710678 256.066017,256.066017 256.066017,306.066017 220.710678,341.421356"/><polygon points="-291.421356,50.0 -291.421356,0.0 -256.066017,-35.355339 -206.066017,-35.355339 -170.710678,0.0 -170.710678,50.0 -206.066017,85.355339 -256.066017,85.355339"/><polygon points="306.066017,-85.355339 256.066017,-85.355339 220.710678,-120.710678 220.710678,-170.710678 256.066017,-206.066017 306.066017,-206.066017 341.421356,-170.710678 341.421356,-120.710678"/><polygon points="-291.421356,170.710678 -256.066017,135.355339 -206.066017,135.355339 -170.710678,170.710678 -170.710678,220.710678 -206.066017,256.066017 -256.066017,256.066017 -291.421356,220.710678"/><polygon points="306.066017,85.355339 256.066017,85.355339 220.710678,50.0 220.710678,0.0 256.066017,-35.355339 306.066017,-35.355339 341.421356,0.0 341.421356,50.0"/><polygon points="256.066017,-85.355339 220.710678,-120.710678 170.710678,-120.710678 135.355339,-85.355339 135.355339,-35.355339 170.710678,0.0 220.710678,0.0 256.066017,-35.355339"/><polygon points="220.710678,170.710678 256.066017,135.355339 256.066017,85.355339 220.710678,50.0 170.710678,50.0 135.355339,85.355339 135.355339,135.355339 170.710678,170.710678"/><polygon points="-85.355339,256.066017 -35.355339,256.066017 0.0,220.710678 0.0,170.710678 -35.355339,135.355339 -85.355339,135.355339 -120.710678,170.710678 -120.710678,220.710678"/><polygon points="-35.355339,-206.066017 -85.355339,-206.066017 -120.710678,-170.710678 -120.710678,-120.710678 -85.355339,-85.355339 -35.355339,-85.355339 0.0,-120.710678 0.0,-170.710678"/><polygon points="170.710678,220.710678 170.710678,170.710678 135.355339,135.355339 85.355339,135.355339 50.0,170.710678 50.0,220.710678 85.355339,256.066017 135.355339,256.066017"/><polygon points="-206.066017,135.355339 -170.710678,170.710678 -120.710678,170.710678 -85.355339,135.355339 -85.355339,85.355339 -120.710678,50.0 -170.710678,50.0 -206.066017,85.355339"/><polygon points="-206.066017,-85.355339 -206.066017,-35.355339 -170.710678,0.0 -120.710678,0.0 -85.355339,-35.355339 -85.355339,-85.355339 -120.710678,-120.710678 -170.710678,-120.710678"/><polygon points="50.0,-170.710678 50.0,-120.710678 85.355339,-85.355339 135.355339,-85.355339 170.710678,-120.710678 170.710678,-170.710678 135.355339,-206.066017 85.355339,-206.066017"/><polygon points="-120.710678,0.0 -85.355339,-35.355339 -35.355339,-35.355339 0.0,0.0 0.0,50.0 -35.355339,85.355339 -85.355339,85.355339 -120.710678,50.0"/><polygon points="170.710678,0.0 170.710678,50.0 135.355339,85.355339 85.355339,85.355339 50.0,50.0 50.0,0.0 85.355339,-35.355339 135.355339,-35.355339"/><polygon points="85.355339,-85.355339 85.355339,-35.355339 50.0,0.0 0.0,0.0 -35.355339,-35.355339 -35.355339,-85.355339 0.0,-120.710678 50.0,-120.710678"/><polygon points="0.0,170.710678 -35.355339,135.355339 -35.355339,85.355339 0.0,50.0 50.0,50.0 85.355339,85.355339 85.355339,135.355339 50.0,170.710678"/></g><g style="fill:goldenrod"><title>Regular 4-gons</title><desc>Regular polygons with 4 sides</desc><polygon points="306.066017,-256.066017 306.066017,-206.066017 256.066017,-206.066017 256.066017,-256.066017"/><polygon points="-256.066017,-206.066017 -256.066017,-256.066017 -206.066017,-256.066017 -206.066017,-206.066017"/><polygon points="-35.355339,-256.066017 -35.355339,-206.066017 -85.355339,-206.066017 -85.355339,-256.066017"/><polygon points="85.355339,306.066017 85.355339,256.066017 135.355339,256.066017 135.355339,306.066017"/><polygon points="85.355339,-256.066017 135.355339,-256.066017 135.355339,-206.066017 85.355339,-206.066017"/><polygon points="306.066017,135.355339 256.066017,135.355339 256.066017,85.355339 306.066017,85.355339"/><polygon points="-256.066017,-85.355339 -206.066017,-85.355339 -206.066017,-35.355339 -256.066017,-35.355339"/><polygon points="-85.355339,306.066017 -85.355339,256.066017 -35.355339,256.066017 -35.355339,306.066017"/><polygon points="-256.066017,306.066017 -256.066017,256.066017 -206.066017,256.066017 -206.066017,306.066017"/><polygon points="306.066017,-85.355339 306.066017,-35.355339 256.066017,-35.355339 256.066017,-85.355339"/><polygon points="306.066017,306.066017 256.066017,306.066017 256.066017,256.066017 306.066017,256.066017"/><polygon points="-256.066017,135.355339 -256.066017,85.355339 -206.066017,85.355339 -206.066017,135.355339"/><polygon points="220.710678,170.710678 170.710678,170.710678 170.710678,220.710678 220.710678,220.710678"/><polygon points="-170.710678,50.0 -120.710678,50.0 -120.710678,0.0 -170.710678,0.0"/><polygon points="220.710678,-170.710678 170.710678,-170.710678 170.710678,-120.710678 220.710678,-120.710678"/><polygon points="-170.710678,170.710678 -170.710678,220.710678 -120.710678,220.710678 -120.710678,170.710678"/><polygon points="50.0,-170.710678 0.0,-170.710678 0.0,-120.710678 50.0,-120.710678"/><polygon points="-170.710678,-120.710678 -120.710678,-120.710678 -120.710678,-170.710678 -170.710678,-170.710678"/><polygon points="0.0,220.710678 50.0,220.710678 50.0,170.710678 0.0,170.710678"/><polygon points="220.710678,0.0 170.710678,0.0 170.710678,50.0 220.710678,50.0"/><polygon points="85.355339,-85.355339 135.355339,-85.355339 135.355339,-35.355339 85.355339,-35.355339"/><polygon points="-35.355339,-85.355339 -35.355339,-35.355339 -85.355339,-35.355339 -85.355339,-85.355339"/><polygon points="-85.355339,85.355339 -35.355339,85.355339 -35.355339,135.355339 -85.355339,135.355339"/><polygon points="135.355339,85.355339 135.355339,135.355339 85.355339,135.355339 85.355339,85.355339"/><polygon points="0.0,0.0 0.0,50.0 50.0,50.0 50.0,0.0"/></g></g><polygon style="fill:none;stroke:blue;stroke-width:2" points="85.355339,-256.066017 135.355339,-256.066017 170.710678,-291.421356 220.710678,-291.421356 256.066017,-256.066017 306.066017,-256.066017 306.066017,-206.066017 341.421356,-170.710678 341.421356,-120.710678 306.066017,-85.355339 306.066017,-35.355339 341.421356,0.0 341.421356,50.0 306.066017,85.355339 306.066017,135.355339 341.421356,170.710678 341.421356,220.710678 306.066017,256.066017 306.066017,306.066017 256.066017,306.066017 220.710678,341.421356 170.710678,341.421356 135.355339,306.066017 85.355339,306.066017 50.0,341.421356 0.0,341.421356 -35.355339,306.066017 -85.355339,306.066017 -120.710678,341.421356 -170.710678,341.421356 -206.066017,306.066017 -256.066017,306.066017 -256.066017,256.066017 -291.421356,220.710678 -291.421356,170.710678 -256.066017,135.355339 -256.066017,85.355339 -291.421356,50.0 -291.421356,0.0 -256.066017,-35.355339 -256.066017,-85.355339 -291.421356,-120.710678 -291.421356,-170.710678 -256.066017,-206.066017 -256.066017,-256.066017 -206.066017,-256.066017 -170.710678,-291.421356 -120.710678,-291.421356 -85.355339,-256.066017 -35.355339,-256.066017 0.0,-291.421356 50.0,-291.421356"/><g style="fill:#4a4a4a;text-anchor:middle;font-family:Arial,Helvetica,sans-serif"><title>Node labels</title><desc>Each node showing its value</desc><text x="85.355339" y="-256.066017">69</text><text x="306.066017" y="135.355339">101</text><text x="-256.066017" y="-85.355339">88</text><text x="-85.355339" y="306.066017">115</text><text x="85.355339" y="-35.355339">5</text><text x="-256.066017" y="306.066017">120</text><text x="-35.355339" y="-35.355339">10</text><text x="256.066017" y="-85.355339">56</text><text x="-170.710678" y="170.710678">42</text><text x="0.0" y="170.710678">24</text><text x="-85.355339" y="-206.066017">37</text><text x="50.0" y="170.710678">25</text><text x="220.710678" y="170.710678">52</text><text x="-120.710678" y="0.0">14</text><text x="306.066017" y="-256.066017">110</text><text x="170.710678" y="0.0">20</text><text x="-206.066017" y="-85.355339">46</text><text x="-291.421356" y="-120.710678">93</text><text x="256.066017" y="-35.355339">57</text><text x="170.710678" y="-291.421356">78</text><text x="50.0" y="-170.710678">29</text><text x="341.421356" y="170.710678">106</text><text x="170.710678" y="341.421356">121</text><text x="-291.421356" y="50.0">84</text><text x="-85.355339" y="256.066017">61</text><text x="-206.066017" y="256.066017">89</text><text x="135.355339" y="306.066017">116</text><text x="0.0" y="0.0">1</text><text x="-85.355339" y="-256.066017">74</text><text x="85.355339" y="-85.355339">6</text><text x="-291.421356" y="0.0">85</text><text x="306.066017" y="-85.355339">102</text><text x="-35.355339" y="256.066017">60</text><text x="-206.066017" y="306.066017">117</text><text x="50.0" y="-291.421356">70</text><text x="135.355339" y="-35.355339">21</text><text x="170.710678" y="-120.710678">33</text><text x="135.355339" y="135.355339">28</text><text x="-35.355339" y="-206.066017">38</text><text x="-291.421356" y="170.710678">92</text><text x="170.710678" y="220.710678">65</text><text x="306.066017" y="85.355339">97</text><text x="-35.355339" y="-85.355339">9</text><text x="170.710678" y="170.710678">53</text><text x="306.066017" y="-206.066017">109</text><text x="306.066017" y="306.066017">124</text><text x="220.710678" y="-291.421356">77</text><text x="-256.066017" y="-256.066017">96</text><text x="-120.710678" y="50.0">13</text><text x="-206.066017" y="135.355339">41</text><text x="135.355339" y="-256.066017">73</text><text x="341.421356" y="220.710678">105</text><text x="50.0" y="0.0">2</text><text x="-170.710678" y="-120.710678">45</text><text x="-170.710678" y="220.710678">64</text><text x="85.355339" y="85.355339">17</text><text x="170.710678" y="-170.710678">32</text><text x="0.0" y="-170.710678">34</text><text x="135.355339" y="-85.355339">22</text><text x="-170.710678" y="0.0">44</text><text x="-85.355339" y="135.355339">27</text><text x="0.0" y="220.710678">59</text><text x="-170.710678" y="341.421356">118</text><text x="0.0" y="-291.421356">71</text><text x="-85.355339" y="85.355339">12</text><text x="220.710678" y="0.0">54</text><text x="220.710678" y="50.0">49</text><text x="-256.066017" y="-35.355339">86</text><text x="50.0" y="341.421356">113</text><text x="-206.066017" y="-256.066017">81</text><text x="256.066017" y="-256.066017">76</text><text x="50.0" y="-120.710678">7</text><text x="-170.710678" y="50.0">39</text><text x="341.421356" y="50.0">98</text><text x="256.066017" y="256.066017">103</text><text x="-291.421356" y="220.710678">91</text><text x="135.355339" y="256.066017">66</text><text x="341.421356" y="-170.710678">108</text><text x="50.0" y="50.0">3</text><text x="-170.710678" y="-291.421356">80</text><text x="-120.710678" y="-120.710678">35</text><text x="0.0" y="341.421356">112</text><text x="256.066017" y="306.066017">123</text><text x="-170.710678" y="-170.710678">48</text><text x="50.0" y="220.710678">63</text><text x="135.355339" y="85.355339">18</text><text x="-256.066017" y="-206.066017">95</text><text x="256.066017" y="85.355339">50</text><text x="85.355339" y="256.066017">67</text><text x="-85.355339" y="-85.355339">16</text><text x="135.355339" y="-206.066017">31</text><text x="-35.355339" y="85.355339">11</text><text x="-35.355339" y="-256.066017">72</text><text x="-120.710678" y="170.710678">43</text><text x="341.421356" y="0.0">99</text><text x="-256.066017" y="135.355339">87</text><text x="306.066017" y="256.066017">104</text><text x="-206.066017" y="85.355339">40</text><text x="85.355339" y="135.355339">26</text><text x="-35.355339" y="135.355339">23</text><text x="220.710678" y="-120.710678">55</text><text x="85.355339" y="306.066017">114</text><text x="0.0" y="-120.710678">8</text><text x="256.066017" y="-206.066017">75</text><text x="-206.066017" y="-206.066017">82</text><text x="-120.710678" y="341.421356">119</text><text x="220.710678" y="-170.710678">58</text><text x="-120.710678" y="-170.710678">36</text><text x="85.355339" y="-206.066017">30</text><text x="256.066017" y="135.355339">51</text><text x="170.710678" y="50.0">19</text><text x="341.421356" y="-120.710678">107</text><text x="0.0" y="50.0">4</text><text x="-120.710678" y="-291.421356">79</text><text x="-291.421356" y="-170.710678">94</text><text x="-206.066017" y="-35.355339">47</text><text x="-85.355339" y="-35.355339">15</text><text x="220.710678" y="220.710678">68</text><text x="-120.710678" y="220.710678">62</text><text x="220.710678" y="341.421356">122</text><text x="-256.066017" y="85.355339">83</text><text x="306.066017" y="-35.355339">100</text><text x="-256.066017" y="256.066017">90</text><text x="-35.355339" y="306.066017">111</text></g></g><metadata><rdf:RDF><cc:Work><dc:source rdf:resource="https://github.com/scala-tessella/tessella">Tessella</dc:source><cc:license rdf:resource="https://www.apache.org/licenses/LICENSE-2.0"/></cc:Work></rdf:RDF></metadata></svg>
