<?xml version='1.0' encoding='UTF-8'?>
<svg xmlns:rdf="http://www.w3.org/1999/02/22-rdf-syntax-ns#" xmlns:cc="http://creativecommons.org/ns#" xmlns:dc="http://purl.org/dc/elements/1.1/" viewBox="-125.0 -198.205081 250.0 223.205081" xmlns="http://www.w3.org/2000/svg"><g><title>Tiling</title><desc>Finite tessellation of regular polygons</desc><g style="stroke:black"><title>Edges</title><desc>Sides of the regular polygons</desc><line x1="0.0" y1="0.0" x2="50.0" y2="0.0"/><line x1="-25.0" y1="-43.30127" x2="25.0" y2="-43.30127"/><line x1="-50.0" y1="-86.60254" x2="0.0" y2="-86.60254"/><line x1="-75.0" y1="-129.903811" x2="-25.0" y2="-129.903811"/><line x1="-100.0" y1="-173.205081" x2="-50.0" y2="-173.205081"/><line x1="50.0" y1="0.0" x2="100.0" y2="0.0"/><line x1="25.0" y1="-43.30127" x2="75.0" y2="-43.30127"/><line x1="0.0" y1="-86.60254" x2="50.0" y2="-86.60254"/><line x1="-25.0" y1="-129.903811" x2="25.0" y2="-129.903811"/><line x1="-50.0" y1="-173.205081" x2="0.0" y2="-173.205081"/><line x1="0.0" y1="0.0" x2="-25.0" y2="-43.30127"/><line x1="-25.0" y1="-43.30127" x2="-50.0" y2="-86.60254"/><line x1="-50.0" y1="-86.60254" x2="-75.0" y2="-129.903811"/><line x1="-75.0" y1="-129.903811" x2="-100.0" y2="-173.205081"/><line x1="50.0" y1="0.0" x2="25.0" y2="-43.30127"/><line x1="25.0" y1="-43.30127" x2="0.0" y2="-86.60254"/><line x1="0.0" y1="-86.60254" x2="-25.0" y2="-129.903811"/><line x1="-25.0" y1="-129.903811" x2="-50.0" y2="-173.205081"/><line x1="100.0" y1="0.0" x2="75.0" y2="-43.30127"/><line x1="75.0" y1="-43.30127" x2="50.0" y2="-86.60254"/><line x1="50.0" y1="-86.60254" x2="25.0" y2="-129.903811"/><line x1="25.0" y1="-129.903811" x2="0.0" y2="-173.205081"/><line x1="0.0" y1="0.0" x2="25.0" y2="-43.30127"/><line x1="-25.0" y1="-43.30127" x2="0.0" y2="-86.60254"/><line x1="-50.0" y1="-86.60254" x2="-25.0" y2="-129.903811"/><line x1="-75.0" y1="-129.903811" x2="-50.0" y2="-173.205081"/><line x1="50.0" y1="0.0" x2="75.0" y2="-43.30127"/><line x1="25.0" y1="-43.30127" x2="50.0" y2="-86.60254"/><line x1="0.0" y1="-86.60254" x2="25.0" y2="-129.903811"/><line x1="-25.0" y1="-129.903811" x2="0.0" y2="-173.205081"/></g><g style="stroke:none"><title>Polygons</title><desc>Regular polygons</desc><g style="fill:yellow"><title>Regular 3-gons</title><desc>Regular polygons with 3 sides</desc><polygon points="-75.0,-129.903811 -100.0,-173.205081 -50.0,-173.205081"/><polygon points="-25.0,-129.903811 -50.0,-173.205081 0.0,-173.205081"/><polygon points="-75.0,-129.903811 -50.0,-173.205081 -25.0,-129.903811"/><polygon points="25.0,-43.30127 50.0,0.0 0.0,0.0"/><polygon points="0.0,0.0 -25.0,-43.30127 25.0,-43.30127"/><polygon points="-25.0,-129.903811 0.0,-173.205081 25.0,-129.903811"/><polygon points="-25.0,-129.903811 -50.0,-86.60254 -75.0,-129.903811"/><polygon points="-25.0,-129.903811 25.0,-129.903811 0.0,-86.60254"/><polygon points="0.0,-86.60254 -50.0,-86.60254 -25.0,-129.903811"/><polygon points="25.0,-129.903811 50.0,-86.60254 0.0,-86.60254"/><polygon points="0.0,-86.60254 -25.0,-43.30127 -50.0,-86.60254"/><polygon points="25.0,-43.30127 -25.0,-43.30127 0.0,-86.60254"/><polygon points="0.0,-86.60254 50.0,-86.60254 25.0,-43.30127"/><polygon points="50.0,-86.60254 75.0,-43.30127 25.0,-43.30127"/><polygon points="75.0,-43.30127 50.0,0.0 25.0,-43.30127"/><polygon points="75.0,-43.30127 100.0,0.0 50.0,0.0"/></g></g><polygon style="fill:none;stroke:blue;stroke-width:2" points="0.0,0.0 -25.0,-43.30127 -50.0,-86.60254 -75.0,-129.903811 -100.0,-173.205081 -50.0,-173.205081 0.0,-173.205081 25.0,-129.903811 50.0,-86.60254 75.0,-43.30127 100.0,0.0 50.0,0.0"/><g><polyline style="stroke:red;stroke-width:1.5;stroke-dasharray:5,5;fill:none" points="0.0,0.0 50.0,0.0 100.0,0.0 -25.0,-43.30127 25.0,-43.30127 75.0,-43.30127 -50.0,-86.60254 0.0,-86.60254 50.0,-86.60254 -75.0,-129.903811 -25.0,-129.903811 25.0,-129.903811 -100.0,-173.205081 -50.0,-173.205081 0.0,-173.205081"><animate attributeName="points" dur="5s" from="0.0,0.0" to="0.0,0.0 50.0,0.0 100.0,0.0 -25.0,-43.30127 25.0,-43.30127 75.0,-43.30127 -50.0,-86.60254 0.0,-86.60254 50.0,-86.60254 -75.0,-129.903811 -25.0,-129.903811 25.0,-129.903811 -100.0,-173.205081 -50.0,-173.205081 0.0,-173.205081" values="0.0,0.0 50.0,0.0;0.0,0.0 50.0,0.0 100.0,0.0;0.0,0.0 50.0,0.0 100.0,0.0 -25.0,-43.30127;0.0,0.0 50.0,0.0 100.0,0.0 -25.0,-43.30127 25.0,-43.30127;0.0,0.0 50.0,0.0 100.0,0.0 -25.0,-43.30127 25.0,-43.30127 75.0,-43.30127;0.0,0.0 50.0,0.0 100.0,0.0 -25.0,-43.30127 25.0,-43.30127 75.0,-43.30127 -50.0,-86.60254;0.0,0.0 50.0,0.0 100.0,0.0 -25.0,-43.30127 25.0,-43.30127 75.0,-43.30127 -50.0,-86.60254 0.0,-86.60254;0.0,0.0 50.0,0.0 100.0,0.0 -25.0,-43.30127 25.0,-43.30127 75.0,-43.30127 -50.0,-86.60254 0.0,-86.60254 50.0,-86.60254;0.0,0.0 50.0,0.0 100.0,0.0 -25.0,-43.30127 25.0,-43.30127 75.0,-43.30127 -50.0,-86.60254 0.0,-86.60254 50.0,-86.60254 -75.0,-129.903811;0.0,0.0 50.0,0.0 100.0,0.0 -25.0,-43.30127 25.0,-43.30127 75.0,-43.30127 -50.0,-86.60254 0.0,-86.60254 50.0,-86.60254 -75.0,-129.903811 -25.0,-129.903811;0.0,0.0 50.0,0.0 100.0,0.0 -25.0,-43.30127 25.0,-43.30127 75.0,-43.30127 -50.0,-86.60254 0.0,-86.60254 50.0,-86.60254 -75.0,-129.903811 -25.0,-129.903811 25.0,-129.903811;0.0,0.0 50.0,0.0 100.0,0.0 -25.0,-43.30127 25.0,-43.30127 75.0,-43.30127 -50.0,-86.60254 0.0,-86.60254 50.0,-86.60254 -75.0,-129.903811 -25.0,-129.903811 25.0,-129.903811 -100.0,-173.205081;0.0,0.0 50.0,0.0 100.0,0.0 -25.0,-43.30127 25.0,-43.30127 75.0,-43.30127 -50.0,-86.60254 0.0,-86.60254 50.0,-86.60254 -75.0,-129.903811 -25.0,-129.903811 25.0,-129.903811 -100.0,-173.205081 -50.0,-173.205081"/></polyline><polygon style="stroke:red;stroke-width:1.5;fill:red" points="0.0,-173.205081 -4.387913,-175.602208 -4.387913,-170.807953"><animate attributeName="points" dur="5s" from="0.0,0.0 4.387913,2.397128 4.387913,-2.397128" to="0.0,-173.205081 -4.387913,-175.602208 -4.387913,-170.807953" values="50.0,0.0 45.612087,-2.397128 45.612087,2.397128;100.0,0.0 95.612087,-2.397128 95.612087,2.397128;-25.0,-43.30127 -21.638456,-39.599916 -20.069168,-44.130061;25.0,-43.30127 20.612087,-45.698398 20.612087,-40.904142;75.0,-43.30127 70.612087,-45.698398 70.612087,-40.904142;-50.0,-86.60254 -46.638456,-82.901186 -45.069168,-87.431332;0.0,-86.60254 -4.387913,-88.999668 -4.387913,-84.205413;50.0,-86.60254 45.612087,-88.999668 45.612087,-84.205413;-75.0,-129.903811 -71.638456,-126.202456 -70.069168,-130.732602;-25.0,-129.903811 -29.387913,-132.300938 -29.387913,-127.506683;25.0,-129.903811 20.612087,-132.300938 20.612087,-127.506683;-100.0,-173.205081 -96.638456,-169.503726 -95.069168,-174.033872;-50.0,-173.205081 -54.387913,-175.602208 -54.387913,-170.807953"/></polygon></g><g style="fill:#4a4a4a;text-anchor:middle;font-family:Arial,Helvetica,sans-serif"><title>Node labels</title><desc>Each node showing its value</desc><text x="25.0" y="-43.30127">5</text><text x="-75.0" y="-129.903811">10</text><text x="-50.0" y="-173.205081">14</text><text x="0.0" y="0.0">1</text><text x="75.0" y="-43.30127">6</text><text x="50.0" y="-86.60254">9</text><text x="-100.0" y="-173.205081">13</text><text x="50.0" y="0.0">2</text><text x="25.0" y="-129.903811">12</text><text x="-50.0" y="-86.60254">7</text><text x="100.0" y="0.0">3</text><text x="-25.0" y="-129.903811">11</text><text x="0.0" y="-86.60254">8</text><text x="-25.0" y="-43.30127">4</text><text x="0.0" y="-173.205081">15</text></g></g><metadata><rdf:RDF><cc:Work><dc:source rdf:resource="https://github.com/scala-tessella/tessella">Tessella</dc:source><cc:license rdf:resource="https://www.apache.org/licenses/LICENSE-2.0"/></cc:Work></rdf:RDF></metadata></svg>