<?xml version='1.0' encoding='UTF-8'?>
<svg xmlns:rdf="http://www.w3.org/1999/02/22-rdf-syntax-ns#" xmlns:cc="http://creativecommons.org/ns#" xmlns:dc="http://purl.org/dc/elements/1.1/" viewBox="-100.0 -25.0 425.0 329.903811" xmlns="http://www.w3.org/2000/svg"><g><title>Tiling</title><desc>Finite tessellation of regular polygons</desc><g style="stroke:black"><title>Edges</title><desc>Sides of the regular polygons</desc><line x1="0.0" y1="0.0" x2="50.0" y2="0.0"/><line x1="-25.0" y1="43.30127" x2="25.0" y2="43.30127"/><line x1="50.0" y1="0.0" x2="100.0" y2="0.0"/><line x1="25.0" y1="43.30127" x2="75.0" y2="43.30127"/><line x1="100.0" y1="0.0" x2="150.0" y2="0.0"/><line x1="75.0" y1="43.30127" x2="125.0" y2="43.30127"/><line x1="150.0" y1="0.0" x2="200.0" y2="0.0"/><line x1="125.0" y1="43.30127" x2="175.0" y2="43.30127"/><line x1="200.0" y1="0.0" x2="250.0" y2="0.0"/><line x1="175.0" y1="43.30127" x2="225.0" y2="43.30127"/><line x1="250.0" y1="0.0" x2="300.0" y2="0.0"/><line x1="225.0" y1="43.30127" x2="275.0" y2="43.30127"/><line x1="0.0" y1="0.0" x2="-25.0" y2="43.30127"/><line x1="50.0" y1="0.0" x2="25.0" y2="43.30127"/><line x1="100.0" y1="0.0" x2="75.0" y2="43.30127"/><line x1="150.0" y1="0.0" x2="125.0" y2="43.30127"/><line x1="200.0" y1="0.0" x2="175.0" y2="43.30127"/><line x1="250.0" y1="0.0" x2="225.0" y2="43.30127"/><line x1="300.0" y1="0.0" x2="275.0" y2="43.30127"/><line x1="0.0" y1="0.0" x2="25.0" y2="43.30127"/><line x1="50.0" y1="0.0" x2="75.0" y2="43.30127"/><line x1="100.0" y1="0.0" x2="125.0" y2="43.30127"/><line x1="150.0" y1="0.0" x2="175.0" y2="43.30127"/><line x1="200.0" y1="0.0" x2="225.0" y2="43.30127"/><line x1="250.0" y1="0.0" x2="275.0" y2="43.30127"/><line x1="-25.0" y1="93.30127" x2="25.0" y2="93.30127"/><line x1="25.0" y1="93.30127" x2="75.0" y2="93.30127"/><line x1="75.0" y1="93.30127" x2="125.0" y2="93.30127"/><line x1="125.0" y1="93.30127" x2="175.0" y2="93.30127"/><line x1="175.0" y1="93.30127" x2="225.0" y2="93.30127"/><line x1="225.0" y1="93.30127" x2="275.0" y2="93.30127"/><line x1="-25.0" y1="43.30127" x2="-25.0" y2="93.30127"/><line x1="25.0" y1="43.30127" x2="25.0" y2="93.30127"/><line x1="75.0" y1="43.30127" x2="75.0" y2="93.30127"/><line x1="125.0" y1="43.30127" x2="125.0" y2="93.30127"/><line x1="175.0" y1="43.30127" x2="175.0" y2="93.30127"/><line x1="225.0" y1="43.30127" x2="225.0" y2="93.30127"/><line x1="275.0" y1="43.30127" x2="275.0" y2="93.30127"/><line x1="-50.0" y1="136.60254" x2="0.0" y2="136.60254"/><line x1="0.0" y1="136.60254" x2="50.0" y2="136.60254"/><line x1="50.0" y1="136.60254" x2="100.0" y2="136.60254"/><line x1="100.0" y1="136.60254" x2="150.0" y2="136.60254"/><line x1="150.0" y1="136.60254" x2="200.0" y2="136.60254"/><line x1="200.0" y1="136.60254" x2="250.0" y2="136.60254"/><line x1="-25.0" y1="93.30127" x2="-50.0" y2="136.60254"/><line x1="25.0" y1="93.30127" x2="0.0" y2="136.60254"/><line x1="75.0" y1="93.30127" x2="50.0" y2="136.60254"/><line x1="125.0" y1="93.30127" x2="100.0" y2="136.60254"/><line x1="175.0" y1="93.30127" x2="150.0" y2="136.60254"/><line x1="225.0" y1="93.30127" x2="200.0" y2="136.60254"/><line x1="275.0" y1="93.30127" x2="250.0" y2="136.60254"/><line x1="-25.0" y1="93.30127" x2="0.0" y2="136.60254"/><line x1="25.0" y1="93.30127" x2="50.0" y2="136.60254"/><line x1="75.0" y1="93.30127" x2="100.0" y2="136.60254"/><line x1="125.0" y1="93.30127" x2="150.0" y2="136.60254"/><line x1="175.0" y1="93.30127" x2="200.0" y2="136.60254"/><line x1="225.0" y1="93.30127" x2="250.0" y2="136.60254"/><line x1="-50.0" y1="186.60254" x2="0.0" y2="186.60254"/><line x1="0.0" y1="186.60254" x2="50.0" y2="186.60254"/><line x1="50.0" y1="186.60254" x2="100.0" y2="186.60254"/><line x1="100.0" y1="186.60254" x2="150.0" y2="186.60254"/><line x1="150.0" y1="186.60254" x2="200.0" y2="186.60254"/><line x1="200.0" y1="186.60254" x2="250.0" y2="186.60254"/><line x1="-50.0" y1="136.60254" x2="-50.0" y2="186.60254"/><line x1="0.0" y1="136.60254" x2="0.0" y2="186.60254"/><line x1="50.0" y1="136.60254" x2="50.0" y2="186.60254"/><line x1="100.0" y1="136.60254" x2="100.0" y2="186.60254"/><line x1="150.0" y1="136.60254" x2="150.0" y2="186.60254"/><line x1="200.0" y1="136.60254" x2="200.0" y2="186.60254"/><line x1="250.0" y1="136.60254" x2="250.0" y2="186.60254"/><line x1="-75.0" y1="229.903811" x2="-25.0" y2="229.903811"/><line x1="-25.0" y1="229.903811" x2="25.0" y2="229.903811"/><line x1="25.0" y1="229.903811" x2="75.0" y2="229.903811"/><line x1="75.0" y1="229.903811" x2="125.0" y2="229.903811"/><line x1="125.0" y1="229.903811" x2="175.0" y2="229.903811"/><line x1="175.0" y1="229.903811" x2="225.0" y2="229.903811"/><line x1="-50.0" y1="186.60254" x2="-75.0" y2="229.903811"/><line x1="0.0" y1="186.60254" x2="-25.0" y2="229.903811"/><line x1="50.0" y1="186.60254" x2="25.0" y2="229.903811"/><line x1="100.0" y1="186.60254" x2="75.0" y2="229.903811"/><line x1="150.0" y1="186.60254" x2="125.0" y2="229.903811"/><line x1="200.0" y1="186.60254" x2="175.0" y2="229.903811"/><line x1="250.0" y1="186.60254" x2="225.0" y2="229.903811"/><line x1="-50.0" y1="186.60254" x2="-25.0" y2="229.903811"/><line x1="0.0" y1="186.60254" x2="25.0" y2="229.903811"/><line x1="50.0" y1="186.60254" x2="75.0" y2="229.903811"/><line x1="100.0" y1="186.60254" x2="125.0" y2="229.903811"/><line x1="150.0" y1="186.60254" x2="175.0" y2="229.903811"/><line x1="200.0" y1="186.60254" x2="225.0" y2="229.903811"/><line x1="-75.0" y1="279.903811" x2="-25.0" y2="279.903811"/><line x1="-25.0" y1="279.903811" x2="25.0" y2="279.903811"/><line x1="25.0" y1="279.903811" x2="75.0" y2="279.903811"/><line x1="75.0" y1="279.903811" x2="125.0" y2="279.903811"/><line x1="125.0" y1="279.903811" x2="175.0" y2="279.903811"/><line x1="175.0" y1="279.903811" x2="225.0" y2="279.903811"/><line x1="-75.0" y1="229.903811" x2="-75.0" y2="279.903811"/><line x1="-25.0" y1="229.903811" x2="-25.0" y2="279.903811"/><line x1="25.0" y1="229.903811" x2="25.0" y2="279.903811"/><line x1="75.0" y1="229.903811" x2="75.0" y2="279.903811"/><line x1="125.0" y1="229.903811" x2="125.0" y2="279.903811"/><line x1="175.0" y1="229.903811" x2="175.0" y2="279.903811"/><line x1="225.0" y1="229.903811" x2="225.0" y2="279.903811"/></g><g style="stroke:none"><title>Polygons</title><desc>Regular polygons</desc><g style="fill:yellow"><title>Regular 3-gons</title><desc>Regular polygons with 3 sides</desc><polygon points="200.0,0.0 150.0,0.0 175.0,43.30127"/><polygon points="200.0,0.0 175.0,43.30127 225.0,43.30127"/><polygon points="200.0,0.0 225.0,43.30127 250.0,0.0"/><polygon points="225.0,229.903811 250.0,186.60254 200.0,186.60254"/><polygon points="225.0,229.903811 200.0,186.60254 175.0,229.903811"/><polygon points="275.0,43.30127 300.0,0.0 250.0,0.0"/><polygon points="275.0,43.30127 250.0,0.0 225.0,43.30127"/><polygon points="0.0,0.0 -25.0,43.30127 25.0,43.30127"/><polygon points="0.0,0.0 25.0,43.30127 50.0,0.0"/><polygon points="50.0,0.0 25.0,43.30127 75.0,43.30127"/><polygon points="50.0,0.0 75.0,43.30127 100.0,0.0"/><polygon points="-75.0,229.903811 -25.0,229.903811 -50.0,186.60254"/><polygon points="150.0,0.0 100.0,0.0 125.0,43.30127"/><polygon points="150.0,0.0 125.0,43.30127 175.0,43.30127"/><polygon points="-50.0,186.60254 -25.0,229.903811 0.0,186.60254"/><polygon points="250.0,136.60254 275.0,93.30127 225.0,93.30127"/><polygon points="250.0,136.60254 225.0,93.30127 200.0,136.60254"/><polygon points="-50.0,136.60254 0.0,136.60254 -25.0,93.30127"/><polygon points="100.0,0.0 75.0,43.30127 125.0,43.30127"/><polygon points="-25.0,93.30127 0.0,136.60254 25.0,93.30127"/><polygon points="-25.0,229.903811 25.0,229.903811 0.0,186.60254"/><polygon points="225.0,93.30127 175.0,93.30127 200.0,136.60254"/><polygon points="25.0,229.903811 75.0,229.903811 50.0,186.60254"/><polygon points="25.0,229.903811 50.0,186.60254 0.0,186.60254"/><polygon points="200.0,186.60254 150.0,186.60254 175.0,229.903811"/><polygon points="200.0,136.60254 175.0,93.30127 150.0,136.60254"/><polygon points="75.0,229.903811 125.0,229.903811 100.0,186.60254"/><polygon points="75.0,229.903811 100.0,186.60254 50.0,186.60254"/><polygon points="25.0,93.30127 0.0,136.60254 50.0,136.60254"/><polygon points="25.0,93.30127 50.0,136.60254 75.0,93.30127"/><polygon points="175.0,229.903811 150.0,186.60254 125.0,229.903811"/><polygon points="125.0,229.903811 150.0,186.60254 100.0,186.60254"/><polygon points="50.0,136.60254 100.0,136.60254 75.0,93.30127"/><polygon points="125.0,93.30127 75.0,93.30127 100.0,136.60254"/><polygon points="125.0,93.30127 100.0,136.60254 150.0,136.60254"/><polygon points="125.0,93.30127 150.0,136.60254 175.0,93.30127"/></g><g style="fill:goldenrod"><title>Regular 4-gons</title><desc>Regular polygons with 4 sides</desc><polygon points="225.0,229.903811 175.0,229.903811 175.0,279.903811 225.0,279.903811"/><polygon points="275.0,43.30127 225.0,43.30127 225.0,93.30127 275.0,93.30127"/><polygon points="25.0,279.903811 75.0,279.903811 75.0,229.903811 25.0,229.903811"/><polygon points="25.0,279.903811 25.0,229.903811 -25.0,229.903811 -25.0,279.903811"/><polygon points="175.0,279.903811 175.0,229.903811 125.0,229.903811 125.0,279.903811"/><polygon points="-75.0,279.903811 -25.0,279.903811 -25.0,229.903811 -75.0,229.903811"/><polygon points="-25.0,43.30127 -25.0,93.30127 25.0,93.30127 25.0,43.30127"/><polygon points="75.0,279.903811 125.0,279.903811 125.0,229.903811 75.0,229.903811"/><polygon points="-50.0,186.60254 0.0,186.60254 0.0,136.60254 -50.0,136.60254"/><polygon points="250.0,136.60254 200.0,136.60254 200.0,186.60254 250.0,186.60254"/><polygon points="75.0,43.30127 25.0,43.30127 25.0,93.30127 75.0,93.30127"/><polygon points="75.0,43.30127 75.0,93.30127 125.0,93.30127 125.0,43.30127"/><polygon points="225.0,93.30127 225.0,43.30127 175.0,43.30127 175.0,93.30127"/><polygon points="200.0,186.60254 200.0,136.60254 150.0,136.60254 150.0,186.60254"/><polygon points="175.0,43.30127 125.0,43.30127 125.0,93.30127 175.0,93.30127"/><polygon points="0.0,186.60254 50.0,186.60254 50.0,136.60254 0.0,136.60254"/><polygon points="50.0,136.60254 50.0,186.60254 100.0,186.60254 100.0,136.60254"/><polygon points="150.0,186.60254 150.0,136.60254 100.0,136.60254 100.0,186.60254"/></g></g><polygon style="fill:none;stroke:blue;stroke-width:2" points="0.0,0.0 -25.0,43.30127 -25.0,93.30127 -50.0,136.60254 -50.0,186.60254 -75.0,229.903811 -75.0,279.903811 -25.0,279.903811 25.0,279.903811 75.0,279.903811 125.0,279.903811 175.0,279.903811 225.0,279.903811 225.0,229.903811 250.0,186.60254 250.0,136.60254 275.0,93.30127 275.0,43.30127 300.0,0.0 250.0,0.0 200.0,0.0 150.0,0.0 100.0,0.0 50.0,0.0"/><g><polyline style="stroke:red;stroke-width:1.5;stroke-dasharray:5,5;fill:none" points="0.0,0.0 50.0,0.0 100.0,0.0 150.0,0.0 200.0,0.0 250.0,0.0 300.0,0.0 -25.0,43.30127 25.0,43.30127 75.0,43.30127 125.0,43.30127 175.0,43.30127 225.0,43.30127 275.0,43.30127 -25.0,93.30127 25.0,93.30127 75.0,93.30127 125.0,93.30127 175.0,93.30127 225.0,93.30127 275.0,93.30127 -50.0,136.60254 0.0,136.60254 50.0,136.60254 100.0,136.60254 150.0,136.60254 200.0,136.60254 250.0,136.60254 -50.0,186.60254 0.0,186.60254 50.0,186.60254 100.0,186.60254 150.0,186.60254 200.0,186.60254 250.0,186.60254 -75.0,229.903811 -25.0,229.903811 25.0,229.903811 75.0,229.903811 125.0,229.903811 175.0,229.903811 225.0,229.903811 -75.0,279.903811 -25.0,279.903811 25.0,279.903811 75.0,279.903811 125.0,279.903811 175.0,279.903811 225.0,279.903811"><animate attributeName="points" dur="5s" from="0.0,0.0" to="0.0,0.0 50.0,0.0 100.0,0.0 150.0,0.0 200.0,0.0 250.0,0.0 300.0,0.0 -25.0,43.30127 25.0,43.30127 75.0,43.30127 125.0,43.30127 175.0,43.30127 225.0,43.30127 275.0,43.30127 -25.0,93.30127 25.0,93.30127 75.0,93.30127 125.0,93.30127 175.0,93.30127 225.0,93.30127 275.0,93.30127 -50.0,136.60254 0.0,136.60254 50.0,136.60254 100.0,136.60254 150.0,136.60254 200.0,136.60254 250.0,136.60254 -50.0,186.60254 0.0,186.60254 50.0,186.60254 100.0,186.60254 150.0,186.60254 200.0,186.60254 250.0,186.60254 -75.0,229.903811 -25.0,229.903811 25.0,229.903811 75.0,229.903811 125.0,229.903811 175.0,229.903811 225.0,229.903811 -75.0,279.903811 -25.0,279.903811 25.0,279.903811 75.0,279.903811 125.0,279.903811 175.0,279.903811 225.0,279.903811" values="0.0,0.0 50.0,0.0;0.0,0.0 50.0,0.0 100.0,0.0;0.0,0.0 50.0,0.0 100.0,0.0 150.0,0.0;0.0,0.0 50.0,0.0 100.0,0.0 150.0,0.0 200.0,0.0;0.0,0.0 50.0,0.0 100.0,0.0 150.0,0.0 200.0,0.0 250.0,0.0;0.0,0.0 50.0,0.0 100.0,0.0 150.0,0.0 200.0,0.0 250.0,0.0 300.0,0.0;0.0,0.0 50.0,0.0 100.0,0.0 150.0,0.0 200.0,0.0 250.0,0.0 300.0,0.0 -25.0,43.30127;0.0,0.0 50.0,0.0 100.0,0.0 150.0,0.0 200.0,0.0 250.0,0.0 300.0,0.0 -25.0,43.30127 25.0,43.30127;0.0,0.0 50.0,0.0 100.0,0.0 150.0,0.0 200.0,0.0 250.0,0.0 300.0,0.0 -25.0,43.30127 25.0,43.30127 75.0,43.30127;0.0,0.0 50.0,0.0 100.0,0.0 150.0,0.0 200.0,0.0 250.0,0.0 300.0,0.0 -25.0,43.30127 25.0,43.30127 75.0,43.30127 125.0,43.30127;0.0,0.0 50.0,0.0 100.0,0.0 150.0,0.0 200.0,0.0 250.0,0.0 300.0,0.0 -25.0,43.30127 25.0,43.30127 75.0,43.30127 125.0,43.30127 175.0,43.30127;0.0,0.0 50.0,0.0 100.0,0.0 150.0,0.0 200.0,0.0 250.0,0.0 300.0,0.0 -25.0,43.30127 25.0,43.30127 75.0,43.30127 125.0,43.30127 175.0,43.30127 225.0,43.30127;0.0,0.0 50.0,0.0 100.0,0.0 150.0,0.0 200.0,0.0 250.0,0.0 300.0,0.0 -25.0,43.30127 25.0,43.30127 75.0,43.30127 125.0,43.30127 175.0,43.30127 225.0,43.30127 275.0,43.30127;0.0,0.0 50.0,0.0 100.0,0.0 150.0,0.0 200.0,0.0 250.0,0.0 300.0,0.0 -25.0,43.30127 25.0,43.30127 75.0,43.30127 125.0,43.30127 175.0,43.30127 225.0,43.30127 275.0,43.30127 -25.0,93.30127;0.0,0.0 50.0,0.0 100.0,0.0 150.0,0.0 200.0,0.0 250.0,0.0 300.0,0.0 -25.0,43.30127 25.0,43.30127 75.0,43.30127 125.0,43.30127 175.0,43.30127 225.0,43.30127 275.0,43.30127 -25.0,93.30127 25.0,93.30127;0.0,0.0 50.0,0.0 100.0,0.0 150.0,0.0 200.0,0.0 250.0,0.0 300.0,0.0 -25.0,43.30127 25.0,43.30127 75.0,43.30127 125.0,43.30127 175.0,43.30127 225.0,43.30127 275.0,43.30127 -25.0,93.30127 25.0,93.30127 75.0,93.30127;0.0,0.0 50.0,0.0 100.0,0.0 150.0,0.0 200.0,0.0 250.0,0.0 300.0,0.0 -25.0,43.30127 25.0,43.30127 75.0,43.30127 125.0,43.30127 175.0,43.30127 225.0,43.30127 275.0,43.30127 -25.0,93.30127 25.0,93.30127 75.0,93.30127 125.0,93.30127;0.0,0.0 50.0,0.0 100.0,0.0 150.0,0.0 200.0,0.0 250.0,0.0 300.0,0.0 -25.0,43.30127 25.0,43.30127 75.0,43.30127 125.0,43.30127 175.0,43.30127 225.0,43.30127 275.0,43.30127 -25.0,93.30127 25.0,93.30127 75.0,93.30127 125.0,93.30127 175.0,93.30127;0.0,0.0 50.0,0.0 100.0,0.0 150.0,0.0 200.0,0.0 250.0,0.0 300.0,0.0 -25.0,43.30127 25.0,43.30127 75.0,43.30127 125.0,43.30127 175.0,43.30127 225.0,43.30127 275.0,43.30127 -25.0,93.30127 25.0,93.30127 75.0,93.30127 125.0,93.30127 175.0,93.30127 225.0,93.30127;0.0,0.0 50.0,0.0 100.0,0.0 150.0,0.0 200.0,0.0 250.0,0.0 300.0,0.0 -25.0,43.30127 25.0,43.30127 75.0,43.30127 125.0,43.30127 175.0,43.30127 225.0,43.30127 275.0,43.30127 -25.0,93.30127 25.0,93.30127 75.0,93.30127 125.0,93.30127 175.0,93.30127 225.0,93.30127 275.0,93.30127;0.0,0.0 50.0,0.0 100.0,0.0 150.0,0.0 200.0,0.0 250.0,0.0 300.0,0.0 -25.0,43.30127 25.0,43.30127 75.0,43.30127 125.0,43.30127 175.0,43.30127 225.0,43.30127 275.0,43.30127 -25.0,93.30127 25.0,93.30127 75.0,93.30127 125.0,93.30127 175.0,93.30127 225.0,93.30127 275.0,93.30127 -50.0,136.60254;0.0,0.0 50.0,0.0 100.0,0.0 150.0,0.0 200.0,0.0 250.0,0.0 300.0,0.0 -25.0,43.30127 25.0,43.30127 75.0,43.30127 125.0,43.30127 175.0,43.30127 225.0,43.30127 275.0,43.30127 -25.0,93.30127 25.0,93.30127 75.0,93.30127 125.0,93.30127 175.0,93.30127 225.0,93.30127 275.0,93.30127 -50.0,136.60254 0.0,136.60254;0.0,0.0 50.0,0.0 100.0,0.0 150.0,0.0 200.0,0.0 250.0,0.0 300.0,0.0 -25.0,43.30127 25.0,43.30127 75.0,43.30127 125.0,43.30127 175.0,43.30127 225.0,43.30127 275.0,43.30127 -25.0,93.30127 25.0,93.30127 75.0,93.30127 125.0,93.30127 175.0,93.30127 225.0,93.30127 275.0,93.30127 -50.0,136.60254 0.0,136.60254 50.0,136.60254;0.0,0.0 50.0,0.0 100.0,0.0 150.0,0.0 200.0,0.0 250.0,0.0 300.0,0.0 -25.0,43.30127 25.0,43.30127 75.0,43.30127 125.0,43.30127 175.0,43.30127 225.0,43.30127 275.0,43.30127 -25.0,93.30127 25.0,93.30127 75.0,93.30127 125.0,93.30127 175.0,93.30127 225.0,93.30127 275.0,93.30127 -50.0,136.60254 0.0,136.60254 50.0,136.60254 100.0,136.60254;0.0,0.0 50.0,0.0 100.0,0.0 150.0,0.0 200.0,0.0 250.0,0.0 300.0,0.0 -25.0,43.30127 25.0,43.30127 75.0,43.30127 125.0,43.30127 175.0,43.30127 225.0,43.30127 275.0,43.30127 -25.0,93.30127 25.0,93.30127 75.0,93.30127 125.0,93.30127 175.0,93.30127 225.0,93.30127 275.0,93.30127 -50.0,136.60254 0.0,136.60254 50.0,136.60254 100.0,136.60254 150.0,136.60254;0.0,0.0 50.0,0.0 100.0,0.0 150.0,0.0 200.0,0.0 250.0,0.0 300.0,0.0 -25.0,43.30127 25.0,43.30127 75.0,43.30127 125.0,43.30127 175.0,43.30127 225.0,43.30127 275.0,43.30127 -25.0,93.30127 25.0,93.30127 75.0,93.30127 125.0,93.30127 175.0,93.30127 225.0,93.30127 275.0,93.30127 -50.0,136.60254 0.0,136.60254 50.0,136.60254 100.0,136.60254 150.0,136.60254 200.0,136.60254;0.0,0.0 50.0,0.0 100.0,0.0 150.0,0.0 200.0,0.0 250.0,0.0 300.0,0.0 -25.0,43.30127 25.0,43.30127 75.0,43.30127 125.0,43.30127 175.0,43.30127 225.0,43.30127 275.0,43.30127 -25.0,93.30127 25.0,93.30127 75.0,93.30127 125.0,93.30127 175.0,93.30127 225.0,93.30127 275.0,93.30127 -50.0,136.60254 0.0,136.60254 50.0,136.60254 100.0,136.60254 150.0,136.60254 200.0,136.60254 250.0,136.60254;0.0,0.0 50.0,0.0 100.0,0.0 150.0,0.0 200.0,0.0 250.0,0.0 300.0,0.0 -25.0,43.30127 25.0,43.30127 75.0,43.30127 125.0,43.30127 175.0,43.30127 225.0,43.30127 275.0,43.30127 -25.0,93.30127 25.0,93.30127 75.0,93.30127 125.0,93.30127 175.0,93.30127 225.0,93.30127 275.0,93.30127 -50.0,136.60254 0.0,136.60254 50.0,136.60254 100.0,136.60254 150.0,136.60254 200.0,136.60254 250.0,136.60254 -50.0,186.60254;0.0,0.0 50.0,0.0 100.0,0.0 150.0,0.0 200.0,0.0 250.0,0.0 300.0,0.0 -25.0,43.30127 25.0,43.30127 75.0,43.30127 125.0,43.30127 175.0,43.30127 225.0,43.30127 275.0,43.30127 -25.0,93.30127 25.0,93.30127 75.0,93.30127 125.0,93.30127 175.0,93.30127 225.0,93.30127 275.0,93.30127 -50.0,136.60254 0.0,136.60254 50.0,136.60254 100.0,136.60254 150.0,136.60254 200.0,136.60254 250.0,136.60254 -50.0,186.60254 0.0,186.60254;0.0,0.0 50.0,0.0 100.0,0.0 150.0,0.0 200.0,0.0 250.0,0.0 300.0,0.0 -25.0,43.30127 25.0,43.30127 75.0,43.30127 125.0,43.30127 175.0,43.30127 225.0,43.30127 275.0,43.30127 -25.0,93.30127 25.0,93.30127 75.0,93.30127 125.0,93.30127 175.0,93.30127 225.0,93.30127 275.0,93.30127 -50.0,136.60254 0.0,136.60254 50.0,136.60254 100.0,136.60254 150.0,136.60254 200.0,136.60254 250.0,136.60254 -50.0,186.60254 0.0,186.60254 50.0,186.60254;0.0,0.0 50.0,0.0 100.0,0.0 150.0,0.0 200.0,0.0 250.0,0.0 300.0,0.0 -25.0,43.30127 25.0,43.30127 75.0,43.30127 125.0,43.30127 175.0,43.30127 225.0,43.30127 275.0,43.30127 -25.0,93.30127 25.0,93.30127 75.0,93.30127 125.0,93.30127 175.0,93.30127 225.0,93.30127 275.0,93.30127 -50.0,136.60254 0.0,136.60254 50.0,136.60254 100.0,136.60254 150.0,136.60254 200.0,136.60254 250.0,136.60254 -50.0,186.60254 0.0,186.60254 50.0,186.60254 100.0,186.60254;0.0,0.0 50.0,0.0 100.0,0.0 150.0,0.0 200.0,0.0 250.0,0.0 300.0,0.0 -25.0,43.30127 25.0,43.30127 75.0,43.30127 125.0,43.30127 175.0,43.30127 225.0,43.30127 275.0,43.30127 -25.0,93.30127 25.0,93.30127 75.0,93.30127 125.0,93.30127 175.0,93.30127 225.0,93.30127 275.0,93.30127 -50.0,136.60254 0.0,136.60254 50.0,136.60254 100.0,136.60254 150.0,136.60254 200.0,136.60254 250.0,136.60254 -50.0,186.60254 0.0,186.60254 50.0,186.60254 100.0,186.60254 150.0,186.60254;0.0,0.0 50.0,0.0 100.0,0.0 150.0,0.0 200.0,0.0 250.0,0.0 300.0,0.0 -25.0,43.30127 25.0,43.30127 75.0,43.30127 125.0,43.30127 175.0,43.30127 225.0,43.30127 275.0,43.30127 -25.0,93.30127 25.0,93.30127 75.0,93.30127 125.0,93.30127 175.0,93.30127 225.0,93.30127 275.0,93.30127 -50.0,136.60254 0.0,136.60254 50.0,136.60254 100.0,136.60254 150.0,136.60254 200.0,136.60254 250.0,136.60254 -50.0,186.60254 0.0,186.60254 50.0,186.60254 100.0,186.60254 150.0,186.60254 200.0,186.60254;0.0,0.0 50.0,0.0 100.0,0.0 150.0,0.0 200.0,0.0 250.0,0.0 300.0,0.0 -25.0,43.30127 25.0,43.30127 75.0,43.30127 125.0,43.30127 175.0,43.30127 225.0,43.30127 275.0,43.30127 -25.0,93.30127 25.0,93.30127 75.0,93.30127 125.0,93.30127 175.0,93.30127 225.0,93.30127 275.0,93.30127 -50.0,136.60254 0.0,136.60254 50.0,136.60254 100.0,136.60254 150.0,136.60254 200.0,136.60254 250.0,136.60254 -50.0,186.60254 0.0,186.60254 50.0,186.60254 100.0,186.60254 150.0,186.60254 200.0,186.60254 250.0,186.60254;0.0,0.0 50.0,0.0 100.0,0.0 150.0,0.0 200.0,0.0 250.0,0.0 300.0,0.0 -25.0,43.30127 25.0,43.30127 75.0,43.30127 125.0,43.30127 175.0,43.30127 225.0,43.30127 275.0,43.30127 -25.0,93.30127 25.0,93.30127 75.0,93.30127 125.0,93.30127 175.0,93.30127 225.0,93.30127 275.0,93.30127 -50.0,136.60254 0.0,136.60254 50.0,136.60254 100.0,136.60254 150.0,136.60254 200.0,136.60254 250.0,136.60254 -50.0,186.60254 0.0,186.60254 50.0,186.60254 100.0,186.60254 150.0,186.60254 200.0,186.60254 250.0,186.60254 -75.0,229.903811;0.0,0.0 50.0,0.0 100.0,0.0 150.0,0.0 200.0,0.0 250.0,0.0 300.0,0.0 -25.0,43.30127 25.0,43.30127 75.0,43.30127 125.0,43.30127 175.0,43.30127 225.0,43.30127 275.0,43.30127 -25.0,93.30127 25.0,93.30127 75.0,93.30127 125.0,93.30127 175.0,93.30127 225.0,93.30127 275.0,93.30127 -50.0,136.60254 0.0,136.60254 50.0,136.60254 100.0,136.60254 150.0,136.60254 200.0,136.60254 250.0,136.60254 -50.0,186.60254 0.0,186.60254 50.0,186.60254 100.0,186.60254 150.0,186.60254 200.0,186.60254 250.0,186.60254 -75.0,229.903811 -25.0,229.903811;0.0,0.0 50.0,0.0 100.0,0.0 150.0,0.0 200.0,0.0 250.0,0.0 300.0,0.0 -25.0,43.30127 25.0,43.30127 75.0,43.30127 125.0,43.30127 175.0,43.30127 225.0,43.30127 275.0,43.30127 -25.0,93.30127 25.0,93.30127 75.0,93.30127 125.0,93.30127 175.0,93.30127 225.0,93.30127 275.0,93.30127 -50.0,136.60254 0.0,136.60254 50.0,136.60254 100.0,136.60254 150.0,136.60254 200.0,136.60254 250.0,136.60254 -50.0,186.60254 0.0,186.60254 50.0,186.60254 100.0,186.60254 150.0,186.60254 200.0,186.60254 250.0,186.60254 -75.0,229.903811 -25.0,229.903811 25.0,229.903811;0.0,0.0 50.0,0.0 100.0,0.0 150.0,0.0 200.0,0.0 250.0,0.0 300.0,0.0 -25.0,43.30127 25.0,43.30127 75.0,43.30127 125.0,43.30127 175.0,43.30127 225.0,43.30127 275.0,43.30127 -25.0,93.30127 25.0,93.30127 75.0,93.30127 125.0,93.30127 175.0,93.30127 225.0,93.30127 275.0,93.30127 -50.0,136.60254 0.0,136.60254 50.0,136.60254 100.0,136.60254 150.0,136.60254 200.0,136.60254 250.0,136.60254 -50.0,186.60254 0.0,186.60254 50.0,186.60254 100.0,186.60254 150.0,186.60254 200.0,186.60254 250.0,186.60254 -75.0,229.903811 -25.0,229.903811 25.0,229.903811 75.0,229.903811;0.0,0.0 50.0,0.0 100.0,0.0 150.0,0.0 200.0,0.0 250.0,0.0 300.0,0.0 -25.0,43.30127 25.0,43.30127 75.0,43.30127 125.0,43.30127 175.0,43.30127 225.0,43.30127 275.0,43.30127 -25.0,93.30127 25.0,93.30127 75.0,93.30127 125.0,93.30127 175.0,93.30127 225.0,93.30127 275.0,93.30127 -50.0,136.60254 0.0,136.60254 50.0,136.60254 100.0,136.60254 150.0,136.60254 200.0,136.60254 250.0,136.60254 -50.0,186.60254 0.0,186.60254 50.0,186.60254 100.0,186.60254 150.0,186.60254 200.0,186.60254 250.0,186.60254 -75.0,229.903811 -25.0,229.903811 25.0,229.903811 75.0,229.903811 125.0,229.903811;0.0,0.0 50.0,0.0 100.0,0.0 150.0,0.0 200.0,0.0 250.0,0.0 300.0,0.0 -25.0,43.30127 25.0,43.30127 75.0,43.30127 125.0,43.30127 175.0,43.30127 225.0,43.30127 275.0,43.30127 -25.0,93.30127 25.0,93.30127 75.0,93.30127 125.0,93.30127 175.0,93.30127 225.0,93.30127 275.0,93.30127 -50.0,136.60254 0.0,136.60254 50.0,136.60254 100.0,136.60254 150.0,136.60254 200.0,136.60254 250.0,136.60254 -50.0,186.60254 0.0,186.60254 50.0,186.60254 100.0,186.60254 150.0,186.60254 200.0,186.60254 250.0,186.60254 -75.0,229.903811 -25.0,229.903811 25.0,229.903811 75.0,229.903811 125.0,229.903811 175.0,229.903811;0.0,0.0 50.0,0.0 100.0,0.0 150.0,0.0 200.0,0.0 250.0,0.0 300.0,0.0 -25.0,43.30127 25.0,43.30127 75.0,43.30127 125.0,43.30127 175.0,43.30127 225.0,43.30127 275.0,43.30127 -25.0,93.30127 25.0,93.30127 75.0,93.30127 125.0,93.30127 175.0,93.30127 225.0,93.30127 275.0,93.30127 -50.0,136.60254 0.0,136.60254 50.0,136.60254 100.0,136.60254 150.0,136.60254 200.0,136.60254 250.0,136.60254 -50.0,186.60254 0.0,186.60254 50.0,186.60254 100.0,186.60254 150.0,186.60254 200.0,186.60254 250.0,186.60254 -75.0,229.903811 -25.0,229.903811 25.0,229.903811 75.0,229.903811 125.0,229.903811 175.0,229.903811 225.0,229.903811;0.0,0.0 50.0,0.0 100.0,0.0 150.0,0.0 200.0,0.0 250.0,0.0 300.0,0.0 -25.0,43.30127 25.0,43.30127 75.0,43.30127 125.0,43.30127 175.0,43.30127 225.0,43.30127 275.0,43.30127 -25.0,93.30127 25.0,93.30127 75.0,93.30127 125.0,93.30127 175.0,93.30127 225.0,93.30127 275.0,93.30127 -50.0,136.60254 0.0,136.60254 50.0,136.60254 100.0,136.60254 150.0,136.60254 200.0,136.60254 250.0,136.60254 -50.0,186.60254 0.0,186.60254 50.0,186.60254 100.0,186.60254 150.0,186.60254 200.0,186.60254 250.0,186.60254 -75.0,229.903811 -25.0,229.903811 25.0,229.903811 75.0,229.903811 125.0,229.903811 175.0,229.903811 225.0,229.903811 -75.0,279.903811;0.0,0.0 50.0,0.0 100.0,0.0 150.0,0.0 200.0,0.0 250.0,0.0 300.0,0.0 -25.0,43.30127 25.0,43.30127 75.0,43.30127 125.0,43.30127 175.0,43.30127 225.0,43.30127 275.0,43.30127 -25.0,93.30127 25.0,93.30127 75.0,93.30127 125.0,93.30127 175.0,93.30127 225.0,93.30127 275.0,93.30127 -50.0,136.60254 0.0,136.60254 50.0,136.60254 100.0,136.60254 150.0,136.60254 200.0,136.60254 250.0,136.60254 -50.0,186.60254 0.0,186.60254 50.0,186.60254 100.0,186.60254 150.0,186.60254 200.0,186.60254 250.0,186.60254 -75.0,229.903811 -25.0,229.903811 25.0,229.903811 75.0,229.903811 125.0,229.903811 175.0,229.903811 225.0,229.903811 -75.0,279.903811 -25.0,279.903811;0.0,0.0 50.0,0.0 100.0,0.0 150.0,0.0 200.0,0.0 250.0,0.0 300.0,0.0 -25.0,43.30127 25.0,43.30127 75.0,43.30127 125.0,43.30127 175.0,43.30127 225.0,43.30127 275.0,43.30127 -25.0,93.30127 25.0,93.30127 75.0,93.30127 125.0,93.30127 175.0,93.30127 225.0,93.30127 275.0,93.30127 -50.0,136.60254 0.0,136.60254 50.0,136.60254 100.0,136.60254 150.0,136.60254 200.0,136.60254 250.0,136.60254 -50.0,186.60254 0.0,186.60254 50.0,186.60254 100.0,186.60254 150.0,186.60254 200.0,186.60254 250.0,186.60254 -75.0,229.903811 -25.0,229.903811 25.0,229.903811 75.0,229.903811 125.0,229.903811 175.0,229.903811 225.0,229.903811 -75.0,279.903811 -25.0,279.903811 25.0,279.903811;0.0,0.0 50.0,0.0 100.0,0.0 150.0,0.0 200.0,0.0 250.0,0.0 300.0,0.0 -25.0,43.30127 25.0,43.30127 75.0,43.30127 125.0,43.30127 175.0,43.30127 225.0,43.30127 275.0,43.30127 -25.0,93.30127 25.0,93.30127 75.0,93.30127 125.0,93.30127 175.0,93.30127 225.0,93.30127 275.0,93.30127 -50.0,136.60254 0.0,136.60254 50.0,136.60254 100.0,136.60254 150.0,136.60254 200.0,136.60254 250.0,136.60254 -50.0,186.60254 0.0,186.60254 50.0,186.60254 100.0,186.60254 150.0,186.60254 200.0,186.60254 250.0,186.60254 -75.0,229.903811 -25.0,229.903811 25.0,229.903811 75.0,229.903811 125.0,229.903811 175.0,229.903811 225.0,229.903811 -75.0,279.903811 -25.0,279.903811 25.0,279.903811 75.0,279.903811;0.0,0.0 50.0,0.0 100.0,0.0 150.0,0.0 200.0,0.0 250.0,0.0 300.0,0.0 -25.0,43.30127 25.0,43.30127 75.0,43.30127 125.0,43.30127 175.0,43.30127 225.0,43.30127 275.0,43.30127 -25.0,93.30127 25.0,93.30127 75.0,93.30127 125.0,93.30127 175.0,93.30127 225.0,93.30127 275.0,93.30127 -50.0,136.60254 0.0,136.60254 50.0,136.60254 100.0,136.60254 150.0,136.60254 200.0,136.60254 250.0,136.60254 -50.0,186.60254 0.0,186.60254 50.0,186.60254 100.0,186.60254 150.0,186.60254 200.0,186.60254 250.0,186.60254 -75.0,229.903811 -25.0,229.903811 25.0,229.903811 75.0,229.903811 125.0,229.903811 175.0,229.903811 225.0,229.903811 -75.0,279.903811 -25.0,279.903811 25.0,279.903811 75.0,279.903811 125.0,279.903811;0.0,0.0 50.0,0.0 100.0,0.0 150.0,0.0 200.0,0.0 250.0,0.0 300.0,0.0 -25.0,43.30127 25.0,43.30127 75.0,43.30127 125.0,43.30127 175.0,43.30127 225.0,43.30127 275.0,43.30127 -25.0,93.30127 25.0,93.30127 75.0,93.30127 125.0,93.30127 175.0,93.30127 225.0,93.30127 275.0,93.30127 -50.0,136.60254 0.0,136.60254 50.0,136.60254 100.0,136.60254 150.0,136.60254 200.0,136.60254 250.0,136.60254 -50.0,186.60254 0.0,186.60254 50.0,186.60254 100.0,186.60254 150.0,186.60254 200.0,186.60254 250.0,186.60254 -75.0,229.903811 -25.0,229.903811 25.0,229.903811 75.0,229.903811 125.0,229.903811 175.0,229.903811 225.0,229.903811 -75.0,279.903811 -25.0,279.903811 25.0,279.903811 75.0,279.903811 125.0,279.903811 175.0,279.903811"/></polyline><polygon style="stroke:red;stroke-width:1.5;fill:red" points="225.0,279.903811 220.612087,277.506683 220.612087,282.300938"><animate attributeName="points" dur="5s" from="0.0,0.0 4.387913,2.397128 4.387913,-2.397128" to="225.0,279.903811 220.612087,277.506683 220.612087,282.300938" values="50.0,0.0 45.612087,-2.397128 45.612087,2.397128;100.0,0.0 95.612087,-2.397128 95.612087,2.397128;150.0,0.0 145.612087,-2.397128 145.612087,2.397128;200.0,0.0 195.612087,-2.397128 195.612087,2.397128;250.0,0.0 245.612087,-2.397128 245.612087,2.397128;300.0,0.0 295.612087,-2.397128 295.612087,2.397128;-25.0,43.30127 -20.333939,45.097899 -20.967105,40.345638;25.0,43.30127 20.612087,40.904142 20.612087,45.698398;75.0,43.30127 70.612087,40.904142 70.612087,45.698398;125.0,43.30127 120.612087,40.904142 120.612087,45.698398;175.0,43.30127 170.612087,40.904142 170.612087,45.698398;225.0,43.30127 220.612087,40.904142 220.612087,45.698398;275.0,43.30127 270.612087,40.904142 270.612087,45.698398;-25.0,93.30127 -20.277704,94.944414 -21.065875,90.21539;25.0,93.30127 20.612087,90.904142 20.612087,95.698398;75.0,93.30127 70.612087,90.904142 70.612087,95.698398;125.0,93.30127 120.612087,90.904142 120.612087,95.698398;175.0,93.30127 170.612087,90.904142 170.612087,95.698398;225.0,93.30127 220.612087,90.904142 220.612087,95.698398;275.0,93.30127 270.612087,90.904142 270.612087,95.698398;-50.0,136.60254 -45.333939,138.39917 -45.967105,133.646909;0.0,136.60254 -4.387913,134.205413 -4.387913,138.999668;50.0,136.60254 45.612087,134.205413 45.612087,138.999668;100.0,136.60254 95.612087,134.205413 95.612087,138.999668;150.0,136.60254 145.612087,134.205413 145.612087,138.999668;200.0,136.60254 195.612087,134.205413 195.612087,138.999668;250.0,136.60254 245.612087,134.205413 245.612087,138.999668;-50.0,186.60254 -45.277704,188.245684 -46.065875,183.51666;0.0,186.60254 -4.387913,184.205413 -4.387913,188.999668;50.0,186.60254 45.612087,184.205413 45.612087,188.999668;100.0,186.60254 95.612087,184.205413 95.612087,188.999668;150.0,186.60254 145.612087,184.205413 145.612087,188.999668;200.0,186.60254 195.612087,184.205413 195.612087,188.999668;250.0,186.60254 245.612087,184.205413 245.612087,188.999668;-75.0,229.903811 -70.333939,231.70044 -70.967105,226.948179;-25.0,229.903811 -29.387913,227.506683 -29.387913,232.300938;25.0,229.903811 20.612087,227.506683 20.612087,232.300938;75.0,229.903811 70.612087,227.506683 70.612087,232.300938;125.0,229.903811 120.612087,227.506683 120.612087,232.300938;175.0,229.903811 170.612087,227.506683 170.612087,232.300938;225.0,229.903811 220.612087,227.506683 220.612087,232.300938;-75.0,279.903811 -70.277704,281.546954 -71.065875,276.81793;-25.0,279.903811 -29.387913,277.506683 -29.387913,282.300938;25.0,279.903811 20.612087,277.506683 20.612087,282.300938;75.0,279.903811 70.612087,277.506683 70.612087,282.300938;125.0,279.903811 120.612087,277.506683 120.612087,282.300938;175.0,279.903811 170.612087,277.506683 170.612087,282.300938"/></polygon></g><g style="fill:#4a4a4a;text-anchor:middle;font-family:Arial,Helvetica,sans-serif"><title>Node labels</title><desc>Each node showing its value</desc><text x="200.0" y="0.0">5</text><text x="75.0" y="43.30127">10</text><text x="275.0" y="43.30127">14</text><text x="0.0" y="0.0">1</text><text x="250.0" y="0.0">6</text><text x="25.0" y="43.30127">9</text><text x="50.0" y="0.0">2</text><text x="-25.0" y="43.30127">8</text><text x="150.0" y="0.0">4</text><text x="225.0" y="229.903811">42</text><text x="50.0" y="136.60254">24</text><text x="-25.0" y="229.903811">37</text><text x="100.0" y="136.60254">25</text><text x="225.0" y="93.30127">20</text><text x="75.0" y="279.903811">46</text><text x="-50.0" y="186.60254">29</text><text x="275.0" y="93.30127">21</text><text x="150.0" y="186.60254">33</text><text x="250.0" y="136.60254">28</text><text x="25.0" y="229.903811">38</text><text x="225.0" y="43.30127">13</text><text x="175.0" y="229.903811">41</text><text x="25.0" y="279.903811">45</text><text x="75.0" y="93.30127">17</text><text x="100.0" y="186.60254">32</text><text x="200.0" y="186.60254">34</text><text x="-50.0" y="136.60254">22</text><text x="-25.0" y="279.903811">44</text><text x="200.0" y="136.60254">27</text><text x="175.0" y="43.30127">12</text><text x="225.0" y="279.903811">49</text><text x="300.0" y="0.0">7</text><text x="75.0" y="229.903811">39</text><text x="100.0" y="0.0">3</text><text x="250.0" y="186.60254">35</text><text x="175.0" y="279.903811">48</text><text x="125.0" y="93.30127">18</text><text x="25.0" y="93.30127">16</text><text x="50.0" y="186.60254">31</text><text x="125.0" y="43.30127">11</text><text x="-75.0" y="279.903811">43</text><text x="125.0" y="229.903811">40</text><text x="150.0" y="136.60254">26</text><text x="0.0" y="136.60254">23</text><text x="-75.0" y="229.903811">36</text><text x="0.0" y="186.60254">30</text><text x="175.0" y="93.30127">19</text><text x="125.0" y="279.903811">47</text><text x="-25.0" y="93.30127">15</text></g></g><metadata><rdf:RDF><cc:Work><dc:source rdf:resource="https://github.com/scala-tessella/tessella">Tessella</dc:source><cc:license rdf:resource="https://www.apache.org/licenses/LICENSE-2.0"/></cc:Work></rdf:RDF></metadata></svg>
