<?xml version='1.0' encoding='UTF-8'?>
<svg xmlns:rdf="http://www.w3.org/1999/02/22-rdf-syntax-ns#" xmlns:cc="http://creativecommons.org/ns#" xmlns:dc="http://purl.org/dc/elements/1.1/" viewBox="-175.0 -154.903811 350.0 309.807621" xmlns="http://www.w3.org/2000/svg"><g><title>Tiling</title><desc>Finite tessellation of regular polygons</desc><g style="stroke:black"><title>Edges</title><desc>Sides of the regular polygons</desc><line x1="0.0" y1="0.0" x2="50.0" y2="0.0"/><line x1="50.0" y1="0.0" x2="25.0" y2="43.30127"/><line x1="0.0" y1="0.0" x2="25.0" y2="43.30127"/><line x1="25.0" y1="43.30127" x2="-25.0" y2="43.30127"/><line x1="0.0" y1="0.0" x2="-25.0" y2="43.30127"/><line x1="-25.0" y1="43.30127" x2="-50.0" y2="0.0"/><line x1="0.0" y1="0.0" x2="-50.0" y2="0.0"/><line x1="-50.0" y1="0.0" x2="-25.0" y2="-43.30127"/><line x1="0.0" y1="0.0" x2="-25.0" y2="-43.30127"/><line x1="-25.0" y1="-43.30127" x2="25.0" y2="-43.30127"/><line x1="0.0" y1="0.0" x2="25.0" y2="-43.30127"/><line x1="50.0" y1="0.0" x2="25.0" y2="-43.30127"/><line x1="25.0" y1="-43.30127" x2="75.0" y2="-43.30127"/><line x1="50.0" y1="0.0" x2="75.0" y2="-43.30127"/><line x1="75.0" y1="-43.30127" x2="100.0" y2="0.0"/><line x1="50.0" y1="0.0" x2="100.0" y2="0.0"/><line x1="100.0" y1="0.0" x2="75.0" y2="43.30127"/><line x1="50.0" y1="0.0" x2="75.0" y2="43.30127"/><line x1="25.0" y1="43.30127" x2="75.0" y2="43.30127"/><line x1="75.0" y1="43.30127" x2="50.0" y2="86.60254"/><line x1="25.0" y1="43.30127" x2="50.0" y2="86.60254"/><line x1="50.0" y1="86.60254" x2="0.0" y2="86.60254"/><line x1="25.0" y1="43.30127" x2="0.0" y2="86.60254"/><line x1="-25.0" y1="43.30127" x2="0.0" y2="86.60254"/><line x1="0.0" y1="86.60254" x2="-50.0" y2="86.60254"/><line x1="-25.0" y1="43.30127" x2="-50.0" y2="86.60254"/><line x1="-50.0" y1="86.60254" x2="-75.0" y2="43.30127"/><line x1="-25.0" y1="43.30127" x2="-75.0" y2="43.30127"/><line x1="-50.0" y1="0.0" x2="-75.0" y2="43.30127"/><line x1="-75.0" y1="43.30127" x2="-100.0" y2="0.0"/><line x1="-50.0" y1="0.0" x2="-100.0" y2="0.0"/><line x1="-100.0" y1="0.0" x2="-75.0" y2="-43.30127"/><line x1="-50.0" y1="0.0" x2="-75.0" y2="-43.30127"/><line x1="-25.0" y1="-43.30127" x2="-75.0" y2="-43.30127"/><line x1="-75.0" y1="-43.30127" x2="-50.0" y2="-86.60254"/><line x1="-25.0" y1="-43.30127" x2="-50.0" y2="-86.60254"/><line x1="-50.0" y1="-86.60254" x2="0.0" y2="-86.60254"/><line x1="-25.0" y1="-43.30127" x2="0.0" y2="-86.60254"/><line x1="25.0" y1="-43.30127" x2="0.0" y2="-86.60254"/><line x1="0.0" y1="-86.60254" x2="50.0" y2="-86.60254"/><line x1="25.0" y1="-43.30127" x2="50.0" y2="-86.60254"/><line x1="75.0" y1="-43.30127" x2="50.0" y2="-86.60254"/><line x1="50.0" y1="-86.60254" x2="100.0" y2="-86.60254"/><line x1="75.0" y1="-43.30127" x2="100.0" y2="-86.60254"/><line x1="100.0" y1="-86.60254" x2="125.0" y2="-43.30127"/><line x1="75.0" y1="-43.30127" x2="125.0" y2="-43.30127"/><line x1="100.0" y1="0.0" x2="125.0" y2="-43.30127"/><line x1="125.0" y1="-43.30127" x2="150.0" y2="0.0"/><line x1="100.0" y1="0.0" x2="150.0" y2="0.0"/><line x1="150.0" y1="0.0" x2="125.0" y2="43.30127"/><line x1="100.0" y1="0.0" x2="125.0" y2="43.30127"/><line x1="75.0" y1="43.30127" x2="125.0" y2="43.30127"/><line x1="125.0" y1="43.30127" x2="100.0" y2="86.60254"/><line x1="75.0" y1="43.30127" x2="100.0" y2="86.60254"/><line x1="50.0" y1="86.60254" x2="100.0" y2="86.60254"/><line x1="100.0" y1="86.60254" x2="75.0" y2="129.903811"/><line x1="50.0" y1="86.60254" x2="75.0" y2="129.903811"/><line x1="75.0" y1="129.903811" x2="25.0" y2="129.903811"/><line x1="50.0" y1="86.60254" x2="25.0" y2="129.903811"/><line x1="0.0" y1="86.60254" x2="25.0" y2="129.903811"/><line x1="25.0" y1="129.903811" x2="-25.0" y2="129.903811"/><line x1="0.0" y1="86.60254" x2="-25.0" y2="129.903811"/><line x1="-50.0" y1="86.60254" x2="-25.0" y2="129.903811"/><line x1="-25.0" y1="129.903811" x2="-75.0" y2="129.903811"/><line x1="-50.0" y1="86.60254" x2="-75.0" y2="129.903811"/><line x1="-75.0" y1="129.903811" x2="-100.0" y2="86.60254"/><line x1="-50.0" y1="86.60254" x2="-100.0" y2="86.60254"/><line x1="-75.0" y1="43.30127" x2="-100.0" y2="86.60254"/><line x1="-100.0" y1="86.60254" x2="-125.0" y2="43.30127"/><line x1="-75.0" y1="43.30127" x2="-125.0" y2="43.30127"/><line x1="-100.0" y1="0.0" x2="-125.0" y2="43.30127"/><line x1="-125.0" y1="43.30127" x2="-150.0" y2="0.0"/><line x1="-100.0" y1="0.0" x2="-150.0" y2="0.0"/><line x1="-150.0" y1="0.0" x2="-125.0" y2="-43.30127"/><line x1="-100.0" y1="0.0" x2="-125.0" y2="-43.30127"/><line x1="-75.0" y1="-43.30127" x2="-125.0" y2="-43.30127"/><line x1="-125.0" y1="-43.30127" x2="-100.0" y2="-86.60254"/><line x1="-75.0" y1="-43.30127" x2="-100.0" y2="-86.60254"/><line x1="-50.0" y1="-86.60254" x2="-100.0" y2="-86.60254"/><line x1="-100.0" y1="-86.60254" x2="-75.0" y2="-129.903811"/><line x1="-50.0" y1="-86.60254" x2="-75.0" y2="-129.903811"/><line x1="-75.0" y1="-129.903811" x2="-25.0" y2="-129.903811"/><line x1="-50.0" y1="-86.60254" x2="-25.0" y2="-129.903811"/><line x1="0.0" y1="-86.60254" x2="-25.0" y2="-129.903811"/><line x1="-25.0" y1="-129.903811" x2="25.0" y2="-129.903811"/><line x1="0.0" y1="-86.60254" x2="25.0" y2="-129.903811"/><line x1="50.0" y1="-86.60254" x2="25.0" y2="-129.903811"/><line x1="25.0" y1="-129.903811" x2="75.0" y2="-129.903811"/><line x1="50.0" y1="-86.60254" x2="75.0" y2="-129.903811"/><line x1="100.0" y1="-86.60254" x2="75.0" y2="-129.903811"/></g><g style="stroke:none"><title>Polygons</title><desc>Regular polygons</desc><g style="fill:yellow"><title>Regular 3-gons</title><desc>Regular polygons with 3 sides</desc><polygon points="0.0,86.60254 25.0,129.903811 -25.0,129.903811"/><polygon points="-50.0,86.60254 -25.0,129.903811 -75.0,129.903811"/><polygon points="-75.0,129.903811 -100.0,86.60254 -50.0,86.60254"/><polygon points="50.0,86.60254 100.0,86.60254 75.0,129.903811"/><polygon points="75.0,129.903811 25.0,129.903811 50.0,86.60254"/><polygon points="50.0,86.60254 25.0,129.903811 0.0,86.60254"/><polygon points="-25.0,129.903811 -50.0,86.60254 0.0,86.60254"/><polygon points="-75.0,43.30127 -50.0,86.60254 -100.0,86.60254"/><polygon points="-100.0,86.60254 -125.0,43.30127 -75.0,43.30127"/><polygon points="100.0,86.60254 50.0,86.60254 75.0,43.30127"/><polygon points="75.0,43.30127 125.0,43.30127 100.0,86.60254"/><polygon points="-100.0,-86.60254 -75.0,-129.903811 -50.0,-86.60254"/><polygon points="-100.0,0.0 -150.0,0.0 -125.0,-43.30127"/><polygon points="-100.0,0.0 -125.0,43.30127 -150.0,0.0"/><polygon points="-75.0,43.30127 -125.0,43.30127 -100.0,0.0"/><polygon points="-25.0,43.30127 0.0,86.60254 -50.0,86.60254"/><polygon points="-50.0,86.60254 -75.0,43.30127 -25.0,43.30127"/><polygon points="25.0,43.30127 50.0,86.60254 0.0,86.60254"/><polygon points="75.0,43.30127 50.0,86.60254 25.0,43.30127"/><polygon points="100.0,0.0 75.0,43.30127 50.0,0.0"/><polygon points="100.0,0.0 125.0,43.30127 75.0,43.30127"/><polygon points="100.0,0.0 150.0,0.0 125.0,43.30127"/><polygon points="125.0,-43.30127 150.0,0.0 100.0,0.0"/><polygon points="-50.0,-86.60254 -75.0,-129.903811 -25.0,-129.903811"/><polygon points="-50.0,-86.60254 -75.0,-43.30127 -100.0,-86.60254"/><polygon points="-75.0,-43.30127 -125.0,-43.30127 -100.0,-86.60254"/><polygon points="-75.0,-43.30127 -100.0,0.0 -125.0,-43.30127"/><polygon points="-50.0,0.0 -100.0,0.0 -75.0,-43.30127"/><polygon points="-100.0,0.0 -50.0,0.0 -75.0,43.30127"/><polygon points="-25.0,43.30127 -75.0,43.30127 -50.0,0.0"/><polygon points="25.0,43.30127 0.0,86.60254 -25.0,43.30127"/><polygon points="25.0,43.30127 50.0,0.0 75.0,43.30127"/><polygon points="50.0,0.0 75.0,-43.30127 100.0,0.0"/><polygon points="100.0,0.0 75.0,-43.30127 125.0,-43.30127"/><polygon points="100.0,-86.60254 125.0,-43.30127 75.0,-43.30127"/><polygon points="0.0,-86.60254 -25.0,-129.903811 25.0,-129.903811"/><polygon points="25.0,-129.903811 50.0,-86.60254 0.0,-86.60254"/><polygon points="0.0,-86.60254 -50.0,-86.60254 -25.0,-129.903811"/><polygon points="50.0,-86.60254 25.0,-43.30127 0.0,-86.60254"/><polygon points="0.0,-86.60254 25.0,-43.30127 -25.0,-43.30127"/><polygon points="-25.0,-43.30127 -50.0,-86.60254 0.0,-86.60254"/><polygon points="-25.0,-43.30127 -75.0,-43.30127 -50.0,-86.60254"/><polygon points="-75.0,-43.30127 -25.0,-43.30127 -50.0,0.0"/><polygon points="0.0,0.0 -50.0,0.0 -25.0,-43.30127"/><polygon points="-25.0,-43.30127 25.0,-43.30127 0.0,0.0"/><polygon points="-50.0,0.0 0.0,0.0 -25.0,43.30127"/><polygon points="0.0,0.0 25.0,43.30127 -25.0,43.30127"/><polygon points="50.0,0.0 25.0,43.30127 0.0,0.0"/><polygon points="0.0,0.0 25.0,-43.30127 50.0,0.0"/><polygon points="75.0,-43.30127 50.0,0.0 25.0,-43.30127"/><polygon points="25.0,-43.30127 50.0,-86.60254 75.0,-43.30127"/><polygon points="75.0,-43.30127 50.0,-86.60254 100.0,-86.60254"/><polygon points="75.0,-129.903811 100.0,-86.60254 50.0,-86.60254"/><polygon points="50.0,-86.60254 25.0,-129.903811 75.0,-129.903811"/></g></g><polygon style="fill:none;stroke:blue;stroke-width:2" points="100.0,-86.60254 75.0,-129.903811 25.0,-129.903811 -25.0,-129.903811 -75.0,-129.903811 -100.0,-86.60254 -125.0,-43.30127 -150.0,0.0 -125.0,43.30127 -100.0,86.60254 -75.0,129.903811 -25.0,129.903811 25.0,129.903811 75.0,129.903811 100.0,86.60254 125.0,43.30127 150.0,0.0 125.0,-43.30127"/><g><polyline style="stroke:red;stroke-width:1.5;stroke-dasharray:5,5;fill:none" points="0.0,0.0 50.0,0.0 25.0,43.30127 -25.0,43.30127 -50.0,0.0 -25.0,-43.30127 25.0,-43.30127 75.0,-43.30127 100.0,0.0 75.0,43.30127 50.0,86.60254 0.0,86.60254 -50.0,86.60254 -75.0,43.30127 -100.0,0.0 -75.0,-43.30127 -50.0,-86.60254 0.0,-86.60254 50.0,-86.60254 100.0,-86.60254 125.0,-43.30127 150.0,0.0 125.0,43.30127 100.0,86.60254 75.0,129.903811 25.0,129.903811 -25.0,129.903811 -75.0,129.903811 -100.0,86.60254 -125.0,43.30127 -150.0,0.0 -125.0,-43.30127 -100.0,-86.60254 -75.0,-129.903811 -25.0,-129.903811 25.0,-129.903811 75.0,-129.903811"><animate attributeName="points" dur="5s" from="0.0,0.0" to="0.0,0.0 50.0,0.0 25.0,43.30127 -25.0,43.30127 -50.0,0.0 -25.0,-43.30127 25.0,-43.30127 75.0,-43.30127 100.0,0.0 75.0,43.30127 50.0,86.60254 0.0,86.60254 -50.0,86.60254 -75.0,43.30127 -100.0,0.0 -75.0,-43.30127 -50.0,-86.60254 0.0,-86.60254 50.0,-86.60254 100.0,-86.60254 125.0,-43.30127 150.0,0.0 125.0,43.30127 100.0,86.60254 75.0,129.903811 25.0,129.903811 -25.0,129.903811 -75.0,129.903811 -100.0,86.60254 -125.0,43.30127 -150.0,0.0 -125.0,-43.30127 -100.0,-86.60254 -75.0,-129.903811 -25.0,-129.903811 25.0,-129.903811 75.0,-129.903811" values="0.0,0.0 50.0,0.0;0.0,0.0 50.0,0.0 25.0,43.30127;0.0,0.0 50.0,0.0 25.0,43.30127 -25.0,43.30127;0.0,0.0 50.0,0.0 25.0,43.30127 -25.0,43.30127 -50.0,0.0;0.0,0.0 50.0,0.0 25.0,43.30127 -25.0,43.30127 -50.0,0.0 -25.0,-43.30127;0.0,0.0 50.0,0.0 25.0,43.30127 -25.0,43.30127 -50.0,0.0 -25.0,-43.30127 25.0,-43.30127;0.0,0.0 50.0,0.0 25.0,43.30127 -25.0,43.30127 -50.0,0.0 -25.0,-43.30127 25.0,-43.30127 75.0,-43.30127;0.0,0.0 50.0,0.0 25.0,43.30127 -25.0,43.30127 -50.0,0.0 -25.0,-43.30127 25.0,-43.30127 75.0,-43.30127 100.0,0.0;0.0,0.0 50.0,0.0 25.0,43.30127 -25.0,43.30127 -50.0,0.0 -25.0,-43.30127 25.0,-43.30127 75.0,-43.30127 100.0,0.0 75.0,43.30127;0.0,0.0 50.0,0.0 25.0,43.30127 -25.0,43.30127 -50.0,0.0 -25.0,-43.30127 25.0,-43.30127 75.0,-43.30127 100.0,0.0 75.0,43.30127 50.0,86.60254;0.0,0.0 50.0,0.0 25.0,43.30127 -25.0,43.30127 -50.0,0.0 -25.0,-43.30127 25.0,-43.30127 75.0,-43.30127 100.0,0.0 75.0,43.30127 50.0,86.60254 0.0,86.60254;0.0,0.0 50.0,0.0 25.0,43.30127 -25.0,43.30127 -50.0,0.0 -25.0,-43.30127 25.0,-43.30127 75.0,-43.30127 100.0,0.0 75.0,43.30127 50.0,86.60254 0.0,86.60254 -50.0,86.60254;0.0,0.0 50.0,0.0 25.0,43.30127 -25.0,43.30127 -50.0,0.0 -25.0,-43.30127 25.0,-43.30127 75.0,-43.30127 100.0,0.0 75.0,43.30127 50.0,86.60254 0.0,86.60254 -50.0,86.60254 -75.0,43.30127;0.0,0.0 50.0,0.0 25.0,43.30127 -25.0,43.30127 -50.0,0.0 -25.0,-43.30127 25.0,-43.30127 75.0,-43.30127 100.0,0.0 75.0,43.30127 50.0,86.60254 0.0,86.60254 -50.0,86.60254 -75.0,43.30127 -100.0,0.0;0.0,0.0 50.0,0.0 25.0,43.30127 -25.0,43.30127 -50.0,0.0 -25.0,-43.30127 25.0,-43.30127 75.0,-43.30127 100.0,0.0 75.0,43.30127 50.0,86.60254 0.0,86.60254 -50.0,86.60254 -75.0,43.30127 -100.0,0.0 -75.0,-43.30127;0.0,0.0 50.0,0.0 25.0,43.30127 -25.0,43.30127 -50.0,0.0 -25.0,-43.30127 25.0,-43.30127 75.0,-43.30127 100.0,0.0 75.0,43.30127 50.0,86.60254 0.0,86.60254 -50.0,86.60254 -75.0,43.30127 -100.0,0.0 -75.0,-43.30127 -50.0,-86.60254;0.0,0.0 50.0,0.0 25.0,43.30127 -25.0,43.30127 -50.0,0.0 -25.0,-43.30127 25.0,-43.30127 75.0,-43.30127 100.0,0.0 75.0,43.30127 50.0,86.60254 0.0,86.60254 -50.0,86.60254 -75.0,43.30127 -100.0,0.0 -75.0,-43.30127 -50.0,-86.60254 0.0,-86.60254;0.0,0.0 50.0,0.0 25.0,43.30127 -25.0,43.30127 -50.0,0.0 -25.0,-43.30127 25.0,-43.30127 75.0,-43.30127 100.0,0.0 75.0,43.30127 50.0,86.60254 0.0,86.60254 -50.0,86.60254 -75.0,43.30127 -100.0,0.0 -75.0,-43.30127 -50.0,-86.60254 0.0,-86.60254 50.0,-86.60254;0.0,0.0 50.0,0.0 25.0,43.30127 -25.0,43.30127 -50.0,0.0 -25.0,-43.30127 25.0,-43.30127 75.0,-43.30127 100.0,0.0 75.0,43.30127 50.0,86.60254 0.0,86.60254 -50.0,86.60254 -75.0,43.30127 -100.0,0.0 -75.0,-43.30127 -50.0,-86.60254 0.0,-86.60254 50.0,-86.60254 100.0,-86.60254;0.0,0.0 50.0,0.0 25.0,43.30127 -25.0,43.30127 -50.0,0.0 -25.0,-43.30127 25.0,-43.30127 75.0,-43.30127 100.0,0.0 75.0,43.30127 50.0,86.60254 0.0,86.60254 -50.0,86.60254 -75.0,43.30127 -100.0,0.0 -75.0,-43.30127 -50.0,-86.60254 0.0,-86.60254 50.0,-86.60254 100.0,-86.60254 125.0,-43.30127;0.0,0.0 50.0,0.0 25.0,43.30127 -25.0,43.30127 -50.0,0.0 -25.0,-43.30127 25.0,-43.30127 75.0,-43.30127 100.0,0.0 75.0,43.30127 50.0,86.60254 0.0,86.60254 -50.0,86.60254 -75.0,43.30127 -100.0,0.0 -75.0,-43.30127 -50.0,-86.60254 0.0,-86.60254 50.0,-86.60254 100.0,-86.60254 125.0,-43.30127 150.0,0.0;0.0,0.0 50.0,0.0 25.0,43.30127 -25.0,43.30127 -50.0,0.0 -25.0,-43.30127 25.0,-43.30127 75.0,-43.30127 100.0,0.0 75.0,43.30127 50.0,86.60254 0.0,86.60254 -50.0,86.60254 -75.0,43.30127 -100.0,0.0 -75.0,-43.30127 -50.0,-86.60254 0.0,-86.60254 50.0,-86.60254 100.0,-86.60254 125.0,-43.30127 150.0,0.0 125.0,43.30127;0.0,0.0 50.0,0.0 25.0,43.30127 -25.0,43.30127 -50.0,0.0 -25.0,-43.30127 25.0,-43.30127 75.0,-43.30127 100.0,0.0 75.0,43.30127 50.0,86.60254 0.0,86.60254 -50.0,86.60254 -75.0,43.30127 -100.0,0.0 -75.0,-43.30127 -50.0,-86.60254 0.0,-86.60254 50.0,-86.60254 100.0,-86.60254 125.0,-43.30127 150.0,0.0 125.0,43.30127 100.0,86.60254;0.0,0.0 50.0,0.0 25.0,43.30127 -25.0,43.30127 -50.0,0.0 -25.0,-43.30127 25.0,-43.30127 75.0,-43.30127 100.0,0.0 75.0,43.30127 50.0,86.60254 0.0,86.60254 -50.0,86.60254 -75.0,43.30127 -100.0,0.0 -75.0,-43.30127 -50.0,-86.60254 0.0,-86.60254 50.0,-86.60254 100.0,-86.60254 125.0,-43.30127 150.0,0.0 125.0,43.30127 100.0,86.60254 75.0,129.903811;0.0,0.0 50.0,0.0 25.0,43.30127 -25.0,43.30127 -50.0,0.0 -25.0,-43.30127 25.0,-43.30127 75.0,-43.30127 100.0,0.0 75.0,43.30127 50.0,86.60254 0.0,86.60254 -50.0,86.60254 -75.0,43.30127 -100.0,0.0 -75.0,-43.30127 -50.0,-86.60254 0.0,-86.60254 50.0,-86.60254 100.0,-86.60254 125.0,-43.30127 150.0,0.0 125.0,43.30127 100.0,86.60254 75.0,129.903811 25.0,129.903811;0.0,0.0 50.0,0.0 25.0,43.30127 -25.0,43.30127 -50.0,0.0 -25.0,-43.30127 25.0,-43.30127 75.0,-43.30127 100.0,0.0 75.0,43.30127 50.0,86.60254 0.0,86.60254 -50.0,86.60254 -75.0,43.30127 -100.0,0.0 -75.0,-43.30127 -50.0,-86.60254 0.0,-86.60254 50.0,-86.60254 100.0,-86.60254 125.0,-43.30127 150.0,0.0 125.0,43.30127 100.0,86.60254 75.0,129.903811 25.0,129.903811 -25.0,129.903811;0.0,0.0 50.0,0.0 25.0,43.30127 -25.0,43.30127 -50.0,0.0 -25.0,-43.30127 25.0,-43.30127 75.0,-43.30127 100.0,0.0 75.0,43.30127 50.0,86.60254 0.0,86.60254 -50.0,86.60254 -75.0,43.30127 -100.0,0.0 -75.0,-43.30127 -50.0,-86.60254 0.0,-86.60254 50.0,-86.60254 100.0,-86.60254 125.0,-43.30127 150.0,0.0 125.0,43.30127 100.0,86.60254 75.0,129.903811 25.0,129.903811 -25.0,129.903811 -75.0,129.903811;0.0,0.0 50.0,0.0 25.0,43.30127 -25.0,43.30127 -50.0,0.0 -25.0,-43.30127 25.0,-43.30127 75.0,-43.30127 100.0,0.0 75.0,43.30127 50.0,86.60254 0.0,86.60254 -50.0,86.60254 -75.0,43.30127 -100.0,0.0 -75.0,-43.30127 -50.0,-86.60254 0.0,-86.60254 50.0,-86.60254 100.0,-86.60254 125.0,-43.30127 150.0,0.0 125.0,43.30127 100.0,86.60254 75.0,129.903811 25.0,129.903811 -25.0,129.903811 -75.0,129.903811 -100.0,86.60254;0.0,0.0 50.0,0.0 25.0,43.30127 -25.0,43.30127 -50.0,0.0 -25.0,-43.30127 25.0,-43.30127 75.0,-43.30127 100.0,0.0 75.0,43.30127 50.0,86.60254 0.0,86.60254 -50.0,86.60254 -75.0,43.30127 -100.0,0.0 -75.0,-43.30127 -50.0,-86.60254 0.0,-86.60254 50.0,-86.60254 100.0,-86.60254 125.0,-43.30127 150.0,0.0 125.0,43.30127 100.0,86.60254 75.0,129.903811 25.0,129.903811 -25.0,129.903811 -75.0,129.903811 -100.0,86.60254 -125.0,43.30127;0.0,0.0 50.0,0.0 25.0,43.30127 -25.0,43.30127 -50.0,0.0 -25.0,-43.30127 25.0,-43.30127 75.0,-43.30127 100.0,0.0 75.0,43.30127 50.0,86.60254 0.0,86.60254 -50.0,86.60254 -75.0,43.30127 -100.0,0.0 -75.0,-43.30127 -50.0,-86.60254 0.0,-86.60254 50.0,-86.60254 100.0,-86.60254 125.0,-43.30127 150.0,0.0 125.0,43.30127 100.0,86.60254 75.0,129.903811 25.0,129.903811 -25.0,129.903811 -75.0,129.903811 -100.0,86.60254 -125.0,43.30127 -150.0,0.0;0.0,0.0 50.0,0.0 25.0,43.30127 -25.0,43.30127 -50.0,0.0 -25.0,-43.30127 25.0,-43.30127 75.0,-43.30127 100.0,0.0 75.0,43.30127 50.0,86.60254 0.0,86.60254 -50.0,86.60254 -75.0,43.30127 -100.0,0.0 -75.0,-43.30127 -50.0,-86.60254 0.0,-86.60254 50.0,-86.60254 100.0,-86.60254 125.0,-43.30127 150.0,0.0 125.0,43.30127 100.0,86.60254 75.0,129.903811 25.0,129.903811 -25.0,129.903811 -75.0,129.903811 -100.0,86.60254 -125.0,43.30127 -150.0,0.0 -125.0,-43.30127;0.0,0.0 50.0,0.0 25.0,43.30127 -25.0,43.30127 -50.0,0.0 -25.0,-43.30127 25.0,-43.30127 75.0,-43.30127 100.0,0.0 75.0,43.30127 50.0,86.60254 0.0,86.60254 -50.0,86.60254 -75.0,43.30127 -100.0,0.0 -75.0,-43.30127 -50.0,-86.60254 0.0,-86.60254 50.0,-86.60254 100.0,-86.60254 125.0,-43.30127 150.0,0.0 125.0,43.30127 100.0,86.60254 75.0,129.903811 25.0,129.903811 -25.0,129.903811 -75.0,129.903811 -100.0,86.60254 -125.0,43.30127 -150.0,0.0 -125.0,-43.30127 -100.0,-86.60254;0.0,0.0 50.0,0.0 25.0,43.30127 -25.0,43.30127 -50.0,0.0 -25.0,-43.30127 25.0,-43.30127 75.0,-43.30127 100.0,0.0 75.0,43.30127 50.0,86.60254 0.0,86.60254 -50.0,86.60254 -75.0,43.30127 -100.0,0.0 -75.0,-43.30127 -50.0,-86.60254 0.0,-86.60254 50.0,-86.60254 100.0,-86.60254 125.0,-43.30127 150.0,0.0 125.0,43.30127 100.0,86.60254 75.0,129.903811 25.0,129.903811 -25.0,129.903811 -75.0,129.903811 -100.0,86.60254 -125.0,43.30127 -150.0,0.0 -125.0,-43.30127 -100.0,-86.60254 -75.0,-129.903811;0.0,0.0 50.0,0.0 25.0,43.30127 -25.0,43.30127 -50.0,0.0 -25.0,-43.30127 25.0,-43.30127 75.0,-43.30127 100.0,0.0 75.0,43.30127 50.0,86.60254 0.0,86.60254 -50.0,86.60254 -75.0,43.30127 -100.0,0.0 -75.0,-43.30127 -50.0,-86.60254 0.0,-86.60254 50.0,-86.60254 100.0,-86.60254 125.0,-43.30127 150.0,0.0 125.0,43.30127 100.0,86.60254 75.0,129.903811 25.0,129.903811 -25.0,129.903811 -75.0,129.903811 -100.0,86.60254 -125.0,43.30127 -150.0,0.0 -125.0,-43.30127 -100.0,-86.60254 -75.0,-129.903811 -25.0,-129.903811;0.0,0.0 50.0,0.0 25.0,43.30127 -25.0,43.30127 -50.0,0.0 -25.0,-43.30127 25.0,-43.30127 75.0,-43.30127 100.0,0.0 75.0,43.30127 50.0,86.60254 0.0,86.60254 -50.0,86.60254 -75.0,43.30127 -100.0,0.0 -75.0,-43.30127 -50.0,-86.60254 0.0,-86.60254 50.0,-86.60254 100.0,-86.60254 125.0,-43.30127 150.0,0.0 125.0,43.30127 100.0,86.60254 75.0,129.903811 25.0,129.903811 -25.0,129.903811 -75.0,129.903811 -100.0,86.60254 -125.0,43.30127 -150.0,0.0 -125.0,-43.30127 -100.0,-86.60254 -75.0,-129.903811 -25.0,-129.903811 25.0,-129.903811"/></polyline><polygon style="stroke:red;stroke-width:1.5;fill:red" points="75.0,-129.903811 70.612087,-132.300938 70.612087,-127.506683"><animate attributeName="points" dur="5s" from="0.0,0.0 4.387913,2.397128 4.387913,-2.397128" to="75.0,-129.903811 70.612087,-132.300938 70.612087,-127.506683" values="50.0,0.0 45.612087,-2.397128 45.612087,2.397128;25.0,43.30127 29.26993,40.69979 25.117983,38.302662;-25.0,43.30127 -20.612087,45.698398 -20.612087,40.904142;-50.0,0.0 -49.882017,4.998608 -45.73007,2.60148;-25.0,-43.30127 -29.26993,-40.69979 -25.117983,-38.302662;25.0,-43.30127 20.612087,-45.698398 20.612087,-40.904142;75.0,-43.30127 70.612087,-45.698398 70.612087,-40.904142;100.0,0.0 99.882017,-4.998608 95.73007,-2.60148;75.0,43.30127 79.26993,40.69979 75.117983,38.302662;50.0,86.60254 54.26993,84.00106 50.117983,81.603933;0.0,86.60254 4.387913,88.999668 4.387913,84.205413;-50.0,86.60254 -45.612087,88.999668 -45.612087,84.205413;-75.0,43.30127 -74.882017,48.299878 -70.73007,45.90275;-100.0,0.0 -99.882017,4.998608 -95.73007,2.60148;-75.0,-43.30127 -79.26993,-40.69979 -75.117983,-38.302662;-50.0,-86.60254 -54.26993,-84.00106 -50.117983,-81.603933;0.0,-86.60254 -4.387913,-88.999668 -4.387913,-84.205413;50.0,-86.60254 45.612087,-88.999668 45.612087,-84.205413;100.0,-86.60254 95.612087,-88.999668 95.612087,-84.205413;125.0,-43.30127 124.882017,-48.299878 120.73007,-45.90275;150.0,0.0 149.882017,-4.998608 145.73007,-2.60148;125.0,43.30127 129.26993,40.69979 125.117983,38.302662;100.0,86.60254 104.26993,84.00106 100.117983,81.603933;75.0,129.903811 79.26993,127.30233 75.117983,124.905203;25.0,129.903811 29.387913,132.300938 29.387913,127.506683;-25.0,129.903811 -20.612087,132.300938 -20.612087,127.506683;-75.0,129.903811 -70.612087,132.300938 -70.612087,127.506683;-100.0,86.60254 -99.882017,91.601148 -95.73007,89.20402;-125.0,43.30127 -124.882017,48.299878 -120.73007,45.90275;-150.0,0.0 -149.882017,4.998608 -145.73007,2.60148;-125.0,-43.30127 -129.26993,-40.69979 -125.117983,-38.302662;-100.0,-86.60254 -104.26993,-84.00106 -100.117983,-81.603933;-75.0,-129.903811 -79.26993,-127.30233 -75.117983,-124.905203;-25.0,-129.903811 -29.387913,-132.300938 -29.387913,-127.506683;25.0,-129.903811 20.612087,-132.300938 20.612087,-127.506683"/></polygon></g><g style="fill:#4a4a4a;text-anchor:middle;font-family:Arial,Helvetica,sans-serif"><title>Node labels</title><desc>Each node showing its value</desc><text x="-50.0" y="0.0">5</text><text x="75.0" y="43.30127">10</text><text x="-75.0" y="43.30127">14</text><text x="0.0" y="0.0">1</text><text x="-25.0" y="-43.30127">6</text><text x="100.0" y="0.0">9</text><text x="-50.0" y="86.60254">13</text><text x="50.0" y="0.0">2</text><text x="0.0" y="86.60254">12</text><text x="25.0" y="-43.30127">7</text><text x="0.0" y="-86.60254">18</text><text x="50.0" y="86.60254">11</text><text x="75.0" y="-43.30127">8</text><text x="-25.0" y="43.30127">4</text><text x="-100.0" y="0.0">15</text><text x="100.0" y="86.60254">24</text><text x="75.0" y="-129.903811">37</text><text x="75.0" y="129.903811">25</text><text x="100.0" y="-86.60254">20</text><text x="-100.0" y="86.60254">29</text><text x="-75.0" y="129.903811">28</text><text x="125.0" y="-43.30127">21</text><text x="-100.0" y="-86.60254">33</text><text x="-50.0" y="-86.60254">17</text><text x="-125.0" y="-43.30127">32</text><text x="-75.0" y="-129.903811">34</text><text x="150.0" y="0.0">22</text><text x="-25.0" y="129.903811">27</text><text x="25.0" y="43.30127">3</text><text x="-25.0" y="-129.903811">35</text><text x="-75.0" y="-43.30127">16</text><text x="-150.0" y="0.0">31</text><text x="25.0" y="129.903811">26</text><text x="125.0" y="43.30127">23</text><text x="25.0" y="-129.903811">36</text><text x="-125.0" y="43.30127">30</text><text x="50.0" y="-86.60254">19</text></g></g><metadata><rdf:RDF><cc:Work><dc:source rdf:resource="https://github.com/scala-tessella/tessella">Tessella</dc:source><cc:license rdf:resource="https://www.apache.org/licenses/LICENSE-2.0"/></cc:Work></rdf:RDF></metadata></svg>