<svg xmlns:rdf="http://www.w3.org/1999/02/22-rdf-syntax-ns#" xmlns:cc="http://creativecommons.org/ns#" xmlns:dc="http://purl.org/dc/elements/1.1/" xmlns:tess="https://github.com/scala-tessella/tessella" width="290.0000" height="290.0000" viewBox="0 0 290.0000 290.0000" xmlns="http://www.w3.org/2000/svg">
  <rect width="100%" height="100%" fill="white"/>
  <polygon data-nodes="18,19,20,21,22,23,24,25,26,27,28,29,30,31,32,33,34,35,36,17" points="20.000000,120.000000 20.000000,170.000000 20.000000,220.000000 20.000000,270.000000 70.000000,270.000000 120.000000,270.000000 170.000000,270.000000 220.000000,270.000000 270.000000,270.000000 270.000000,220.000000 270.000000,170.000000 270.000000,120.000000 270.000000,70.000000 270.000000,20.000000 220.000000,20.000000 170.000000,20.000000 120.000000,20.000000 70.000000,20.000000 20.000000,20.000000 20.000000,70.000000" fill="none" stroke="#e4e4e4" stroke-width="10.5" />
  <g id="tiling-polygons">
    <polygon data-nodes="1,2,3,4" points="120.000000,120.000000 120.000000,170.000000 170.000000,170.000000 170.000000,120.000000" fill="rgb(100,98,208)" stroke="#333" stroke-width="1.5" />
    <polygon data-nodes="5,6,2,1" points="70.000000,120.000000 70.000000,170.000000 120.000000,170.000000 120.000000,120.000000" fill="rgb(100,98,208)" stroke="#333" stroke-width="1.5" />
    <polygon data-nodes="7,8,2,6" points="70.000000,220.000000 120.000000,220.000000 120.000000,170.000000 70.000000,170.000000" fill="rgb(100,98,208)" stroke="#333" stroke-width="1.5" />
    <polygon data-nodes="8,9,3,2" points="120.000000,220.000000 170.000000,220.000000 170.000000,170.000000 120.000000,170.000000" fill="rgb(100,98,208)" stroke="#333" stroke-width="1.5" />
    <polygon data-nodes="10,11,3,9" points="220.000000,220.000000 220.000000,170.000000 170.000000,170.000000 170.000000,220.000000" fill="rgb(100,98,208)" stroke="#333" stroke-width="1.5" />
    <polygon data-nodes="11,12,4,3" points="220.000000,170.000000 220.000000,120.000000 170.000000,120.000000 170.000000,170.000000" fill="rgb(100,98,208)" stroke="#333" stroke-width="1.5" />
    <polygon data-nodes="13,14,4,12" points="220.000000,70.000000 170.000000,70.000000 170.000000,120.000000 220.000000,120.000000" fill="rgb(100,98,208)" stroke="#333" stroke-width="1.5" />
    <polygon data-nodes="14,15,1,4" points="170.000000,70.000000 120.000000,70.000000 120.000000,120.000000 170.000000,120.000000" fill="rgb(100,98,208)" stroke="#333" stroke-width="1.5" />
    <polygon data-nodes="15,16,5,1" points="120.000000,70.000000 70.000000,70.000000 70.000000,120.000000 120.000000,120.000000" fill="rgb(100,98,208)" stroke="#333" stroke-width="1.5" />
    <polygon data-nodes="17,18,5,16" points="20.000000,70.000000 20.000000,120.000000 70.000000,120.000000 70.000000,70.000000" fill="rgb(100,98,208)" stroke="#333" stroke-width="1.5" />
    <polygon data-nodes="18,19,6,5" points="20.000000,120.000000 20.000000,170.000000 70.000000,170.000000 70.000000,120.000000" fill="rgb(100,98,208)" stroke="#333" stroke-width="1.5" />
    <polygon data-nodes="19,20,7,6" points="20.000000,170.000000 20.000000,220.000000 70.000000,220.000000 70.000000,170.000000" fill="rgb(100,98,208)" stroke="#333" stroke-width="1.5" />
    <polygon data-nodes="21,22,7,20" points="20.000000,270.000000 70.000000,270.000000 70.000000,220.000000 20.000000,220.000000" fill="rgb(100,98,208)" stroke="#333" stroke-width="1.5" />
    <polygon data-nodes="22,23,8,7" points="70.000000,270.000000 120.000000,270.000000 120.000000,220.000000 70.000000,220.000000" fill="rgb(100,98,208)" stroke="#333" stroke-width="1.5" />
    <polygon data-nodes="23,24,9,8" points="120.000000,270.000000 170.000000,270.000000 170.000000,220.000000 120.000000,220.000000" fill="rgb(100,98,208)" stroke="#333" stroke-width="1.5" />
    <polygon data-nodes="24,25,10,9" points="170.000000,270.000000 220.000000,270.000000 220.000000,220.000000 170.000000,220.000000" fill="rgb(100,98,208)" stroke="#333" stroke-width="1.5" />
    <polygon data-nodes="26,27,10,25" points="270.000000,270.000000 270.000000,220.000000 220.000000,220.000000 220.000000,270.000000" fill="rgb(100,98,208)" stroke="#333" stroke-width="1.5" />
    <polygon data-nodes="27,28,11,10" points="270.000000,220.000000 270.000000,170.000000 220.000000,170.000000 220.000000,220.000000" fill="rgb(100,98,208)" stroke="#333" stroke-width="1.5" />
    <polygon data-nodes="28,29,12,11" points="270.000000,170.000000 270.000000,120.000000 220.000000,120.000000 220.000000,170.000000" fill="rgb(100,98,208)" stroke="#333" stroke-width="1.5" />
    <polygon data-nodes="29,30,13,12" points="270.000000,120.000000 270.000000,70.000000 220.000000,70.000000 220.000000,120.000000" fill="rgb(100,98,208)" stroke="#333" stroke-width="1.5" />
    <polygon data-nodes="31,32,13,30" points="270.000000,20.000000 220.000000,20.000000 220.000000,70.000000 270.000000,70.000000" fill="rgb(100,98,208)" stroke="#333" stroke-width="1.5" />
    <polygon data-nodes="32,33,14,13" points="220.000000,20.000000 170.000000,20.000000 170.000000,70.000000 220.000000,70.000000" fill="rgb(100,98,208)" stroke="#333" stroke-width="1.5" />
    <polygon data-nodes="33,34,15,14" points="170.000000,20.000000 120.000000,20.000000 120.000000,70.000000 170.000000,70.000000" fill="rgb(100,98,208)" stroke="#333" stroke-width="1.5" />
    <polygon data-nodes="34,35,16,15" points="120.000000,20.000000 70.000000,20.000000 70.000000,70.000000 120.000000,70.000000" fill="rgb(100,98,208)" stroke="#333" stroke-width="1.5" />
    <polygon data-nodes="35,36,17,16" points="70.000000,20.000000 20.000000,20.000000 20.000000,70.000000 70.000000,70.000000" fill="rgb(100,98,208)" stroke="#333" stroke-width="1.5" />
  </g>

  <metadata>
    <rdf:RDF>
      <cc:Work>
        <dc:source rdf:resource="https://github.com/scala-tessella/tessella">Tessella</dc:source>
        <cc:license rdf:resource="https://www.apache.org/licenses/LICENSE-2.0"/>
      </cc:Work>
    </rdf:RDF>
    <tess:tilingCoordinates>
      <tess:coord node="5" x="-1.000000000000000238462643383279219" y="9.538505735331181823E-16" />
      <tess:coord node="10" x="2.000000000000001907701147066234885" y="1.999999999999998092298852933762940" />
      <tess:coord node="14" x="0.9999999999999977346048878588442963" y="-1.000000000000000715387930149836625" />
      <tess:coord node="1" x="2.84E-32" y="2.384626433832795028842015308825921E-16" />
      <tess:coord node="6" x="-0.9999999999999994038433915418009585" y="1.000000000000000953850573533117834" />
      <tess:coord node="9" x="1.000000000000001669238503682956093" y="1.999999999999999284612069850160738" />
      <tess:coord node="13" x="1.999999999999997734604887858842903" y="-1.000000000000002384626433832793145" />
      <tess:coord node="2" x="5.961566084581987856103157481103486E-16" y="1.000000000000000238462643383279325" />
      <tess:coord node="12" x="1.999999999999999284612069850160042" y="-2.146163790449514843742072688137339E-15" />
      <tess:coord node="7" x="-0.9999999999999985692241397003224990" y="2.000000000000001192313216916396989" />
      <tess:coord node="18" x="-2.000000000000000238462643383278764" y="1.907701147066236193742014259080059E-15" />
      <tess:coord node="11" x="2.000000000000000596156608458197620" y="0.9999999999999980922988529337638001" />
      <tess:coord node="8" x="1.430775860299677046052403196754423E-15" y="2.000000000000000238462643383278977" />
      <tess:coord node="4" x="0.9999999999999992846120698501610651" y="-7.153879301498378264E-16" />
      <tess:coord node="15" x="-1.073081895224757734699465589591998E-15" y="-0.9999999999999997615373566167199213" />
      <tess:coord node="24" x="1.000000000000002742320398907713856" y="2.999999999999999284612069850160162" />
      <tess:coord node="25" x="2.000000000000003219245685674272150" y="2.999999999999998092298852933762080" />
      <tess:coord node="20" x="-1.999999999999998569224139700322044" y="2.000000000000002146163790449515001" />
      <tess:coord node="29" x="2.999999999999999284612069850159018" y="-3.576939650749191860430006279929092E-15" />
      <tess:coord node="28" x="3.000000000000000596156608458196596" y="0.9999999999999966615229926340867837" />
      <tess:coord node="21" x="-1.999999999999997496142244475564025" y="3.000000000000002384626433832793928" />
      <tess:coord node="33" x="0.9999999999999959461350624842480249" y="-2.000000000000000715387930149835026" />
      <tess:coord node="17" x="-2.000000000000001311544538608036527" y="-0.9999999999999980922988529337632305" />
      <tess:coord node="32" x="1.999999999999995946135062484246631" y="-2.000000000000002384626433832791546" />
      <tess:coord node="34" x="-2.146163790449515327130693134709323E-15" y="-1.999999999999999761537356616719346" />
      <tess:coord node="22" x="-0.9999999999999974961422444755647356" y="3.000000000000001192313216916396413" />
      <tess:coord node="27" x="3.000000000000001907701147066233861" y="1.999999999999996661522992634085924" />
      <tess:coord node="3" x="1.000000000000000596156608458198331" y="0.9999999999999992846120698501613135" />
      <tess:coord node="35" x="-1.000000000000001907701147066235682" y="-1.999999999999999046149426466881121" />
      <tess:coord node="16" x="-1.000000000000001073081895224757479" y="-0.9999999999999990461494264668814694" />
      <tess:coord node="31" x="2.999999999999995946135062484244811" y="-2.000000000000004292327580899027570" />
      <tess:coord node="26" x="3.000000000000003457708329057550629" y="2.999999999999996661522992634084723" />
      <tess:coord node="23" x="2.503857755524434809494548899498134E-15" y="3.000000000000000238462643383278401" />
      <tess:coord node="36" x="-2.000000000000002384626433832794290" y="-1.999999999999998092298852933762655" />
      <tess:coord node="30" x="2.999999999999997734604887858841510" y="-1.000000000000004053864937515749666" />
      <tess:coord node="19" x="-1.999999999999999403843391541800504" y="1.000000000000001907701147066235846" />
    </tess:tilingCoordinates>
  </metadata>
</svg>