<svg xmlns:rdf="http://www.w3.org/1999/02/22-rdf-syntax-ns#" xmlns:cc="http://creativecommons.org/ns#" xmlns:dc="http://purl.org/dc/elements/1.1/" xmlns:tess="https://github.com/scala-tessella/tessella" width="440.0000" height="473.0127" viewBox="0 0 440.0000 473.0127" xmlns="http://www.w3.org/2000/svg">
  <rect width="100%" height="100%" fill="white"/>
  <polygon data-nodes="52,48,49,50,46,47,43,44,45,41,42,38,39,40,36,37,33,34,35,31,32,28,29,30,25,26,27,53,54,51" points="20.000000,236.506351 45.000000,279.807621 20.000000,323.108891 45.000000,366.410162 95.000000,366.410162 120.000000,409.711432 170.000000,409.711432 195.000000,453.012702 245.000000,453.012702 270.000000,409.711432 320.000000,409.711432 345.000000,366.410162 395.000000,366.410162 420.000000,323.108891 395.000000,279.807621 420.000000,236.506351 395.000000,193.205081 420.000000,149.903811 395.000000,106.602540 345.000000,106.602540 320.000000,63.301270 270.000000,63.301270 245.000000,20.000000 195.000000,20.000000 170.000000,63.301270 120.000000,63.301270 95.000000,106.602540 45.000000,106.602540 20.000000,149.903811 45.000000,193.205081" fill="none" stroke="#e4e4e4" stroke-width="10.5" />
  <g id="tiling-polygons" stroke="#333" stroke-width="1.5">
    <polygon data-nodes="1,2,3,4,5,6" points="195.000000,193.205081 170.000000,236.506351 195.000000,279.807621 245.000000,279.807621 270.000000,236.506351 245.000000,193.205081" fill="rgb(76,175,80)" />
    <polygon data-nodes="7,8,9,10,1,6" points="270.000000,149.903811 245.000000,106.602540 195.000000,106.602540 170.000000,149.903811 195.000000,193.205081 245.000000,193.205081" fill="rgb(76,175,80)" />
    <polygon data-nodes="10,11,12,13,2,1" points="170.000000,149.903811 120.000000,149.903811 95.000000,193.205081 120.000000,236.506351 170.000000,236.506351 195.000000,193.205081" fill="rgb(76,175,80)" />
    <polygon data-nodes="13,14,15,16,3,2" points="120.000000,236.506351 95.000000,279.807621 120.000000,323.108891 170.000000,323.108891 195.000000,279.807621 170.000000,236.506351" fill="rgb(76,175,80)" />
    <polygon data-nodes="16,17,18,19,4,3" points="170.000000,323.108891 195.000000,366.410162 245.000000,366.410162 270.000000,323.108891 245.000000,279.807621 195.000000,279.807621" fill="rgb(76,175,80)" />
    <polygon data-nodes="19,20,21,22,5,4" points="270.000000,323.108891 320.000000,323.108891 345.000000,279.807621 320.000000,236.506351 270.000000,236.506351 245.000000,279.807621" fill="rgb(76,175,80)" />
    <polygon data-nodes="22,23,24,7,6,5" points="320.000000,236.506351 345.000000,193.205081 320.000000,149.903811 270.000000,149.903811 245.000000,193.205081 270.000000,236.506351" fill="rgb(76,175,80)" />
    <polygon data-nodes="9,25,26,27,11,10" points="195.000000,106.602540 170.000000,63.301270 120.000000,63.301270 95.000000,106.602540 120.000000,149.903811 170.000000,149.903811" fill="rgb(76,175,80)" />
    <polygon data-nodes="28,29,30,25,9,8" points="270.000000,63.301270 245.000000,20.000000 195.000000,20.000000 170.000000,63.301270 195.000000,106.602540 245.000000,106.602540" fill="rgb(76,175,80)" />
    <polygon data-nodes="24,31,32,28,8,7" points="320.000000,149.903811 345.000000,106.602540 320.000000,63.301270 270.000000,63.301270 245.000000,106.602540 270.000000,149.903811" fill="rgb(76,175,80)" />
    <polygon data-nodes="33,34,35,31,24,23" points="395.000000,193.205081 420.000000,149.903811 395.000000,106.602540 345.000000,106.602540 320.000000,149.903811 345.000000,193.205081" fill="rgb(76,175,80)" />
    <polygon data-nodes="21,36,37,33,23,22" points="345.000000,279.807621 395.000000,279.807621 420.000000,236.506351 395.000000,193.205081 345.000000,193.205081 320.000000,236.506351" fill="rgb(76,175,80)" />
    <polygon data-nodes="38,39,40,36,21,20" points="345.000000,366.410162 395.000000,366.410162 420.000000,323.108891 395.000000,279.807621 345.000000,279.807621 320.000000,323.108891" fill="rgb(76,175,80)" />
    <polygon data-nodes="18,41,42,38,20,19" points="245.000000,366.410162 270.000000,409.711432 320.000000,409.711432 345.000000,366.410162 320.000000,323.108891 270.000000,323.108891" fill="rgb(76,175,80)" />
    <polygon data-nodes="43,44,45,41,18,17" points="170.000000,409.711432 195.000000,453.012702 245.000000,453.012702 270.000000,409.711432 245.000000,366.410162 195.000000,366.410162" fill="rgb(76,175,80)" />
    <polygon data-nodes="15,46,47,43,17,16" points="120.000000,323.108891 95.000000,366.410162 120.000000,409.711432 170.000000,409.711432 195.000000,366.410162 170.000000,323.108891" fill="rgb(76,175,80)" />
    <polygon data-nodes="48,49,50,46,15,14" points="45.000000,279.807621 20.000000,323.108891 45.000000,366.410162 95.000000,366.410162 120.000000,323.108891 95.000000,279.807621" fill="rgb(76,175,80)" />
    <polygon data-nodes="12,51,52,48,14,13" points="95.000000,193.205081 45.000000,193.205081 20.000000,236.506351 45.000000,279.807621 95.000000,279.807621 120.000000,236.506351" fill="rgb(76,175,80)" />
    <polygon data-nodes="27,53,54,51,12,11" points="95.000000,106.602540 45.000000,106.602540 20.000000,149.903811 45.000000,193.205081 95.000000,193.205081 120.000000,149.903811" fill="rgb(76,175,80)" />
  </g>
  <metadata>
    <rdf:RDF>
      <cc:Work>
        <dc:source rdf:resource="https://github.com/scala-tessella/tessella">Tessella</dc:source>
        <cc:license rdf:resource="https://www.apache.org/licenses/LICENSE-2.0"/>
      </cc:Work>
    </rdf:RDF>
    <tess:tilingCoordinates>
      <tess:coord node="5" x="1.500000000000002129572733943764095" y="0.8660254037844366034242249315316332" />
      <tess:coord node="10" x="-0.5000000000000020787912076150975272" y="-0.8660254037844372081104164818663125" />
      <tess:coord node="1" x="2.84E-32" y="2.384626433832795028842015308825921E-16" />
      <tess:coord node="6" x="1.000000000000002015901499291895682" y="-1.9777113803138479487E-15" />
      <tess:coord node="2" x="-0.4999999999999989958442735454205987" y="0.8660254037844394649759455308872774" />
      <tess:coord node="8" x="0.9999999999999956828893808835840119" y="-1.732050807568879915964386854645903" />
      <tess:coord node="4" x="1.000000000000002805952472340226141" y="1.732050807568875640695972139890233" />
      <tess:coord node="42" x="2.500000000000005548608814874729457" y="4.330127018922190409463069539329707" />
      <tess:coord node="24" x="2.500000000000001742702060753813153" y="-0.8660254037844412818777145459365515" />
      <tess:coord node="37" x="4.500000000000002486331297616322859" y="0.8660254037844355917315590631227801" />
      <tess:coord node="25" x="-0.5000000000000033735855331791413967" y="-2.598076211353315146363423022673576" />
      <tess:coord node="52" x="-3.500000000000000032777598805799977" y="0.8660254037844475026041665156564397" />
      <tess:coord node="14" x="-1.999999999999997513103935432194744" y="1.732050807568881969372389144197460" />
      <tess:coord node="20" x="2.500000000000004279973230167757339" y="2.598076211353313023831971740781173" />
      <tess:coord node="46" x="-1.999999999999994556342839491444844" y="3.464101615137757958345959011606772" />
      <tess:coord node="29" x="0.9999999999999904086095384498863244" y="-3.464101615137757854217393395445675" />
      <tess:coord node="21" x="3.000000000000003125008880112653116" y="1.732050807568873710249270161293678" />
      <tess:coord node="33" x="4.000000000000003292127130381606606" y="-4.0293458140928656039E-15" />
      <tess:coord node="28" x="1.499999999999993444569969382266018" y="-2.598076211353320960266242272561489" />
      <tess:coord node="38" x="3.000000000000006232578599653931638" y="3.464101615137751648502276702098692" />
      <tess:coord node="9" x="-4.3171106191164121550E-15" y="-1.732050807568877147168454415264116" />
      <tess:coord node="53" x="-3.000000000000004082178103429936128" y="-1.732050807568872563427163069614850" />
      <tess:coord node="13" x="-1.499999999999998995844273545419696" y="0.8660254037844408086824063986843860" />
      <tess:coord node="41" x="1.500000000000005548608814874729966" y="4.330127018922191418221120244567701" />
      <tess:coord node="45" x="1.000000000000009676643887539015525" y="5.196152422706630411958167736981286" />
      <tess:coord node="17" x="5.7627135682809808889E-15" y="3.464101615137755009724838980372529" />
      <tess:coord node="32" x="2.499999999999992965985357723621192" y="-2.598076211353323452751220340812328" />
      <tess:coord node="34" x="4.500000000000002061758468526239952" y="-0.8660254037844433864632153882929494" />
      <tess:coord node="22" x="2.500000000000002129572733943763629" y="0.8660254037844356382008739422335099" />
      <tess:coord node="44" x="9.6766438875390187407E-15" y="5.196152422706632947977845521175909" />
      <tess:coord node="27" x="-2.000000000000002507927037589287023" y="-1.732050807568874816027900572569781" />
      <tess:coord node="12" x="-2.000000000000000319056407772426073" y="2.9258755651188741488E-15" />
      <tess:coord node="54" x="-3.500000000000002120853153658072038" y="-0.8660254037844327842919521797499117" />
      <tess:coord node="49" x="-3.499999999999995551778985660324643" y="2.598076211353325302701695870894895" />
      <tess:coord node="7" x="1.499999999999998240265200157322713" y="-0.8660254037844427457022813606307700" />
      <tess:coord node="39" x="4.000000000000006232578599653929495" y="3.464101615137749578035108228282963" />
      <tess:coord node="3" x="2.8059524723402271646E-15" y="1.732050807568877071471832439567250" />
      <tess:coord node="35" x="4.000000000000000990918010557088147" y="-1.732050807568881414976911891413074" />
      <tess:coord node="48" x="-2.999999999999998470273158749474060" y="1.732050807568884970944576238773850" />
      <tess:coord node="18" x="1.000000000000005762713568280978922" y="3.464101615137753026327069938436709" />
      <tess:coord node="50" x="-2.999999999999992792813016457394565" y="3.464101615137762356575674037313544" />
      <tess:coord node="16" x="-0.4999999999999952327225778879087461" y="2.598076211353316850607043329432189" />
      <tess:coord node="31" x="2.999999999999996001945788656000886" y="-1.732050807568886558800069217928142" />
      <tess:coord node="11" x="-1.500000000000001801796745885647728" y="-0.8660254037844365769486913998623400" />
      <tess:coord node="43" x="-0.4999999999999926791417818055325106" y="4.330127018922195661327612699566622" />
      <tess:coord node="40" x="4.500000000000004599029637940182942" y="2.598076211353309988141452277666837" />
      <tess:coord node="26" x="-1.500000000000003373585533179140696" y="-2.598076211353313962579789198410626" />
      <tess:coord node="23" x="3.000000000000002334957907064323338" y="-2.9770530636716865661E-15" />
      <tess:coord node="36" x="4.000000000000002797232892054536382" y="1.732050807568874417994401474262076" />
      <tess:coord node="30" x="-9.5913904615501081597E-15" y="-3.464101615137754532799552213805085" />
      <tess:coord node="51" x="-3.000000000000002711979466065627394" y="7.3090025240690996746E-15" />
      <tess:coord node="19" x="1.500000000000004204568918367494820" y="2.598076211353313479968113703760398" />
      <tess:coord node="47" x="-1.499999999999993120024237564045090" y="4.330127018922195775850750717506940" />
      <tess:coord node="15" x="-1.499999999999995232722577887905747" y="2.598076211353319299557321681746903" />
    </tess:tilingCoordinates>
  </metadata>
</svg>