<svg xmlns:rdf="http://www.w3.org/1999/02/22-rdf-syntax-ns#" xmlns:cc="http://creativecommons.org/ns#" xmlns:dc="http://purl.org/dc/elements/1.1/" xmlns:tess="https://github.com/scala-tessella/tessella" width="440.00000000000034" height="473.0127018922195" xmlns="http://www.w3.org/2000/svg">
  <rect width="100%" height="100%" fill="white"/>
  <polygon data-nodes="52,48,49,50,46,47,43,44,45,41,42,38,39,40,36,37,33,34,35,31,32,28,29,30,25,26,27,53,54,51" points="20.0000000000000983611200597100012,236.5063509461102751302083257828220 45.0000000000001764863420625262970,279.8076211353321485472288119386925 20.0000000000003224110507169837678,323.1088913245541651350847935447448 45.0000000000004603593491771302718,366.4101615137760178287837018656772 95.00000000000037218285802542775780,366.4101615137757979172979505803386 120.0000000000004439987881217977455,409.7114317029976887925375358753470 170.0000000000004660429109097233745,409.7114317029976830663806349783311 195.0000000000005838321943769509370,453.0127018922195473988922760587954 245.0000000000005838321943769507762,453.0127018922194205979083868490643 270.0000000000003774304407437364983,409.7114317029974709110560122283850 320.0000000000003774304407437364728,409.7114317029974204731534769664854 345.0000000000004116289299826965819,366.4101615137754824251138351049346 395.0000000000004116289299826964748,366.4101615137753789017554114141482 420.0000000000003299514818970091471,323.1088913245533994070726138833418 395.0000000000002398616446027268191,279.8076211353316208997200737131038 420.0000000000002243165648808161430,236.5063509461096795865779531561390 395.0000000000002646063565190803303,193.2050807568876985327092953567198 420.0000000000002030879234263119976,149.9038105676657306768392305853525 395.0000000000001495459005278544074,106.6025403784438292511544054293463 344.9999999999999000972894328000443,106.6025403784435720599965391035929 319.9999999999997482992678861810596,63.3012701892217273624389829593836 269.9999999999997722284984691133009,63.3012701892218519866878863719256 244.9999999999996204304769224943162,20.0000000000000072891303302277162 194.9999999999996204304769224945920,20.0000000000001733600223893097458 169.9999999999999313207233410429302,63.3012701892221426818288488663212 119.9999999999999313207233410429652,63.3012701892222018710105400794687 94.9999999999999746036481205356488,106.6025403784441591986049713715110 44.9999999999998958910948285031936,106.6025403784442718286418465192575 19.9999999999999939573423170963981,149.9038105676662607854023910125044 44.9999999999999644010266967186303,193.2050807568882654501262034549837" fill="none" stroke="#e4e4e4" stroke-width="10.5" />
  <g id="tiling-polygons">
    <polygon data-nodes="1,2,3,4,5,6" points="195.0000000000001000000000000000014,193.2050807568879119231321691639751 170.0000000000001502077863227289701,236.5063509461098732487972765443639 195.0000000000002402976236170113582,279.8076211353317535735916219783625 245.0000000000002402976236170113070,279.8076211353316820347986069945116 270.0000000000002064786366971882048,236.5063509461097301712112465765817 245.0000000000002007950749645947841,193.2050807568878011144309843076026" fill="rgb(76,175,80)" stroke="#333" stroke-width="1.5" />
    <polygon data-nodes="7,8,9,10,1,6" points="270.0000000000000120132600078661356,149.9038105676657627148859319684615 244.9999999999998841444690441792006,106.6025403784439042017806572677048 194.9999999999998841444690441793922,106.6025403784440426415772792367942 169.9999999999999960604396192451236,149.9038105676660395944791759066844 195.0000000000001000000000000000014,193.2050807568879119231321691639751 245.0000000000002007950749645947841,193.2050807568878011144309843076026" fill="rgb(76,175,80)" stroke="#333" stroke-width="1.5" />
    <polygon data-nodes="10,11,12,13,2,1" points="169.9999999999999960604396192451236,149.9038105676660395944791759066844 120.0000000000000099101627057176136,149.9038105676660711525654300068830 95.0000000000000840471796113786964,193.2050807568880462937782559437074 120.0000000000001502077863227290152,236.5063509461099404341203199342193 170.0000000000001502077863227289701,236.5063509461098732487972765443639 195.0000000000001000000000000000014,193.2050807568879119231321691639751" fill="rgb(76,175,80)" stroke="#333" stroke-width="1.5" />
    <polygon data-nodes="13,14,15,16,3,2" points="120.0000000000001502077863227290152,236.5063509461099404341203199342193 95.00000000000022434480322839026280,279.8076211353319984686194572098730 120.0000000000003383638711056047126,323.1088913245538649778660840873452 170.0000000000003383638711056045627,323.1088913245537425303521664716094 195.0000000000002402976236170113582,279.8076211353317535735916219783625 170.0000000000001502077863227289701,236.5063509461098732487972765443639" fill="rgb(76,175,80)" stroke="#333" stroke-width="1.5" />
    <polygon data-nodes="16,17,18,19,4,3" points="170.0000000000003383638711056045627,323.1088913245537425303521664716094 195.0000000000003881356784140490444,366.4101615137756504862419490186264 245.0000000000003881356784140489461,366.4101615137755513163534969218354 270.0000000000003102284459183747410,323.1088913245535739984056851880199 245.0000000000002402976236170113070,279.8076211353316820347986069945116 195.0000000000002402976236170113582,279.8076211353317535735916219783625" fill="rgb(76,175,80)" stroke="#333" stroke-width="1.5" />
    <polygon data-nodes="19,20,21,22,5,4" points="270.0000000000003102284459183747410,323.1088913245535739984056851880199 320.0000000000003139986615083878670,323.1088913245535511915985870390586 345.0000000000002562504440056326558,279.8076211353315855124635080646839 320.0000000000002064786366971881814,236.5063509461096819100436971116755 270.0000000000002064786366971882048,236.5063509461097301712112465765817 245.0000000000002402976236170113070,279.8076211353316820347986069945116" fill="rgb(76,175,80)" stroke="#333" stroke-width="1.5" />
    <polygon data-nodes="22,23,24,7,6,5" points="320.0000000000002064786366971881814,236.5063509461096819100436971116755 345.0000000000002167478953532161669,193.2050807568877511473468164156717 320.0000000000001871351030376906576,149.9038105676658359061142727031724 270.0000000000000120132600078661356,149.9038105676657627148859319684615 245.0000000000002007950749645947841,193.2050807568878011144309843076026 270.0000000000002064786366971882048,236.5063509461097301712112465765817" fill="rgb(76,175,80)" stroke="#333" stroke-width="1.5" />
    <polygon data-nodes="9,25,26,27,11,10" points="194.9999999999998841444690441793922,106.6025403784440426415772792367942 169.9999999999999313207233410429302,63.3012701892221426818288488663212 119.9999999999999313207233410429652,63.3012701892222018710105400794687 94.9999999999999746036481205356488,106.6025403784441591986049713715110 120.0000000000000099101627057176136,149.9038105676660711525654300068830 169.9999999999999960604396192451236,149.9038105676660395944791759066844" fill="rgb(76,175,80)" stroke="#333" stroke-width="1.5" />
    <polygon data-nodes="28,29,30,25,9,8" points="269.9999999999997722284984691133009,63.3012701892218519866878863719256 244.9999999999996204304769224943162,20.0000000000000072891303302277162 194.9999999999996204304769224945920,20.0000000000001733600223893097458 169.9999999999999313207233410429302,63.3012701892221426818288488663212 194.9999999999998841444690441793922,106.6025403784440426415772792367942 244.9999999999998841444690441792006,106.6025403784439042017806572677048" fill="rgb(76,175,80)" stroke="#333" stroke-width="1.5" />
    <polygon data-nodes="24,31,32,28,8,7" points="320.0000000000001871351030376906576,149.9038105676658359061142727031724 344.9999999999999000972894328000443,106.6025403784435720599965391035929 319.9999999999997482992678861810596,63.3012701892217273624389829593836 269.9999999999997722284984691133009,63.3012701892218519866878863719256 244.9999999999998841444690441792006,106.6025403784439042017806572677048 270.0000000000000120132600078661356,149.9038105676657627148859319684615" fill="rgb(76,175,80)" stroke="#333" stroke-width="1.5" />
    <polygon data-nodes="33,34,35,31,24,23" points="395.0000000000002646063565190803303,193.2050807568876985327092953567198 420.0000000000002030879234263119976,149.9038105676657306768392305853525 395.0000000000001495459005278544074,106.6025403784438292511544054293463 344.9999999999999000972894328000443,106.6025403784435720599965391035929 320.0000000000001871351030376906576,149.9038105676658359061142727031724 345.0000000000002167478953532161669,193.2050807568877511473468164156717" fill="rgb(76,175,80)" stroke="#333" stroke-width="1.5" />
    <polygon data-nodes="21,36,37,33,23,22" points="345.0000000000002562504440056326558,279.8076211353315855124635080646839 395.0000000000002398616446027268191,279.8076211353316208997200737131038 420.0000000000002243165648808161430,236.5063509461096795865779531561390 395.0000000000002646063565190803303,193.2050807568876985327092953567198 345.0000000000002167478953532161669,193.2050807568877511473468164156717 320.0000000000002064786366971881814,236.5063509461096819100436971116755" fill="rgb(76,175,80)" stroke="#333" stroke-width="1.5" />
    <polygon data-nodes="38,39,40,36,21,20" points="345.0000000000004116289299826965819,366.4101615137754824251138351049346 395.0000000000004116289299826964748,366.4101615137753789017554114141482 420.0000000000003299514818970091471,323.1088913245533994070726138833418 395.0000000000002398616446027268191,279.8076211353316208997200737131038 345.0000000000002562504440056326558,279.8076211353315855124635080646839 320.0000000000003139986615083878670,323.1088913245535511915985870390586" fill="rgb(76,175,80)" stroke="#333" stroke-width="1.5" />
    <polygon data-nodes="18,41,42,38,20,19" points="245.0000000000003881356784140489461,366.4101615137755513163534969218354 270.0000000000003774304407437364983,409.7114317029974709110560122283850 320.0000000000003774304407437364728,409.7114317029974204731534769664854 345.0000000000004116289299826965819,366.4101615137754824251138351049346 320.0000000000003139986615083878670,323.1088913245535511915985870390586 270.0000000000003102284459183747410,323.1088913245535739984056851880199" fill="rgb(76,175,80)" stroke="#333" stroke-width="1.5" />
    <polygon data-nodes="43,44,45,41,18,17" points="170.0000000000004660429109097233745,409.7114317029976830663806349783311 195.0000000000005838321943769509370,453.0127018922195473988922760587954 245.0000000000005838321943769507762,453.0127018922194205979083868490643 270.0000000000003774304407437364983,409.7114317029974709110560122283850 245.0000000000003881356784140489461,366.4101615137755513163534969218354 195.0000000000003881356784140490444,366.4101615137756504862419490186264" fill="rgb(76,175,80)" stroke="#333" stroke-width="1.5" />
    <polygon data-nodes="15,46,47,43,17,16" points="120.0000000000003383638711056047126,323.1088913245538649778660840873452 95.00000000000037218285802542775780,366.4101615137757979172979505803386 120.0000000000004439987881217977455,409.7114317029976887925375358753470 170.0000000000004660429109097233745,409.7114317029976830663806349783311 195.0000000000003881356784140490444,366.4101615137756504862419490186264 170.0000000000003383638711056045627,323.1088913245537425303521664716094" fill="rgb(76,175,80)" stroke="#333" stroke-width="1.5" />
    <polygon data-nodes="48,49,50,46,15,14" points="45.0000000000001764863420625262970,279.8076211353321485472288119386925 20.0000000000003224110507169837678,323.1088913245541651350847935447448 45.0000000000004603593491771302718,366.4101615137760178287837018656772 95.00000000000037218285802542775780,366.4101615137757979172979505803386 120.0000000000003383638711056047126,323.1088913245538649778660840873452 95.00000000000022434480322839026280,279.8076211353319984686194572098730" fill="rgb(76,175,80)" stroke="#333" stroke-width="1.5" />
    <polygon data-nodes="12,51,52,48,14,13" points="95.0000000000000840471796113786964,193.2050807568880462937782559437074 44.9999999999999644010266967186303,193.2050807568882654501262034549837 20.0000000000000983611200597100012,236.5063509461102751302083257828220 45.0000000000001764863420625262970,279.8076211353321485472288119386925 95.00000000000022434480322839026280,279.8076211353319984686194572098730 120.0000000000001502077863227290152,236.5063509461099404341203199342193" fill="rgb(76,175,80)" stroke="#333" stroke-width="1.5" />
    <polygon data-nodes="27,53,54,51,12,11" points="94.9999999999999746036481205356488,106.6025403784441591986049713715110 44.9999999999998958910948285031936,106.6025403784442718286418465192575 19.9999999999999939573423170963981,149.9038105676662607854023910125044 44.9999999999999644010266967186303,193.2050807568882654501262034549837 95.0000000000000840471796113786964,193.2050807568880462937782559437074 120.0000000000000099101627057176136,149.9038105676660711525654300068830" fill="rgb(76,175,80)" stroke="#333" stroke-width="1.5" />
  </g>

  <metadata>
    <rdf:RDF>
      <cc:Work>
        <dc:source rdf:resource="https://github.com/scala-tessella/tessella">Tessella</dc:source>
        <cc:license rdf:resource="https://www.apache.org/licenses/LICENSE-2.0"/>
      </cc:Work>
    </rdf:RDF>
    <tess:tilingCoordinates>
      <tess:coord node="5" x="1.500000000000002129572733943764095" y="0.8660254037844366034242249315316332" />
      <tess:coord node="10" x="-0.5000000000000020787912076150975272" y="-0.8660254037844372081104164818663125" />
      <tess:coord node="1" x="2.84E-32" y="2.384626433832795028842015308825921E-16" />
      <tess:coord node="6" x="1.000000000000002015901499291895682" y="-1.9777113803138479487E-15" />
      <tess:coord node="2" x="-0.4999999999999989958442735454205987" y="0.8660254037844394649759455308872774" />
      <tess:coord node="8" x="0.9999999999999956828893808835840119" y="-1.732050807568879915964386854645903" />
      <tess:coord node="4" x="1.000000000000002805952472340226141" y="1.732050807568875640695972139890233" />
      <tess:coord node="42" x="2.500000000000005548608814874729457" y="4.330127018922190409463069539329707" />
      <tess:coord node="24" x="2.500000000000001742702060753813153" y="-0.8660254037844412818777145459365515" />
      <tess:coord node="37" x="4.500000000000002486331297616322859" y="0.8660254037844355917315590631227801" />
      <tess:coord node="25" x="-0.5000000000000033735855331791413967" y="-2.598076211353315146363423022673576" />
      <tess:coord node="52" x="-3.500000000000000032777598805799977" y="0.8660254037844475026041665156564397" />
      <tess:coord node="14" x="-1.999999999999997513103935432194744" y="1.732050807568881969372389144197460" />
      <tess:coord node="20" x="2.500000000000004279973230167757339" y="2.598076211353313023831971740781173" />
      <tess:coord node="46" x="-1.999999999999994556342839491444844" y="3.464101615137757958345959011606772" />
      <tess:coord node="29" x="0.9999999999999904086095384498863244" y="-3.464101615137757854217393395445675" />
      <tess:coord node="21" x="3.000000000000003125008880112653116" y="1.732050807568873710249270161293678" />
      <tess:coord node="33" x="4.000000000000003292127130381606606" y="-4.0293458140928656039E-15" />
      <tess:coord node="28" x="1.499999999999993444569969382266018" y="-2.598076211353320960266242272561489" />
      <tess:coord node="38" x="3.000000000000006232578599653931638" y="3.464101615137751648502276702098692" />
      <tess:coord node="9" x="-4.3171106191164121550E-15" y="-1.732050807568877147168454415264116" />
      <tess:coord node="53" x="-3.000000000000004082178103429936128" y="-1.732050807568872563427163069614850" />
      <tess:coord node="13" x="-1.499999999999998995844273545419696" y="0.8660254037844408086824063986843860" />
      <tess:coord node="41" x="1.500000000000005548608814874729966" y="4.330127018922191418221120244567701" />
      <tess:coord node="45" x="1.000000000000009676643887539015525" y="5.196152422706630411958167736981286" />
      <tess:coord node="17" x="5.7627135682809808889E-15" y="3.464101615137755009724838980372529" />
      <tess:coord node="32" x="2.499999999999992965985357723621192" y="-2.598076211353323452751220340812328" />
      <tess:coord node="34" x="4.500000000000002061758468526239952" y="-0.8660254037844433864632153882929494" />
      <tess:coord node="22" x="2.500000000000002129572733943763629" y="0.8660254037844356382008739422335099" />
      <tess:coord node="44" x="9.6766438875390187407E-15" y="5.196152422706632947977845521175909" />
      <tess:coord node="27" x="-2.000000000000002507927037589287023" y="-1.732050807568874816027900572569781" />
      <tess:coord node="12" x="-2.000000000000000319056407772426073" y="2.9258755651188741488E-15" />
      <tess:coord node="54" x="-3.500000000000002120853153658072038" y="-0.8660254037844327842919521797499117" />
      <tess:coord node="49" x="-3.499999999999995551778985660324643" y="2.598076211353325302701695870894895" />
      <tess:coord node="7" x="1.499999999999998240265200157322713" y="-0.8660254037844427457022813606307700" />
      <tess:coord node="39" x="4.000000000000006232578599653929495" y="3.464101615137749578035108228282963" />
      <tess:coord node="3" x="2.8059524723402271646E-15" y="1.732050807568877071471832439567250" />
      <tess:coord node="35" x="4.000000000000000990918010557088147" y="-1.732050807568881414976911891413074" />
      <tess:coord node="48" x="-2.999999999999998470273158749474060" y="1.732050807568884970944576238773850" />
      <tess:coord node="18" x="1.000000000000005762713568280978922" y="3.464101615137753026327069938436709" />
      <tess:coord node="50" x="-2.999999999999992792813016457394565" y="3.464101615137762356575674037313544" />
      <tess:coord node="16" x="-0.4999999999999952327225778879087461" y="2.598076211353316850607043329432189" />
      <tess:coord node="31" x="2.999999999999996001945788656000886" y="-1.732050807568886558800069217928142" />
      <tess:coord node="11" x="-1.500000000000001801796745885647728" y="-0.8660254037844365769486913998623400" />
      <tess:coord node="43" x="-0.4999999999999926791417818055325106" y="4.330127018922195661327612699566622" />
      <tess:coord node="40" x="4.500000000000004599029637940182942" y="2.598076211353309988141452277666837" />
      <tess:coord node="26" x="-1.500000000000003373585533179140696" y="-2.598076211353313962579789198410626" />
      <tess:coord node="23" x="3.000000000000002334957907064323338" y="-2.9770530636716865661E-15" />
      <tess:coord node="36" x="4.000000000000002797232892054536382" y="1.732050807568874417994401474262076" />
      <tess:coord node="30" x="-9.5913904615501081597E-15" y="-3.464101615137754532799552213805085" />
      <tess:coord node="51" x="-3.000000000000002711979466065627394" y="7.3090025240690996746E-15" />
      <tess:coord node="19" x="1.500000000000004204568918367494820" y="2.598076211353313479968113703760398" />
      <tess:coord node="47" x="-1.499999999999993120024237564045090" y="4.330127018922195775850750717506940" />
      <tess:coord node="15" x="-1.499999999999995232722577887905747" y="2.598076211353319299557321681746903" />
    </tess:tilingCoordinates>
  </metadata>
</svg>