<svg xmlns:rdf="http://www.w3.org/1999/02/22-rdf-syntax-ns#" xmlns:cc="http://creativecommons.org/ns#" xmlns:dc="http://purl.org/dc/elements/1.1/" xmlns:tess="https://github.com/scala-tessella/tessella" width="390.0000" height="343.1089" viewBox="0 0 390.0000 343.1089" xmlns="http://www.w3.org/2000/svg">
  <rect width="100%" height="100%" fill="white"/>
  <polygon data-nodes="16,17,18,19,20,22,21,23,24,25,26,27,29,28,30,31,32,33,34,36,35" points="145.000000,106.602540 120.000000,149.903811 95.000000,193.205081 70.000000,236.506351 45.000000,279.807621 20.000000,323.108891 70.000000,323.108891 120.000000,323.108891 170.000000,323.108891 220.000000,323.108891 270.000000,323.108891 320.000000,323.108891 370.000000,323.108891 345.000000,279.807621 320.000000,236.506351 295.000000,193.205081 270.000000,149.903811 245.000000,106.602540 220.000000,63.301270 195.000000,20.000000 170.000000,63.301270" fill="none" stroke="#e4e4e4" stroke-width="10.5" />
  <g id="tiling-polygons" stroke="#333" stroke-width="1.5">
    <polygon data-nodes="1,2,3" points="195.000000,193.205081 220.000000,236.506351 245.000000,193.205081" fill="rgb(26,22,197)" />
    <polygon data-nodes="4,2,1" points="170.000000,236.506351 220.000000,236.506351 195.000000,193.205081" fill="rgb(26,22,197)" />
    <polygon data-nodes="5,3,2" points="270.000000,236.506351 245.000000,193.205081 220.000000,236.506351" fill="rgb(26,22,197)" />
    <polygon data-nodes="6,1,3" points="220.000000,149.903811 195.000000,193.205081 245.000000,193.205081" fill="rgb(26,22,197)" />
    <polygon data-nodes="7,1,6" points="170.000000,149.903811 195.000000,193.205081 220.000000,149.903811" fill="rgb(26,22,197)" />
    <polygon data-nodes="8,1,7" points="145.000000,193.205081 195.000000,193.205081 170.000000,149.903811" fill="rgb(26,22,197)" />
    <polygon data-nodes="4,1,8" points="170.000000,236.506351 195.000000,193.205081 145.000000,193.205081" fill="rgb(26,22,197)" />
    <polygon data-nodes="9,4,8" points="120.000000,236.506351 170.000000,236.506351 145.000000,193.205081" fill="rgb(26,22,197)" />
    <polygon data-nodes="10,4,9" points="145.000000,279.807621 170.000000,236.506351 120.000000,236.506351" fill="rgb(26,22,197)" />
    <polygon data-nodes="11,10,9" points="95.000000,279.807621 145.000000,279.807621 120.000000,236.506351" fill="rgb(26,22,197)" />
    <polygon data-nodes="12,4,10" points="195.000000,279.807621 170.000000,236.506351 145.000000,279.807621" fill="rgb(26,22,197)" />
    <polygon data-nodes="2,4,12" points="220.000000,236.506351 170.000000,236.506351 195.000000,279.807621" fill="rgb(26,22,197)" />
    <polygon data-nodes="13,2,12" points="245.000000,279.807621 220.000000,236.506351 195.000000,279.807621" fill="rgb(26,22,197)" />
    <polygon data-nodes="5,2,13" points="270.000000,236.506351 220.000000,236.506351 245.000000,279.807621" fill="rgb(26,22,197)" />
    <polygon data-nodes="14,5,13" points="295.000000,279.807621 270.000000,236.506351 245.000000,279.807621" fill="rgb(26,22,197)" />
    <polygon data-nodes="15,7,6" points="195.000000,106.602540 170.000000,149.903811 220.000000,149.903811" fill="rgb(26,22,197)" />
    <polygon data-nodes="16,7,15" points="145.000000,106.602540 170.000000,149.903811 195.000000,106.602540" fill="rgb(26,22,197)" />
    <polygon data-nodes="17,7,16" points="120.000000,149.903811 170.000000,149.903811 145.000000,106.602540" fill="rgb(26,22,197)" />
    <polygon data-nodes="8,7,17" points="145.000000,193.205081 170.000000,149.903811 120.000000,149.903811" fill="rgb(26,22,197)" />
    <polygon data-nodes="18,8,17" points="95.000000,193.205081 145.000000,193.205081 120.000000,149.903811" fill="rgb(26,22,197)" />
    <polygon data-nodes="9,8,18" points="120.000000,236.506351 145.000000,193.205081 95.000000,193.205081" fill="rgb(26,22,197)" />
    <polygon data-nodes="19,9,18" points="70.000000,236.506351 120.000000,236.506351 95.000000,193.205081" fill="rgb(26,22,197)" />
    <polygon data-nodes="11,9,19" points="95.000000,279.807621 120.000000,236.506351 70.000000,236.506351" fill="rgb(26,22,197)" />
    <polygon data-nodes="20,11,19" points="45.000000,279.807621 95.000000,279.807621 70.000000,236.506351" fill="rgb(26,22,197)" />
    <polygon data-nodes="21,11,20" points="70.000000,323.108891 95.000000,279.807621 45.000000,279.807621" fill="rgb(26,22,197)" />
    <polygon data-nodes="22,21,20" points="20.000000,323.108891 70.000000,323.108891 45.000000,279.807621" fill="rgb(26,22,197)" />
    <polygon data-nodes="23,11,21" points="120.000000,323.108891 95.000000,279.807621 70.000000,323.108891" fill="rgb(26,22,197)" />
    <polygon data-nodes="10,11,23" points="145.000000,279.807621 95.000000,279.807621 120.000000,323.108891" fill="rgb(26,22,197)" />
    <polygon data-nodes="24,10,23" points="170.000000,323.108891 145.000000,279.807621 120.000000,323.108891" fill="rgb(26,22,197)" />
    <polygon data-nodes="12,10,24" points="195.000000,279.807621 145.000000,279.807621 170.000000,323.108891" fill="rgb(26,22,197)" />
    <polygon data-nodes="25,12,24" points="220.000000,323.108891 195.000000,279.807621 170.000000,323.108891" fill="rgb(26,22,197)" />
    <polygon data-nodes="13,12,25" points="245.000000,279.807621 195.000000,279.807621 220.000000,323.108891" fill="rgb(26,22,197)" />
    <polygon data-nodes="26,13,25" points="270.000000,323.108891 245.000000,279.807621 220.000000,323.108891" fill="rgb(26,22,197)" />
    <polygon data-nodes="14,13,26" points="295.000000,279.807621 245.000000,279.807621 270.000000,323.108891" fill="rgb(26,22,197)" />
    <polygon data-nodes="27,14,26" points="320.000000,323.108891 295.000000,279.807621 270.000000,323.108891" fill="rgb(26,22,197)" />
    <polygon data-nodes="28,14,27" points="345.000000,279.807621 295.000000,279.807621 320.000000,323.108891" fill="rgb(26,22,197)" />
    <polygon data-nodes="29,28,27" points="370.000000,323.108891 345.000000,279.807621 320.000000,323.108891" fill="rgb(26,22,197)" />
    <polygon data-nodes="30,14,28" points="320.000000,236.506351 295.000000,279.807621 345.000000,279.807621" fill="rgb(26,22,197)" />
    <polygon data-nodes="5,14,30" points="270.000000,236.506351 295.000000,279.807621 320.000000,236.506351" fill="rgb(26,22,197)" />
    <polygon data-nodes="31,5,30" points="295.000000,193.205081 270.000000,236.506351 320.000000,236.506351" fill="rgb(26,22,197)" />
    <polygon data-nodes="3,5,31" points="245.000000,193.205081 270.000000,236.506351 295.000000,193.205081" fill="rgb(26,22,197)" />
    <polygon data-nodes="32,3,31" points="270.000000,149.903811 245.000000,193.205081 295.000000,193.205081" fill="rgb(26,22,197)" />
    <polygon data-nodes="6,3,32" points="220.000000,149.903811 245.000000,193.205081 270.000000,149.903811" fill="rgb(26,22,197)" />
    <polygon data-nodes="33,6,32" points="245.000000,106.602540 220.000000,149.903811 270.000000,149.903811" fill="rgb(26,22,197)" />
    <polygon data-nodes="15,6,33" points="195.000000,106.602540 220.000000,149.903811 245.000000,106.602540" fill="rgb(26,22,197)" />
    <polygon data-nodes="34,15,33" points="220.000000,63.301270 195.000000,106.602540 245.000000,106.602540" fill="rgb(26,22,197)" />
    <polygon data-nodes="35,16,15" points="170.000000,63.301270 145.000000,106.602540 195.000000,106.602540" fill="rgb(26,22,197)" />
    <polygon data-nodes="34,35,15" points="220.000000,63.301270 170.000000,63.301270 195.000000,106.602540" fill="rgb(26,22,197)" />
    <polygon data-nodes="36,35,34" points="195.000000,20.000000 170.000000,63.301270 220.000000,63.301270" fill="rgb(26,22,197)" />
  </g>
  <metadata>
    <rdf:RDF>
      <cc:Work>
        <dc:source rdf:resource="https://github.com/scala-tessella/tessella">Tessella</dc:source>
        <cc:license rdf:resource="https://www.apache.org/licenses/LICENSE-2.0"/>
      </cc:Work>
    </rdf:RDF>
    <tess:tilingCoordinates>
      <tess:coord node="5" x="1.500000000000000347474216435393787" y="0.8660254037844372866502328216119856" />
      <tess:coord node="10" x="-0.9999999999999986904320031530014671" y="1.732050807568878656484131054690171" />
      <tess:coord node="14" x="2.000000000000001758786044044828686" y="1.732050807568875118592692411553438" />
      <tess:coord node="1" x="2.84E-32" y="2.384626433832795028842015308825921E-16" />
      <tess:coord node="6" x="0.4999999999999990613994711570441266" y="-0.8660254037844389502023477764784466" />
      <tess:coord node="9" x="-1.499999999999999971582191337032170" y="0.8660254037844403809782080761555191" />
      <tess:coord node="13" x="1.000000000000001321314622631321361" y="1.732050807568876769128736664401933" />
      <tess:coord node="2" x="0.5000000000000000284178086629671324" y="0.8660254037844388688193370726891019" />
      <tess:coord node="12" x="1.6286244046194250556E-15" y="1.732050807568876992932016099823629" />
      <tess:coord node="7" x="-0.5000000000000012576569366153829759" y="-0.8660254037844376821925088843807305" />
      <tess:coord node="18" x="-1.999999999999999999999999999996116" y="4.156037093023120957236652415094389E-15" />
      <tess:coord node="11" x="-1.999999999999998690432003153000083" y="1.732050807568880320036246009556183" />
      <tess:coord node="8" x="-0.9999999999999999999999999999983142" y="2.059094391017635617282541151788652E-15" />
      <tess:coord node="4" x="-0.4999999999999999715821913370327871" y="0.8660254037844392700480018635483105" />
      <tess:coord node="15" x="-2.6748420771169811387E-15" y="-1.732050807568877147168454415267430" />
      <tess:coord node="24" x="-0.4999999999999966245479647268715291" y="2.598076211353316110509148525562525" />
      <tess:coord node="25" x="0.5000000000000034616697218107188152" y="2.598076211353314581386531953397582" />
      <tess:coord node="20" x="-2.999999999999998690432003152998748" y="1.732050807568881953780530541512501" />
      <tess:coord node="29" x="3.500000000000003724512102298097322" y="2.598076211353310544826311839624541" />
      <tess:coord node="28" x="3.000000000000001758786044044826511" y="1.732050807568873032975057554462459" />
      <tess:coord node="21" x="-2.499999999999996956511541688264865" y="2.598076211353319967879414360371810" />
      <tess:coord node="33" x="0.9999999999999975283044293750000228" y="-1.732050807568878482098906013373296" />
      <tess:coord node="17" x="-1.500000000000001257656936615380160" y="-0.8660254037844353089388525077658129" />
      <tess:coord node="32" x="1.499999999999996690157820463746484" y="-0.8660254037844403520534120805891267" />
      <tess:coord node="34" x="0.4999999999999958500178317411977838" y="-2.598076211353316645604706299158175" />
      <tess:coord node="22" x="-3.499999999999996956511541688262475" y="2.598076211353322154245607634586931" />
      <tess:coord node="27" x="2.500000000000003245927490639458163" y="2.598076211353312906754901067845875" />
      <tess:coord node="3" x="0.9999999999999988177473751848783788" y="-4.769252867665581600E-16" />
      <tess:coord node="35" x="-0.5000000000000048896682370496479642" y="-2.598076211353315067823606682925921" />
      <tess:coord node="16" x="-1.000000000000002993898484889407388" y="-1.732050807568875326536706780910735" />
      <tess:coord node="31" x="1.999999999999998260134763788503599" y="-2.5652394852249457482E-15" />
      <tess:coord node="26" x="1.500000000000002884285688211145545" y="2.598076211353314513510694387045272" />
      <tess:coord node="23" x="-1.499999999999996637455133915839349" y="2.598076211353317781513221086155992" />
      <tess:coord node="36" x="-6.5751231587006789776E-15" y="-3.464101615137754687685182575879028" />
      <tess:coord node="30" x="2.499999999999999633531781905341119" y="0.8660254037844352448128488981713524" />
      <tess:coord node="19" x="-2.499999999999999971582191337030884" y="0.8660254037844419849146621852020852" />
    </tess:tilingCoordinates>
  </metadata>
</svg>