<svg xmlns:rdf="http://www.w3.org/1999/02/22-rdf-syntax-ns#" xmlns:cc="http://creativecommons.org/ns#" xmlns:dc="http://purl.org/dc/elements/1.1/" xmlns:tess="https://github.com/scala-tessella/tessella" width="502.1320" height="502.1320" viewBox="0 0 502.1320 502.1320" xmlns="http://www.w3.org/2000/svg">
  <rect width="100%" height="100%" fill="white"/>
  <polygon data-nodes="46,47,35,36,48,49,50,65,52,53,54,33,34,55,56,57,66,59,60,61,29,30,62,63,64,67,42,43,44,31,32,37,38,39,68,45" points="361.421356,20.000000 311.421356,20.000000 276.066017,55.355339 226.066017,55.355339 190.710678,20.000000 140.710678,20.000000 105.355339,55.355339 55.355339,55.355339 55.355339,105.355339 20.000000,140.710678 20.000000,190.710678 55.355339,226.066017 55.355339,276.066017 20.000000,311.421356 20.000000,361.421356 55.355339,396.776695 55.355339,446.776695 105.355339,446.776695 140.710678,482.132034 190.710678,482.132034 226.066017,446.776695 276.066017,446.776695 311.421356,482.132034 361.421356,482.132034 396.776695,446.776695 446.776695,446.776695 446.776695,396.776695 482.132034,361.421356 482.132034,311.421356 446.776695,276.066017 446.776695,226.066017 482.132034,190.710678 482.132034,140.710678 446.776695,105.355339 446.776695,55.355339 396.776695,55.355339" fill="none" stroke="#e4e4e4" stroke-width="10.5" />
  <g id="tiling-polygons">
    <polygon data-nodes="1,2,3,4" points="226.066017,226.066017 226.066017,276.066017 276.066017,276.066017 276.066017,226.066017" fill="rgb(100,98,208)" stroke="#333" stroke-width="1.5" />
    <polygon data-nodes="5,6,7,8,9,10,3,2" points="190.710678,311.421356 190.710678,361.421356 226.066017,396.776695 276.066017,396.776695 311.421356,361.421356 311.421356,311.421356 276.066017,276.066017 226.066017,276.066017" fill="rgb(149,62,19)" stroke="#333" stroke-width="1.5" />
    <polygon data-nodes="10,11,12,13,14,15,4,3" points="311.421356,311.421356 361.421356,311.421356 396.776695,276.066017 396.776695,226.066017 361.421356,190.710678 311.421356,190.710678 276.066017,226.066017 276.066017,276.066017" fill="rgb(149,62,19)" stroke="#333" stroke-width="1.5" />
    <polygon data-nodes="15,16,17,18,19,20,1,4" points="311.421356,190.710678 311.421356,140.710678 276.066017,105.355339 226.066017,105.355339 190.710678,140.710678 190.710678,190.710678 226.066017,226.066017 276.066017,226.066017" fill="rgb(149,62,19)" stroke="#333" stroke-width="1.5" />
    <polygon data-nodes="20,21,22,23,24,5,2,1" points="190.710678,190.710678 140.710678,190.710678 105.355339,226.066017 105.355339,276.066017 140.710678,311.421356 190.710678,311.421356 226.066017,276.066017 226.066017,226.066017" fill="rgb(149,62,19)" stroke="#333" stroke-width="1.5" />
    <polygon data-nodes="25,6,5,24" points="140.710678,361.421356 190.710678,361.421356 190.710678,311.421356 140.710678,311.421356" fill="rgb(100,98,208)" stroke="#333" stroke-width="1.5" />
    <polygon data-nodes="9,26,11,10" points="311.421356,361.421356 361.421356,361.421356 361.421356,311.421356 311.421356,311.421356" fill="rgb(100,98,208)" stroke="#333" stroke-width="1.5" />
    <polygon data-nodes="27,16,15,14" points="361.421356,140.710678 311.421356,140.710678 311.421356,190.710678 361.421356,190.710678" fill="rgb(100,98,208)" stroke="#333" stroke-width="1.5" />
    <polygon data-nodes="19,28,21,20" points="190.710678,140.710678 140.710678,140.710678 140.710678,190.710678 190.710678,190.710678" fill="rgb(100,98,208)" stroke="#333" stroke-width="1.5" />
    <polygon data-nodes="29,30,8,7" points="226.066017,446.776695 276.066017,446.776695 276.066017,396.776695 226.066017,396.776695" fill="rgb(100,98,208)" stroke="#333" stroke-width="1.5" />
    <polygon data-nodes="31,32,13,12" points="446.776695,276.066017 446.776695,226.066017 396.776695,226.066017 396.776695,276.066017" fill="rgb(100,98,208)" stroke="#333" stroke-width="1.5" />
    <polygon data-nodes="33,34,23,22" points="55.355339,226.066017 55.355339,276.066017 105.355339,276.066017 105.355339,226.066017" fill="rgb(100,98,208)" stroke="#333" stroke-width="1.5" />
    <polygon data-nodes="35,36,18,17" points="276.066017,55.355339 226.066017,55.355339 226.066017,105.355339 276.066017,105.355339" fill="rgb(100,98,208)" stroke="#333" stroke-width="1.5" />
    <polygon data-nodes="32,37,38,39,40,27,14,13" points="446.776695,226.066017 482.132034,190.710678 482.132034,140.710678 446.776695,105.355339 396.776695,105.355339 361.421356,140.710678 361.421356,190.710678 396.776695,226.066017" fill="rgb(149,62,19)" stroke="#333" stroke-width="1.5" />
    <polygon data-nodes="26,41,42,43,44,31,12,11" points="361.421356,361.421356 396.776695,396.776695 446.776695,396.776695 482.132034,361.421356 482.132034,311.421356 446.776695,276.066017 396.776695,276.066017 361.421356,311.421356" fill="rgb(149,62,19)" stroke="#333" stroke-width="1.5" />
    <polygon data-nodes="40,45,46,47,35,17,16,27" points="396.776695,105.355339 396.776695,55.355339 361.421356,20.000000 311.421356,20.000000 276.066017,55.355339 276.066017,105.355339 311.421356,140.710678 361.421356,140.710678" fill="rgb(149,62,19)" stroke="#333" stroke-width="1.5" />
    <polygon data-nodes="18,36,48,49,50,51,28,19" points="226.066017,105.355339 226.066017,55.355339 190.710678,20.000000 140.710678,20.000000 105.355339,55.355339 105.355339,105.355339 140.710678,140.710678 190.710678,140.710678" fill="rgb(149,62,19)" stroke="#333" stroke-width="1.5" />
    <polygon data-nodes="28,51,52,53,54,33,22,21" points="140.710678,140.710678 105.355339,105.355339 55.355339,105.355339 20.000000,140.710678 20.000000,190.710678 55.355339,226.066017 105.355339,226.066017 140.710678,190.710678" fill="rgb(149,62,19)" stroke="#333" stroke-width="1.5" />
    <polygon data-nodes="34,55,56,57,58,25,24,23" points="55.355339,276.066017 20.000000,311.421356 20.000000,361.421356 55.355339,396.776695 105.355339,396.776695 140.710678,361.421356 140.710678,311.421356 105.355339,276.066017" fill="rgb(149,62,19)" stroke="#333" stroke-width="1.5" />
    <polygon data-nodes="58,59,60,61,29,7,6,25" points="105.355339,396.776695 105.355339,446.776695 140.710678,482.132034 190.710678,482.132034 226.066017,446.776695 226.066017,396.776695 190.710678,361.421356 140.710678,361.421356" fill="rgb(149,62,19)" stroke="#333" stroke-width="1.5" />
    <polygon data-nodes="8,30,62,63,64,41,26,9" points="276.066017,396.776695 276.066017,446.776695 311.421356,482.132034 361.421356,482.132034 396.776695,446.776695 396.776695,396.776695 361.421356,361.421356 311.421356,361.421356" fill="rgb(149,62,19)" stroke="#333" stroke-width="1.5" />
    <polygon data-nodes="50,65,52,51" points="105.355339,55.355339 55.355339,55.355339 55.355339,105.355339 105.355339,105.355339" fill="rgb(100,98,208)" stroke="#333" stroke-width="1.5" />
    <polygon data-nodes="66,59,58,57" points="55.355339,446.776695 105.355339,446.776695 105.355339,396.776695 55.355339,396.776695" fill="rgb(100,98,208)" stroke="#333" stroke-width="1.5" />
    <polygon data-nodes="64,67,42,41" points="396.776695,446.776695 446.776695,446.776695 446.776695,396.776695 396.776695,396.776695" fill="rgb(100,98,208)" stroke="#333" stroke-width="1.5" />
    <polygon data-nodes="68,45,40,39" points="446.776695,55.355339 396.776695,55.355339 396.776695,105.355339 446.776695,105.355339" fill="rgb(100,98,208)" stroke="#333" stroke-width="1.5" />
  </g>

  <metadata>
    <rdf:RDF>
      <cc:Work>
        <dc:source rdf:resource="https://github.com/scala-tessella/tessella">Tessella</dc:source>
        <cc:license rdf:resource="https://www.apache.org/licenses/LICENSE-2.0"/>
      </cc:Work>
    </rdf:RDF>
    <tess:tilingCoordinates>
      <tess:coord node="5" x="-0.7071067811865465343873085522359118" y="1.707106781186548970882806255585122" />
      <tess:coord node="65" x="-3.414213562373099273767011802153060" y="-3.414213562373092213698504580046353" />
      <tess:coord node="2" x="5.961566084581987856103157481103486E-16" y="1.000000000000000238462643383279325" />
      <tess:coord node="66" x="-3.414213562373091448923343925862315" y="4.414213562373098290986068447634861" />
      <tess:coord node="4" x="0.9999999999999992846120698501610651" y="-7.153879301498378264E-16" />
      <tess:coord node="10" x="1.707106781186548837186299653244738" y="1.707106781186546092384067379323879" />
      <tess:coord node="56" x="-4.121320343559640763034930345666741" y="2.707106781186551244751427535193369" />
      <tess:coord node="42" x="4.414213562373100285478324978068268" y="3.414213562373089294286044337890305" />
      <tess:coord node="24" x="-1.707106781186546464543217364943236" y="1.707106781186548941952436434184950" />
      <tess:coord node="37" x="5.121320343559641211029847290821805" y="-0.7071067811865546700195443653061883" />
      <tess:coord node="25" x="-1.707106781186546444086356681996312" y="2.707106781186549180415079817464447" />
      <tess:coord node="52" x="-3.414213562373097962222473194116125" y="-2.414213562373092213698504580047213" />
      <tess:coord node="14" x="2.707106781186545839456239085342803" y="-0.7071067811865506401213099385404502" />
      <tess:coord node="20" x="-0.7071067811865482410296911950463783" y="-0.7071067811865465693093541458830622" />
      <tess:coord node="46" x="2.707106781186542076951017863255210" y="-4.121320343559646250157561527300406" />
      <tess:coord node="57" x="-3.414213562373092522005239150620334" y="3.414213562373098052523425064355934" />
      <tess:coord node="29" x="4.4983500120548714836E-15" y="4.414213562373095848498894972038945" />
      <tess:coord node="61" x="-0.7071067811865444291372394686125074" y="5.121320343559644103993771077786994" />
      <tess:coord node="1" x="2.84E-32" y="2.384626433832795028842015308825921E-16" />
      <tess:coord node="6" x="-0.7071067811865452228427699441986455" y="2.707106781186548970882806255584262" />
      <tess:coord node="60" x="-1.707106781186544429137239468612407" y="5.121320343559644551988688022946426" />
      <tess:coord node="21" x="-1.707106781186548479492334578325906" y="-0.7071067811865461911585283880170716" />
      <tess:coord node="33" x="-3.414213562373095610036251588760767" y="2.9194124602421544868E-15" />
      <tess:coord node="28" x="-1.707106781186548976874482027831558" y="-1.707106781186546191158528388016948" />
      <tess:coord node="38" x="5.121320343559639422560021916225533" y="-1.707106781186554670019544365304589" />
      <tess:coord node="9" x="1.707106781186549910268194878002501" y="2.707106781186546092384067379323303" />
      <tess:coord node="53" x="-4.121320343559644685685194625285433" y="-1.707106781186543888359537287007730" />
      <tess:coord node="13" x="3.414213562373094417723034672361456" y="-4.1695864168013509759E-15" />
      <tess:coord node="41" x="3.414213562373100285478324978070088" y="3.414213562373091201987191404126328" />
      <tess:coord node="45" x="3.414213562373090823836365646260265" y="-3.414213562373099948241220586097876" />
      <tess:coord node="64" x="3.414213562373101716254185277745772" y="4.414213562373090844293226329206310" />
      <tess:coord node="17" x="0.9999999999999974093511350113644553" y="-2.414213562373096086961538355319484" />
      <tess:coord node="32" x="4.414213562373094417723034672360063" y="-5.838824920484307496341812863186706E-15" />
      <tess:coord node="34" x="-3.414213562373094536954356364003004" y="1.000000000000002919412460242153911" />
      <tess:coord node="22" x="-2.414213562373095371573608205481719" y="1.9655618867090362483E-15" />
      <tess:coord node="44" x="5.121320343559644714615564446681548" y="1.707106781186540463091420456894172" />
      <tess:coord node="59" x="-2.414213562373092312472965588740131" y="4.414213562373097386522725418864634" />
      <tess:coord node="27" x="2.707106781186544289449057094025665" y="-1.707106781186550878583953321818752" />
      <tess:coord node="12" x="3.414213562373095967730216663678225" y="0.9999999999999958304135831986478228" />
      <tess:coord node="54" x="-4.121320343559643612603299400527670" y="-0.7071067811865438883595372870083057" />
      <tess:coord node="49" x="-1.707106781186550177661208082682104" y="-4.121320343559641324269493210219512" />
      <tess:coord node="7" x="3.1868054734468339048E-15" y="3.414213562373095610036251588760302" />
      <tess:coord node="39" x="4.414213562373090675674674133220817" y="-2.414213562373100971935885306507458" />
      <tess:coord node="3" x="1.000000000000000596156608458198331" y="0.9999999999999992846120698501613135" />
      <tess:coord node="35" x="0.9999999999999960978065964033268761" y="-3.414213562373096325424181738598127" />
      <tess:coord node="48" x="-0.7071067811865501776612080826822941" y="-4.121320343559641940882962351364680" />
      <tess:coord node="63" x="2.707106781186555449259889930189332" y="5.121320343559639626100619705857332" />
      <tess:coord node="18" x="-2.5906488649886348339E-15" y="-2.414213562373094894648321438921969" />
      <tess:coord node="50" x="-2.414213562373097308205125093117716" y="-3.414213562373093406011721496445645" />
      <tess:coord node="67" x="4.414213562373102312410793735944042" y="4.414213562373089294286044337888251" />
      <tess:coord node="16" x="1.707106781186545818999378402397005" y="-1.707106781186549447808093022143444" />
      <tess:coord node="31" x="4.414213562373096206192860046956335" y="0.9999999999999941611750795156909044" />
      <tess:coord node="11" x="2.707106781186549581504599624482048" y="1.707106781186544492989654883659512" />
      <tess:coord node="43" x="5.121320343559646503085389821277819" y="2.707106781186540463091420456892573" />
      <tess:coord node="40" x="3.414213562373090675674674133222210" y="-2.414213562373099302697381623550938" />
      <tess:coord node="26" x="2.707106781186551300130333811784976" y="2.707106781186544492989654883658035" />
      <tess:coord node="55" x="-4.121320343559641836116825570424504" y="1.707106781186551244751427535193945" />
      <tess:coord node="23" x="-2.414213562373094536954356364003459" y="1.000000000000001965561886709035900" />
      <tess:coord node="8" x="1.000000000000003186805473446833194" y="3.414213562373094417723034672362787" />
      <tess:coord node="58" x="-2.414213562373092522005239150620789" y="3.414213562373097098672851531237922" />
      <tess:coord node="36" x="-3.902193403596672100342203956843348E-15" y="-3.414213562373094894648321438921109" />
      <tess:coord node="30" x="1.000000000000004498350012054870460" y="4.414213562373094417723034672361927" />
      <tess:coord node="51" x="-2.414213562373096810822977643612299" y="-2.414213562373093406011721496445769" />
      <tess:coord node="19" x="-0.7071067811865493141115864198041414" y="-1.707106781186546569309354145882486" />
      <tess:coord node="47" x="1.707106781186542076951017863256603" y="-4.121320343559644580919057844343407" />
      <tess:coord node="15" x="1.707106781186545839456239085343827" y="-0.7071067811865492093454496388634329" />
      <tess:coord node="68" x="4.414213562373088887204848758624119" y="-3.414213562373101210398528689785362" />
      <tess:coord node="62" x="1.707106781186555449259889930191021" y="5.121320343559641463957675584799880" />
    </tess:tilingCoordinates>
  </metadata>
</svg>