<svg xmlns:rdf="http://www.w3.org/1999/02/22-rdf-syntax-ns#" xmlns:cc="http://creativecommons.org/ns#" xmlns:dc="http://purl.org/dc/elements/1.1/" xmlns:tess="https://github.com/scala-tessella/tessella" width="363.2051" height="344.9038" viewBox="0 0 363.2051 344.9038" xmlns="http://www.w3.org/2000/svg">
  <rect width="100%" height="100%" fill="white"/>
  <polygon data-nodes="36,34,17,18,10,1,2,4,11,12,24,25,26,27,28,29,30,35,37,39,38" points="113.301270,45.000000 88.301270,88.301270 88.301270,138.301270 45.000000,163.301270 20.000000,206.602540 20.000000,256.602540 45.000000,299.903811 88.301270,324.903811 138.301270,324.903811 181.602540,299.903811 224.903811,324.903811 274.903811,324.903811 318.205081,299.903811 343.205081,256.602540 343.205081,206.602540 318.205081,163.301270 274.903811,138.301270 274.903811,88.301270 249.903811,45.000000 206.602540,20.000000 156.602540,20.000000" fill="none" stroke="#e4e4e4" stroke-width="10.5" />
  <g id="tiling-polygons">
    <polygon data-nodes="1,2,3" points="20.000000,256.602540 45.000000,299.903811 70.000000,256.602540" fill="rgb(26,22,197)" stroke="#333" stroke-width="1.5" />
    <polygon data-nodes="4,5,3,2" points="88.301270,324.903811 113.301270,281.602540 70.000000,256.602540 45.000000,299.903811" fill="rgb(100,98,208)" stroke="#333" stroke-width="1.5" />
    <polygon data-nodes="6,7,8,9,3,5" points="156.602540,256.602540 156.602540,206.602540 113.301270,181.602540 70.000000,206.602540 70.000000,256.602540 113.301270,281.602540" fill="rgb(76,175,80)" stroke="#333" stroke-width="1.5" />
    <polygon data-nodes="9,10,1,3" points="70.000000,206.602540 20.000000,206.602540 20.000000,256.602540 70.000000,256.602540" fill="rgb(100,98,208)" stroke="#333" stroke-width="1.5" />
    <polygon data-nodes="11,12,6,5" points="138.301270,324.903811 181.602540,299.903811 156.602540,256.602540 113.301270,281.602540" fill="rgb(100,98,208)" stroke="#333" stroke-width="1.5" />
    <polygon data-nodes="11,5,4" points="138.301270,324.903811 113.301270,281.602540 88.301270,324.903811" fill="rgb(26,22,197)" stroke="#333" stroke-width="1.5" />
    <polygon data-nodes="13,14,7,6" points="206.602540,256.602540 206.602540,206.602540 156.602540,206.602540 156.602540,256.602540" fill="rgb(100,98,208)" stroke="#333" stroke-width="1.5" />
    <polygon data-nodes="13,6,12" points="206.602540,256.602540 156.602540,256.602540 181.602540,299.903811" fill="rgb(26,22,197)" stroke="#333" stroke-width="1.5" />
    <polygon data-nodes="15,16,8,7" points="181.602540,163.301270 138.301270,138.301270 113.301270,181.602540 156.602540,206.602540" fill="rgb(100,98,208)" stroke="#333" stroke-width="1.5" />
    <polygon data-nodes="14,15,7" points="206.602540,206.602540 181.602540,163.301270 156.602540,206.602540" fill="rgb(26,22,197)" stroke="#333" stroke-width="1.5" />
    <polygon data-nodes="17,18,9,8" points="88.301270,138.301270 45.000000,163.301270 70.000000,206.602540 113.301270,181.602540" fill="rgb(100,98,208)" stroke="#333" stroke-width="1.5" />
    <polygon data-nodes="18,10,9" points="45.000000,163.301270 20.000000,206.602540 70.000000,206.602540" fill="rgb(26,22,197)" stroke="#333" stroke-width="1.5" />
    <polygon data-nodes="16,17,8" points="138.301270,138.301270 88.301270,138.301270 113.301270,181.602540" fill="rgb(26,22,197)" stroke="#333" stroke-width="1.5" />
    <polygon data-nodes="19,20,21,22,14,13" points="249.903811,281.602540 293.205081,256.602540 293.205081,206.602540 249.903811,181.602540 206.602540,206.602540 206.602540,256.602540" fill="rgb(76,175,80)" stroke="#333" stroke-width="1.5" />
    <polygon data-nodes="23,15,14,22" points="224.903811,138.301270 181.602540,163.301270 206.602540,206.602540 249.903811,181.602540" fill="rgb(100,98,208)" stroke="#333" stroke-width="1.5" />
    <polygon data-nodes="12,24,19,13" points="181.602540,299.903811 224.903811,324.903811 249.903811,281.602540 206.602540,256.602540" fill="rgb(100,98,208)" stroke="#333" stroke-width="1.5" />
    <polygon data-nodes="25,26,20,19" points="274.903811,324.903811 318.205081,299.903811 293.205081,256.602540 249.903811,281.602540" fill="rgb(100,98,208)" stroke="#333" stroke-width="1.5" />
    <polygon data-nodes="27,28,21,20" points="343.205081,256.602540 343.205081,206.602540 293.205081,206.602540 293.205081,256.602540" fill="rgb(100,98,208)" stroke="#333" stroke-width="1.5" />
    <polygon data-nodes="29,30,22,21" points="318.205081,163.301270 274.903811,138.301270 249.903811,181.602540 293.205081,206.602540" fill="rgb(100,98,208)" stroke="#333" stroke-width="1.5" />
    <polygon data-nodes="30,23,22" points="274.903811,138.301270 224.903811,138.301270 249.903811,181.602540" fill="rgb(26,22,197)" stroke="#333" stroke-width="1.5" />
    <polygon data-nodes="28,29,21" points="343.205081,206.602540 318.205081,163.301270 293.205081,206.602540" fill="rgb(26,22,197)" stroke="#333" stroke-width="1.5" />
    <polygon data-nodes="27,20,26" points="343.205081,256.602540 293.205081,256.602540 318.205081,299.903811" fill="rgb(26,22,197)" stroke="#333" stroke-width="1.5" />
    <polygon data-nodes="25,19,24" points="274.903811,324.903811 249.903811,281.602540 224.903811,324.903811" fill="rgb(26,22,197)" stroke="#333" stroke-width="1.5" />
    <polygon data-nodes="23,31,32,33,16,15" points="224.903811,138.301270 224.903811,88.301270 181.602540,63.301270 138.301270,88.301270 138.301270,138.301270 181.602540,163.301270" fill="rgb(76,175,80)" stroke="#333" stroke-width="1.5" />
    <polygon data-nodes="33,34,17,16" points="138.301270,88.301270 88.301270,88.301270 88.301270,138.301270 138.301270,138.301270" fill="rgb(100,98,208)" stroke="#333" stroke-width="1.5" />
    <polygon data-nodes="35,31,23,30" points="274.903811,88.301270 224.903811,88.301270 224.903811,138.301270 274.903811,138.301270" fill="rgb(100,98,208)" stroke="#333" stroke-width="1.5" />
    <polygon data-nodes="36,34,33" points="113.301270,45.000000 88.301270,88.301270 138.301270,88.301270" fill="rgb(26,22,197)" stroke="#333" stroke-width="1.5" />
    <polygon data-nodes="37,31,35" points="249.903811,45.000000 224.903811,88.301270 274.903811,88.301270" fill="rgb(26,22,197)" stroke="#333" stroke-width="1.5" />
    <polygon data-nodes="38,36,33,32" points="156.602540,20.000000 113.301270,45.000000 138.301270,88.301270 181.602540,63.301270" fill="rgb(100,98,208)" stroke="#333" stroke-width="1.5" />
    <polygon data-nodes="37,39,32,31" points="249.903811,45.000000 206.602540,20.000000 181.602540,63.301270 224.903811,88.301270" fill="rgb(100,98,208)" stroke="#333" stroke-width="1.5" />
    <polygon data-nodes="39,38,32" points="206.602540,20.000000 156.602540,20.000000 181.602540,63.301270" fill="rgb(26,22,197)" stroke="#333" stroke-width="1.5" />
  </g>

  <metadata>
    <rdf:RDF>
      <cc:Work>
        <dc:source rdf:resource="https://github.com/scala-tessella/tessella">Tessella</dc:source>
        <cc:license rdf:resource="https://www.apache.org/licenses/LICENSE-2.0"/>
      </cc:Work>
    </rdf:RDF>
    <tess:tilingCoordinates>
      <tess:coord node="5" x="1.866025403784438223107659869945366" y="0.4999999999999982091469262435983854" />
      <tess:coord node="10" x="-8.346192518414782316952695953774669E-16" y="-0.9999999999999997615373566167201488" />
      <tess:coord node="14" x="3.732050807568874501978047040704811" y="-1.000000000000006275675536553927379" />
      <tess:coord node="1" x="2.84E-32" y="2.384626433832795028842015308825921E-16" />
      <tess:coord node="6" x="2.732050807568876756000381725682793" y="-3.9024218801773150023E-15" />
      <tess:coord node="9" x="0.9999999999999971163469492421620158" y="-1.000000000000000476925286766556713" />
      <tess:coord node="13" x="3.732050807568876994463025108959480" y="-6.2756755365539304852E-15" />
      <tess:coord node="2" x="0.5000000000000000284178086629671324" y="0.8660254037844388688193370726891019" />
      <tess:coord node="12" x="3.232050807568878492241929999707205" y="0.8660254037844337419223177192150022" />
      <tess:coord node="18" x="0.4999999999999953801054009681376037" y="-1.866025403784438121269484663086718" />
      <tess:coord node="11" x="2.366025403784440907513392948997289" y="1.366025403784435581421219504993906" />
      <tess:coord node="8" x="1.866025403784434820306807984512097" y="-1.500000000000002109909481528826627" />
      <tess:coord node="4" x="1.366025403784439640292800371543529" y="1.366025403784437674122871774485085" />
      <tess:coord node="15" x="3.232050807568872725439616572106350" y="-1.866025403784443850223487102837137" />
      <tess:coord node="24" x="4.098076211353320481478474183704803" y="1.366025403784431862126533738853698" />
      <tess:coord node="37" x="4.598076211353305487577859465245362" y="-4.232050807568886638942266860988892" />
      <tess:coord node="25" x="5.098076211353320919766203647768146" y="1.366025403784428904303032260208294" />
      <tess:coord node="20" x="5.464101615137754932716031649760642" y="-1.10713707673289900643E-14" />
      <tess:coord node="29" x="5.964101615137749425971395688493594" y="-1.866025403784451414714650317277580" />
      <tess:coord node="21" x="5.464101615137751887609144839247170" y="-1.000000000000011071370767328985428" />
      <tess:coord node="33" x="2.366025403784430432052077756016853" y="-3.366025403784441851196381430838707" />
      <tess:coord node="28" x="6.464101615137751887609144839242164" y="-1.000000000000014235708975831138651" />
      <tess:coord node="38" x="2.732050807568865199897471787781315" y="-4.732050807568881624596523732526934" />
      <tess:coord node="17" x="1.366025403784432964833938018847519" y="-2.366025403784439960768386448865621" />
      <tess:coord node="32" x="3.232050807568867740469660435596219" y="-3.866025403784444169279894875258831" />
      <tess:coord node="34" x="1.366025403784430955174621345231499" y="-3.366025403784439960768386448863602" />
      <tess:coord node="22" x="4.598076211353311810395629720284176" y="-1.500000000000008593759049998347504" />
      <tess:coord node="27" x="6.464101615137755171178675033035139" y="-1.42357089758311440419E-14" />
      <tess:coord node="7" x="2.732050807568874501978047040707627" y="-1.000000000000003902421880177312462" />
      <tess:coord node="39" x="3.732050807568865159600589593203508" y="-4.732050807568884306109070840041399" />
      <tess:coord node="3" x="0.9999999999999988177473751848783788" y="-4.769252867665581600E-16" />
      <tess:coord node="35" x="5.098076211353306469079572273310684" y="-3.366025403784448969050869346405761" />
      <tess:coord node="16" x="2.366025403784432924537055824271521" y="-2.366025403784441851196381430841813" />
      <tess:coord node="31" x="4.098076211353307817683175554559213" y="-3.366025403784446646891612205896754" />
      <tess:coord node="26" x="5.964101615137757832641510264576254" y="0.8660254037844259011202001336382712" />
      <tess:coord node="23" x="4.098076211353309269823441072469272" y="-2.366025403784446049075678855615606" />
      <tess:coord node="36" x="1.866025403784428998959545893129697" y="-4.232050807568879736953410024688643" />
      <tess:coord node="30" x="5.098076211353309229526558877891464" y="-2.366025403784448730588225963130072" />
      <tess:coord node="19" x="4.598076211353317900609403341312091" y="0.4999999999999917252973577740711300" />
    </tess:tilingCoordinates>
  </metadata>
</svg>