<svg xmlns:rdf="http://www.w3.org/1999/02/22-rdf-syntax-ns#" xmlns:cc="http://creativecommons.org/ns#" xmlns:dc="http://purl.org/dc/elements/1.1/" xmlns:tess="https://github.com/scala-tessella/tessella" width="326.6025" height="326.6025" viewBox="0 0 326.6025 326.6025" xmlns="http://www.w3.org/2000/svg">
  <rect width="100%" height="100%" fill="white"/>
  <polygon data-nodes="25,26,17,28,19,35,36,20,29,21,33,34,22,30,23,31,32,24,27,18" points="306.602540,256.602540 306.602540,206.602540 281.602540,163.301270 281.602540,113.301270 256.602540,70.000000 256.602540,20.000000 206.602540,20.000000 163.301270,45.000000 113.301270,45.000000 70.000000,70.000000 20.000000,70.000000 20.000000,120.000000 45.000000,163.301270 45.000000,213.301270 70.000000,256.602540 70.000000,306.602540 120.000000,306.602540 163.301270,281.602540 213.301270,281.602540 256.602540,256.602540" fill="none" stroke="#e4e4e4" stroke-width="10.5" />
  <g id="tiling-polygons" stroke="#333" stroke-width="1.5">
    <polygon data-nodes="1,2,3" points="113.301270,95.000000 138.301270,138.301270 163.301270,95.000000" fill="rgb(26,22,197)" />
    <polygon data-nodes="4,3,2" points="188.301270,138.301270 163.301270,95.000000 138.301270,138.301270" fill="rgb(26,22,197)" />
    <polygon data-nodes="5,6,4,2" points="138.301270,188.301270 188.301270,188.301270 188.301270,138.301270 138.301270,138.301270" fill="rgb(100,98,208)" />
    <polygon data-nodes="7,8,2,1" points="70.000000,120.000000 95.000000,163.301270 138.301270,138.301270 113.301270,95.000000" fill="rgb(100,98,208)" />
    <polygon data-nodes="5,2,8" points="138.301270,188.301270 138.301270,138.301270 95.000000,163.301270" fill="rgb(26,22,197)" />
    <polygon data-nodes="9,5,8" points="95.000000,213.301270 138.301270,188.301270 95.000000,163.301270" fill="rgb(26,22,197)" />
    <polygon data-nodes="10,11,5,9" points="120.000000,256.602540 163.301270,231.602540 138.301270,188.301270 95.000000,213.301270" fill="rgb(100,98,208)" />
    <polygon data-nodes="11,6,5" points="163.301270,231.602540 188.301270,188.301270 138.301270,188.301270" fill="rgb(26,22,197)" />
    <polygon data-nodes="12,6,11" points="213.301270,231.602540 188.301270,188.301270 163.301270,231.602540" fill="rgb(26,22,197)" />
    <polygon data-nodes="13,4,6" points="231.602540,163.301270 188.301270,138.301270 188.301270,188.301270" fill="rgb(26,22,197)" />
    <polygon data-nodes="14,13,6,12" points="256.602540,206.602540 231.602540,163.301270 188.301270,188.301270 213.301270,231.602540" fill="rgb(100,98,208)" />
    <polygon data-nodes="15,16,3,4" points="231.602540,113.301270 206.602540,70.000000 163.301270,95.000000 188.301270,138.301270" fill="rgb(100,98,208)" />
    <polygon data-nodes="15,4,13" points="231.602540,113.301270 188.301270,138.301270 231.602540,163.301270" fill="rgb(26,22,197)" />
    <polygon data-nodes="17,13,14" points="281.602540,163.301270 231.602540,163.301270 256.602540,206.602540" fill="rgb(26,22,197)" />
    <polygon data-nodes="18,14,12" points="256.602540,256.602540 256.602540,206.602540 213.301270,231.602540" fill="rgb(26,22,197)" />
    <polygon data-nodes="19,16,15" points="256.602540,70.000000 206.602540,70.000000 231.602540,113.301270" fill="rgb(26,22,197)" />
    <polygon data-nodes="20,3,16" points="163.301270,45.000000 163.301270,95.000000 206.602540,70.000000" fill="rgb(26,22,197)" />
    <polygon data-nodes="21,7,1" points="70.000000,70.000000 70.000000,120.000000 113.301270,95.000000" fill="rgb(26,22,197)" />
    <polygon data-nodes="22,8,7" points="45.000000,163.301270 95.000000,163.301270 70.000000,120.000000" fill="rgb(26,22,197)" />
    <polygon data-nodes="23,10,9" points="70.000000,256.602540 120.000000,256.602540 95.000000,213.301270" fill="rgb(26,22,197)" />
    <polygon data-nodes="24,11,10" points="163.301270,281.602540 163.301270,231.602540 120.000000,256.602540" fill="rgb(26,22,197)" />
    <polygon data-nodes="25,26,14,18" points="306.602540,256.602540 306.602540,206.602540 256.602540,206.602540 256.602540,256.602540" fill="rgb(100,98,208)" />
    <polygon data-nodes="27,12,11,24" points="213.301270,281.602540 213.301270,231.602540 163.301270,231.602540 163.301270,281.602540" fill="rgb(100,98,208)" />
    <polygon data-nodes="17,28,15,13" points="281.602540,163.301270 281.602540,113.301270 231.602540,113.301270 231.602540,163.301270" fill="rgb(100,98,208)" />
    <polygon data-nodes="20,29,1,3" points="163.301270,45.000000 113.301270,45.000000 113.301270,95.000000 163.301270,95.000000" fill="rgb(100,98,208)" />
    <polygon data-nodes="22,30,9,8" points="45.000000,163.301270 45.000000,213.301270 95.000000,213.301270 95.000000,163.301270" fill="rgb(100,98,208)" />
    <polygon data-nodes="31,32,10,23" points="70.000000,306.602540 120.000000,306.602540 120.000000,256.602540 70.000000,256.602540" fill="rgb(100,98,208)" />
    <polygon data-nodes="33,34,7,21" points="20.000000,70.000000 20.000000,120.000000 70.000000,120.000000 70.000000,70.000000" fill="rgb(100,98,208)" />
    <polygon data-nodes="35,36,16,19" points="256.602540,20.000000 206.602540,20.000000 206.602540,70.000000 256.602540,70.000000" fill="rgb(100,98,208)" />
    <polygon data-nodes="28,19,15" points="281.602540,113.301270 256.602540,70.000000 231.602540,113.301270" fill="rgb(26,22,197)" />
    <polygon data-nodes="26,17,14" points="306.602540,206.602540 281.602540,163.301270 256.602540,206.602540" fill="rgb(26,22,197)" />
    <polygon data-nodes="36,20,16" points="206.602540,20.000000 163.301270,45.000000 206.602540,70.000000" fill="rgb(26,22,197)" />
    <polygon data-nodes="29,21,1" points="113.301270,45.000000 70.000000,70.000000 113.301270,95.000000" fill="rgb(26,22,197)" />
    <polygon data-nodes="34,22,7" points="20.000000,120.000000 45.000000,163.301270 70.000000,120.000000" fill="rgb(26,22,197)" />
    <polygon data-nodes="30,23,9" points="45.000000,213.301270 70.000000,256.602540 95.000000,213.301270" fill="rgb(26,22,197)" />
    <polygon data-nodes="32,24,10" points="120.000000,306.602540 163.301270,281.602540 120.000000,256.602540" fill="rgb(26,22,197)" />
    <polygon data-nodes="27,18,12" points="213.301270,281.602540 256.602540,256.602540 213.301270,231.602540" fill="rgb(26,22,197)" />
  </g>
  <metadata>
    <rdf:RDF>
      <cc:Work>
        <dc:source rdf:resource="https://github.com/scala-tessella/tessella">Tessella</dc:source>
        <cc:license rdf:resource="https://www.apache.org/licenses/LICENSE-2.0"/>
      </cc:Work>
    </rdf:RDF>
    <tess:tilingCoordinates>
      <tess:coord node="5" x="0.5000000000000020488746423781118064" y="1.866025403784439107281980455966652" />
      <tess:coord node="10" x="0.1339745962155653296055763513758066" y="3.232050807568878357799725755630650" />
      <tess:coord node="14" x="2.866025403784441560833586178786610" y="2.232050807568873030207462850860862" />
      <tess:coord node="1" x="2.84E-32" y="2.384626433832795028842015308825921E-16" />
      <tess:coord node="6" x="1.500000000000002048874642378110149" y="1.866025403784437286650232821610538" />
      <tess:coord node="9" x="-0.3660254037844359738135777979409508" y="2.366025403784440188212459401888839" />
      <tess:coord node="13" x="2.366025403784440029145455491589317" y="1.366025403784435494137834173126151" />
      <tess:coord node="2" x="0.5000000000000000284178086629671324" y="0.8660254037844388688193370726891019" />
      <tess:coord node="12" x="2.000000000000003748381638573281432" y="2.732050807568874952203134249426820" />
      <tess:coord node="7" x="-0.8660254037844387772557398670988955" y="0.5000000000000004893691272496409978" />
      <tess:coord node="18" x="2.866025403784444010901157184468869" y="3.232050807568873030207462850857861" />
      <tess:coord node="11" x="1.000000000000003233062474835788530" y="2.732050807568877070354539786199398" />
      <tess:coord node="8" x="-0.3660254037844385423232241806225814" y="1.366025403784439000494499247410814" />
      <tess:coord node="4" x="1.500000000000000347474216435393787" y="0.8660254037844372866502328216119856" />
      <tess:coord node="15" x="2.366025403784438257948782201252872" y="0.3660254037844355344347163677019313" />
      <tess:coord node="24" x="1.000000000000005088090730036639577" y="3.732050807568877070354539786197677" />
      <tess:coord node="25" x="3.866025403784444249363800567745071" y="3.232050807568870460908570153535238" />
      <tess:coord node="20" x="0.9999999999999965637250404999032131" y="-1.000000000000000476925286766555620" />
      <tess:coord node="29" x="-8.346192518414782316952695953774669E-16" y="-0.9999999999999997615373566167201488" />
      <tess:coord node="28" x="3.366025403784438257948782201251085" y="0.3660254037844336440067213857256635" />
      <tess:coord node="21" x="-0.8660254037844392977157263495978551" y="-0.4999999999999995106308727503588668" />
      <tess:coord node="33" x="-1.866025403784439536178369732877153" y="-0.4999999999999988709395645762200032" />
      <tess:coord node="17" x="3.366025403784440029145455491586785" y="1.366025403784433243895349248232067" />
      <tess:coord node="32" x="0.1339745962155671846338315522268540" y="4.232050807568878357799725755628929" />
      <tess:coord node="34" x="-1.866025403784438777255739867098691" y="0.5000000000000011290604354237797088" />
      <tess:coord node="22" x="-1.366025403784438542323224180622377" y="1.366025403784439640185807421549526" />
      <tess:coord node="27" x="2.000000000000005326553373419917131" y="3.732050807568875096094962893706409" />
      <tess:coord node="3" x="0.9999999999999988177473751848783788" y="-4.769252867665581600E-16" />
      <tess:coord node="35" x="2.866025403784434029222255858970380" y="-1.500000000000004721625781288719387" />
      <tess:coord node="16" x="1.866025403784436521707233927228460" y="-0.5000000000000021099094815288280735" />
      <tess:coord node="31" x="-0.8660254037844328153661684477711971" y="4.232050807568880332059302648119728" />
      <tess:coord node="26" x="3.866025403784441560833586178783309" y="2.232050807568870460908570153538852" />
      <tess:coord node="23" x="-0.8660254037844346703944236486226869" y="3.232050807568880093596659264841946" />
      <tess:coord node="36" x="1.866025403784434029222255858973791" y="-1.500000000000002109909481528824967" />
      <tess:coord node="30" x="-1.366025403784435973813577797937339" y="2.366025403784442875953427476207170" />
      <tess:coord node="19" x="2.866025403784436521707233927225644" y="-0.5000000000000044831631379054429909" />
    </tess:tilingCoordinates>
  </metadata>
</svg>