<svg xmlns:rdf="http://www.w3.org/1999/02/22-rdf-syntax-ns#" xmlns:cc="http://creativecommons.org/ns#" xmlns:dc="http://purl.org/dc/elements/1.1/" xmlns:tess="https://github.com/scala-tessella/tessella" width="786.4102" height="711.4102" viewBox="0 0 786.4102 711.4102" xmlns="http://www.w3.org/2000/svg">
  <rect width="100%" height="100%" fill="white"/>
  <polygon data-nodes="85,86,87,88,89,90,40,41,42,43,44,45,78,79,80,81,82,83,56,57,58,59,60,61,62,48,49,50,51,52,53,72,73,74,75,76,77,65,66,67,68,69,70,71,32,33,34,35,36,37,91,92,93,94,95,96,84" points="698.108891,529.807621 741.410162,504.807621 766.410162,461.506351 766.410162,411.506351 741.410162,368.205081 698.108891,343.205081 648.108891,343.205081 673.108891,299.903811 673.108891,249.903811 648.108891,206.602540 604.807621,181.602540 554.807621,181.602540 579.807621,138.301270 579.807621,88.301270 554.807621,45.000000 511.506351,20.000000 461.506351,20.000000 418.205081,45.000000 393.205081,88.301270 368.205081,45.000000 324.903811,20.000000 274.903811,20.000000 231.602540,45.000000 206.602540,88.301270 206.602540,138.301270 231.602540,181.602540 181.602540,181.602540 138.301270,206.602540 113.301270,249.903811 113.301270,299.903811 138.301270,343.205081 88.301270,343.205081 45.000000,368.205081 20.000000,411.506351 20.000000,461.506351 45.000000,504.807621 88.301270,529.807621 138.301270,529.807621 113.301270,573.108891 113.301270,623.108891 138.301270,666.410162 181.602540,691.410162 231.602540,691.410162 274.903811,666.410162 299.903811,623.108891 324.903811,666.410162 368.205081,691.410162 418.205081,691.410162 461.506351,666.410162 486.506351,623.108891 511.506351,666.410162 554.807621,691.410162 604.807621,691.410162 648.108891,666.410162 673.108891,623.108891 673.108891,573.108891 648.108891,529.807621" fill="none" stroke="#e4e4e4" stroke-width="10.5" />
  <g id="tiling-polygons" stroke="#333" stroke-width="1.5">
    <polygon data-nodes="1,2,3" points="368.205081,368.205081 393.205081,411.506351 418.205081,368.205081" fill="rgb(26,22,197)" />
    <polygon data-nodes="4,5,6,7,8,9,10,11,12,13,3,2" points="393.205081,461.506351 418.205081,504.807621 461.506351,529.807621 511.506351,529.807621 554.807621,504.807621 579.807621,461.506351 579.807621,411.506351 554.807621,368.205081 511.506351,343.205081 461.506351,343.205081 418.205081,368.205081 393.205081,411.506351" fill="rgb(31,249,233)" />
    <polygon data-nodes="13,14,15,16,17,18,19,20,21,22,1,3" points="461.506351,343.205081 486.506351,299.903811 486.506351,249.903811 461.506351,206.602540 418.205081,181.602540 368.205081,181.602540 324.903811,206.602540 299.903811,249.903811 299.903811,299.903811 324.903811,343.205081 368.205081,368.205081 418.205081,368.205081" fill="rgb(31,249,233)" />
    <polygon data-nodes="22,23,24,25,26,27,28,29,30,4,2,1" points="324.903811,343.205081 274.903811,343.205081 231.602540,368.205081 206.602540,411.506351 206.602540,461.506351 231.602540,504.807621 274.903811,529.807621 324.903811,529.807621 368.205081,504.807621 393.205081,461.506351 393.205081,411.506351 368.205081,368.205081" fill="rgb(31,249,233)" />
    <polygon data-nodes="12,14,13" points="511.506351,343.205081 486.506351,299.903811 461.506351,343.205081" fill="rgb(26,22,197)" />
    <polygon data-nodes="23,22,21" points="274.903811,343.205081 324.903811,343.205081 299.903811,299.903811" fill="rgb(26,22,197)" />
    <polygon data-nodes="5,4,30" points="418.205081,504.807621 393.205081,461.506351 368.205081,504.807621" fill="rgb(26,22,197)" />
    <polygon data-nodes="29,31,32,33,34,35,36,37,38,6,5,30" points="324.903811,529.807621 299.903811,573.108891 299.903811,623.108891 324.903811,666.410162 368.205081,691.410162 418.205081,691.410162 461.506351,666.410162 486.506351,623.108891 486.506351,573.108891 461.506351,529.807621 418.205081,504.807621 368.205081,504.807621" fill="rgb(31,249,233)" />
    <polygon data-nodes="39,40,41,42,43,44,45,46,15,14,12,11" points="604.807621,368.205081 648.108891,343.205081 673.108891,299.903811 673.108891,249.903811 648.108891,206.602540 604.807621,181.602540 554.807621,181.602540 511.506351,206.602540 486.506351,249.903811 486.506351,299.903811 511.506351,343.205081 554.807621,368.205081" fill="rgb(31,249,233)" />
    <polygon data-nodes="20,47,48,49,50,51,52,53,54,24,23,21" points="299.903811,249.903811 274.903811,206.602540 231.602540,181.602540 181.602540,181.602540 138.301270,206.602540 113.301270,249.903811 113.301270,299.903811 138.301270,343.205081 181.602540,368.205081 231.602540,368.205081 274.903811,343.205081 299.903811,299.903811" fill="rgb(31,249,233)" />
    <polygon data-nodes="54,25,24" points="181.602540,368.205081 206.602540,411.506351 231.602540,368.205081" fill="rgb(26,22,197)" />
    <polygon data-nodes="28,31,29" points="274.903811,529.807621 299.903811,573.108891 324.903811,529.807621" fill="rgb(26,22,197)" />
    <polygon data-nodes="7,6,38" points="511.506351,529.807621 461.506351,529.807621 486.506351,573.108891" fill="rgb(26,22,197)" />
    <polygon data-nodes="39,11,10" points="604.807621,368.205081 554.807621,368.205081 579.807621,411.506351" fill="rgb(26,22,197)" />
    <polygon data-nodes="16,15,46" points="461.506351,206.602540 486.506351,249.903811 511.506351,206.602540" fill="rgb(26,22,197)" />
    <polygon data-nodes="47,20,19" points="274.903811,206.602540 299.903811,249.903811 324.903811,206.602540" fill="rgb(26,22,197)" />
    <polygon data-nodes="19,18,55,56,57,58,59,60,61,62,48,47" points="324.903811,206.602540 368.205081,181.602540 393.205081,138.301270 393.205081,88.301270 368.205081,45.000000 324.903811,20.000000 274.903811,20.000000 231.602540,45.000000 206.602540,88.301270 206.602540,138.301270 231.602540,181.602540 274.903811,206.602540" fill="rgb(31,249,233)" />
    <polygon data-nodes="17,55,18" points="418.205081,181.602540 393.205081,138.301270 368.205081,181.602540" fill="rgb(26,22,197)" />
    <polygon data-nodes="63,9,8" points="604.807621,504.807621 579.807621,461.506351 554.807621,504.807621" fill="rgb(26,22,197)" />
    <polygon data-nodes="64,27,26" points="181.602540,504.807621 231.602540,504.807621 206.602540,461.506351" fill="rgb(26,22,197)" />
    <polygon data-nodes="64,65,66,67,68,69,70,71,32,31,28,27" points="181.602540,504.807621 138.301270,529.807621 113.301270,573.108891 113.301270,623.108891 138.301270,666.410162 181.602540,691.410162 231.602540,691.410162 274.903811,666.410162 299.903811,623.108891 299.903811,573.108891 274.903811,529.807621 231.602540,504.807621" fill="rgb(31,249,233)" />
    <polygon data-nodes="53,72,73,74,75,76,77,65,64,26,25,54" points="138.301270,343.205081 88.301270,343.205081 45.000000,368.205081 20.000000,411.506351 20.000000,461.506351 45.000000,504.807621 88.301270,529.807621 138.301270,529.807621 181.602540,504.807621 206.602540,461.506351 206.602540,411.506351 181.602540,368.205081" fill="rgb(31,249,233)" />
    <polygon data-nodes="46,45,78,79,80,81,82,83,56,55,17,16" points="511.506351,206.602540 554.807621,181.602540 579.807621,138.301270 579.807621,88.301270 554.807621,45.000000 511.506351,20.000000 461.506351,20.000000 418.205081,45.000000 393.205081,88.301270 393.205081,138.301270 418.205081,181.602540 461.506351,206.602540" fill="rgb(31,249,233)" />
    <polygon data-nodes="9,63,84,85,86,87,88,89,90,40,39,10" points="579.807621,461.506351 604.807621,504.807621 648.108891,529.807621 698.108891,529.807621 741.410162,504.807621 766.410162,461.506351 766.410162,411.506351 741.410162,368.205081 698.108891,343.205081 648.108891,343.205081 604.807621,368.205081 579.807621,411.506351" fill="rgb(31,249,233)" />
    <polygon data-nodes="38,37,91,92,93,94,95,96,84,63,8,7" points="486.506351,573.108891 486.506351,623.108891 511.506351,666.410162 554.807621,691.410162 604.807621,691.410162 648.108891,666.410162 673.108891,623.108891 673.108891,573.108891 648.108891,529.807621 604.807621,504.807621 554.807621,504.807621 511.506351,529.807621" fill="rgb(31,249,233)" />
  </g>
  <metadata>
    <rdf:RDF>
      <cc:Work>
        <dc:source rdf:resource="https://github.com/scala-tessella/tessella">Tessella</dc:source>
        <cc:license rdf:resource="https://www.apache.org/licenses/LICENSE-2.0"/>
      </cc:Work>
    </rdf:RDF>
    <tess:tilingCoordinates>
      <tess:coord node="5" x="1.000000000000003466059782879710220" y="2.732050807568877872101571778084786" />
      <tess:coord node="84" x="5.598076211353319171207890699610731" y="3.232050807568870857907828952755945" />
      <tess:coord node="87" x="7.964101615137756490805688610575136" y="1.866025403784429791049843315602423" />
      <tess:coord node="69" x="-3.732050807568875390872102232044669" y="6.464101615137756549670207811046246" />
      <tess:coord node="88" x="7.964101615137755602153775186417922" y="0.8660254037844297910498433156028178" />
      <tess:coord node="10" x="4.232050807568877592861425843988752" y="0.8660254037844331985755218395757965" />
      <tess:coord node="56" x="0.4999999999999997951047932522340755" y="-5.598076211353317431687806410375717" />
      <tess:coord node="42" x="6.098076211353311177330647068401957" y="-2.366025403784448115079307605465537" />
      <tess:coord node="24" x="-2.732050807568878349026858544646769" y="9.913201111932312119E-16" />
      <tess:coord node="37" x="2.366025403784441769221058438090784" y="5.098076211353316787320409211513439" />
      <tess:coord node="25" x="-3.232050807568877900152158044929876" y="0.8660254037844398972417635299081837" />
      <tess:coord node="52" x="-5.098076211353317018657315880293822" y="-1.366025403784439710064574044722502" />
      <tess:coord node="14" x="2.366025403784438169110071971935531" y="-1.366025403784441346620296490887223" />
      <tess:coord node="20" x="-1.366025403784440656910999649233563" y="-2.366025403784437317818157241286719" />
      <tess:coord node="46" x="2.866025403784432086873927531731318" y="-3.232050807568880613705254166167479" />
      <tess:coord node="93" x="4.732050807568888528925824588768670" y="6.464101615137748407363336917122714" />
      <tess:coord node="57" x="-5.082577621201428696E-16" y="-6.464101615137755903305076574834001" />
      <tess:coord node="78" x="4.232050807568873539235832955449517" y="-4.598076211353321839554287944174254" />
      <tess:coord node="29" x="-0.8660254037844382838734821387382236" y="3.232050807568877778766957747678802" />
      <tess:coord node="61" x="-3.232050807568877769338823928791753" y="-5.598076211353316577356229243398984" />
      <tess:coord node="89" x="7.464101615137754885115754519042043" y="-8.4417317856036438163E-15" />
      <tess:coord node="1" x="2.84E-32" y="2.384626433832795028842015308825921E-16" />
      <tess:coord node="74" x="-6.964101615137755828722124752826907" y="0.8660254037844408386187653420061333" />
      <tess:coord node="6" x="1.866025403784443084899168864110109" y="3.232050807568876188417134983652139" />
      <tess:coord node="60" x="-2.732050807568877862472933382793871" y="-6.464101615137755277890955578156106" />
      <tess:coord node="85" x="6.598076211353319171207890699610158" y="3.232050807568869787192740765163119" />
      <tess:coord node="70" x="-2.732050807568875390872102232044874" y="6.464101615137755909978899636907535" />
      <tess:coord node="21" x="-1.366025403784439759459894735959443" y="-1.366025403784437317818157241287122" />
      <tess:coord node="33" x="-0.8660254037844356167537390035234193" y="5.964101615137755647159489613646602" />
      <tess:coord node="28" x="-1.866025403784438283873482138738186" y="3.232050807568878054331916394946291" />
      <tess:coord node="38" x="2.366025403784441866581640806808498" y="4.098076211353316787320409211513444" />
      <tess:coord node="92" x="3.732050807568888528925824588771196" y="6.464101615137750654953287150145912" />
      <tess:coord node="65" x="-4.598076211353316632900340683384525" y="3.232050807568879802001071486894190" />
      <tess:coord node="9" x="4.232050807568879294261851786705115" y="1.866025403784433198575521839574349" />
      <tess:coord node="53" x="-4.598076211353317345980098263041464" y="-0.5000000000000008743209543533930035" />
      <tess:coord node="77" x="-5.598076211353316267628036788437940" y="3.232050807568879027569754910362646" />
      <tess:coord node="96" x="6.098076211353322175355888400778974" y="4.098076211353306803579480838202106" />
      <tess:coord node="13" x="1.866025403784436735186335226562620" y="-0.5000000000000017401528317242396083" />
      <tess:coord node="41" x="6.098076211353313242857422537989543" y="-1.366025403784448115079307605467670" />
      <tess:coord node="73" x="-6.464101615137756257397864168467584" y="1.9443589886245713260E-15" />
      <tess:coord node="2" x="0.5000000000000000284178086629671324" y="0.8660254037844388688193370726891019" />
      <tess:coord node="45" x="3.732050807568869822249712809979430" y="-3.732050807568882192275468001410920" />
      <tess:coord node="64" x="-3.732050807568877098763547093697127" y="2.732050807568879110890296773612431" />
      <tess:coord node="17" x="0.9999999999999966506668791548333023" y="-3.732050807568878405495253474454653" />
      <tess:coord node="32" x="-1.366025403784435795222558742935129" y="5.098076211353317103434787561397837" />
      <tess:coord node="34" x="3.1027051428251610586E-15" y="6.464101615137755521247781353828592" />
      <tess:coord node="22" x="-0.8660254037844390348015507062445032" y="-0.4999999999999990894361240665989467" />
      <tess:coord node="44" x="4.732050807568869822249712809977656" y="-3.732050807568884075739068707562895" />
      <tess:coord node="59" x="-1.866025403784439299824075836617740" y="-6.964101615137755423582176511751929" />
      <tess:coord node="27" x="-2.732050807568877098763547093697420" y="2.732050807568878345535282455881999" />
      <tess:coord node="71" x="-1.866025403784437033610170687788837" y="5.964101615137755408547087657597078" />
      <tess:coord node="12" x="2.866025403784436735186335226561466" y="-0.5000000000000032594900829035203598" />
      <tess:coord node="54" x="-3.732050807568878918540134073437837" y="-4.944410604910517306206330210057865E-16" />
      <tess:coord node="49" x="-3.732050807568877734464656027113881" y="-3.732050807568878058884677672077469" />
      <tess:coord node="86" x="7.464101615137757312957932237138842" y="2.732050807568868912483385659006178" />
      <tess:coord node="81" x="2.866025403784431159260446970478831" y="-6.964101615137758401023401286742579" />
      <tess:coord node="76" x="-6.464101615137755070856226124155005" y="2.732050807568879298574159887222141" />
      <tess:coord node="7" x="2.866025403784443084899168864108335" y="3.232050807568874304953534277500165" />
      <tess:coord node="39" x="4.732050807568877530900583256391652" y="-6.5112954515265449298E-15" />
      <tess:coord node="91" x="2.866025403784448728023263840936366" y="5.964101615137752653980392822141237" />
      <tess:coord node="66" x="-5.098076211353315868682971306105214" y="4.098076211353318889985898587006552" />
      <tess:coord node="3" x="0.9999999999999988177473751848783788" y="-4.769252867665581600E-16" />
      <tess:coord node="80" x="3.732050807568870558188347203593866" y="-6.464101615137759703809971591989127" />
      <tess:coord node="35" x="1.000000000000003102705142825161055" y="6.464101615137755436545188959110694" />
      <tess:coord node="48" x="-2.732050807568877734464656027113890" y="-3.732050807568877923675784315505036" />
      <tess:coord node="63" x="4.732050807568881139331361914782460" y="2.732050807568870780087866664308269" />
      <tess:coord node="18" x="-3.3493331208451661150E-15" y="-3.732050807568877325980973797744921" />
      <tess:coord node="95" x="6.098076211353324240882663870366560" y="5.098076211353306803579480838199973" />
      <tess:coord node="50" x="-4.598076211353316479176688336725619" y="-3.232050807568878228536125616043939" />
      <tess:coord node="67" x="-5.098076211353315046928488368530891" y="5.098076211353318889985898587006214" />
      <tess:coord node="16" x="1.866025403784435867531604624513143" y="-3.232050807568879392939154902138669" />
      <tess:coord node="31" x="-1.366025403784436061988325901088638" y="4.098076211353317103434787561397873" />
      <tess:coord node="11" x="3.732050807568876171962546447526299" y="-4.6278318508203903945E-15" />
      <tess:coord node="72" x="-5.598076211353317888474057004969361" y="-0.4999999999999985368738622706629279" />
      <tess:coord node="43" x="5.598076211353309441089098794377545" y="-3.232050807568885759423505501995542" />
      <tess:coord node="40" x="5.598076211353315084213193771203520" y="-0.5000000000000084052083342393502965" />
      <tess:coord node="26" x="-3.232050807568877442524024634226776" y="1.866025403784439897241763529908079" />
      <tess:coord node="55" x="0.5000000000000002060854241859684765" y="-4.598076211353317431687806410375802" />
      <tess:coord node="23" x="-1.866025403784439991764927000390732" y="-0.4999999999999995101117007860792451" />
      <tess:coord node="8" x="3.732050807568880820274954142356447" y="2.732050807568872726383320442256724" />
      <tess:coord node="75" x="-6.964101615137755394417742580608156" y="1.866025403784440838618765342006039" />
      <tess:coord node="58" x="-0.8660254037844392998240758366177662" y="-6.964101615137755652499632682050719" />
      <tess:coord node="82" x="1.866025403784431159260446970479873" y="-6.964101615137756957382772083161625" />
      <tess:coord node="36" x="1.866025403784441737461432259127644" y="5.964101615137755415747703658480120" />
      <tess:coord node="30" x="2.554516241689535502E-16" y="2.732050807568877592677814645930564" />
      <tess:coord node="51" x="-5.098076211353316701385247760285778" y="-2.366025403784439710064574044722452" />
      <tess:coord node="19" x="-0.8660254037844414866835666381363379" y="-3.232050807568876443651295329248920" />
      <tess:coord node="4" x="0.5000000000000017298182346056858081" y="1.866025403784440227757373881554781" />
      <tess:coord node="79" x="4.232050807568871913532028988432951" y="-5.598076211353321839554287944172932" />
      <tess:coord node="94" x="5.598076211353326082238435103580538" y="5.964101615137746513450454204317347" />
      <tess:coord node="47" x="-1.866025403784439124961517074074571" y="-3.232050807568877859138559330726007" />
      <tess:coord node="15" x="2.366025403784436907532617531790188" y="-2.366025403784441346620296490886427" />
      <tess:coord node="68" x="-4.598076211353314387825341950439350" y="5.964101615137757156216242749544340" />
      <tess:coord node="62" x="-3.232050807568877722484542521928575" y="-4.598076211353316577356229243398985" />
      <tess:coord node="90" x="6.598076211353315854713799557355958" y="-0.5000000000000077772508764158613336" />
      <tess:coord node="83" x="0.9999999999999932039731759409456403" y="-6.464101615137755759710424737103552" />
    </tess:tilingCoordinates>
  </metadata>
</svg>