<svg xmlns:rdf="http://www.w3.org/1999/02/22-rdf-syntax-ns#" xmlns:cc="http://creativecommons.org/ns#" xmlns:dc="http://purl.org/dc/elements/1.1/" xmlns:tess="https://github.com/scala-tessella/tessella" width="440.0000" height="386.4102" viewBox="0 0 440.0000 386.4102" xmlns="http://www.w3.org/2000/svg">
  <rect width="100%" height="100%" fill="white"/>
  <polygon data-nodes="20,21,24,44,26,27,45,46,30,31,47,48,34,35,49,50,38,39,51,52,42,43,53,54" points="95.000000,63.301270 70.000000,106.602540 45.000000,149.903811 20.000000,193.205081 45.000000,236.506351 70.000000,279.807621 95.000000,323.108891 120.000000,366.410162 170.000000,366.410162 220.000000,366.410162 270.000000,366.410162 320.000000,366.410162 345.000000,323.108891 370.000000,279.807621 395.000000,236.506351 420.000000,193.205081 395.000000,149.903811 370.000000,106.602540 345.000000,63.301270 320.000000,20.000000 270.000000,20.000000 220.000000,20.000000 170.000000,20.000000 120.000000,20.000000" fill="none" stroke="#e4e4e4" stroke-width="10.5" />
  <g id="tiling-polygons">
    <polygon data-nodes="1,2,3" points="195.000000,236.506351 220.000000,279.807621 245.000000,236.506351" fill="rgb(26,22,197)" stroke="#333" stroke-width="1.5" />
    <polygon data-nodes="4,2,1" points="170.000000,279.807621 220.000000,279.807621 195.000000,236.506351" fill="rgb(26,22,197)" stroke="#333" stroke-width="1.5" />
    <polygon data-nodes="5,4,1" points="145.000000,236.506351 170.000000,279.807621 195.000000,236.506351" fill="rgb(26,22,197)" stroke="#333" stroke-width="1.5" />
    <polygon data-nodes="6,5,1" points="170.000000,193.205081 145.000000,236.506351 195.000000,236.506351" fill="rgb(26,22,197)" stroke="#333" stroke-width="1.5" />
    <polygon data-nodes="3,7,8,9,6,1" points="245.000000,236.506351 270.000000,193.205081 245.000000,149.903811 195.000000,149.903811 170.000000,193.205081 195.000000,236.506351" fill="rgb(76,175,80)" stroke="#333" stroke-width="1.5" />
    <polygon data-nodes="10,5,6" points="120.000000,193.205081 145.000000,236.506351 170.000000,193.205081" fill="rgb(26,22,197)" stroke="#333" stroke-width="1.5" />
    <polygon data-nodes="11,10,6" points="145.000000,149.903811 120.000000,193.205081 170.000000,193.205081" fill="rgb(26,22,197)" stroke="#333" stroke-width="1.5" />
    <polygon data-nodes="9,11,6" points="195.000000,149.903811 145.000000,149.903811 170.000000,193.205081" fill="rgb(26,22,197)" stroke="#333" stroke-width="1.5" />
    <polygon data-nodes="12,11,9" points="170.000000,106.602540 145.000000,149.903811 195.000000,149.903811" fill="rgb(26,22,197)" stroke="#333" stroke-width="1.5" />
    <polygon data-nodes="13,12,9" points="220.000000,106.602540 170.000000,106.602540 195.000000,149.903811" fill="rgb(26,22,197)" stroke="#333" stroke-width="1.5" />
    <polygon data-nodes="8,13,9" points="245.000000,149.903811 220.000000,106.602540 195.000000,149.903811" fill="rgb(26,22,197)" stroke="#333" stroke-width="1.5" />
    <polygon data-nodes="14,13,8" points="270.000000,106.602540 220.000000,106.602540 245.000000,149.903811" fill="rgb(26,22,197)" stroke="#333" stroke-width="1.5" />
    <polygon data-nodes="15,14,8" points="295.000000,149.903811 270.000000,106.602540 245.000000,149.903811" fill="rgb(26,22,197)" stroke="#333" stroke-width="1.5" />
    <polygon data-nodes="7,15,8" points="270.000000,193.205081 295.000000,149.903811 245.000000,149.903811" fill="rgb(26,22,197)" stroke="#333" stroke-width="1.5" />
    <polygon data-nodes="16,15,7" points="320.000000,193.205081 295.000000,149.903811 270.000000,193.205081" fill="rgb(26,22,197)" stroke="#333" stroke-width="1.5" />
    <polygon data-nodes="17,16,7" points="295.000000,236.506351 320.000000,193.205081 270.000000,193.205081" fill="rgb(26,22,197)" stroke="#333" stroke-width="1.5" />
    <polygon data-nodes="3,17,7" points="245.000000,236.506351 295.000000,236.506351 270.000000,193.205081" fill="rgb(26,22,197)" stroke="#333" stroke-width="1.5" />
    <polygon data-nodes="18,17,3" points="270.000000,279.807621 295.000000,236.506351 245.000000,236.506351" fill="rgb(26,22,197)" stroke="#333" stroke-width="1.5" />
    <polygon data-nodes="18,3,2" points="270.000000,279.807621 245.000000,236.506351 220.000000,279.807621" fill="rgb(26,22,197)" stroke="#333" stroke-width="1.5" />
    <polygon data-nodes="19,20,21,22,11,12" points="145.000000,63.301270 95.000000,63.301270 70.000000,106.602540 95.000000,149.903811 145.000000,149.903811 170.000000,106.602540" fill="rgb(76,175,80)" stroke="#333" stroke-width="1.5" />
    <polygon data-nodes="10,11,22" points="120.000000,193.205081 145.000000,149.903811 95.000000,149.903811" fill="rgb(26,22,197)" stroke="#333" stroke-width="1.5" />
    <polygon data-nodes="23,19,12" points="195.000000,63.301270 145.000000,63.301270 170.000000,106.602540" fill="rgb(26,22,197)" stroke="#333" stroke-width="1.5" />
    <polygon data-nodes="13,23,12" points="220.000000,106.602540 195.000000,63.301270 170.000000,106.602540" fill="rgb(26,22,197)" stroke="#333" stroke-width="1.5" />
    <polygon data-nodes="24,22,21" points="45.000000,149.903811 95.000000,149.903811 70.000000,106.602540" fill="rgb(26,22,197)" stroke="#333" stroke-width="1.5" />
    <polygon data-nodes="25,26,27,28,5,10" points="70.000000,193.205081 45.000000,236.506351 70.000000,279.807621 120.000000,279.807621 145.000000,236.506351 120.000000,193.205081" fill="rgb(76,175,80)" stroke="#333" stroke-width="1.5" />
    <polygon data-nodes="29,30,31,32,2,4" points="145.000000,323.108891 170.000000,366.410162 220.000000,366.410162 245.000000,323.108891 220.000000,279.807621 170.000000,279.807621" fill="rgb(76,175,80)" stroke="#333" stroke-width="1.5" />
    <polygon data-nodes="33,34,35,36,17,18" points="295.000000,323.108891 345.000000,323.108891 370.000000,279.807621 345.000000,236.506351 295.000000,236.506351 270.000000,279.807621" fill="rgb(76,175,80)" stroke="#333" stroke-width="1.5" />
    <polygon data-nodes="37,38,39,40,15,16" points="370.000000,193.205081 395.000000,149.903811 370.000000,106.602540 320.000000,106.602540 295.000000,149.903811 320.000000,193.205081" fill="rgb(76,175,80)" stroke="#333" stroke-width="1.5" />
    <polygon data-nodes="41,42,43,23,13,14" points="295.000000,63.301270 270.000000,20.000000 220.000000,20.000000 195.000000,63.301270 220.000000,106.602540 270.000000,106.602540" fill="rgb(76,175,80)" stroke="#333" stroke-width="1.5" />
    <polygon data-nodes="25,10,22" points="70.000000,193.205081 120.000000,193.205081 95.000000,149.903811" fill="rgb(26,22,197)" stroke="#333" stroke-width="1.5" />
    <polygon data-nodes="25,22,24" points="70.000000,193.205081 95.000000,149.903811 45.000000,149.903811" fill="rgb(26,22,197)" stroke="#333" stroke-width="1.5" />
    <polygon data-nodes="44,25,24" points="20.000000,193.205081 70.000000,193.205081 45.000000,149.903811" fill="rgb(26,22,197)" stroke="#333" stroke-width="1.5" />
    <polygon data-nodes="26,25,44" points="45.000000,236.506351 70.000000,193.205081 20.000000,193.205081" fill="rgb(26,22,197)" stroke="#333" stroke-width="1.5" />
    <polygon data-nodes="45,28,27" points="95.000000,323.108891 120.000000,279.807621 70.000000,279.807621" fill="rgb(26,22,197)" stroke="#333" stroke-width="1.5" />
    <polygon data-nodes="28,4,5" points="120.000000,279.807621 170.000000,279.807621 145.000000,236.506351" fill="rgb(26,22,197)" stroke="#333" stroke-width="1.5" />
    <polygon data-nodes="29,4,28" points="145.000000,323.108891 170.000000,279.807621 120.000000,279.807621" fill="rgb(26,22,197)" stroke="#333" stroke-width="1.5" />
    <polygon data-nodes="45,29,28" points="95.000000,323.108891 145.000000,323.108891 120.000000,279.807621" fill="rgb(26,22,197)" stroke="#333" stroke-width="1.5" />
    <polygon data-nodes="46,29,45" points="120.000000,366.410162 145.000000,323.108891 95.000000,323.108891" fill="rgb(26,22,197)" stroke="#333" stroke-width="1.5" />
    <polygon data-nodes="46,30,29" points="120.000000,366.410162 170.000000,366.410162 145.000000,323.108891" fill="rgb(26,22,197)" stroke="#333" stroke-width="1.5" />
    <polygon data-nodes="18,2,32" points="270.000000,279.807621 220.000000,279.807621 245.000000,323.108891" fill="rgb(26,22,197)" stroke="#333" stroke-width="1.5" />
    <polygon data-nodes="32,33,18" points="245.000000,323.108891 295.000000,323.108891 270.000000,279.807621" fill="rgb(26,22,197)" stroke="#333" stroke-width="1.5" />
    <polygon data-nodes="47,33,32" points="270.000000,366.410162 295.000000,323.108891 245.000000,323.108891" fill="rgb(26,22,197)" stroke="#333" stroke-width="1.5" />
    <polygon data-nodes="31,47,32" points="220.000000,366.410162 270.000000,366.410162 245.000000,323.108891" fill="rgb(26,22,197)" stroke="#333" stroke-width="1.5" />
    <polygon data-nodes="48,33,47" points="320.000000,366.410162 295.000000,323.108891 270.000000,366.410162" fill="rgb(26,22,197)" stroke="#333" stroke-width="1.5" />
    <polygon data-nodes="34,33,48" points="345.000000,323.108891 295.000000,323.108891 320.000000,366.410162" fill="rgb(26,22,197)" stroke="#333" stroke-width="1.5" />
    <polygon data-nodes="49,36,35" points="395.000000,236.506351 345.000000,236.506351 370.000000,279.807621" fill="rgb(26,22,197)" stroke="#333" stroke-width="1.5" />
    <polygon data-nodes="16,17,36" points="320.000000,193.205081 295.000000,236.506351 345.000000,236.506351" fill="rgb(26,22,197)" stroke="#333" stroke-width="1.5" />
    <polygon data-nodes="37,16,36" points="370.000000,193.205081 320.000000,193.205081 345.000000,236.506351" fill="rgb(26,22,197)" stroke="#333" stroke-width="1.5" />
    <polygon data-nodes="37,36,49" points="370.000000,193.205081 345.000000,236.506351 395.000000,236.506351" fill="rgb(26,22,197)" stroke="#333" stroke-width="1.5" />
    <polygon data-nodes="50,38,37" points="420.000000,193.205081 395.000000,149.903811 370.000000,193.205081" fill="rgb(26,22,197)" stroke="#333" stroke-width="1.5" />
    <polygon data-nodes="50,37,49" points="420.000000,193.205081 370.000000,193.205081 395.000000,236.506351" fill="rgb(26,22,197)" stroke="#333" stroke-width="1.5" />
    <polygon data-nodes="51,40,39" points="345.000000,63.301270 320.000000,106.602540 370.000000,106.602540" fill="rgb(26,22,197)" stroke="#333" stroke-width="1.5" />
    <polygon data-nodes="14,15,40" points="270.000000,106.602540 295.000000,149.903811 320.000000,106.602540" fill="rgb(26,22,197)" stroke="#333" stroke-width="1.5" />
    <polygon data-nodes="40,41,14" points="320.000000,106.602540 295.000000,63.301270 270.000000,106.602540" fill="rgb(26,22,197)" stroke="#333" stroke-width="1.5" />
    <polygon data-nodes="52,42,41" points="320.000000,20.000000 270.000000,20.000000 295.000000,63.301270" fill="rgb(26,22,197)" stroke="#333" stroke-width="1.5" />
    <polygon data-nodes="51,41,40" points="345.000000,63.301270 295.000000,63.301270 320.000000,106.602540" fill="rgb(26,22,197)" stroke="#333" stroke-width="1.5" />
    <polygon data-nodes="51,52,41" points="345.000000,63.301270 320.000000,20.000000 295.000000,63.301270" fill="rgb(26,22,197)" stroke="#333" stroke-width="1.5" />
    <polygon data-nodes="53,23,43" points="170.000000,20.000000 195.000000,63.301270 220.000000,20.000000" fill="rgb(26,22,197)" stroke="#333" stroke-width="1.5" />
    <polygon data-nodes="53,19,23" points="170.000000,20.000000 145.000000,63.301270 195.000000,63.301270" fill="rgb(26,22,197)" stroke="#333" stroke-width="1.5" />
    <polygon data-nodes="54,20,19" points="120.000000,20.000000 95.000000,63.301270 145.000000,63.301270" fill="rgb(26,22,197)" stroke="#333" stroke-width="1.5" />
    <polygon data-nodes="53,54,19" points="170.000000,20.000000 120.000000,20.000000 145.000000,63.301270" fill="rgb(26,22,197)" stroke="#333" stroke-width="1.5" />
  </g>

  <metadata>
    <rdf:RDF>
      <cc:Work>
        <dc:source rdf:resource="https://github.com/scala-tessella/tessella">Tessella</dc:source>
        <cc:license rdf:resource="https://www.apache.org/licenses/LICENSE-2.0"/>
      </cc:Work>
    </rdf:RDF>
    <tess:tilingCoordinates>
      <tess:coord node="5" x="-1.000000000000000478584611658641691" y="9.160022625452682608E-16" />
      <tess:coord node="10" x="-1.500000000000001703463949468212855" y="-0.8660254037844370235770452163170571" />
      <tess:coord node="1" x="2.84E-32" y="2.384626433832795028842015308825921E-16" />
      <tess:coord node="6" x="-0.5000000000000013844075416957857055" y="-0.8660254037844382537385731205646861" />
      <tess:coord node="2" x="0.5000000000000000284178086629671324" y="0.8660254037844388688193370726891019" />
      <tess:coord node="8" x="0.9999999999999973508310695230874448" y="-1.732050807568879275340584025685242" />
      <tess:coord node="4" x="-0.4999999999999999715821913370327871" y="0.8660254037844392700480018635483105" />
      <tess:coord node="42" x="1.499999999999991871530249631572810" y="-4.330127018922197782158632736163768" />
      <tess:coord node="24" x="-3.000000000000003087871491163995084" y="-1.732050807568872489595530403572680" />
      <tess:coord node="37" x="3.500000000000001047151253476104924" y="-0.8660254037844478608775123916377132" />
      <tess:coord node="25" x="-2.500000000000002660633172785495087" y="-0.8660254037844352407936085698093116" />
      <tess:coord node="52" x="2.499999999999991871530249631568386" y="-4.330127018922200756533060108165445" />
      <tess:coord node="14" x="1.499999999999995587544043597541005" y="-2.598076211353319843905626195359953" />
      <tess:coord node="20" x="-2.000000000000006534681441071978348" y="-3.464101615137752141554234998100697" />
      <tess:coord node="46" x="-1.499999999999998638520942921386432" y="2.598076211353318438462536308602502" />
      <tess:coord node="29" x="-0.9999999999999997836361787878509606" y="1.732050807568879130566223457205479" />
      <tess:coord node="21" x="-2.500000000000004731512364174880027" y="-2.598076211353312453730359886401548" />
      <tess:coord node="33" x="2.000000000000011963373595737507875" y="1.732050807568873422795804902085949" />
      <tess:coord node="28" x="-1.499999999999999094177069962855426" y="0.8660254037844403620540525822299762" />
      <tess:coord node="38" x="3.999999999999998380286510226299594" y="-1.732050807568888047356312969982482" />
      <tess:coord node="9" x="-2.6491689304769112028E-15" y="-1.732050807568877630712624564744124" />
      <tess:coord node="53" x="-0.5000000000000080661540457253715196" y="-4.330127018922194436777051207645826" />
      <tess:coord node="13" x="0.4999999999999955875440435975427517" y="-2.598076211353317974775016307875882" />
      <tess:coord node="41" x="1.999999999999994128357656330089423" y="-3.464101615137760438374820337328343" />
      <tess:coord node="45" x="-1.999999999999997231184916608426758" y="1.732050807568880084416796990320196" />
      <tess:coord node="17" x="2.000000000000003532677296214632069" y="-4.5154572016387013345E-15" />
      <tess:coord node="32" x="1.000000000000000535420228984576036" y="1.732050807568877222865076390969151" />
      <tess:coord node="34" x="3.000000000000011963373595737494646" y="1.732050807568868279020072545444210" />
      <tess:coord node="22" x="-2.000000000000003087871491163997652" y="-1.732050807568874755923137199555128" />
      <tess:coord node="44" x="-3.500000000000002660633172785494054" y="-0.8660254037844338033988648872159119" />
      <tess:coord node="27" x="-2.499999999999999094177069962853837" y="0.8660254037844421448374892287360154" />
      <tess:coord node="12" x="-0.5000000000000044124559564024550567" y="-2.598076211353315881141755993849385" />
      <tess:coord node="54" x="-1.500000000000008816435129627719206" y="-4.330127018922192105689064480928119" />
      <tess:coord node="49" x="4.000000000000003532677296214608301" y="-1.425038675760972600965170886567986E-14" />
      <tess:coord node="7" x="1.499999999999998934648866076639496" y="-0.8660254037844415429944920424474471" />
      <tess:coord node="39" x="3.499999999999995872949970862712692" y="-2.598076211353325246508610190178984" />
      <tess:coord node="3" x="0.9999999999999988177473751848783788" y="-4.769252867665581600E-16" />
      <tess:coord node="35" x="3.500000000000007668261344032945182" y="0.8660254037844271524721346534241892" />
      <tess:coord node="48" x="2.500000000000015892442936532318649" y="2.598076211353309801110286500237549" />
      <tess:coord node="18" x="1.500000000000007349204936260538354" y="0.8660254037844363347797818821915262" />
      <tess:coord node="50" x="4.500000000000001366207661248527505" y="-0.8660254037844511245149701209168995" />
      <tess:coord node="16" x="2.500000000000000089982030158824779" y="-0.8660254037844451498619634046157765" />
      <tess:coord node="31" x="0.5000000000000012019508531923991356" y="2.598076211353316254450434871237703" />
      <tess:coord node="11" x="-1.000000000000003087871491163999120" y="-1.732050807568876469628835253278773" />
      <tess:coord node="43" x="0.4999999999999918715302496315757419" y="-4.330127018922195360406114106420894" />
      <tess:coord node="40" x="2.499999999999995872949970862716367" y="-2.598076211353322535493061203159642" />
      <tess:coord node="26" x="-3.000000000000000797641019431066419" y="4.4815691358382809080E-15" />
      <tess:coord node="23" x="-6.5346814410719834841E-15" y="-3.464101615137756674209448590065593" />
      <tess:coord node="36" x="3.000000000000003532677296214621530" y="-9.106611025253084270647884235101281E-15" />
      <tess:coord node="30" x="-0.4999999999999987980491468076004095" y="2.598076211353317208301008404355715" />
      <tess:coord node="51" x="2.999999999999993206085227612911037" y="-3.464101615137762721971861781504411" />
      <tess:coord node="19" x="-1.000000000000006534681441071980916" y="-3.464101615137754407881841794083145" />
      <tess:coord node="47" x="1.500000000000015573386528759900216" y="2.598076211353314153801466731337516" />
      <tess:coord node="15" x="1.999999999999998061230102453879038" y="-1.732050807568882625325214995942933" />
    </tess:tilingCoordinates>
  </metadata>
</svg>