<svg xmlns:rdf="http://www.w3.org/1999/02/22-rdf-syntax-ns#" xmlns:cc="http://creativecommons.org/ns#" xmlns:dc="http://purl.org/dc/elements/1.1/" xmlns:tess="https://github.com/scala-tessella/tessella" width="540.0000" height="473.0127" viewBox="0 0 540.0000 473.0127" xmlns="http://www.w3.org/2000/svg">
  <rect width="100%" height="100%" fill="white"/>
  <polygon data-nodes="41,55,56,57,44,45,70,71,72,48,49,67,68,69,52,53,64,65,66,32,33,61,62,63,36,37,58,59,60,40" points="245.000000,20.000000 195.000000,20.000000 145.000000,20.000000 120.000000,63.301270 95.000000,106.602540 70.000000,149.903811 45.000000,193.205081 20.000000,236.506351 45.000000,279.807621 70.000000,323.108891 95.000000,366.410162 120.000000,409.711432 145.000000,453.012702 195.000000,453.012702 245.000000,453.012702 295.000000,453.012702 345.000000,453.012702 395.000000,453.012702 420.000000,409.711432 445.000000,366.410162 470.000000,323.108891 495.000000,279.807621 520.000000,236.506351 495.000000,193.205081 470.000000,149.903811 445.000000,106.602540 420.000000,63.301270 395.000000,20.000000 345.000000,20.000000 295.000000,20.000000" fill="none" stroke="#e4e4e4" stroke-width="10.5" />
  <g id="tiling-polygons">
    <polygon data-nodes="1,2,3,4,5,6" points="245.000000,193.205081 220.000000,236.506351 245.000000,279.807621 295.000000,279.807621 320.000000,236.506351 295.000000,193.205081" fill="rgb(76,175,80)" stroke="#333" stroke-width="1.5" />
    <polygon data-nodes="7,5,4" points="345.000000,279.807621 320.000000,236.506351 295.000000,279.807621" fill="rgb(26,22,197)" stroke="#333" stroke-width="1.5" />
    <polygon data-nodes="8,1,6" points="270.000000,149.903811 245.000000,193.205081 295.000000,193.205081" fill="rgb(26,22,197)" stroke="#333" stroke-width="1.5" />
    <polygon data-nodes="9,6,5" points="345.000000,193.205081 295.000000,193.205081 320.000000,236.506351" fill="rgb(26,22,197)" stroke="#333" stroke-width="1.5" />
    <polygon data-nodes="10,2,1" points="195.000000,193.205081 220.000000,236.506351 245.000000,193.205081" fill="rgb(26,22,197)" stroke="#333" stroke-width="1.5" />
    <polygon data-nodes="11,3,2" points="195.000000,279.807621 245.000000,279.807621 220.000000,236.506351" fill="rgb(26,22,197)" stroke="#333" stroke-width="1.5" />
    <polygon data-nodes="12,4,3" points="270.000000,323.108891 295.000000,279.807621 245.000000,279.807621" fill="rgb(26,22,197)" stroke="#333" stroke-width="1.5" />
    <polygon data-nodes="13,14,15,7,4,12" points="295.000000,366.410162 345.000000,366.410162 370.000000,323.108891 345.000000,279.807621 295.000000,279.807621 270.000000,323.108891" fill="rgb(76,175,80)" stroke="#333" stroke-width="1.5" />
    <polygon data-nodes="11,16,17,18,12,3" points="195.000000,279.807621 170.000000,323.108891 195.000000,366.410162 245.000000,366.410162 270.000000,323.108891 245.000000,279.807621" fill="rgb(76,175,80)" stroke="#333" stroke-width="1.5" />
    <polygon data-nodes="7,19,20,21,9,5" points="345.000000,279.807621 395.000000,279.807621 420.000000,236.506351 395.000000,193.205081 345.000000,193.205081 320.000000,236.506351" fill="rgb(76,175,80)" stroke="#333" stroke-width="1.5" />
    <polygon data-nodes="22,23,24,8,6,9" points="370.000000,149.903811 345.000000,106.602540 295.000000,106.602540 270.000000,149.903811 295.000000,193.205081 345.000000,193.205081" fill="rgb(76,175,80)" stroke="#333" stroke-width="1.5" />
    <polygon data-nodes="25,26,27,10,1,8" points="245.000000,106.602540 195.000000,106.602540 170.000000,149.903811 195.000000,193.205081 245.000000,193.205081 270.000000,149.903811" fill="rgb(76,175,80)" stroke="#333" stroke-width="1.5" />
    <polygon data-nodes="28,29,30,11,2,10" points="145.000000,193.205081 120.000000,236.506351 145.000000,279.807621 195.000000,279.807621 220.000000,236.506351 195.000000,193.205081" fill="rgb(76,175,80)" stroke="#333" stroke-width="1.5" />
    <polygon data-nodes="24,25,8" points="295.000000,106.602540 245.000000,106.602540 270.000000,149.903811" fill="rgb(26,22,197)" stroke="#333" stroke-width="1.5" />
    <polygon data-nodes="27,28,10" points="170.000000,149.903811 145.000000,193.205081 195.000000,193.205081" fill="rgb(26,22,197)" stroke="#333" stroke-width="1.5" />
    <polygon data-nodes="16,11,30" points="170.000000,323.108891 195.000000,279.807621 145.000000,279.807621" fill="rgb(26,22,197)" stroke="#333" stroke-width="1.5" />
    <polygon data-nodes="18,13,12" points="245.000000,366.410162 295.000000,366.410162 270.000000,323.108891" fill="rgb(26,22,197)" stroke="#333" stroke-width="1.5" />
    <polygon data-nodes="22,9,21" points="370.000000,149.903811 345.000000,193.205081 395.000000,193.205081" fill="rgb(26,22,197)" stroke="#333" stroke-width="1.5" />
    <polygon data-nodes="15,19,7" points="370.000000,323.108891 395.000000,279.807621 345.000000,279.807621" fill="rgb(26,22,197)" stroke="#333" stroke-width="1.5" />
    <polygon data-nodes="31,32,33,34,19,15" points="395.000000,366.410162 445.000000,366.410162 470.000000,323.108891 445.000000,279.807621 395.000000,279.807621 370.000000,323.108891" fill="rgb(76,175,80)" stroke="#333" stroke-width="1.5" />
    <polygon data-nodes="35,36,37,38,22,21" points="445.000000,193.205081 470.000000,149.903811 445.000000,106.602540 395.000000,106.602540 370.000000,149.903811 395.000000,193.205081" fill="rgb(76,175,80)" stroke="#333" stroke-width="1.5" />
    <polygon data-nodes="39,40,41,42,25,24" points="320.000000,63.301270 295.000000,20.000000 245.000000,20.000000 220.000000,63.301270 245.000000,106.602540 295.000000,106.602540" fill="rgb(76,175,80)" stroke="#333" stroke-width="1.5" />
    <polygon data-nodes="43,44,45,46,28,27" points="145.000000,106.602540 95.000000,106.602540 70.000000,149.903811 95.000000,193.205081 145.000000,193.205081 170.000000,149.903811" fill="rgb(76,175,80)" stroke="#333" stroke-width="1.5" />
    <polygon data-nodes="47,48,49,50,16,30" points="95.000000,279.807621 70.000000,323.108891 95.000000,366.410162 145.000000,366.410162 170.000000,323.108891 145.000000,279.807621" fill="rgb(76,175,80)" stroke="#333" stroke-width="1.5" />
    <polygon data-nodes="51,52,53,54,13,18" points="220.000000,409.711432 245.000000,453.012702 295.000000,453.012702 320.000000,409.711432 295.000000,366.410162 245.000000,366.410162" fill="rgb(76,175,80)" stroke="#333" stroke-width="1.5" />
    <polygon data-nodes="42,26,25" points="220.000000,63.301270 195.000000,106.602540 245.000000,106.602540" fill="rgb(26,22,197)" stroke="#333" stroke-width="1.5" />
    <polygon data-nodes="43,27,26" points="145.000000,106.602540 170.000000,149.903811 195.000000,106.602540" fill="rgb(26,22,197)" stroke="#333" stroke-width="1.5" />
    <polygon data-nodes="39,24,23" points="320.000000,63.301270 295.000000,106.602540 345.000000,106.602540" fill="rgb(26,22,197)" stroke="#333" stroke-width="1.5" />
    <polygon data-nodes="38,23,22" points="395.000000,106.602540 345.000000,106.602540 370.000000,149.903811" fill="rgb(26,22,197)" stroke="#333" stroke-width="1.5" />
    <polygon data-nodes="20,35,21" points="420.000000,236.506351 445.000000,193.205081 395.000000,193.205081" fill="rgb(26,22,197)" stroke="#333" stroke-width="1.5" />
    <polygon data-nodes="20,19,34" points="420.000000,236.506351 395.000000,279.807621 445.000000,279.807621" fill="rgb(26,22,197)" stroke="#333" stroke-width="1.5" />
    <polygon data-nodes="14,31,15" points="345.000000,366.410162 395.000000,366.410162 370.000000,323.108891" fill="rgb(26,22,197)" stroke="#333" stroke-width="1.5" />
    <polygon data-nodes="14,13,54" points="345.000000,366.410162 295.000000,366.410162 320.000000,409.711432" fill="rgb(26,22,197)" stroke="#333" stroke-width="1.5" />
    <polygon data-nodes="17,51,18" points="195.000000,366.410162 220.000000,409.711432 245.000000,366.410162" fill="rgb(26,22,197)" stroke="#333" stroke-width="1.5" />
    <polygon data-nodes="17,16,50" points="195.000000,366.410162 170.000000,323.108891 145.000000,366.410162" fill="rgb(26,22,197)" stroke="#333" stroke-width="1.5" />
    <polygon data-nodes="29,47,30" points="120.000000,236.506351 95.000000,279.807621 145.000000,279.807621" fill="rgb(26,22,197)" stroke="#333" stroke-width="1.5" />
    <polygon data-nodes="46,29,28" points="95.000000,193.205081 120.000000,236.506351 145.000000,193.205081" fill="rgb(26,22,197)" stroke="#333" stroke-width="1.5" />
    <polygon data-nodes="55,56,57,43,26,42" points="195.000000,20.000000 145.000000,20.000000 120.000000,63.301270 145.000000,106.602540 195.000000,106.602540 220.000000,63.301270" fill="rgb(76,175,80)" stroke="#333" stroke-width="1.5" />
    <polygon data-nodes="58,59,60,39,23,38" points="420.000000,63.301270 395.000000,20.000000 345.000000,20.000000 320.000000,63.301270 345.000000,106.602540 395.000000,106.602540" fill="rgb(76,175,80)" stroke="#333" stroke-width="1.5" />
    <polygon data-nodes="61,62,63,35,20,34" points="495.000000,279.807621 520.000000,236.506351 495.000000,193.205081 445.000000,193.205081 420.000000,236.506351 445.000000,279.807621" fill="rgb(76,175,80)" stroke="#333" stroke-width="1.5" />
    <polygon data-nodes="54,64,65,66,31,14" points="320.000000,409.711432 345.000000,453.012702 395.000000,453.012702 420.000000,409.711432 395.000000,366.410162 345.000000,366.410162" fill="rgb(76,175,80)" stroke="#333" stroke-width="1.5" />
    <polygon data-nodes="50,67,68,69,51,17" points="145.000000,366.410162 120.000000,409.711432 145.000000,453.012702 195.000000,453.012702 220.000000,409.711432 195.000000,366.410162" fill="rgb(76,175,80)" stroke="#333" stroke-width="1.5" />
    <polygon data-nodes="46,70,71,72,47,29" points="95.000000,193.205081 45.000000,193.205081 20.000000,236.506351 45.000000,279.807621 95.000000,279.807621 120.000000,236.506351" fill="rgb(76,175,80)" stroke="#333" stroke-width="1.5" />
    <polygon data-nodes="58,38,37" points="420.000000,63.301270 395.000000,106.602540 445.000000,106.602540" fill="rgb(26,22,197)" stroke="#333" stroke-width="1.5" />
    <polygon data-nodes="63,36,35" points="495.000000,193.205081 470.000000,149.903811 445.000000,193.205081" fill="rgb(26,22,197)" stroke="#333" stroke-width="1.5" />
    <polygon data-nodes="33,61,34" points="470.000000,323.108891 495.000000,279.807621 445.000000,279.807621" fill="rgb(26,22,197)" stroke="#333" stroke-width="1.5" />
    <polygon data-nodes="66,32,31" points="420.000000,409.711432 445.000000,366.410162 395.000000,366.410162" fill="rgb(26,22,197)" stroke="#333" stroke-width="1.5" />
    <polygon data-nodes="53,64,54" points="295.000000,453.012702 345.000000,453.012702 320.000000,409.711432" fill="rgb(26,22,197)" stroke="#333" stroke-width="1.5" />
    <polygon data-nodes="69,52,51" points="195.000000,453.012702 245.000000,453.012702 220.000000,409.711432" fill="rgb(26,22,197)" stroke="#333" stroke-width="1.5" />
    <polygon data-nodes="49,67,50" points="95.000000,366.410162 120.000000,409.711432 145.000000,366.410162" fill="rgb(26,22,197)" stroke="#333" stroke-width="1.5" />
    <polygon data-nodes="72,48,47" points="45.000000,279.807621 70.000000,323.108891 95.000000,279.807621" fill="rgb(26,22,197)" stroke="#333" stroke-width="1.5" />
    <polygon data-nodes="45,70,46" points="70.000000,149.903811 45.000000,193.205081 95.000000,193.205081" fill="rgb(26,22,197)" stroke="#333" stroke-width="1.5" />
    <polygon data-nodes="57,44,43" points="120.000000,63.301270 95.000000,106.602540 145.000000,106.602540" fill="rgb(26,22,197)" stroke="#333" stroke-width="1.5" />
    <polygon data-nodes="41,55,42" points="245.000000,20.000000 195.000000,20.000000 220.000000,63.301270" fill="rgb(26,22,197)" stroke="#333" stroke-width="1.5" />
    <polygon data-nodes="60,40,39" points="345.000000,20.000000 295.000000,20.000000 320.000000,63.301270" fill="rgb(26,22,197)" stroke="#333" stroke-width="1.5" />
  </g>

  <metadata>
    <rdf:RDF>
      <cc:Work>
        <dc:source rdf:resource="https://github.com/scala-tessella/tessella">Tessella</dc:source>
        <cc:license rdf:resource="https://www.apache.org/licenses/LICENSE-2.0"/>
      </cc:Work>
    </rdf:RDF>
    <tess:tilingCoordinates>
      <tess:coord node="69" x="-0.9999999999999908817048260627279456" y="5.196152422706634516909183006419812" />
      <tess:coord node="5" x="1.500000000000002129572733943764095" y="0.8660254037844366034242249315316332" />
      <tess:coord node="65" x="3.000000000000002773333219003352464" y="5.196152422706629732462138466217545" />
      <tess:coord node="2" x="-0.4999999999999989958442735454205987" y="0.8660254037844394649759455308872774" />
      <tess:coord node="66" x="3.500000000000003583488841911486720" y="4.330127018922191553441982266965368" />
      <tess:coord node="4" x="1.000000000000002805952472340226141" y="1.732050807568875640695972139890233" />
      <tess:coord node="10" x="-1.000000000000000319056407772426975" y="1.5821691042510770402E-15" />
      <tess:coord node="56" x="-2.000000000000010548559684867386120" y="-3.464101615137748995207687335037818" />
      <tess:coord node="42" x="-0.5000000000000068744864383901557211" y="-2.598076211353315422674377393795460" />
      <tess:coord node="24" x="1.000000000000000671861602784661044" y="-1.732050807568879363342478112396426" />
      <tess:coord node="37" x="4.000000000000001708794928045050222" y="-1.732050807568881276821434705849935" />
      <tess:coord node="25" x="-5.2742798424336976589E-15" y="-1.732050807568877699790363157520269" />
      <tess:coord node="52" x="9.1980592758803775401E-15" y="5.196152422706632671666891150047962" />
      <tess:coord node="14" x="2.000000000000006719882791598260777" y="3.464101615137751042929300896498990" />
      <tess:coord node="20" x="3.500000000000002608157345602405618" y="0.8660254037844353277715872025635785" />
      <tess:coord node="46" x="-3.000000000000001276225631089708685" y="4.269582025986670325274081343068685E-15" />
      <tess:coord node="57" x="-2.500000000000007831655661707427914" y="-2.598076211353308779838695030511462" />
      <tess:coord node="29" x="-2.499999999999999314900681317844909" y="0.8660254037844432576326847509997046" />
      <tess:coord node="61" x="5.000000000000004119880259330066728" y="1.732050807568872645605537229546632" />
      <tess:coord node="1" x="2.84E-32" y="2.384626433832795028842015308825921E-16" />
      <tess:coord node="6" x="1.000000000000002015901499291895682" y="-1.9777113803138479487E-15" />
      <tess:coord node="60" x="1.999999999999999088529400448104286" y="-3.464101615137757801266326332122733" />
      <tess:coord node="70" x="-4.000000000000001746090662462657920" y="7.5323624113768874612E-15" />
      <tess:coord node="21" x="3.000000000000002015901499291895432" y="-2.977053063671686406801781304698330E-15" />
      <tess:coord node="33" x="4.500000000000003876792930309375393" y="2.598076211353312344335942470016957" />
      <tess:coord node="28" x="-2.000000000000001276225631089708998" y="3.4784974738611347661E-15" />
      <tess:coord node="38" x="3.000000000000001708794928045050247" y="-1.732050807568881053461547398059402" />
      <tess:coord node="9" x="2.000000000000002015901499291895557" y="-2.477382221992767177655910708802724E-15" />
      <tess:coord node="53" x="1.000000000000009198059275880376083" y="5.196152422706630964580076479240839" />
      <tess:coord node="13" x="1.000000000000006719882791598263993" y="3.464101615137753578948978680693613" />
      <tess:coord node="41" x="-8.6342212382328296308E-15" y="-3.464101615137755085421460956066009" />
      <tess:coord node="45" x="-3.500000000000002120853153658071144" y="-0.8660254037844338895357696642712856" />
      <tess:coord node="64" x="2.000000000000002773333219003352746" y="5.196152422706628981182307437303052" />
      <tess:coord node="17" x="-0.9999999999999940777582278328036887" y="3.464101615137756716811653651178674" />
      <tess:coord node="32" x="4.000000000000004553172668705835003" y="3.464101615137751381607689678374150" />
      <tess:coord node="34" x="4.000000000000003359941395799129986" y="1.732050807568873995976591879825563" />
      <tess:coord node="22" x="2.500000000000001742702060753812295" y="-0.8660254037844423871215320304543336" />
      <tess:coord node="44" x="-3.000000000000003125008880112648138" y="-1.732050807568873116049071811877687" />
      <tess:coord node="59" x="2.999999999999999088529400448103577" y="-3.464101615137758991714553938865819" />
      <tess:coord node="27" x="-1.500000000000002557375819273734840" y="-0.8660254037844341630035296713538432" />
      <tess:coord node="71" x="-4.499999999999999910951550819721282" y="0.8660254037844472386441946550979617" />
      <tess:coord node="12" x="0.5000000000000043640971222537102428" y="2.598076211353315187054928374566544" />
      <tess:coord node="54" x="1.500000000000007879206931796212543" y="4.330127018922191556376597430128479" />
      <tess:coord node="49" x="-2.999999999999994472218947405490212" y="3.464101615137760553003092587231330" />
      <tess:coord node="7" x="2.000000000000003125008880112653582" y="1.732050807568874675472621150591802" />
      <tess:coord node="39" x="1.499999999999993444569969382267274" y="-2.598076211353319855022424788046304" />
      <tess:coord node="3" x="2.8059524723402271646E-15" y="1.732050807568877071471832439567250" />
      <tess:coord node="35" x="4.000000000000002574250212893644171" y="-3.8911903369073011524E-15" />
      <tess:coord node="48" x="-3.499999999999996274015693291138041" y="2.598076211353322946507205678551396" />
      <tess:coord node="63" x="5.000000000000001894075451305813078" y="-4.740025560569000936879021546728064E-15" />
      <tess:coord node="18" x="5.9222417721671943444E-15" y="3.464101615137754733413884609242854" />
      <tess:coord node="50" x="-1.999999999999994472218947405492010" y="3.464101615137758656674722977175343" />
      <tess:coord node="67" x="-2.499999999999992758905883748636422" y="4.330127018922198937345764855616470" />
      <tess:coord node="16" x="-1.499999999999995954959285518713730" y="2.598076211353319153850466458438816" />
      <tess:coord node="31" x="3.000000000000004553172668705835469" y="3.464101615137752346831040667669461" />
      <tess:coord node="11" x="-0.9999999999999971940475276597698367" y="1.732050807568879520422110791881964" />
      <tess:coord node="72" x="-3.999999999999998235340643063000664" y="1.732050807568884917993509175432902" />
      <tess:coord node="43" x="-2.000000000000003125008880112649041" y="-1.732050807568874459755532679672049" />
      <tess:coord node="40" x="0.9999999999999913657787617671679135" y="-3.464101615137757301595484653191077" />
      <tess:coord node="26" x="-1.000000000000005274279842433692143" y="-1.732050807568874378372521975879679" />
      <tess:coord node="55" x="-1.000000000000010548559684867391636" y="-3.464101615137752316625528516679450" />
      <tess:coord node="23" x="2.000000000000000671861602784660490" y="-1.732050807568880415635228533574458" />
      <tess:coord node="8" x="0.4999999999999977616805884986854006" y="-0.8660254037844397005953945501183003" />
      <tess:coord node="58" x="3.500000000000000279016011331916069" y="-2.598076211353321032278596028528378" />
      <tess:coord node="36" x="4.500000000000002061758468526240151" y="-0.8660254037844428338413066460354711" />
      <tess:coord node="30" x="-1.999999999999997513103935432197146" y="1.732050807568880864128571659679677" />
      <tess:coord node="51" x="-0.4999999999999924398494759762124491" y="4.330127018922194970550226771743270" />
      <tess:coord node="19" x="3.000000000000003359941395799130071" y="1.732050807568874408578034126862071" />
      <tess:coord node="47" x="-2.999999999999998235340643063002196" y="1.732050807568883167371994788686420" />
      <tess:coord node="15" x="2.500000000000004683153530026134216" y="2.598076211353311220259390290694271" />
      <tess:coord node="68" x="-1.999999999999990881704826062725979" y="5.196152422706636500306952048356096" />
      <tess:coord node="62" x="5.500000000000002927213753374832507" y="0.8660254037844333102554857920899134" />
    </tess:tilingCoordinates>
  </metadata>
</svg>