<svg xmlns:rdf="http://www.w3.org/1999/02/22-rdf-syntax-ns#" xmlns:cc="http://creativecommons.org/ns#" xmlns:dc="http://purl.org/dc/elements/1.1/" xmlns:tess="https://github.com/scala-tessella/tessella" width="636.4102" height="699.8076" viewBox="0 0 636.4102 699.8076" xmlns="http://www.w3.org/2000/svg">
  <rect width="100%" height="100%" fill="white"/>
  <polygon data-nodes="22,23,24,25,26,27,43,55,56,57,58,59,60,61,67,72,73,74,75,76,77,78,79,80,81,82,83,84,85,86,48,49,50,51,52,53,54,46,30,31,32,33,34,35,36,19,20,21" points="386.506351,45.000000 343.205081,20.000000 293.205081,20.000000 249.903811,45.000000 224.903811,88.301270 224.903811,138.301270 181.602540,163.301270 138.301270,138.301270 88.301270,138.301270 45.000000,163.301270 20.000000,206.602540 20.000000,256.602540 45.000000,299.903811 88.301270,324.903811 88.301270,374.903811 45.000000,399.903811 20.000000,443.205081 20.000000,493.205081 45.000000,536.506351 88.301270,561.506351 138.301270,561.506351 181.602540,536.506351 224.903811,561.506351 224.903811,611.506351 249.903811,654.807621 293.205081,679.807621 343.205081,679.807621 386.506351,654.807621 411.506351,611.506351 411.506351,561.506351 454.807621,536.506351 498.108891,561.506351 548.108891,561.506351 591.410162,536.506351 616.410162,493.205081 616.410162,443.205081 591.410162,399.903811 548.108891,374.903811 548.108891,324.903811 591.410162,299.903811 616.410162,256.602540 616.410162,206.602540 591.410162,163.301270 548.108891,138.301270 498.108891,138.301270 454.807621,163.301270 411.506351,138.301270 411.506351,88.301270" fill="none" stroke="#e4e4e4" stroke-width="10.5" />
  <g id="tiling-polygons" stroke="#333" stroke-width="1.5">
    <polygon data-nodes="1,2,3,4" points="293.205081,206.602540 293.205081,256.602540 343.205081,256.602540 343.205081,206.602540" fill="rgb(100,98,208)" />
    <polygon data-nodes="5,6,7,8,4,3" points="386.506351,281.602540 429.807621,256.602540 429.807621,206.602540 386.506351,181.602540 343.205081,206.602540 343.205081,256.602540" fill="rgb(76,175,80)" />
    <polygon data-nodes="2,9,10,11,12,13,14,15,16,17,5,3" points="293.205081,256.602540 249.903811,281.602540 224.903811,324.903811 224.903811,374.903811 249.903811,418.205081 293.205081,443.205081 343.205081,443.205081 386.506351,418.205081 411.506351,374.903811 411.506351,324.903811 386.506351,281.602540 343.205081,256.602540" fill="rgb(31,249,233)" />
    <polygon data-nodes="17,18,6,5" points="411.506351,324.903811 454.807621,299.903811 429.807621,256.602540 386.506351,281.602540" fill="rgb(100,98,208)" />
    <polygon data-nodes="19,20,8,7" points="454.807621,163.301270 411.506351,138.301270 386.506351,181.602540 429.807621,206.602540" fill="rgb(100,98,208)" />
    <polygon data-nodes="20,21,22,23,24,25,26,27,28,1,4,8" points="411.506351,138.301270 411.506351,88.301270 386.506351,45.000000 343.205081,20.000000 293.205081,20.000000 249.903811,45.000000 224.903811,88.301270 224.903811,138.301270 249.903811,181.602540 293.205081,206.602540 343.205081,206.602540 386.506351,181.602540" fill="rgb(31,249,233)" />
    <polygon data-nodes="6,18,29,30,31,32,33,34,35,36,19,7" points="429.807621,256.602540 454.807621,299.903811 498.108891,324.903811 548.108891,324.903811 591.410162,299.903811 616.410162,256.602540 616.410162,206.602540 591.410162,163.301270 548.108891,138.301270 498.108891,138.301270 454.807621,163.301270 429.807621,206.602540" fill="rgb(31,249,233)" />
    <polygon data-nodes="37,38,9,2,1,28" points="206.602540,206.602540 206.602540,256.602540 249.903811,281.602540 293.205081,256.602540 293.205081,206.602540 249.903811,181.602540" fill="rgb(76,175,80)" />
    <polygon data-nodes="16,41,42,29,18,17" points="411.506351,374.903811 454.807621,399.903811 498.108891,374.903811 498.108891,324.903811 454.807621,299.903811 411.506351,324.903811" fill="rgb(76,175,80)" />
    <polygon data-nodes="27,43,37,28" points="224.903811,138.301270 181.602540,163.301270 206.602540,206.602540 249.903811,181.602540" fill="rgb(100,98,208)" />
    <polygon data-nodes="38,44,10,9" points="206.602540,256.602540 181.602540,299.903811 224.903811,324.903811 249.903811,281.602540" fill="rgb(100,98,208)" />
    <polygon data-nodes="45,41,16,15" points="429.807621,443.205081 454.807621,399.903811 411.506351,374.903811 386.506351,418.205081" fill="rgb(100,98,208)" />
    <polygon data-nodes="46,30,29,42" points="548.108891,374.903811 548.108891,324.903811 498.108891,324.903811 498.108891,374.903811" fill="rgb(100,98,208)" />
    <polygon data-nodes="45,47,48,49,50,51,52,53,54,46,42,41" points="429.807621,443.205081 429.807621,493.205081 454.807621,536.506351 498.108891,561.506351 548.108891,561.506351 591.410162,536.506351 616.410162,493.205081 616.410162,443.205081 591.410162,399.903811 548.108891,374.903811 498.108891,374.903811 454.807621,399.903811" fill="rgb(31,249,233)" />
    <polygon data-nodes="43,55,56,57,58,59,60,61,62,44,38,37" points="181.602540,163.301270 138.301270,138.301270 88.301270,138.301270 45.000000,163.301270 20.000000,206.602540 20.000000,256.602540 45.000000,299.903811 88.301270,324.903811 138.301270,324.903811 181.602540,299.903811 206.602540,256.602540 206.602540,206.602540" fill="rgb(31,249,233)" />
    <polygon data-nodes="63,64,11,10,44,62" points="138.301270,374.903811 181.602540,399.903811 224.903811,374.903811 224.903811,324.903811 181.602540,299.903811 138.301270,324.903811" fill="rgb(76,175,80)" />
    <polygon data-nodes="65,66,47,45,15,14" points="343.205081,493.205081 386.506351,518.205081 429.807621,493.205081 429.807621,443.205081 386.506351,418.205081 343.205081,443.205081" fill="rgb(76,175,80)" />
    <polygon data-nodes="67,63,62,61" points="88.301270,374.903811 138.301270,374.903811 138.301270,324.903811 88.301270,324.903811" fill="rgb(100,98,208)" />
    <polygon data-nodes="68,12,11,64" points="206.602540,443.205081 249.903811,418.205081 224.903811,374.903811 181.602540,399.903811" fill="rgb(100,98,208)" />
    <polygon data-nodes="69,65,14,13" points="293.205081,493.205081 343.205081,493.205081 343.205081,443.205081 293.205081,443.205081" fill="rgb(100,98,208)" />
    <polygon data-nodes="68,70,71,69,13,12" points="206.602540,443.205081 206.602540,493.205081 249.903811,518.205081 293.205081,493.205081 293.205081,443.205081 249.903811,418.205081" fill="rgb(76,175,80)" />
    <polygon data-nodes="63,67,72,73,74,75,76,77,78,70,68,64" points="138.301270,374.903811 88.301270,374.903811 45.000000,399.903811 20.000000,443.205081 20.000000,493.205081 45.000000,536.506351 88.301270,561.506351 138.301270,561.506351 181.602540,536.506351 206.602540,493.205081 206.602540,443.205081 181.602540,399.903811" fill="rgb(31,249,233)" />
    <polygon data-nodes="71,79,80,81,82,83,84,85,86,66,65,69" points="249.903811,518.205081 224.903811,561.506351 224.903811,611.506351 249.903811,654.807621 293.205081,679.807621 343.205081,679.807621 386.506351,654.807621 411.506351,611.506351 411.506351,561.506351 386.506351,518.205081 343.205081,493.205081 293.205081,493.205081" fill="rgb(31,249,233)" />
    <polygon data-nodes="78,79,71,70" points="181.602540,536.506351 224.903811,561.506351 249.903811,518.205081 206.602540,493.205081" fill="rgb(100,98,208)" />
    <polygon data-nodes="86,48,47,66" points="411.506351,561.506351 454.807621,536.506351 429.807621,493.205081 386.506351,518.205081" fill="rgb(100,98,208)" />
  </g>
  <metadata>
    <rdf:RDF>
      <cc:Work>
        <dc:source rdf:resource="https://github.com/scala-tessella/tessella">Tessella</dc:source>
        <cc:license rdf:resource="https://www.apache.org/licenses/LICENSE-2.0"/>
      </cc:Work>
    </rdf:RDF>
    <tess:tilingCoordinates>
      <tess:coord node="69" x="1.02503907895839985503E-14" y="5.732050807568879549500711115034818" />
      <tess:coord node="5" x="1.866025403784440911832766960443999" y="1.499999999999998308309385107072447" />
      <tess:coord node="84" x="1.866025403784453700945957153242922" y="8.964101615137754491212884080338570" />
      <tess:coord node="65" x="1.000000000000010438886348799385855" y="5.732050807568878284809522007102899" />
      <tess:coord node="77" x="-3.098076211353300930992984099861418" y="7.098076211353323959825716299027297" />
      <tess:coord node="66" x="1.866025403784450415419699858703572" y="6.232050807568875981580964142141744" />
      <tess:coord node="83" x="1.000000000000015838247140839319901" y="9.464101615137755849253139188124921" />
      <tess:coord node="10" x="-1.366025403784435509292791866124172" y="2.366025403784443486890919282413981" />
      <tess:coord node="56" x="-4.098076211353322247763788355477779" y="-1.366025403784425589119027394999478" />
      <tess:coord node="42" x="4.098076211353322591453278537453882" y="3.366025403784432163854960065282058" />
      <tess:coord node="24" x="-7.2035684894310260468E-15" y="-3.732050807568876723391980887589376" />
      <tess:coord node="37" x="-1.732050807568877938253006540800200" y="5.3604779041995082768E-15" />
      <tess:coord node="25" x="-0.8660254037844449203931170772801070" y="-3.232050807568875112690219494513233" />
      <tess:coord node="52" x="6.464101615137767853348765095465393" y="5.732050807568864399763343631215208" />
      <tess:coord node="14" x="1.000000000000008147761698850420510" y="4.732050807568877327640298689821704" />
      <tess:coord node="20" x="2.366025403784435625355222346367164" y="-1.366025403784441557105978900028295" />
      <tess:coord node="46" x="5.098076211353322829915921920733231" y="3.366025403784431183948685923621685" />
      <tess:coord node="57" x="-4.964101615137759035022689843269309" y="-0.8660254037844223683621993208188374" />
      <tess:coord node="78" x="-2.232050807568862608694256570333476" y="6.598076211353323397835858570811717" />
      <tess:coord node="29" x="4.098076211353320795273063163173435" y="2.366025403784433099360222989545634" />
      <tess:coord node="61" x="-4.098076211353308821210191078242616" y="2.366025403784451975324589786002297" />
      <tess:coord node="1" x="2.84E-32" y="2.384626433832795028842015308825921E-16" />
      <tess:coord node="74" x="-5.464101615137740682570619999980518" y="5.732050807568887105280373042215367" />
      <tess:coord node="6" x="2.732050807568878534409614999003950" y="0.9999999999999965343656809329168940" />
      <tess:coord node="60" x="-4.964101615137749206103286089655329" y="1.866025403784454985852971941814555" />
      <tess:coord node="85" x="2.366025403784452395462813525049104" y="8.098076211353315090728116513330370" />
      <tess:coord node="70" x="-1.732050807568867009576602070953797" y="5.732050807568883649139017721407022" />
      <tess:coord node="21" x="2.366025403784434202195150017223038" y="-2.366025403784442733980840945458809" />
      <tess:coord node="33" x="6.464101615137754353918106521366304" y="-1.08397986037762126978E-14" />
      <tess:coord node="28" x="-0.8660254037844401707152990027964979" y="-0.4999999999999977584750482318662882" />
      <tess:coord node="38" x="-1.732050807568874704745162544050997" y="1.000000000000005360477904199503049" />
      <tess:coord node="9" x="-0.8660254037844374371940915841975267" y="1.500000000000003727052861748404873" />
      <tess:coord node="53" x="6.464101615137765009602206404243480" y="4.732050807568864399763343631219251" />
      <tess:coord node="13" x="8.1477616988504224769E-15" y="4.732050807568879311038067731757525" />
      <tess:coord node="41" x="3.232050807568885245187384870024424" y="3.866025403784434416383275898078818" />
      <tess:coord node="73" x="-5.464101615137741574251510967010956" y="4.732050807568887105280373042215764" />
      <tess:coord node="2" x="5.961566084581987856103157481103486E-16" y="1.000000000000000238462643383279325" />
      <tess:coord node="45" x="2.732050807568885677075650600679821" y="4.732050807568874065939893709093009" />
      <tess:coord node="64" x="-2.232050807568864169231389240196583" y="3.866025403784445837105980284638858" />
      <tess:coord node="17" x="2.366025403784442419277174841765636" y="2.366025403784436084749673599146568" />
      <tess:coord node="32" x="6.464101615137756456547197254941876" y="0.9999999999999891602013962237850917" />
      <tess:coord node="34" x="5.964101615137752585545010689509193" y="-0.8660254037844484655916440407486446" />
      <tess:coord node="22" x="1.866025403784432433822054185365927" y="-3.232050807568880359773881209994756" />
      <tess:coord node="44" x="-2.232050807568875328746510245952920" y="1.866025403784445518049572512242086" />
      <tess:coord node="59" x="-5.464101615137752269188779725055154" y="1.000000000000018107562483072304647" />
      <tess:coord node="27" x="-1.366025403784441623745725957091656" y="-1.366025403784435566331263259838433" />
      <tess:coord node="71" x="-0.8660254037844270644591775475338665" y="6.232050807568881400324440783472481" />
      <tess:coord node="12" x="-0.8660254037844315210447713018691624" y="4.232050807568881081268033011049540" />
      <tess:coord node="54" x="5.964101615137762599402556132665820" y="3.866025403784427144529037345508023" />
      <tess:coord node="49" x="4.098076211353333204459919422246138" y="7.098076211353310092424926773164118" />
      <tess:coord node="86" x="2.366025403784450948708449653681812" y="7.098076211353315090728116513331416" />
      <tess:coord node="81" x="-0.8660254037844236532692141094045265" y="8.964101615137758941225155889902934" />
      <tess:coord node="76" x="-4.098076211353300930992984099861166" y="7.098076211353324669443432502622123" />
      <tess:coord node="7" x="2.732050807568876670243167648707881" y="-3.4656343190670813684E-15" />
      <tess:coord node="3" x="1.000000000000000596156608458198331" y="0.9999999999999992846120698501613135" />
      <tess:coord node="80" x="-1.366025403784425168980803655971872" y="8.098076211353321169557926957697980" />
      <tess:coord node="35" x="5.098076211353312948154467073115375" y="-1.366025403784446749775659688483225" />
      <tess:coord node="48" x="3.232050807568893014447467063595963" y="6.598076211353312765410134442714672" />
      <tess:coord node="63" x="-3.098076211353305790081195576459106" y="3.366025403784450988374182410854274" />
      <tess:coord node="18" x="3.232050807568880411610672684913992" y="1.866025403784434097326868125656752" />
      <tess:coord node="50" x="5.098076211353333204459919422241560" y="7.098076211353307066615193318506594" />
      <tess:coord node="67" x="-4.098076211353305286407850626417208" y="3.366025403784452213787233169275553" />
      <tess:coord node="16" x="2.366025403784444220611769120265845" y="3.366025403784436084749673599144946" />
      <tess:coord node="31" x="5.964101615137758330034516045988630" y="1.866025403784428888623527221896389" />
      <tess:coord node="11" x="-1.366025403784433343831848060752740" y="3.366025403784443486890919282411636" />
      <tess:coord node="72" x="-4.964101615137742399026926093195444" y="3.866025403784447982332341927375400" />
      <tess:coord node="43" x="-2.232050807568880761441106979148321" y="-0.8660254037844316563174092102100162" />
      <tess:coord node="26" x="-1.366025403784443362248467163796005" y="-2.366025403784435566331263259836922" />
      <tess:coord node="55" x="-3.098076211353322247763788355484922" y="-1.366025403784429368816395682055515" />
      <tess:coord node="23" x="0.9999999999999927964315105689721089" y="-3.732050807568878643957896857729336" />
      <tess:coord node="8" x="1.866025403784437183499872259851266" y="-0.5000000000000020107470226653519841" />
      <tess:coord node="75" x="-4.964101615137739962909427832983860" y="6.598076211353325336547513190025387" />
      <tess:coord node="58" x="-5.464101615137755866822973248675580" y="1.81075624830723111185E-14" />
      <tess:coord node="82" x="1.58382471408393212275E-14" y="9.464101615137757478070677822927825" />
      <tess:coord node="36" x="4.098076211353312948154467073117219" y="-1.366025403784444829209743718343265" />
      <tess:coord node="30" x="5.098076211353320795273063163170825" y="2.366025403784430814667957492534451" />
      <tess:coord node="51" x="5.964101615137770368662638326234529" y="6.598076211353304498744208608148050" />
      <tess:coord node="19" x="3.232050807568875231329839426863159" y="-0.8660254037844432185079823252671222" />
      <tess:coord node="4" x="0.9999999999999992846120698501610651" y="-7.153879301498378264E-16" />
      <tess:coord node="79" x="-1.366025403784426979861517054210387" y="7.098076211353321169557926957699620" />
      <tess:coord node="47" x="2.732050807568890288905147914456551" y="5.732050807568875692239002920439991" />
      <tess:coord node="15" x="1.866025403784445833170399960776537" y="4.232050807568875662524556369719088" />
      <tess:coord node="68" x="-1.732050807568863645681544259114748" y="4.732050807568884456951002219406860" />
      <tess:coord node="62" x="-3.098076211353308821210191078248449" y="2.366025403784448559753571025817483" />
    </tess:tilingCoordinates>
  </metadata>
</svg>