<svg xmlns:rdf="http://www.w3.org/1999/02/22-rdf-syntax-ns#" xmlns:cc="http://creativecommons.org/ns#" xmlns:dc="http://purl.org/dc/elements/1.1/" xmlns:tess="https://github.com/scala-tessella/tessella" width="415.0000" height="319.9038" viewBox="0 0 415.0000 319.9038" xmlns="http://www.w3.org/2000/svg">
  <rect width="100%" height="100%" fill="white"/>
  <polygon data-nodes="47,43,41,39,40,38,37,36,35,33,34,30,15,16,5,6,17,18,19,20,25,48,49,46" points="370.000000,206.602540 345.000000,163.301270 345.000000,113.301270 320.000000,70.000000 320.000000,20.000000 270.000000,20.000000 220.000000,20.000000 170.000000,20.000000 120.000000,20.000000 70.000000,20.000000 20.000000,20.000000 20.000000,70.000000 45.000000,113.301270 45.000000,163.301270 70.000000,206.602540 70.000000,256.602540 95.000000,299.903811 145.000000,299.903811 195.000000,299.903811 245.000000,299.903811 295.000000,299.903811 345.000000,299.903811 395.000000,299.903811 370.000000,256.602540" fill="none" stroke="#e4e4e4" stroke-width="10.5" />
  <g id="tiling-polygons">
    <polygon data-nodes="1,2,3" points="95.000000,163.301270 120.000000,206.602540 145.000000,163.301270" fill="rgb(26,22,197)" stroke="#333" stroke-width="1.5" />
    <polygon data-nodes="4,3,2" points="170.000000,206.602540 145.000000,163.301270 120.000000,206.602540" fill="rgb(26,22,197)" stroke="#333" stroke-width="1.5" />
    <polygon data-nodes="5,2,1" points="70.000000,206.602540 120.000000,206.602540 95.000000,163.301270" fill="rgb(26,22,197)" stroke="#333" stroke-width="1.5" />
    <polygon data-nodes="6,7,2,5" points="70.000000,256.602540 120.000000,256.602540 120.000000,206.602540 70.000000,206.602540" fill="rgb(100,98,208)" stroke="#333" stroke-width="1.5" />
    <polygon data-nodes="7,8,4,2" points="120.000000,256.602540 170.000000,256.602540 170.000000,206.602540 120.000000,206.602540" fill="rgb(100,98,208)" stroke="#333" stroke-width="1.5" />
    <polygon data-nodes="9,10,4,8" points="220.000000,256.602540 220.000000,206.602540 170.000000,206.602540 170.000000,256.602540" fill="rgb(100,98,208)" stroke="#333" stroke-width="1.5" />
    <polygon data-nodes="11,3,4" points="195.000000,163.301270 145.000000,163.301270 170.000000,206.602540" fill="rgb(26,22,197)" stroke="#333" stroke-width="1.5" />
    <polygon data-nodes="10,11,4" points="220.000000,206.602540 195.000000,163.301270 170.000000,206.602540" fill="rgb(26,22,197)" stroke="#333" stroke-width="1.5" />
    <polygon data-nodes="12,13,3,11" points="195.000000,113.301270 145.000000,113.301270 145.000000,163.301270 195.000000,163.301270" fill="rgb(100,98,208)" stroke="#333" stroke-width="1.5" />
    <polygon data-nodes="13,14,1,3" points="145.000000,113.301270 95.000000,113.301270 95.000000,163.301270 145.000000,163.301270" fill="rgb(100,98,208)" stroke="#333" stroke-width="1.5" />
    <polygon data-nodes="15,16,1,14" points="45.000000,113.301270 45.000000,163.301270 95.000000,163.301270 95.000000,113.301270" fill="rgb(100,98,208)" stroke="#333" stroke-width="1.5" />
    <polygon data-nodes="16,5,1" points="45.000000,163.301270 70.000000,206.602540 95.000000,163.301270" fill="rgb(26,22,197)" stroke="#333" stroke-width="1.5" />
    <polygon data-nodes="17,7,6" points="95.000000,299.903811 120.000000,256.602540 70.000000,256.602540" fill="rgb(26,22,197)" stroke="#333" stroke-width="1.5" />
    <polygon data-nodes="18,8,7" points="145.000000,299.903811 170.000000,256.602540 120.000000,256.602540" fill="rgb(26,22,197)" stroke="#333" stroke-width="1.5" />
    <polygon data-nodes="19,9,8" points="195.000000,299.903811 220.000000,256.602540 170.000000,256.602540" fill="rgb(26,22,197)" stroke="#333" stroke-width="1.5" />
    <polygon data-nodes="18,7,17" points="145.000000,299.903811 120.000000,256.602540 95.000000,299.903811" fill="rgb(26,22,197)" stroke="#333" stroke-width="1.5" />
    <polygon data-nodes="20,9,19" points="245.000000,299.903811 220.000000,256.602540 195.000000,299.903811" fill="rgb(26,22,197)" stroke="#333" stroke-width="1.5" />
    <polygon data-nodes="18,19,8" points="145.000000,299.903811 195.000000,299.903811 170.000000,256.602540" fill="rgb(26,22,197)" stroke="#333" stroke-width="1.5" />
    <polygon data-nodes="21,22,12,11" points="245.000000,163.301270 245.000000,113.301270 195.000000,113.301270 195.000000,163.301270" fill="rgb(100,98,208)" stroke="#333" stroke-width="1.5" />
    <polygon data-nodes="23,24,10,9" points="270.000000,256.602540 270.000000,206.602540 220.000000,206.602540 220.000000,256.602540" fill="rgb(100,98,208)" stroke="#333" stroke-width="1.5" />
    <polygon data-nodes="21,11,10" points="245.000000,163.301270 195.000000,163.301270 220.000000,206.602540" fill="rgb(26,22,197)" stroke="#333" stroke-width="1.5" />
    <polygon data-nodes="24,21,10" points="270.000000,206.602540 245.000000,163.301270 220.000000,206.602540" fill="rgb(26,22,197)" stroke="#333" stroke-width="1.5" />
    <polygon data-nodes="20,23,9" points="245.000000,299.903811 270.000000,256.602540 220.000000,256.602540" fill="rgb(26,22,197)" stroke="#333" stroke-width="1.5" />
    <polygon data-nodes="25,23,20" points="295.000000,299.903811 270.000000,256.602540 245.000000,299.903811" fill="rgb(26,22,197)" stroke="#333" stroke-width="1.5" />
    <polygon data-nodes="26,15,14" points="70.000000,70.000000 45.000000,113.301270 95.000000,113.301270" fill="rgb(26,22,197)" stroke="#333" stroke-width="1.5" />
    <polygon data-nodes="27,14,13" points="120.000000,70.000000 95.000000,113.301270 145.000000,113.301270" fill="rgb(26,22,197)" stroke="#333" stroke-width="1.5" />
    <polygon data-nodes="28,13,12" points="170.000000,70.000000 145.000000,113.301270 195.000000,113.301270" fill="rgb(26,22,197)" stroke="#333" stroke-width="1.5" />
    <polygon data-nodes="29,12,22" points="220.000000,70.000000 195.000000,113.301270 245.000000,113.301270" fill="rgb(26,22,197)" stroke="#333" stroke-width="1.5" />
    <polygon data-nodes="30,15,26" points="20.000000,70.000000 45.000000,113.301270 70.000000,70.000000" fill="rgb(26,22,197)" stroke="#333" stroke-width="1.5" />
    <polygon data-nodes="26,14,27" points="70.000000,70.000000 95.000000,113.301270 120.000000,70.000000" fill="rgb(26,22,197)" stroke="#333" stroke-width="1.5" />
    <polygon data-nodes="27,13,28" points="120.000000,70.000000 145.000000,113.301270 170.000000,70.000000" fill="rgb(26,22,197)" stroke="#333" stroke-width="1.5" />
    <polygon data-nodes="28,12,29" points="170.000000,70.000000 195.000000,113.301270 220.000000,70.000000" fill="rgb(26,22,197)" stroke="#333" stroke-width="1.5" />
    <polygon data-nodes="31,29,22" points="270.000000,70.000000 220.000000,70.000000 245.000000,113.301270" fill="rgb(26,22,197)" stroke="#333" stroke-width="1.5" />
    <polygon data-nodes="32,31,22" points="295.000000,113.301270 270.000000,70.000000 245.000000,113.301270" fill="rgb(26,22,197)" stroke="#333" stroke-width="1.5" />
    <polygon data-nodes="33,34,30,26" points="70.000000,20.000000 20.000000,20.000000 20.000000,70.000000 70.000000,70.000000" fill="rgb(100,98,208)" stroke="#333" stroke-width="1.5" />
    <polygon data-nodes="35,33,26,27" points="120.000000,20.000000 70.000000,20.000000 70.000000,70.000000 120.000000,70.000000" fill="rgb(100,98,208)" stroke="#333" stroke-width="1.5" />
    <polygon data-nodes="36,35,27,28" points="170.000000,20.000000 120.000000,20.000000 120.000000,70.000000 170.000000,70.000000" fill="rgb(100,98,208)" stroke="#333" stroke-width="1.5" />
    <polygon data-nodes="37,36,28,29" points="220.000000,20.000000 170.000000,20.000000 170.000000,70.000000 220.000000,70.000000" fill="rgb(100,98,208)" stroke="#333" stroke-width="1.5" />
    <polygon data-nodes="38,37,29,31" points="270.000000,20.000000 220.000000,20.000000 220.000000,70.000000 270.000000,70.000000" fill="rgb(100,98,208)" stroke="#333" stroke-width="1.5" />
    <polygon data-nodes="39,40,38,31" points="320.000000,70.000000 320.000000,20.000000 270.000000,20.000000 270.000000,70.000000" fill="rgb(100,98,208)" stroke="#333" stroke-width="1.5" />
    <polygon data-nodes="32,39,31" points="295.000000,113.301270 320.000000,70.000000 270.000000,70.000000" fill="rgb(26,22,197)" stroke="#333" stroke-width="1.5" />
    <polygon data-nodes="41,39,32" points="345.000000,113.301270 320.000000,70.000000 295.000000,113.301270" fill="rgb(26,22,197)" stroke="#333" stroke-width="1.5" />
    <polygon data-nodes="42,32,22,21" points="295.000000,163.301270 295.000000,113.301270 245.000000,113.301270 245.000000,163.301270" fill="rgb(100,98,208)" stroke="#333" stroke-width="1.5" />
    <polygon data-nodes="42,43,41,32" points="295.000000,163.301270 345.000000,163.301270 345.000000,113.301270 295.000000,113.301270" fill="rgb(100,98,208)" stroke="#333" stroke-width="1.5" />
    <polygon data-nodes="44,45,24,23" points="320.000000,256.602540 320.000000,206.602540 270.000000,206.602540 270.000000,256.602540" fill="rgb(100,98,208)" stroke="#333" stroke-width="1.5" />
    <polygon data-nodes="46,47,45,44" points="370.000000,256.602540 370.000000,206.602540 320.000000,206.602540 320.000000,256.602540" fill="rgb(100,98,208)" stroke="#333" stroke-width="1.5" />
    <polygon data-nodes="24,42,21" points="270.000000,206.602540 295.000000,163.301270 245.000000,163.301270" fill="rgb(26,22,197)" stroke="#333" stroke-width="1.5" />
    <polygon data-nodes="45,42,24" points="320.000000,206.602540 295.000000,163.301270 270.000000,206.602540" fill="rgb(26,22,197)" stroke="#333" stroke-width="1.5" />
    <polygon data-nodes="45,43,42" points="320.000000,206.602540 345.000000,163.301270 295.000000,163.301270" fill="rgb(26,22,197)" stroke="#333" stroke-width="1.5" />
    <polygon data-nodes="47,43,45" points="370.000000,206.602540 345.000000,163.301270 320.000000,206.602540" fill="rgb(26,22,197)" stroke="#333" stroke-width="1.5" />
    <polygon data-nodes="25,44,23" points="295.000000,299.903811 320.000000,256.602540 270.000000,256.602540" fill="rgb(26,22,197)" stroke="#333" stroke-width="1.5" />
    <polygon data-nodes="48,46,44" points="345.000000,299.903811 370.000000,256.602540 320.000000,256.602540" fill="rgb(26,22,197)" stroke="#333" stroke-width="1.5" />
    <polygon data-nodes="48,44,25" points="345.000000,299.903811 320.000000,256.602540 295.000000,299.903811" fill="rgb(26,22,197)" stroke="#333" stroke-width="1.5" />
    <polygon data-nodes="49,46,48" points="395.000000,299.903811 370.000000,256.602540 345.000000,299.903811" fill="rgb(26,22,197)" stroke="#333" stroke-width="1.5" />
  </g>

  <metadata>
    <rdf:RDF>
      <cc:Work>
        <dc:source rdf:resource="https://github.com/scala-tessella/tessella">Tessella</dc:source>
        <cc:license rdf:resource="https://www.apache.org/licenses/LICENSE-2.0"/>
      </cc:Work>
    </rdf:RDF>
    <tess:tilingCoordinates>
      <tess:coord node="5" x="-0.4999999999999999715821913370327871" y="0.8660254037844392700480018635483105" />
      <tess:coord node="10" x="2.500000000000000347474216435392130" y="0.8660254037844354660184851872558722" />
      <tess:coord node="14" x="-8.346192518414782316952695953774669E-16" y="-0.9999999999999997615373566167201488" />
      <tess:coord node="1" x="2.84E-32" y="2.384626433832795028842015308825921E-16" />
      <tess:coord node="6" x="-0.4999999999999994511222048545337026" y="1.866025403784439508510645246827678" />
      <tess:coord node="9" x="2.500000000000002287337285761387995" y="1.866025403784435466018485187253991" />
      <tess:coord node="2" x="0.5000000000000000284178086629671324" y="0.8660254037844388688193370726891019" />
      <tess:coord node="8" x="1.500000000000002048874642378110149" y="1.866025403784437286650232821610538" />
      <tess:coord node="4" x="1.500000000000000347474216435393787" y="0.8660254037844372866502328216119856" />
      <tess:coord node="42" x="3.999999999999999294672661951428341" y="-7.8351488992796836020E-15" />
      <tess:coord node="24" x="3.500000000000000347474216435390010" y="0.8660254037844334069240941696202558" />
      <tess:coord node="37" x="2.499999999999991696885698612761994" y="-2.866025403784443106239440799590341" />
      <tess:coord node="25" x="4.000000000000004665036460051626058" y="2.732050807568870818599030360952371" />
      <tess:coord node="20" x="3.000000000000004502163445694053660" y="2.732050807568872834051728712653503" />
      <tess:coord node="46" x="5.500000000000003002725215911218529" y="1.866025403784428573347381984506989" />
      <tess:coord node="29" x="2.499999999999994189370676681017254" y="-1.866025403784442867776797416313944" />
      <tess:coord node="21" x="2.999999999999999056210018568152249" y="-5.2234325995197885602E-15" />
      <tess:coord node="33" x="-0.5000000000000041629573428306674134" y="-2.866025403784438354045739318277063" />
      <tess:coord node="28" x="1.499999999999994189370676681020071" y="-1.866025403784440494523141039699028" />
      <tess:coord node="38" x="3.499999999999991144263789870498776" y="-2.866025403784446032115005918462532" />
      <tess:coord node="13" x="0.9999999999999965637250404999032132" y="-1.000000000000000476925286766555620" />
      <tess:coord node="41" x="4.999999999999997507850274885623666" y="-1.000000000000012327938109224585800" />
      <tess:coord node="45" x="4.500000000000000347474216435387371" y="0.8660254037844311093670597687051364" />
      <tess:coord node="17" x="1.4219231263767985267E-15" y="2.732050807568878019636017244597086" />
      <tess:coord node="32" x="3.999999999999997122073754101640084" y="-1.000000000000008840085550566484301" />
      <tess:coord node="34" x="-1.500000000000004162957342830665891" y="-2.866025403784436609110613659620746" />
      <tess:coord node="22" x="2.999999999999996563725040499897581" y="-1.000000000000005223432599519785454" />
      <tess:coord node="44" x="4.500000000000002764262572527942242" y="1.866025403784431109367059768702216" />
      <tess:coord node="27" x="0.4999999999999982267802193155668852" y="-1.866025403784438950202347776477510" />
      <tess:coord node="12" x="1.999999999999996563725040499900397" y="-1.000000000000002850178943143170537" />
      <tess:coord node="49" x="6.000000000000005837095496914410837" y="2.732050807568865583686660434985441" />
      <tess:coord node="7" x="0.5000000000000005488777951454660928" y="1.866025403784438868819337072688966" />
      <tess:coord node="39" x="4.499999999999994427833320064286745" y="-1.866025403784449196453214420621146" />
      <tess:coord node="3" x="0.9999999999999988177473751848783788" y="-4.769252867665581600E-16" />
      <tess:coord node="35" x="0.4999999999999968279522953756593427" y="-2.866025403784439188664991159756186" />
      <tess:coord node="48" x="5.000000000000005518039089141987700" y="2.732050807568868672328246961439851" />
      <tess:coord node="18" x="1.000000000000003738129687514840768" y="2.732050807568876908705811031986122" />
      <tess:coord node="16" x="-0.9999999999999999999999999999995167" y="1.192313216916397514421383812605224E-15" />
      <tess:coord node="31" x="3.499999999999994189370676681012974" y="-1.866025403784445793652362535187665" />
      <tess:coord node="11" x="1.999999999999998817747375184876100" y="-2.611716299759893574160934530602467E-15" />
      <tess:coord node="43" x="5.000000000000001114934155235363570" y="-1.23279381092245923055E-14" />
      <tess:coord node="40" x="4.499999999999991144263789870493770" y="-2.866025403784449196453214420615755" />
      <tess:coord node="26" x="-0.5000000000000022181971310912225534" y="-1.866025403784438115583095934999362" />
      <tess:coord node="23" x="3.500000000000002525799929144665378" y="1.866025403784433406924094169617883" />
      <tess:coord node="36" x="1.499999999999996563228104360697792" y="-2.866025403784440732985784422983382" />
      <tess:coord node="30" x="-1.500000000000002537253538863649325" y="-1.866025403784436609110613659622067" />
      <tess:coord node="19" x="2.000000000000004183107037921628570" y="2.732050807568875207305385089269176" />
      <tess:coord node="47" x="5.500000000000000347474216435384155" y="0.8660254037844285733473819845105140" />
      <tess:coord node="15" x="-1.000000000000001073081895224757280" y="-0.9999999999999988076867830836019098" />
    </tess:tilingCoordinates>
  </metadata>
</svg>