<?xml version='1.0' encoding='UTF-8'?>
<svg xmlns:rdf="http://www.w3.org/1999/02/22-rdf-syntax-ns#" xmlns:cc="http://creativecommons.org/ns#" xmlns:dc="http://purl.org/dc/elements/1.1/" viewBox="-50.0 -25.0 375.0 526.313972" xmlns="http://www.w3.org/2000/svg"><g><title>Tiling</title><desc>Finite tessellation of regular polygons</desc><g style="stroke:black"><title>Edges</title><desc>Sides of the regular polygons</desc><line x1="-25.0" y1="43.30127" x2="0.0" y2="86.60254"/><line x1="-25.0" y1="129.903811" x2="0.0" y2="173.205081"/><line x1="-25.0" y1="216.506351" x2="0.0" y2="259.807621"/><line x1="-25.0" y1="303.108891" x2="0.0" y2="346.410162"/><line x1="0.0" y1="0.0" x2="50.0" y2="0.0"/><line x1="0.0" y1="86.60254" x2="50.0" y2="86.60254"/><line x1="0.0" y1="173.205081" x2="50.0" y2="173.205081"/><line x1="0.0" y1="259.807621" x2="50.0" y2="259.807621"/><line x1="0.0" y1="346.410162" x2="50.0" y2="346.410162"/><line x1="50.0" y1="0.0" x2="75.0" y2="43.30127"/><line x1="50.0" y1="86.60254" x2="75.0" y2="129.903811"/><line x1="50.0" y1="173.205081" x2="75.0" y2="216.506351"/><line x1="50.0" y1="259.807621" x2="75.0" y2="303.108891"/><line x1="50.0" y1="346.410162" x2="75.0" y2="389.711432"/><line x1="75.0" y1="43.30127" x2="125.0" y2="43.30127"/><line x1="75.0" y1="129.903811" x2="125.0" y2="129.903811"/><line x1="75.0" y1="216.506351" x2="125.0" y2="216.506351"/><line x1="75.0" y1="303.108891" x2="125.0" y2="303.108891"/><line x1="75.0" y1="389.711432" x2="125.0" y2="389.711432"/><line x1="125.0" y1="43.30127" x2="150.0" y2="86.60254"/><line x1="125.0" y1="129.903811" x2="150.0" y2="173.205081"/><line x1="125.0" y1="216.506351" x2="150.0" y2="259.807621"/><line x1="125.0" y1="303.108891" x2="150.0" y2="346.410162"/><line x1="125.0" y1="389.711432" x2="150.0" y2="433.012702"/><line x1="150.0" y1="86.60254" x2="200.0" y2="86.60254"/><line x1="150.0" y1="173.205081" x2="200.0" y2="173.205081"/><line x1="150.0" y1="259.807621" x2="200.0" y2="259.807621"/><line x1="150.0" y1="346.410162" x2="200.0" y2="346.410162"/><line x1="150.0" y1="433.012702" x2="200.0" y2="433.012702"/><line x1="200.0" y1="86.60254" x2="225.0" y2="129.903811"/><line x1="200.0" y1="173.205081" x2="225.0" y2="216.506351"/><line x1="200.0" y1="259.807621" x2="225.0" y2="303.108891"/><line x1="200.0" y1="346.410162" x2="225.0" y2="389.711432"/><line x1="200.0" y1="433.012702" x2="225.0" y2="476.313972"/><line x1="225.0" y1="129.903811" x2="275.0" y2="129.903811"/><line x1="225.0" y1="216.506351" x2="275.0" y2="216.506351"/><line x1="225.0" y1="303.108891" x2="275.0" y2="303.108891"/><line x1="225.0" y1="389.711432" x2="275.0" y2="389.711432"/><line x1="225.0" y1="476.313972" x2="275.0" y2="476.313972"/><line x1="275.0" y1="129.903811" x2="300.0" y2="173.205081"/><line x1="275.0" y1="216.506351" x2="300.0" y2="259.807621"/><line x1="275.0" y1="303.108891" x2="300.0" y2="346.410162"/><line x1="275.0" y1="389.711432" x2="300.0" y2="433.012702"/><line x1="0.0" y1="0.0" x2="-25.0" y2="43.30127"/><line x1="0.0" y1="86.60254" x2="-25.0" y2="129.903811"/><line x1="0.0" y1="173.205081" x2="-25.0" y2="216.506351"/><line x1="0.0" y1="259.807621" x2="-25.0" y2="303.108891"/><line x1="75.0" y1="43.30127" x2="50.0" y2="86.60254"/><line x1="75.0" y1="129.903811" x2="50.0" y2="173.205081"/><line x1="75.0" y1="216.506351" x2="50.0" y2="259.807621"/><line x1="75.0" y1="303.108891" x2="50.0" y2="346.410162"/><line x1="150.0" y1="86.60254" x2="125.0" y2="129.903811"/><line x1="150.0" y1="173.205081" x2="125.0" y2="216.506351"/><line x1="150.0" y1="259.807621" x2="125.0" y2="303.108891"/><line x1="150.0" y1="346.410162" x2="125.0" y2="389.711432"/><line x1="225.0" y1="129.903811" x2="200.0" y2="173.205081"/><line x1="225.0" y1="216.506351" x2="200.0" y2="259.807621"/><line x1="225.0" y1="303.108891" x2="200.0" y2="346.410162"/><line x1="225.0" y1="389.711432" x2="200.0" y2="433.012702"/><line x1="300.0" y1="173.205081" x2="275.0" y2="216.506351"/><line x1="300.0" y1="259.807621" x2="275.0" y2="303.108891"/><line x1="300.0" y1="346.410162" x2="275.0" y2="389.711432"/><line x1="300.0" y1="433.012702" x2="275.0" y2="476.313972"/><line x1="0.0" y1="0.0" x2="25.0" y2="43.30127"/><line x1="50.0" y1="0.0" x2="25.0" y2="43.30127"/><line x1="75.0" y1="43.30127" x2="25.0" y2="43.30127"/><line x1="-25.0" y1="43.30127" x2="25.0" y2="43.30127"/><line x1="0.0" y1="86.60254" x2="25.0" y2="43.30127"/><line x1="50.0" y1="86.60254" x2="25.0" y2="43.30127"/><line x1="0.0" y1="86.60254" x2="25.0" y2="129.903811"/><line x1="50.0" y1="86.60254" x2="25.0" y2="129.903811"/><line x1="75.0" y1="129.903811" x2="25.0" y2="129.903811"/><line x1="-25.0" y1="129.903811" x2="25.0" y2="129.903811"/><line x1="0.0" y1="173.205081" x2="25.0" y2="129.903811"/><line x1="50.0" y1="173.205081" x2="25.0" y2="129.903811"/><line x1="0.0" y1="173.205081" x2="25.0" y2="216.506351"/><line x1="50.0" y1="173.205081" x2="25.0" y2="216.506351"/><line x1="75.0" y1="216.506351" x2="25.0" y2="216.506351"/><line x1="-25.0" y1="216.506351" x2="25.0" y2="216.506351"/><line x1="0.0" y1="259.807621" x2="25.0" y2="216.506351"/><line x1="50.0" y1="259.807621" x2="25.0" y2="216.506351"/><line x1="0.0" y1="259.807621" x2="25.0" y2="303.108891"/><line x1="50.0" y1="259.807621" x2="25.0" y2="303.108891"/><line x1="75.0" y1="303.108891" x2="25.0" y2="303.108891"/><line x1="-25.0" y1="303.108891" x2="25.0" y2="303.108891"/><line x1="0.0" y1="346.410162" x2="25.0" y2="303.108891"/><line x1="50.0" y1="346.410162" x2="25.0" y2="303.108891"/><line x1="75.0" y1="43.30127" x2="100.0" y2="86.60254"/><line x1="125.0" y1="43.30127" x2="100.0" y2="86.60254"/><line x1="150.0" y1="86.60254" x2="100.0" y2="86.60254"/><line x1="50.0" y1="86.60254" x2="100.0" y2="86.60254"/><line x1="75.0" y1="129.903811" x2="100.0" y2="86.60254"/><line x1="125.0" y1="129.903811" x2="100.0" y2="86.60254"/><line x1="75.0" y1="216.506351" x2="100.0" y2="259.807621"/><line x1="125.0" y1="216.506351" x2="100.0" y2="259.807621"/><line x1="150.0" y1="259.807621" x2="100.0" y2="259.807621"/><line x1="50.0" y1="259.807621" x2="100.0" y2="259.807621"/><line x1="75.0" y1="303.108891" x2="100.0" y2="259.807621"/><line x1="125.0" y1="303.108891" x2="100.0" y2="259.807621"/><line x1="150.0" y1="86.60254" x2="175.0" y2="129.903811"/><line x1="200.0" y1="86.60254" x2="175.0" y2="129.903811"/><line x1="225.0" y1="129.903811" x2="175.0" y2="129.903811"/><line x1="125.0" y1="129.903811" x2="175.0" y2="129.903811"/><line x1="150.0" y1="173.205081" x2="175.0" y2="129.903811"/><line x1="200.0" y1="173.205081" x2="175.0" y2="129.903811"/><line x1="150.0" y1="173.205081" x2="175.0" y2="216.506351"/><line x1="200.0" y1="173.205081" x2="175.0" y2="216.506351"/><line x1="225.0" y1="216.506351" x2="175.0" y2="216.506351"/><line x1="125.0" y1="216.506351" x2="175.0" y2="216.506351"/><line x1="150.0" y1="259.807621" x2="175.0" y2="216.506351"/><line x1="200.0" y1="259.807621" x2="175.0" y2="216.506351"/><line x1="150.0" y1="259.807621" x2="175.0" y2="303.108891"/><line x1="200.0" y1="259.807621" x2="175.0" y2="303.108891"/><line x1="225.0" y1="303.108891" x2="175.0" y2="303.108891"/><line x1="125.0" y1="303.108891" x2="175.0" y2="303.108891"/><line x1="150.0" y1="346.410162" x2="175.0" y2="303.108891"/><line x1="200.0" y1="346.410162" x2="175.0" y2="303.108891"/><line x1="150.0" y1="346.410162" x2="175.0" y2="389.711432"/><line x1="200.0" y1="346.410162" x2="175.0" y2="389.711432"/><line x1="225.0" y1="389.711432" x2="175.0" y2="389.711432"/><line x1="125.0" y1="389.711432" x2="175.0" y2="389.711432"/><line x1="150.0" y1="433.012702" x2="175.0" y2="389.711432"/><line x1="200.0" y1="433.012702" x2="175.0" y2="389.711432"/><line x1="225.0" y1="129.903811" x2="250.0" y2="173.205081"/><line x1="275.0" y1="129.903811" x2="250.0" y2="173.205081"/><line x1="300.0" y1="173.205081" x2="250.0" y2="173.205081"/><line x1="200.0" y1="173.205081" x2="250.0" y2="173.205081"/><line x1="225.0" y1="216.506351" x2="250.0" y2="173.205081"/><line x1="275.0" y1="216.506351" x2="250.0" y2="173.205081"/><line x1="225.0" y1="303.108891" x2="250.0" y2="346.410162"/><line x1="275.0" y1="303.108891" x2="250.0" y2="346.410162"/><line x1="300.0" y1="346.410162" x2="250.0" y2="346.410162"/><line x1="200.0" y1="346.410162" x2="250.0" y2="346.410162"/><line x1="225.0" y1="389.711432" x2="250.0" y2="346.410162"/><line x1="275.0" y1="389.711432" x2="250.0" y2="346.410162"/></g><g style="stroke:none"></g></g><metadata><rdf:RDF><cc:Work><dc:source rdf:resource="https://github.com/scala-tessella/tessella">Tessella</dc:source><cc:license rdf:resource="https://www.apache.org/licenses/LICENSE-2.0"/></cc:Work></rdf:RDF></metadata></svg>
