<svg xmlns:rdf="http://www.w3.org/1999/02/22-rdf-syntax-ns#" xmlns:cc="http://creativecommons.org/ns#" xmlns:dc="http://purl.org/dc/elements/1.1/" viewBox="-281.066017 -25.0 612.132034 612.132034" xmlns="http://www.w3.org/2000/svg"><g><title>Tiling</title><desc>Finite tessellation of regular polygons</desc><g style="stroke:black"><title>Edges</title><desc>Sides of the regular polygons</desc><line x1="0.0" y1="0.0" x2="50.0" y2="0.0"/><line x1="50.0" y1="0.0" x2="50.0" y2="50.0"/><line x1="50.0" y1="50.0" x2="0.0" y2="50.0"/><line x1="0.0" y1="0.0" x2="0.0" y2="50.0"/><line x1="50.0" y1="50.0" x2="85.355339" y2="85.355339"/><line x1="0.0" y1="50.0" x2="-35.355339" y2="85.355339"/><line x1="-85.355339" y1="85.355339" x2="-35.355339" y2="85.355339"/><line x1="-35.355339" y1="85.355339" x2="-35.355339" y2="135.355339"/><line x1="-35.355339" y1="135.355339" x2="-85.355339" y2="135.355339"/><line x1="-85.355339" y1="85.355339" x2="-85.355339" y2="135.355339"/><line x1="-35.355339" y1="135.355339" x2="0.0" y2="170.710678"/><line x1="-85.355339" y1="135.355339" x2="-120.710678" y2="170.710678"/><line x1="-170.710678" y1="170.710678" x2="-120.710678" y2="170.710678"/><line x1="-120.710678" y1="170.710678" x2="-120.710678" y2="220.710678"/><line x1="-120.710678" y1="220.710678" x2="-170.710678" y2="220.710678"/><line x1="-170.710678" y1="170.710678" x2="-170.710678" y2="220.710678"/><line x1="-120.710678" y1="220.710678" x2="-85.355339" y2="256.066017"/><line x1="-170.710678" y1="220.710678" x2="-206.066017" y2="256.066017"/><line x1="-256.066017" y1="256.066017" x2="-206.066017" y2="256.066017"/><line x1="-206.066017" y1="256.066017" x2="-206.066017" y2="306.066017"/><line x1="-206.066017" y1="306.066017" x2="-256.066017" y2="306.066017"/><line x1="-256.066017" y1="256.066017" x2="-256.066017" y2="306.066017"/><line x1="-206.066017" y1="306.066017" x2="-170.710678" y2="341.421356"/><line x1="85.355339" y1="85.355339" x2="135.355339" y2="85.355339"/><line x1="135.355339" y1="85.355339" x2="135.355339" y2="135.355339"/><line x1="135.355339" y1="135.355339" x2="85.355339" y2="135.355339"/><line x1="85.355339" y1="85.355339" x2="85.355339" y2="135.355339"/><line x1="135.355339" y1="135.355339" x2="170.710678" y2="170.710678"/><line x1="85.355339" y1="135.355339" x2="50.0" y2="170.710678"/><line x1="0.0" y1="170.710678" x2="50.0" y2="170.710678"/><line x1="50.0" y1="170.710678" x2="50.0" y2="220.710678"/><line x1="50.0" y1="220.710678" x2="0.0" y2="220.710678"/><line x1="0.0" y1="170.710678" x2="0.0" y2="220.710678"/><line x1="50.0" y1="220.710678" x2="85.355339" y2="256.066017"/><line x1="0.0" y1="220.710678" x2="-35.355339" y2="256.066017"/><line x1="-85.355339" y1="256.066017" x2="-35.355339" y2="256.066017"/><line x1="-35.355339" y1="256.066017" x2="-35.355339" y2="306.066017"/><line x1="-35.355339" y1="306.066017" x2="-85.355339" y2="306.066017"/><line x1="-85.355339" y1="256.066017" x2="-85.355339" y2="306.066017"/><line x1="-35.355339" y1="306.066017" x2="0.0" y2="341.421356"/><line x1="-85.355339" y1="306.066017" x2="-120.710678" y2="341.421356"/><line x1="-170.710678" y1="341.421356" x2="-120.710678" y2="341.421356"/><line x1="-120.710678" y1="341.421356" x2="-120.710678" y2="391.421356"/><line x1="-120.710678" y1="391.421356" x2="-170.710678" y2="391.421356"/><line x1="-170.710678" y1="341.421356" x2="-170.710678" y2="391.421356"/><line x1="-120.710678" y1="391.421356" x2="-85.355339" y2="426.776695"/><line x1="170.710678" y1="170.710678" x2="220.710678" y2="170.710678"/><line x1="220.710678" y1="170.710678" x2="220.710678" y2="220.710678"/><line x1="220.710678" y1="220.710678" x2="170.710678" y2="220.710678"/><line x1="170.710678" y1="170.710678" x2="170.710678" y2="220.710678"/><line x1="220.710678" y1="220.710678" x2="256.066017" y2="256.066017"/><line x1="170.710678" y1="220.710678" x2="135.355339" y2="256.066017"/><line x1="85.355339" y1="256.066017" x2="135.355339" y2="256.066017"/><line x1="135.355339" y1="256.066017" x2="135.355339" y2="306.066017"/><line x1="135.355339" y1="306.066017" x2="85.355339" y2="306.066017"/><line x1="85.355339" y1="256.066017" x2="85.355339" y2="306.066017"/><line x1="135.355339" y1="306.066017" x2="170.710678" y2="341.421356"/><line x1="85.355339" y1="306.066017" x2="50.0" y2="341.421356"/><line x1="0.0" y1="341.421356" x2="50.0" y2="341.421356"/><line x1="50.0" y1="341.421356" x2="50.0" y2="391.421356"/><line x1="50.0" y1="391.421356" x2="0.0" y2="391.421356"/><line x1="0.0" y1="341.421356" x2="0.0" y2="391.421356"/><line x1="50.0" y1="391.421356" x2="85.355339" y2="426.776695"/><line x1="0.0" y1="391.421356" x2="-35.355339" y2="426.776695"/><line x1="-85.355339" y1="426.776695" x2="-35.355339" y2="426.776695"/><line x1="-35.355339" y1="426.776695" x2="-35.355339" y2="476.776695"/><line x1="-35.355339" y1="476.776695" x2="-85.355339" y2="476.776695"/><line x1="-85.355339" y1="426.776695" x2="-85.355339" y2="476.776695"/><line x1="-35.355339" y1="476.776695" x2="0.0" y2="512.132034"/><line x1="256.066017" y1="256.066017" x2="306.066017" y2="256.066017"/><line x1="306.066017" y1="256.066017" x2="306.066017" y2="306.066017"/><line x1="306.066017" y1="306.066017" x2="256.066017" y2="306.066017"/><line x1="256.066017" y1="256.066017" x2="256.066017" y2="306.066017"/><line x1="256.066017" y1="306.066017" x2="220.710678" y2="341.421356"/><line x1="170.710678" y1="341.421356" x2="220.710678" y2="341.421356"/><line x1="220.710678" y1="341.421356" x2="220.710678" y2="391.421356"/><line x1="220.710678" y1="391.421356" x2="170.710678" y2="391.421356"/><line x1="170.710678" y1="341.421356" x2="170.710678" y2="391.421356"/><line x1="170.710678" y1="391.421356" x2="135.355339" y2="426.776695"/><line x1="85.355339" y1="426.776695" x2="135.355339" y2="426.776695"/><line x1="135.355339" y1="426.776695" x2="135.355339" y2="476.776695"/><line x1="135.355339" y1="476.776695" x2="85.355339" y2="476.776695"/><line x1="85.355339" y1="426.776695" x2="85.355339" y2="476.776695"/><line x1="85.355339" y1="476.776695" x2="50.0" y2="512.132034"/><line x1="0.0" y1="512.132034" x2="50.0" y2="512.132034"/><line x1="50.0" y1="512.132034" x2="50.0" y2="562.132034"/><line x1="50.0" y1="562.132034" x2="0.0" y2="562.132034"/><line x1="0.0" y1="512.132034" x2="0.0" y2="562.132034"/></g><g style="stroke:none"><title>Polygons</title><desc>Regular polygons</desc><g style="fill:coral"><title>Regular 8-gons</title><desc>Regular polygons with 8 sides</desc><polygon points="170.710678,341.421356 170.710678,391.421356 135.355339,426.776695 85.355339,426.776695 50.0,391.421356 50.0,341.421356 85.355339,306.066017 135.355339,306.066017"/><polygon points="85.355339,135.355339 135.355339,135.355339 170.710678,170.710678 170.710678,220.710678 135.355339,256.066017 85.355339,256.066017 50.0,220.710678 50.0,170.710678"/><polygon points="170.710678,220.710678 220.710678,220.710678 256.066017,256.066017 256.066017,306.066017 220.710678,341.421356 170.710678,341.421356 135.355339,306.066017 135.355339,256.066017"/><polygon points="-35.355339,256.066017 0.0,220.710678 50.0,220.710678 85.355339,256.066017 85.355339,306.066017 50.0,341.421356 0.0,341.421356 -35.355339,306.066017"/><polygon points="50.0,391.421356 85.355339,426.776695 85.355339,476.776695 50.0,512.132034 0.0,512.132034 -35.355339,476.776695 -35.355339,426.776695 0.0,391.421356"/><polygon points="-85.355339,306.066017 -35.355339,306.066017 0.0,341.421356 0.0,391.421356 -35.355339,426.776695 -85.355339,426.776695 -120.710678,391.421356 -120.710678,341.421356"/><polygon points="50.0,50.0 85.355339,85.355339 85.355339,135.355339 50.0,170.710678 0.0,170.710678 -35.355339,135.355339 -35.355339,85.355339 0.0,50.0"/><polygon points="0.0,170.710678 0.0,220.710678 -35.355339,256.066017 -85.355339,256.066017 -120.710678,220.710678 -120.710678,170.710678 -85.355339,135.355339 -35.355339,135.355339"/><polygon points="-85.355339,256.066017 -85.355339,306.066017 -120.710678,341.421356 -170.710678,341.421356 -206.066017,306.066017 -206.066017,256.066017 -170.710678,220.710678 -120.710678,220.710678"/></g><g style="fill:goldenrod"><title>Regular 4-gons</title><desc>Regular polygons with 4 sides</desc><polygon points="256.066017,256.066017 306.066017,256.066017 306.066017,306.066017 256.066017,306.066017"/><polygon points="85.355339,426.776695 135.355339,426.776695 135.355339,476.776695 85.355339,476.776695"/><polygon points="50.0,512.132034 50.0,562.132034 0.0,562.132034 0.0,512.132034"/><polygon points="170.710678,220.710678 170.710678,170.710678 220.710678,170.710678 220.710678,220.710678"/><polygon points="220.710678,341.421356 220.710678,391.421356 170.710678,391.421356 170.710678,341.421356"/><polygon points="-206.066017,306.066017 -256.066017,306.066017 -256.066017,256.066017 -206.066017,256.066017"/><polygon points="50.0,170.710678 50.0,220.710678 0.0,220.710678 0.0,170.710678"/><polygon points="-85.355339,256.066017 -35.355339,256.066017 -35.355339,306.066017 -85.355339,306.066017"/><polygon points="135.355339,306.066017 85.355339,306.066017 85.355339,256.066017 135.355339,256.066017"/><polygon points="50.0,341.421356 50.0,391.421356 0.0,391.421356 0.0,341.421356"/><polygon points="-35.355339,476.776695 -85.355339,476.776695 -85.355339,426.776695 -35.355339,426.776695"/><polygon points="-35.355339,135.355339 -85.355339,135.355339 -85.355339,85.355339 -35.355339,85.355339"/><polygon points="85.355339,135.355339 85.355339,85.355339 135.355339,85.355339 135.355339,135.355339"/><polygon points="-120.710678,391.421356 -170.710678,391.421356 -170.710678,341.421356 -120.710678,341.421356"/><polygon points="50.0,0.0 50.0,50.0 0.0,50.0 0.0,0.0"/><polygon points="-170.710678,220.710678 -170.710678,170.710678 -120.710678,170.710678 -120.710678,220.710678"/></g></g><polygon style="fill:none;stroke:blue;stroke-width:2" points="0.0,0.0 50.0,0.0 50.0,50.0 85.355339,85.355339 135.355339,85.355339 135.355339,135.355339 170.710678,170.710678 220.710678,170.710678 220.710678,220.710678 256.066017,256.066017 306.066017,256.066017 306.066017,306.066017 256.066017,306.066017 220.710678,341.421356 220.710678,391.421356 170.710678,391.421356 135.355339,426.776695 135.355339,476.776695 85.355339,476.776695 50.0,512.132034 50.0,562.132034 0.0,562.132034 0.0,512.132034 -35.355339,476.776695 -85.355339,476.776695 -85.355339,426.776695 -120.710678,391.421356 -170.710678,391.421356 -170.710678,341.421356 -206.066017,306.066017 -256.066017,306.066017 -256.066017,256.066017 -206.066017,256.066017 -170.710678,220.710678 -170.710678,170.710678 -120.710678,170.710678 -85.355339,135.355339 -85.355339,85.355339 -35.355339,85.355339 0.0,50.0"/><g style="fill:#4a4a4a;text-anchor:middle;font-family:Arial,Helvetica,sans-serif"><title>Node labels</title><desc>Each node showing its value</desc><text x="85.355339" y="85.355339">5</text><text x="50.0" y="0.0">2</text><text x="0.0" y="50.0">4</text><text x="220.710678" y="170.710678">10</text><text x="-170.710678" y="391.421356">56</text><text x="50.0" y="341.421356">42</text><text x="0.0" y="220.710678">24</text><text x="-85.355339" y="256.066017">37</text><text x="85.355339" y="256.066017">25</text><text x="-256.066017" y="306.066017">52</text><text x="306.066017" y="256.066017">14</text><text x="-85.355339" y="135.355339">20</text><text x="135.355339" y="426.776695">46</text><text x="-85.355339" y="426.776695">57</text><text x="170.710678" y="341.421356">29</text><text x="0.0" y="512.132034">61</text><text x="0.0" y="0.0">1</text><text x="135.355339" y="85.355339">6</text><text x="-85.355339" y="476.776695">60</text><text x="0.0" y="170.710678">21</text><text x="-170.710678" y="170.710678">33</text><text x="85.355339" y="306.066017">28</text><text x="-35.355339" y="256.066017">38</text><text x="170.710678" y="170.710678">9</text><text x="-170.710678" y="341.421356">53</text><text x="256.066017" y="256.066017">13</text><text x="0.0" y="341.421356">41</text><text x="85.355339" y="426.776695">45</text><text x="0.0" y="562.132034">64</text><text x="-85.355339" y="85.355339">17</text><text x="170.710678" y="391.421356">32</text><text x="-120.710678" y="170.710678">34</text><text x="50.0" y="170.710678">22</text><text x="0.0" y="391.421356">44</text><text x="-35.355339" y="476.776695">59</text><text x="135.355339" y="306.066017">27</text><text x="170.710678" y="220.710678">12</text><text x="-120.710678" y="341.421356">54</text><text x="-256.066017" y="256.066017">49</text><text x="135.355339" y="135.355339">7</text><text x="-35.355339" y="306.066017">39</text><text x="50.0" y="50.0">3</text><text x="-120.710678" y="220.710678">35</text><text x="85.355339" y="476.776695">48</text><text x="50.0" y="562.132034">63</text><text x="-35.355339" y="85.355339">18</text><text x="-206.066017" y="256.066017">50</text><text x="256.066017" y="306.066017">16</text><text x="220.710678" y="391.421356">31</text><text x="220.710678" y="220.710678">11</text><text x="50.0" y="391.421356">43</text><text x="-85.355339" y="306.066017">40</text><text x="135.355339" y="256.066017">26</text><text x="-120.710678" y="391.421356">55</text><text x="50.0" y="220.710678">23</text><text x="85.355339" y="135.355339">8</text><text x="-35.355339" y="426.776695">58</text><text x="-170.710678" y="220.710678">36</text><text x="220.710678" y="341.421356">30</text><text x="-206.066017" y="306.066017">51</text><text x="-35.355339" y="135.355339">19</text><text x="135.355339" y="476.776695">47</text><text x="306.066017" y="306.066017">15</text><text x="50.0" y="512.132034">62</text></g></g><metadata><rdf:RDF><cc:Work><dc:source rdf:resource="https://github.com/scala-tessella/tessella">Tessella</dc:source><cc:license rdf:resource="https://www.apache.org/licenses/LICENSE-2.0"/></cc:Work></rdf:RDF></metadata></svg>
