<svg xmlns:rdf="http://www.w3.org/1999/02/22-rdf-syntax-ns#" xmlns:cc="http://creativecommons.org/ns#" xmlns:dc="http://purl.org/dc/elements/1.1/" viewBox="-25.0 -354.903811 454.903811 454.903811" xmlns="http://www.w3.org/2000/svg"><g><title>Tiling</title><desc>Finite tessellation of regular polygons</desc><g style="stroke:black"><title>Edges</title><desc>Sides of the regular polygons</desc><line x1="0.0" y1="0.0" x2="50.0" y2="0.0"/><line x1="0.0" y1="-50.0" x2="50.0" y2="-50.0"/><line x1="25.0" y1="-93.30127" x2="75.0" y2="-93.30127"/><line x1="25.0" y1="-143.30127" x2="75.0" y2="-143.30127"/><line x1="50.0" y1="-186.60254" x2="100.0" y2="-186.60254"/><line x1="50.0" y1="-236.60254" x2="100.0" y2="-236.60254"/><line x1="75.0" y1="-279.903811" x2="125.0" y2="-279.903811"/><line x1="75.0" y1="-329.903811" x2="125.0" y2="-329.903811"/><line x1="50.0" y1="0.0" x2="93.30127" y2="25.0"/><line x1="50.0" y1="-50.0" x2="93.30127" y2="-25.0"/><line x1="75.0" y1="-93.30127" x2="118.30127" y2="-68.30127"/><line x1="75.0" y1="-143.30127" x2="118.30127" y2="-118.30127"/><line x1="100.0" y1="-186.60254" x2="143.30127" y2="-161.60254"/><line x1="100.0" y1="-236.60254" x2="143.30127" y2="-211.60254"/><line x1="125.0" y1="-279.903811" x2="168.30127" y2="-254.903811"/><line x1="125.0" y1="-329.903811" x2="168.30127" y2="-304.903811"/><line x1="93.30127" y1="25.0" x2="143.30127" y2="25.0"/><line x1="93.30127" y1="-25.0" x2="143.30127" y2="-25.0"/><line x1="118.30127" y1="-68.30127" x2="168.30127" y2="-68.30127"/><line x1="118.30127" y1="-118.30127" x2="168.30127" y2="-118.30127"/><line x1="143.30127" y1="-161.60254" x2="193.30127" y2="-161.60254"/><line x1="143.30127" y1="-211.60254" x2="193.30127" y2="-211.60254"/><line x1="168.30127" y1="-254.903811" x2="218.30127" y2="-254.903811"/><line x1="168.30127" y1="-304.903811" x2="218.30127" y2="-304.903811"/><line x1="143.30127" y1="25.0" x2="186.60254" y2="50.0"/><line x1="143.30127" y1="-25.0" x2="186.60254" y2="0.0"/><line x1="168.30127" y1="-68.30127" x2="211.60254" y2="-43.30127"/><line x1="168.30127" y1="-118.30127" x2="211.60254" y2="-93.30127"/><line x1="193.30127" y1="-161.60254" x2="236.60254" y2="-136.60254"/><line x1="193.30127" y1="-211.60254" x2="236.60254" y2="-186.60254"/><line x1="218.30127" y1="-254.903811" x2="261.60254" y2="-229.903811"/><line x1="218.30127" y1="-304.903811" x2="261.60254" y2="-279.903811"/><line x1="186.60254" y1="50.0" x2="236.60254" y2="50.0"/><line x1="186.60254" y1="0.0" x2="236.60254" y2="0.0"/><line x1="211.60254" y1="-43.30127" x2="261.60254" y2="-43.30127"/><line x1="211.60254" y1="-93.30127" x2="261.60254" y2="-93.30127"/><line x1="236.60254" y1="-136.60254" x2="286.60254" y2="-136.60254"/><line x1="236.60254" y1="-186.60254" x2="286.60254" y2="-186.60254"/><line x1="261.60254" y1="-229.903811" x2="311.60254" y2="-229.903811"/><line x1="261.60254" y1="-279.903811" x2="311.60254" y2="-279.903811"/><line x1="236.60254" y1="50.0" x2="279.903811" y2="75.0"/><line x1="236.60254" y1="0.0" x2="279.903811" y2="25.0"/><line x1="261.60254" y1="-43.30127" x2="304.903811" y2="-18.30127"/><line x1="261.60254" y1="-93.30127" x2="304.903811" y2="-68.30127"/><line x1="286.60254" y1="-136.60254" x2="329.903811" y2="-111.60254"/><line x1="286.60254" y1="-186.60254" x2="329.903811" y2="-161.60254"/><line x1="311.60254" y1="-229.903811" x2="354.903811" y2="-204.903811"/><line x1="311.60254" y1="-279.903811" x2="354.903811" y2="-254.903811"/><line x1="279.903811" y1="75.0" x2="329.903811" y2="75.0"/><line x1="279.903811" y1="25.0" x2="329.903811" y2="25.0"/><line x1="304.903811" y1="-18.30127" x2="354.903811" y2="-18.30127"/><line x1="304.903811" y1="-68.30127" x2="354.903811" y2="-68.30127"/><line x1="329.903811" y1="-111.60254" x2="379.903811" y2="-111.60254"/><line x1="329.903811" y1="-161.60254" x2="379.903811" y2="-161.60254"/><line x1="354.903811" y1="-204.903811" x2="404.903811" y2="-204.903811"/><line x1="354.903811" y1="-254.903811" x2="404.903811" y2="-254.903811"/><line x1="0.0" y1="0.0" x2="0.0" y2="-50.0"/><line x1="0.0" y1="-50.0" x2="25.0" y2="-93.30127"/><line x1="25.0" y1="-93.30127" x2="25.0" y2="-143.30127"/><line x1="25.0" y1="-143.30127" x2="50.0" y2="-186.60254"/><line x1="50.0" y1="-186.60254" x2="50.0" y2="-236.60254"/><line x1="50.0" y1="-236.60254" x2="75.0" y2="-279.903811"/><line x1="75.0" y1="-279.903811" x2="75.0" y2="-329.903811"/><line x1="50.0" y1="0.0" x2="50.0" y2="-50.0"/><line x1="50.0" y1="-50.0" x2="75.0" y2="-93.30127"/><line x1="75.0" y1="-93.30127" x2="75.0" y2="-143.30127"/><line x1="75.0" y1="-143.30127" x2="100.0" y2="-186.60254"/><line x1="100.0" y1="-186.60254" x2="100.0" y2="-236.60254"/><line x1="100.0" y1="-236.60254" x2="125.0" y2="-279.903811"/><line x1="125.0" y1="-279.903811" x2="125.0" y2="-329.903811"/><line x1="93.30127" y1="25.0" x2="93.30127" y2="-25.0"/><line x1="93.30127" y1="-25.0" x2="118.30127" y2="-68.30127"/><line x1="118.30127" y1="-68.30127" x2="118.30127" y2="-118.30127"/><line x1="118.30127" y1="-118.30127" x2="143.30127" y2="-161.60254"/><line x1="143.30127" y1="-161.60254" x2="143.30127" y2="-211.60254"/><line x1="143.30127" y1="-211.60254" x2="168.30127" y2="-254.903811"/><line x1="168.30127" y1="-254.903811" x2="168.30127" y2="-304.903811"/><line x1="143.30127" y1="25.0" x2="143.30127" y2="-25.0"/><line x1="143.30127" y1="-25.0" x2="168.30127" y2="-68.30127"/><line x1="168.30127" y1="-68.30127" x2="168.30127" y2="-118.30127"/><line x1="168.30127" y1="-118.30127" x2="193.30127" y2="-161.60254"/><line x1="193.30127" y1="-161.60254" x2="193.30127" y2="-211.60254"/><line x1="193.30127" y1="-211.60254" x2="218.30127" y2="-254.903811"/><line x1="218.30127" y1="-254.903811" x2="218.30127" y2="-304.903811"/><line x1="186.60254" y1="50.0" x2="186.60254" y2="0.0"/><line x1="186.60254" y1="0.0" x2="211.60254" y2="-43.30127"/><line x1="211.60254" y1="-43.30127" x2="211.60254" y2="-93.30127"/><line x1="211.60254" y1="-93.30127" x2="236.60254" y2="-136.60254"/><line x1="236.60254" y1="-136.60254" x2="236.60254" y2="-186.60254"/><line x1="236.60254" y1="-186.60254" x2="261.60254" y2="-229.903811"/><line x1="261.60254" y1="-229.903811" x2="261.60254" y2="-279.903811"/><line x1="236.60254" y1="50.0" x2="236.60254" y2="0.0"/><line x1="236.60254" y1="0.0" x2="261.60254" y2="-43.30127"/><line x1="261.60254" y1="-43.30127" x2="261.60254" y2="-93.30127"/><line x1="261.60254" y1="-93.30127" x2="286.60254" y2="-136.60254"/><line x1="286.60254" y1="-136.60254" x2="286.60254" y2="-186.60254"/><line x1="286.60254" y1="-186.60254" x2="311.60254" y2="-229.903811"/><line x1="311.60254" y1="-229.903811" x2="311.60254" y2="-279.903811"/><line x1="279.903811" y1="75.0" x2="279.903811" y2="25.0"/><line x1="279.903811" y1="25.0" x2="304.903811" y2="-18.30127"/><line x1="304.903811" y1="-18.30127" x2="304.903811" y2="-68.30127"/><line x1="304.903811" y1="-68.30127" x2="329.903811" y2="-111.60254"/><line x1="329.903811" y1="-111.60254" x2="329.903811" y2="-161.60254"/><line x1="329.903811" y1="-161.60254" x2="354.903811" y2="-204.903811"/><line x1="354.903811" y1="-204.903811" x2="354.903811" y2="-254.903811"/><line x1="329.903811" y1="75.0" x2="329.903811" y2="25.0"/><line x1="329.903811" y1="25.0" x2="354.903811" y2="-18.30127"/><line x1="354.903811" y1="-18.30127" x2="354.903811" y2="-68.30127"/><line x1="354.903811" y1="-68.30127" x2="379.903811" y2="-111.60254"/><line x1="379.903811" y1="-111.60254" x2="379.903811" y2="-161.60254"/><line x1="379.903811" y1="-161.60254" x2="404.903811" y2="-204.903811"/><line x1="404.903811" y1="-204.903811" x2="404.903811" y2="-254.903811"/><line x1="50.0" y1="0.0" x2="93.30127" y2="-25.0"/><line x1="143.30127" y1="25.0" x2="186.60254" y2="0.0"/><line x1="236.60254" y1="50.0" x2="279.903811" y2="25.0"/><line x1="50.0" y1="-50.0" x2="25.0" y2="-93.30127"/><line x1="143.30127" y1="-25.0" x2="118.30127" y2="-68.30127"/><line x1="236.60254" y1="0.0" x2="211.60254" y2="-43.30127"/><line x1="329.903811" y1="25.0" x2="304.903811" y2="-18.30127"/><line x1="75.0" y1="-93.30127" x2="118.30127" y2="-118.30127"/><line x1="168.30127" y1="-68.30127" x2="211.60254" y2="-93.30127"/><line x1="261.60254" y1="-43.30127" x2="304.903811" y2="-68.30127"/><line x1="75.0" y1="-143.30127" x2="50.0" y2="-186.60254"/><line x1="168.30127" y1="-118.30127" x2="143.30127" y2="-161.60254"/><line x1="261.60254" y1="-93.30127" x2="236.60254" y2="-136.60254"/><line x1="354.903811" y1="-68.30127" x2="329.903811" y2="-111.60254"/><line x1="100.0" y1="-186.60254" x2="143.30127" y2="-211.60254"/><line x1="193.30127" y1="-161.60254" x2="236.60254" y2="-186.60254"/><line x1="286.60254" y1="-136.60254" x2="329.903811" y2="-161.60254"/><line x1="100.0" y1="-236.60254" x2="75.0" y2="-279.903811"/><line x1="193.30127" y1="-211.60254" x2="168.30127" y2="-254.903811"/><line x1="286.60254" y1="-186.60254" x2="261.60254" y2="-229.903811"/><line x1="379.903811" y1="-161.60254" x2="354.903811" y2="-204.903811"/><line x1="125.0" y1="-279.903811" x2="168.30127" y2="-304.903811"/><line x1="218.30127" y1="-254.903811" x2="261.60254" y2="-279.903811"/><line x1="311.60254" y1="-229.903811" x2="354.903811" y2="-254.903811"/></g><g style="stroke:none"><title>Polygons</title><desc>Regular polygons</desc><g style="fill:yellow"><title>Regular 3-gons</title><desc>Regular polygons with 3 sides</desc><polygon points="329.903811,25.0 354.903811,-18.30127 304.903811,-18.30127"/><polygon points="354.903811,-254.903811 311.60254,-279.903811 311.60254,-229.903811"/><polygon points="354.903811,-68.30127 379.903811,-111.60254 329.903811,-111.60254"/><polygon points="304.903811,-18.30127 279.903811,25.0 329.903811,25.0"/><polygon points="261.60254,-279.903811 218.30127,-304.903811 218.30127,-254.903811"/><polygon points="311.60254,-229.903811 354.903811,-204.903811 354.903811,-254.903811"/><polygon points="236.60254,50.0 279.903811,75.0 279.903811,25.0"/><polygon points="379.903811,-161.60254 404.903811,-204.903811 354.903811,-204.903811"/><polygon points="286.60254,-186.60254 311.60254,-229.903811 261.60254,-229.903811"/><polygon points="329.903811,-161.60254 379.903811,-161.60254 354.903811,-204.903811"/><polygon points="329.903811,-111.60254 304.903811,-68.30127 354.903811,-68.30127"/><polygon points="211.60254,-43.30127 186.60254,0.0 236.60254,0.0"/><polygon points="236.60254,0.0 261.60254,-43.30127 211.60254,-43.30127"/><polygon points="261.60254,-43.30127 304.903811,-18.30127 304.903811,-68.30127"/><polygon points="218.30127,-254.903811 261.60254,-229.903811 261.60254,-279.903811"/><polygon points="236.60254,0.0 236.60254,50.0 279.903811,25.0"/><polygon points="143.30127,25.0 186.60254,50.0 186.60254,0.0"/><polygon points="186.60254,0.0 143.30127,-25.0 143.30127,25.0"/><polygon points="50.0,0.0 93.30127,25.0 93.30127,-25.0"/><polygon points="93.30127,-25.0 50.0,-50.0 50.0,0.0"/><polygon points="25.0,-93.30127 0.0,-50.0 50.0,-50.0"/><polygon points="193.30127,-211.60254 168.30127,-254.903811 143.30127,-211.60254"/><polygon points="193.30127,-161.60254 236.60254,-186.60254 193.30127,-211.60254"/><polygon points="193.30127,-211.60254 218.30127,-254.903811 168.30127,-254.903811"/><polygon points="236.60254,-186.60254 286.60254,-186.60254 261.60254,-229.903811"/><polygon points="193.30127,-161.60254 236.60254,-136.60254 236.60254,-186.60254"/><polygon points="143.30127,-161.60254 168.30127,-118.30127 193.30127,-161.60254"/><polygon points="236.60254,-136.60254 211.60254,-93.30127 261.60254,-93.30127"/><polygon points="261.60254,-93.30127 286.60254,-136.60254 236.60254,-136.60254"/><polygon points="286.60254,-136.60254 329.903811,-161.60254 286.60254,-186.60254"/><polygon points="286.60254,-136.60254 329.903811,-111.60254 329.903811,-161.60254"/><polygon points="261.60254,-93.30127 261.60254,-43.30127 304.903811,-68.30127"/><polygon points="168.30127,-68.30127 211.60254,-43.30127 211.60254,-93.30127"/><polygon points="211.60254,-93.30127 168.30127,-118.30127 168.30127,-68.30127"/><polygon points="143.30127,-161.60254 118.30127,-118.30127 168.30127,-118.30127"/><polygon points="118.30127,-68.30127 143.30127,-25.0 168.30127,-68.30127"/><polygon points="143.30127,-211.60254 100.0,-186.60254 143.30127,-161.60254"/><polygon points="75.0,-93.30127 118.30127,-68.30127 118.30127,-118.30127"/><polygon points="118.30127,-118.30127 75.0,-143.30127 75.0,-93.30127"/><polygon points="143.30127,-211.60254 100.0,-236.60254 100.0,-186.60254"/><polygon points="168.30127,-254.903811 168.30127,-304.903811 125.0,-279.903811"/><polygon points="118.30127,-68.30127 93.30127,-25.0 143.30127,-25.0"/><polygon points="75.0,-93.30127 25.0,-93.30127 50.0,-50.0"/><polygon points="50.0,-186.60254 25.0,-143.30127 75.0,-143.30127"/><polygon points="75.0,-143.30127 100.0,-186.60254 50.0,-186.60254"/><polygon points="75.0,-279.903811 50.0,-236.60254 100.0,-236.60254"/><polygon points="100.0,-236.60254 125.0,-279.903811 75.0,-279.903811"/><polygon points="168.30127,-304.903811 125.0,-329.903811 125.0,-279.903811"/></g><g style="fill:goldenrod"><title>Regular 4-gons</title><desc>Regular polygons with 4 sides</desc><polygon points="279.903811,25.0 279.903811,75.0 329.903811,75.0 329.903811,25.0"/><polygon points="354.903811,-204.903811 404.903811,-204.903811 404.903811,-254.903811 354.903811,-254.903811"/><polygon points="304.903811,-18.30127 354.903811,-18.30127 354.903811,-68.30127 304.903811,-68.30127"/><polygon points="311.60254,-229.903811 311.60254,-279.903811 261.60254,-279.903811 261.60254,-229.903811"/><polygon points="50.0,-50.0 0.0,-50.0 0.0,0.0 50.0,0.0"/><polygon points="329.903811,-161.60254 354.903811,-204.903811 311.60254,-229.903811 286.60254,-186.60254"/><polygon points="329.903811,-161.60254 329.903811,-111.60254 379.903811,-111.60254 379.903811,-161.60254"/><polygon points="143.30127,-25.0 186.60254,0.0 211.60254,-43.30127 168.30127,-68.30127"/><polygon points="261.60254,-43.30127 236.60254,0.0 279.903811,25.0 304.903811,-18.30127"/><polygon points="168.30127,-254.903811 218.30127,-254.903811 218.30127,-304.903811 168.30127,-304.903811"/><polygon points="186.60254,0.0 186.60254,50.0 236.60254,50.0 236.60254,0.0"/><polygon points="143.30127,-25.0 93.30127,-25.0 93.30127,25.0 143.30127,25.0"/><polygon points="193.30127,-161.60254 193.30127,-211.60254 143.30127,-211.60254 143.30127,-161.60254"/><polygon points="236.60254,-186.60254 261.60254,-229.903811 218.30127,-254.903811 193.30127,-211.60254"/><polygon points="236.60254,-186.60254 236.60254,-136.60254 286.60254,-136.60254 286.60254,-186.60254"/><polygon points="168.30127,-118.30127 211.60254,-93.30127 236.60254,-136.60254 193.30127,-161.60254"/><polygon points="261.60254,-93.30127 304.903811,-68.30127 329.903811,-111.60254 286.60254,-136.60254"/><polygon points="261.60254,-93.30127 211.60254,-93.30127 211.60254,-43.30127 261.60254,-43.30127"/><polygon points="118.30127,-118.30127 118.30127,-68.30127 168.30127,-68.30127 168.30127,-118.30127"/><polygon points="143.30127,-161.60254 100.0,-186.60254 75.0,-143.30127 118.30127,-118.30127"/><polygon points="168.30127,-254.903811 125.0,-279.903811 100.0,-236.60254 143.30127,-211.60254"/><polygon points="118.30127,-68.30127 75.0,-93.30127 50.0,-50.0 93.30127,-25.0"/><polygon points="75.0,-143.30127 25.0,-143.30127 25.0,-93.30127 75.0,-93.30127"/><polygon points="100.0,-186.60254 100.0,-236.60254 50.0,-236.60254 50.0,-186.60254"/><polygon points="125.0,-329.903811 75.0,-329.903811 75.0,-279.903811 125.0,-279.903811"/></g></g><polygon style="fill:none;stroke:blue;stroke-width:2" points="0.0,0.0 50.0,0.0 93.30127,25.0 143.30127,25.0 186.60254,50.0 236.60254,50.0 279.903811,75.0 329.903811,75.0 329.903811,25.0 354.903811,-18.30127 354.903811,-68.30127 379.903811,-111.60254 379.903811,-161.60254 404.903811,-204.903811 404.903811,-254.903811 354.903811,-254.903811 311.60254,-279.903811 261.60254,-279.903811 218.30127,-304.903811 168.30127,-304.903811 125.0,-329.903811 75.0,-329.903811 75.0,-279.903811 50.0,-236.60254 50.0,-186.60254 25.0,-143.30127 25.0,-93.30127 0.0,-50.0"/><g style="fill:#4a4a4a;text-anchor:middle;font-family:Arial,Helvetica,sans-serif"><title>Node labels</title><desc>Each node showing its value</desc><text x="186.60254" y="50.0">5</text><text x="50.0" y="0.0">2</text><text x="143.30127" y="25.0">4</text><text x="50.0" y="-50.0">10</text><text x="404.903811" y="-204.903811">56</text><text x="100.0" y="-236.60254">42</text><text x="354.903811" y="-18.30127">24</text><text x="236.60254" y="-136.60254">37</text><text x="25.0" y="-143.30127">25</text><text x="218.30127" y="-254.903811">52</text><text x="236.60254" y="0.0">14</text><text x="168.30127" y="-68.30127">20</text><text x="286.60254" y="-186.60254">46</text><text x="75.0" y="-329.903811">57</text><text x="211.60254" y="-93.30127">29</text><text x="261.60254" y="-279.903811">61</text><text x="0.0" y="0.0">1</text><text x="236.60254" y="50.0">6</text><text x="218.30127" y="-304.903811">60</text><text x="211.60254" y="-43.30127">21</text><text x="50.0" y="-186.60254">33</text><text x="168.30127" y="-118.30127">28</text><text x="286.60254" y="-136.60254">38</text><text x="0.0" y="-50.0">9</text><text x="261.60254" y="-229.903811">53</text><text x="186.60254" y="0.0">13</text><text x="50.0" y="-236.60254">41</text><text x="236.60254" y="-186.60254">45</text><text x="404.903811" y="-254.903811">64</text><text x="25.0" y="-93.30127">17</text><text x="354.903811" y="-68.30127">32</text><text x="100.0" y="-186.60254">34</text><text x="261.60254" y="-43.30127">22</text><text x="193.30127" y="-211.60254">44</text><text x="168.30127" y="-304.903811">59</text><text x="118.30127" y="-118.30127">27</text><text x="143.30127" y="-25.0">12</text><text x="311.60254" y="-229.903811">54</text><text x="75.0" y="-279.903811">49</text><text x="279.903811" y="75.0">7</text><text x="329.903811" y="-111.60254">39</text><text x="93.30127" y="25.0">3</text><text x="143.30127" y="-161.60254">35</text><text x="379.903811" y="-161.60254">48</text><text x="354.903811" y="-254.903811">63</text><text x="75.0" y="-93.30127">18</text><text x="125.0" y="-279.903811">50</text><text x="329.903811" y="25.0">16</text><text x="304.903811" y="-68.30127">31</text><text x="93.30127" y="-25.0">11</text><text x="143.30127" y="-211.60254">43</text><text x="379.903811" y="-111.60254">40</text><text x="75.0" y="-143.30127">26</text><text x="354.903811" y="-204.903811">55</text><text x="304.903811" y="-18.30127">23</text><text x="329.903811" y="75.0">8</text><text x="125.0" y="-329.903811">58</text><text x="193.30127" y="-161.60254">36</text><text x="261.60254" y="-93.30127">30</text><text x="168.30127" y="-254.903811">51</text><text x="118.30127" y="-68.30127">19</text><text x="329.903811" y="-161.60254">47</text><text x="279.903811" y="25.0">15</text><text x="311.60254" y="-279.903811">62</text></g></g><metadata><rdf:RDF><cc:Work><dc:source rdf:resource="https://github.com/scala-tessella/tessella">Tessella</dc:source><cc:license rdf:resource="https://www.apache.org/licenses/LICENSE-2.0"/></cc:Work></rdf:RDF></metadata></svg>
