<?xml version='1.0' encoding='UTF-8'?>
<svg xmlns:rdf="http://www.w3.org/1999/02/22-rdf-syntax-ns#" xmlns:cc="http://creativecommons.org/ns#" xmlns:dc="http://purl.org/dc/elements/1.1/" viewBox="-25.0 -25.0 250.0 250.0" xmlns="http://www.w3.org/2000/svg"><g><title>Tiling</title><desc>Finite tessellation of regular polygons</desc><g style="stroke:black"><title>Edges</title><desc>Sides of the regular polygons</desc><line x1="0.0" y1="0.0" x2="50.0" y2="0.0"/><line x1="0.0" y1="50.0" x2="50.0" y2="50.0"/><line x1="0.0" y1="100.0" x2="50.0" y2="100.0"/><line x1="0.0" y1="150.0" x2="50.0" y2="150.0"/><line x1="0.0" y1="200.0" x2="50.0" y2="200.0"/><line x1="50.0" y1="0.0" x2="100.0" y2="0.0"/><line x1="50.0" y1="50.0" x2="100.0" y2="50.0"/><line x1="50.0" y1="100.0" x2="100.0" y2="100.0"/><line x1="50.0" y1="150.0" x2="100.0" y2="150.0"/><line x1="50.0" y1="200.0" x2="100.0" y2="200.0"/><line x1="100.0" y1="0.0" x2="150.0" y2="0.0"/><line x1="100.0" y1="50.0" x2="150.0" y2="50.0"/><line x1="100.0" y1="100.0" x2="150.0" y2="100.0"/><line x1="100.0" y1="150.0" x2="150.0" y2="150.0"/><line x1="100.0" y1="200.0" x2="150.0" y2="200.0"/><line x1="150.0" y1="0.0" x2="200.0" y2="0.0"/><line x1="150.0" y1="50.0" x2="200.0" y2="50.0"/><line x1="150.0" y1="100.0" x2="200.0" y2="100.0"/><line x1="150.0" y1="150.0" x2="200.0" y2="150.0"/><line x1="150.0" y1="200.0" x2="200.0" y2="200.0"/><line x1="0.0" y1="0.0" x2="0.0" y2="50.0"/><line x1="0.0" y1="50.0" x2="0.0" y2="100.0"/><line x1="0.0" y1="100.0" x2="0.0" y2="150.0"/><line x1="0.0" y1="150.0" x2="0.0" y2="200.0"/><line x1="50.0" y1="0.0" x2="50.0" y2="50.0"/><line x1="50.0" y1="50.0" x2="50.0" y2="100.0"/><line x1="50.0" y1="100.0" x2="50.0" y2="150.0"/><line x1="50.0" y1="150.0" x2="50.0" y2="200.0"/><line x1="100.0" y1="0.0" x2="100.0" y2="50.0"/><line x1="100.0" y1="50.0" x2="100.0" y2="100.0"/><line x1="100.0" y1="100.0" x2="100.0" y2="150.0"/><line x1="100.0" y1="150.0" x2="100.0" y2="200.0"/><line x1="150.0" y1="0.0" x2="150.0" y2="50.0"/><line x1="150.0" y1="50.0" x2="150.0" y2="100.0"/><line x1="150.0" y1="100.0" x2="150.0" y2="150.0"/><line x1="150.0" y1="150.0" x2="150.0" y2="200.0"/><line x1="200.0" y1="0.0" x2="200.0" y2="50.0"/><line x1="200.0" y1="50.0" x2="200.0" y2="100.0"/><line x1="200.0" y1="100.0" x2="200.0" y2="150.0"/><line x1="200.0" y1="150.0" x2="200.0" y2="200.0"/></g><g style="stroke:none"><title>Polygons</title><desc>Regular polygons</desc><g style="fill:goldenrod"><title>Regular 4-gons</title><desc>Regular polygons with 4 sides</desc><polygon points="0.0,200.0 50.0,200.0 50.0,150.0 0.0,150.0"/><polygon points="0.0,0.0 0.0,50.0 50.0,50.0 50.0,0.0"/><polygon points="50.0,0.0 50.0,50.0 100.0,50.0 100.0,0.0"/><polygon points="50.0,100.0 0.0,100.0 0.0,150.0 50.0,150.0"/><polygon points="50.0,150.0 50.0,200.0 100.0,200.0 100.0,150.0"/><polygon points="0.0,100.0 50.0,100.0 50.0,50.0 0.0,50.0"/><polygon points="150.0,150.0 100.0,150.0 100.0,200.0 150.0,200.0"/><polygon points="200.0,200.0 200.0,150.0 150.0,150.0 150.0,200.0"/><polygon points="50.0,100.0 50.0,150.0 100.0,150.0 100.0,100.0"/><polygon points="100.0,150.0 150.0,150.0 150.0,100.0 100.0,100.0"/><polygon points="100.0,100.0 100.0,50.0 50.0,50.0 50.0,100.0"/><polygon points="100.0,50.0 100.0,100.0 150.0,100.0 150.0,50.0"/><polygon points="150.0,50.0 150.0,0.0 100.0,0.0 100.0,50.0"/><polygon points="150.0,150.0 200.0,150.0 200.0,100.0 150.0,100.0"/><polygon points="200.0,50.0 150.0,50.0 150.0,100.0 200.0,100.0"/><polygon points="150.0,0.0 150.0,50.0 200.0,50.0 200.0,0.0"/></g></g><polygon style="fill:none;stroke:blue;stroke-width:2" points="0.0,0.0 0.0,50.0 0.0,100.0 0.0,150.0 0.0,200.0 50.0,200.0 100.0,200.0 150.0,200.0 200.0,200.0 200.0,150.0 200.0,100.0 200.0,50.0 200.0,0.0 150.0,0.0 100.0,0.0 50.0,0.0"/><g><polyline style="stroke:red;stroke-width:1.5;stroke-dasharray:5,5;fill:none" points="0.0,0.0 50.0,0.0 100.0,0.0 150.0,0.0 200.0,0.0 0.0,50.0 50.0,50.0 100.0,50.0 150.0,50.0 200.0,50.0 0.0,100.0 50.0,100.0 100.0,100.0 150.0,100.0 200.0,100.0 0.0,150.0 50.0,150.0 100.0,150.0 150.0,150.0 200.0,150.0 0.0,200.0 50.0,200.0 100.0,200.0 150.0,200.0 200.0,200.0"><animate attributeName="points" dur="5s" from="0.0,0.0" to="0.0,0.0 50.0,0.0 100.0,0.0 150.0,0.0 200.0,0.0 0.0,50.0 50.0,50.0 100.0,50.0 150.0,50.0 200.0,50.0 0.0,100.0 50.0,100.0 100.0,100.0 150.0,100.0 200.0,100.0 0.0,150.0 50.0,150.0 100.0,150.0 150.0,150.0 200.0,150.0 0.0,200.0 50.0,200.0 100.0,200.0 150.0,200.0 200.0,200.0" values="0.0,0.0 50.0,0.0;0.0,0.0 50.0,0.0 100.0,0.0;0.0,0.0 50.0,0.0 100.0,0.0 150.0,0.0;0.0,0.0 50.0,0.0 100.0,0.0 150.0,0.0 200.0,0.0;0.0,0.0 50.0,0.0 100.0,0.0 150.0,0.0 200.0,0.0 0.0,50.0;0.0,0.0 50.0,0.0 100.0,0.0 150.0,0.0 200.0,0.0 0.0,50.0 50.0,50.0;0.0,0.0 50.0,0.0 100.0,0.0 150.0,0.0 200.0,0.0 0.0,50.0 50.0,50.0 100.0,50.0;0.0,0.0 50.0,0.0 100.0,0.0 150.0,0.0 200.0,0.0 0.0,50.0 50.0,50.0 100.0,50.0 150.0,50.0;0.0,0.0 50.0,0.0 100.0,0.0 150.0,0.0 200.0,0.0 0.0,50.0 50.0,50.0 100.0,50.0 150.0,50.0 200.0,50.0;0.0,0.0 50.0,0.0 100.0,0.0 150.0,0.0 200.0,0.0 0.0,50.0 50.0,50.0 100.0,50.0 150.0,50.0 200.0,50.0 0.0,100.0;0.0,0.0 50.0,0.0 100.0,0.0 150.0,0.0 200.0,0.0 0.0,50.0 50.0,50.0 100.0,50.0 150.0,50.0 200.0,50.0 0.0,100.0 50.0,100.0;0.0,0.0 50.0,0.0 100.0,0.0 150.0,0.0 200.0,0.0 0.0,50.0 50.0,50.0 100.0,50.0 150.0,50.0 200.0,50.0 0.0,100.0 50.0,100.0 100.0,100.0;0.0,0.0 50.0,0.0 100.0,0.0 150.0,0.0 200.0,0.0 0.0,50.0 50.0,50.0 100.0,50.0 150.0,50.0 200.0,50.0 0.0,100.0 50.0,100.0 100.0,100.0 150.0,100.0;0.0,0.0 50.0,0.0 100.0,0.0 150.0,0.0 200.0,0.0 0.0,50.0 50.0,50.0 100.0,50.0 150.0,50.0 200.0,50.0 0.0,100.0 50.0,100.0 100.0,100.0 150.0,100.0 200.0,100.0;0.0,0.0 50.0,0.0 100.0,0.0 150.0,0.0 200.0,0.0 0.0,50.0 50.0,50.0 100.0,50.0 150.0,50.0 200.0,50.0 0.0,100.0 50.0,100.0 100.0,100.0 150.0,100.0 200.0,100.0 0.0,150.0;0.0,0.0 50.0,0.0 100.0,0.0 150.0,0.0 200.0,0.0 0.0,50.0 50.0,50.0 100.0,50.0 150.0,50.0 200.0,50.0 0.0,100.0 50.0,100.0 100.0,100.0 150.0,100.0 200.0,100.0 0.0,150.0 50.0,150.0;0.0,0.0 50.0,0.0 100.0,0.0 150.0,0.0 200.0,0.0 0.0,50.0 50.0,50.0 100.0,50.0 150.0,50.0 200.0,50.0 0.0,100.0 50.0,100.0 100.0,100.0 150.0,100.0 200.0,100.0 0.0,150.0 50.0,150.0 100.0,150.0;0.0,0.0 50.0,0.0 100.0,0.0 150.0,0.0 200.0,0.0 0.0,50.0 50.0,50.0 100.0,50.0 150.0,50.0 200.0,50.0 0.0,100.0 50.0,100.0 100.0,100.0 150.0,100.0 200.0,100.0 0.0,150.0 50.0,150.0 100.0,150.0 150.0,150.0;0.0,0.0 50.0,0.0 100.0,0.0 150.0,0.0 200.0,0.0 0.0,50.0 50.0,50.0 100.0,50.0 150.0,50.0 200.0,50.0 0.0,100.0 50.0,100.0 100.0,100.0 150.0,100.0 200.0,100.0 0.0,150.0 50.0,150.0 100.0,150.0 150.0,150.0 200.0,150.0;0.0,0.0 50.0,0.0 100.0,0.0 150.0,0.0 200.0,0.0 0.0,50.0 50.0,50.0 100.0,50.0 150.0,50.0 200.0,50.0 0.0,100.0 50.0,100.0 100.0,100.0 150.0,100.0 200.0,100.0 0.0,150.0 50.0,150.0 100.0,150.0 150.0,150.0 200.0,150.0 0.0,200.0;0.0,0.0 50.0,0.0 100.0,0.0 150.0,0.0 200.0,0.0 0.0,50.0 50.0,50.0 100.0,50.0 150.0,50.0 200.0,50.0 0.0,100.0 50.0,100.0 100.0,100.0 150.0,100.0 200.0,100.0 0.0,150.0 50.0,150.0 100.0,150.0 150.0,150.0 200.0,150.0 0.0,200.0 50.0,200.0;0.0,0.0 50.0,0.0 100.0,0.0 150.0,0.0 200.0,0.0 0.0,50.0 50.0,50.0 100.0,50.0 150.0,50.0 200.0,50.0 0.0,100.0 50.0,100.0 100.0,100.0 150.0,100.0 200.0,100.0 0.0,150.0 50.0,150.0 100.0,150.0 150.0,150.0 200.0,150.0 0.0,200.0 50.0,200.0 100.0,200.0;0.0,0.0 50.0,0.0 100.0,0.0 150.0,0.0 200.0,0.0 0.0,50.0 50.0,50.0 100.0,50.0 150.0,50.0 200.0,50.0 0.0,100.0 50.0,100.0 100.0,100.0 150.0,100.0 200.0,100.0 0.0,150.0 50.0,150.0 100.0,150.0 150.0,150.0 200.0,150.0 0.0,200.0 50.0,200.0 100.0,200.0 150.0,200.0"/></polyline><polygon style="stroke:red;stroke-width:1.5;fill:red" points="200.0,200.0 195.612087,197.602872 195.612087,202.397128"><animate attributeName="points" dur="5s" from="0.0,0.0 4.387913,2.397128 4.387913,-2.397128" to="200.0,200.0 195.612087,197.602872 195.612087,202.397128" values="50.0,0.0 45.612087,-2.397128 45.612087,2.397128;100.0,0.0 95.612087,-2.397128 95.612087,2.397128;150.0,0.0 145.612087,-2.397128 145.612087,2.397128;200.0,0.0 195.612087,-2.397128 195.612087,2.397128;0.0,50.0 4.83829,51.26133 3.675512,46.610219;50.0,50.0 45.612087,47.602872 45.612087,52.397128;100.0,50.0 95.612087,47.602872 95.612087,52.397128;150.0,50.0 145.612087,47.602872 145.612087,52.397128;200.0,50.0 195.612087,47.602872 195.612087,52.397128;0.0,100.0 4.83829,101.26133 3.675512,96.610219;50.0,100.0 45.612087,97.602872 45.612087,102.397128;100.0,100.0 95.612087,97.602872 95.612087,102.397128;150.0,100.0 145.612087,97.602872 145.612087,102.397128;200.0,100.0 195.612087,97.602872 195.612087,102.397128;0.0,150.0 4.83829,151.26133 3.675512,146.610219;50.0,150.0 45.612087,147.602872 45.612087,152.397128;100.0,150.0 95.612087,147.602872 95.612087,152.397128;150.0,150.0 145.612087,147.602872 145.612087,152.397128;200.0,150.0 195.612087,147.602872 195.612087,152.397128;0.0,200.0 4.83829,201.26133 3.675512,196.610219;50.0,200.0 45.612087,197.602872 45.612087,202.397128;100.0,200.0 95.612087,197.602872 95.612087,202.397128;150.0,200.0 145.612087,197.602872 145.612087,202.397128"/></polygon></g><g style="fill:#4a4a4a;text-anchor:middle;font-family:Arial,Helvetica,sans-serif"><title>Node labels</title><desc>Each node showing its value</desc><text x="200.0" y="0.0">5</text><text x="200.0" y="50.0">10</text><text x="150.0" y="100.0">14</text><text x="200.0" y="150.0">20</text><text x="0.0" y="0.0">1</text><text x="0.0" y="50.0">6</text><text x="0.0" y="200.0">21</text><text x="150.0" y="50.0">9</text><text x="100.0" y="100.0">13</text><text x="50.0" y="0.0">2</text><text x="50.0" y="150.0">17</text><text x="50.0" y="200.0">22</text><text x="50.0" y="100.0">12</text><text x="50.0" y="50.0">7</text><text x="100.0" y="0.0">3</text><text x="100.0" y="150.0">18</text><text x="0.0" y="150.0">16</text><text x="0.0" y="100.0">11</text><text x="100.0" y="200.0">23</text><text x="100.0" y="50.0">8</text><text x="150.0" y="150.0">19</text><text x="150.0" y="0.0">4</text><text x="200.0" y="100.0">15</text><text x="150.0" y="200.0">24</text><text x="200.0" y="200.0">25</text></g></g><metadata><rdf:RDF><cc:Work><dc:source rdf:resource="https://github.com/scala-tessella/tessella">Tessella</dc:source><cc:license rdf:resource="https://www.apache.org/licenses/LICENSE-2.0"/></cc:Work></rdf:RDF></metadata></svg>