<?xml version='1.0' encoding='UTF-8'?>
<svg xmlns:rdf="http://www.w3.org/1999/02/22-rdf-syntax-ns#" xmlns:cc="http://creativecommons.org/ns#" xmlns:dc="http://purl.org/dc/elements/1.1/" viewBox="-373.205081 -211.60254 609.807621 559.807621" xmlns="http://www.w3.org/2000/svg"><g><title>Tiling</title><desc>Finite tessellation of regular polygons</desc><g style="stroke:black"><title>Edges</title><desc>Sides of the regular polygons</desc><line x1="0.0" y1="0.0" x2="50.0" y2="0.0"/><line x1="50.0" y1="0.0" x2="25.0" y2="43.30127"/><line x1="0.0" y1="0.0" x2="25.0" y2="43.30127"/><line x1="25.0" y1="43.30127" x2="25.0" y2="93.30127"/><line x1="25.0" y1="93.30127" x2="0.0" y2="136.60254"/><line x1="0.0" y1="136.60254" x2="-43.30127" y2="161.60254"/><line x1="-43.30127" y1="161.60254" x2="-93.30127" y2="161.60254"/><line x1="-93.30127" y1="161.60254" x2="-136.60254" y2="136.60254"/><line x1="-136.60254" y1="136.60254" x2="-161.60254" y2="93.30127"/><line x1="-161.60254" y1="93.30127" x2="-161.60254" y2="43.30127"/><line x1="-161.60254" y1="43.30127" x2="-136.60254" y2="0.0"/><line x1="-136.60254" y1="0.0" x2="-93.30127" y2="-25.0"/><line x1="-93.30127" y1="-25.0" x2="-43.30127" y2="-25.0"/><line x1="0.0" y1="0.0" x2="-43.30127" y2="-25.0"/><line x1="-43.30127" y1="-25.0" x2="-68.30127" y2="-68.30127"/><line x1="-68.30127" y1="-68.30127" x2="-68.30127" y2="-118.30127"/><line x1="-68.30127" y1="-118.30127" x2="-43.30127" y2="-161.60254"/><line x1="-43.30127" y1="-161.60254" x2="0.0" y2="-186.60254"/><line x1="0.0" y1="-186.60254" x2="50.0" y2="-186.60254"/><line x1="50.0" y1="-186.60254" x2="93.30127" y2="-161.60254"/><line x1="93.30127" y1="-161.60254" x2="118.30127" y2="-118.30127"/><line x1="118.30127" y1="-118.30127" x2="118.30127" y2="-68.30127"/><line x1="118.30127" y1="-68.30127" x2="93.30127" y2="-25.0"/><line x1="50.0" y1="0.0" x2="93.30127" y2="-25.0"/><line x1="-93.30127" y1="-25.0" x2="-68.30127" y2="-68.30127"/><line x1="93.30127" y1="-25.0" x2="143.30127" y2="-25.0"/><line x1="143.30127" y1="-25.0" x2="186.60254" y2="0.0"/><line x1="186.60254" y1="0.0" x2="211.60254" y2="43.30127"/><line x1="211.60254" y1="43.30127" x2="211.60254" y2="93.30127"/><line x1="211.60254" y1="93.30127" x2="186.60254" y2="136.60254"/><line x1="186.60254" y1="136.60254" x2="143.30127" y2="161.60254"/><line x1="143.30127" y1="161.60254" x2="93.30127" y2="161.60254"/><line x1="93.30127" y1="161.60254" x2="50.0" y2="136.60254"/><line x1="25.0" y1="93.30127" x2="50.0" y2="136.60254"/><line x1="0.0" y1="136.60254" x2="50.0" y2="136.60254"/><line x1="118.30127" y1="-68.30127" x2="143.30127" y2="-25.0"/><line x1="93.30127" y1="161.60254" x2="118.30127" y2="204.903811"/><line x1="118.30127" y1="204.903811" x2="118.30127" y2="254.903811"/><line x1="118.30127" y1="254.903811" x2="93.30127" y2="298.205081"/><line x1="93.30127" y1="298.205081" x2="50.0" y2="323.205081"/><line x1="50.0" y1="323.205081" x2="0.0" y2="323.205081"/><line x1="0.0" y1="323.205081" x2="-43.30127" y2="298.205081"/><line x1="-43.30127" y1="298.205081" x2="-68.30127" y2="254.903811"/><line x1="-68.30127" y1="254.903811" x2="-68.30127" y2="204.903811"/><line x1="-43.30127" y1="161.60254" x2="-68.30127" y2="204.903811"/><line x1="-93.30127" y1="161.60254" x2="-68.30127" y2="204.903811"/><line x1="143.30127" y1="161.60254" x2="118.30127" y2="204.903811"/><line x1="-68.30127" y1="254.903811" x2="-93.30127" y2="298.205081"/><line x1="-93.30127" y1="298.205081" x2="-136.60254" y2="323.205081"/><line x1="-136.60254" y1="323.205081" x2="-186.60254" y2="323.205081"/><line x1="-186.60254" y1="323.205081" x2="-229.903811" y2="298.205081"/><line x1="-229.903811" y1="298.205081" x2="-254.903811" y2="254.903811"/><line x1="-254.903811" y1="254.903811" x2="-254.903811" y2="204.903811"/><line x1="-254.903811" y1="204.903811" x2="-229.903811" y2="161.60254"/><line x1="-229.903811" y1="161.60254" x2="-186.60254" y2="136.60254"/><line x1="-136.60254" y1="136.60254" x2="-186.60254" y2="136.60254"/><line x1="-161.60254" y1="93.30127" x2="-186.60254" y2="136.60254"/><line x1="-43.30127" y1="298.205081" x2="-93.30127" y2="298.205081"/><line x1="-229.903811" y1="161.60254" x2="-279.903811" y2="161.60254"/><line x1="-279.903811" y1="161.60254" x2="-323.205081" y2="136.60254"/><line x1="-323.205081" y1="136.60254" x2="-348.205081" y2="93.30127"/><line x1="-348.205081" y1="93.30127" x2="-348.205081" y2="43.30127"/><line x1="-348.205081" y1="43.30127" x2="-323.205081" y2="0.0"/><line x1="-323.205081" y1="0.0" x2="-279.903811" y2="-25.0"/><line x1="-279.903811" y1="-25.0" x2="-229.903811" y2="-25.0"/><line x1="-229.903811" y1="-25.0" x2="-186.60254" y2="0.0"/><line x1="-161.60254" y1="43.30127" x2="-186.60254" y2="0.0"/><line x1="-136.60254" y1="0.0" x2="-186.60254" y2="0.0"/><line x1="-254.903811" y1="204.903811" x2="-279.903811" y2="161.60254"/><line x1="-229.903811" y1="-25.0" x2="-254.903811" y2="-68.30127"/><line x1="-254.903811" y1="-68.30127" x2="-254.903811" y2="-118.30127"/><line x1="-254.903811" y1="-118.30127" x2="-229.903811" y2="-161.60254"/><line x1="-229.903811" y1="-161.60254" x2="-186.60254" y2="-186.60254"/><line x1="-186.60254" y1="-186.60254" x2="-136.60254" y2="-186.60254"/><line x1="-136.60254" y1="-186.60254" x2="-93.30127" y2="-161.60254"/><line x1="-68.30127" y1="-118.30127" x2="-93.30127" y2="-161.60254"/><line x1="-43.30127" y1="-161.60254" x2="-93.30127" y2="-161.60254"/><line x1="-279.903811" y1="-25.0" x2="-254.903811" y2="-68.30127"/></g><g style="stroke:none"><title>Polygons</title><desc>Regular polygons</desc><g style="fill:lightgreen"><title>Regular 12-gons</title><desc>Regular polygons with 12 sides</desc><polygon points="0.0,0.0 50.0,0.0 93.30127,-25.0 118.30127,-68.30127 118.30127,-118.30127 93.30127,-161.60254 50.0,-186.60254 0.0,-186.60254 -43.30127,-161.60254 -68.30127,-118.30127 -68.30127,-68.30127 -43.30127,-25.0"/><polygon points="-43.30127,-25.0 -93.30127,-25.0 -136.60254,0.0 -161.60254,43.30127 -161.60254,93.30127 -136.60254,136.60254 -93.30127,161.60254 -43.30127,161.60254 0.0,136.60254 25.0,93.30127 25.0,43.30127 0.0,0.0"/><polygon points="50.0,136.60254 93.30127,161.60254 143.30127,161.60254 186.60254,136.60254 211.60254,93.30127 211.60254,43.30127 186.60254,0.0 143.30127,-25.0 93.30127,-25.0 50.0,0.0 25.0,43.30127 25.0,93.30127"/><polygon points="-68.30127,204.903811 -68.30127,254.903811 -43.30127,298.205081 0.0,323.205081 50.0,323.205081 93.30127,298.205081 118.30127,254.903811 118.30127,204.903811 93.30127,161.60254 50.0,136.60254 0.0,136.60254 -43.30127,161.60254"/><polygon points="-186.60254,136.60254 -229.903811,161.60254 -254.903811,204.903811 -254.903811,254.903811 -229.903811,298.205081 -186.60254,323.205081 -136.60254,323.205081 -93.30127,298.205081 -68.30127,254.903811 -68.30127,204.903811 -93.30127,161.60254 -136.60254,136.60254"/><polygon points="-229.903811,161.60254 -186.60254,136.60254 -161.60254,93.30127 -161.60254,43.30127 -186.60254,0.0 -229.903811,-25.0 -279.903811,-25.0 -323.205081,0.0 -348.205081,43.30127 -348.205081,93.30127 -323.205081,136.60254 -279.903811,161.60254"/><polygon points="-93.30127,-161.60254 -136.60254,-186.60254 -186.60254,-186.60254 -229.903811,-161.60254 -254.903811,-118.30127 -254.903811,-68.30127 -229.903811,-25.0 -186.60254,0.0 -136.60254,0.0 -93.30127,-25.0 -68.30127,-68.30127 -68.30127,-118.30127"/></g><g style="fill:yellow"><title>Regular 3-gons</title><desc>Regular polygons with 3 sides</desc><polygon points="-43.30127,298.205081 -68.30127,254.903811 -93.30127,298.205081"/><polygon points="-254.903811,204.903811 -229.903811,161.60254 -279.903811,161.60254"/><polygon points="143.30127,161.60254 93.30127,161.60254 118.30127,204.903811"/><polygon points="118.30127,-68.30127 93.30127,-25.0 143.30127,-25.0"/><polygon points="-93.30127,-161.60254 -68.30127,-118.30127 -43.30127,-161.60254"/><polygon points="50.0,0.0 0.0,0.0 25.0,43.30127"/><polygon points="50.0,136.60254 25.0,93.30127 0.0,136.60254"/><polygon points="-68.30127,204.903811 -43.30127,161.60254 -93.30127,161.60254"/><polygon points="-186.60254,136.60254 -136.60254,136.60254 -161.60254,93.30127"/><polygon points="-186.60254,0.0 -161.60254,43.30127 -136.60254,0.0"/><polygon points="-93.30127,-25.0 -43.30127,-25.0 -68.30127,-68.30127"/><polygon points="-279.903811,-25.0 -229.903811,-25.0 -254.903811,-68.30127"/></g></g><polygon style="fill:none;stroke:blue;stroke-width:2" points="-43.30127,-161.60254 -93.30127,-161.60254 -136.60254,-186.60254 -186.60254,-186.60254 -229.903811,-161.60254 -254.903811,-118.30127 -254.903811,-68.30127 -279.903811,-25.0 -323.205081,0.0 -348.205081,43.30127 -348.205081,93.30127 -323.205081,136.60254 -279.903811,161.60254 -254.903811,204.903811 -254.903811,254.903811 -229.903811,298.205081 -186.60254,323.205081 -136.60254,323.205081 -93.30127,298.205081 -43.30127,298.205081 0.0,323.205081 50.0,323.205081 93.30127,298.205081 118.30127,254.903811 118.30127,204.903811 143.30127,161.60254 186.60254,136.60254 211.60254,93.30127 211.60254,43.30127 186.60254,0.0 143.30127,-25.0 118.30127,-68.30127 118.30127,-118.30127 93.30127,-161.60254 50.0,-186.60254 0.0,-186.60254"/><g style="fill:#4a4a4a;text-anchor:middle;font-family:Arial,Helvetica,sans-serif"><title>Node labels</title><desc>Each node showing its value</desc><text x="0.0" y="136.60254">5</text><text x="0.0" y="0.0">1</text><text x="50.0" y="0.0">2</text><text x="25.0" y="93.30127">4</text><text x="-161.60254" y="43.30127">10</text><text x="-254.903811" y="-118.30127">56</text><text x="-229.903811" y="298.205081">42</text><text x="186.60254" y="0.0">24</text><text x="-68.30127" y="254.903811">37</text><text x="211.60254" y="43.30127">25</text><text x="-279.903811" y="-25.0">52</text><text x="-68.30127" y="-68.30127">14</text><text x="118.30127" y="-118.30127">20</text><text x="-186.60254" y="136.60254">46</text><text x="-229.903811" y="-161.60254">57</text><text x="93.30127" y="161.60254">29</text><text x="-43.30127" y="161.60254">6</text><text x="-93.30127" y="-161.60254">60</text><text x="118.30127" y="-68.30127">21</text><text x="93.30127" y="298.205081">33</text><text x="143.30127" y="161.60254">28</text><text x="-68.30127" y="204.903811">38</text><text x="-161.60254" y="93.30127">9</text><text x="-229.903811" y="-25.0">53</text><text x="-43.30127" y="-25.0">13</text><text x="-186.60254" y="323.205081">41</text><text x="-229.903811" y="161.60254">45</text><text x="0.0" y="-186.60254">17</text><text x="118.30127" y="254.903811">32</text><text x="50.0" y="323.205081">34</text><text x="93.30127" y="-25.0">22</text><text x="-254.903811" y="204.903811">44</text><text x="-136.60254" y="-186.60254">59</text><text x="186.60254" y="136.60254">27</text><text x="-93.30127" y="-25.0">12</text><text x="-186.60254" y="0.0">54</text><text x="-348.205081" y="93.30127">49</text><text x="-93.30127" y="161.60254">7</text><text x="-93.30127" y="298.205081">39</text><text x="25.0" y="43.30127">3</text><text x="0.0" y="323.205081">35</text><text x="-323.205081" y="136.60254">48</text><text x="50.0" y="-186.60254">18</text><text x="-348.205081" y="43.30127">50</text><text x="-43.30127" y="-161.60254">16</text><text x="118.30127" y="204.903811">31</text><text x="-136.60254" y="0.0">11</text><text x="-254.903811" y="254.903811">43</text><text x="-136.60254" y="323.205081">40</text><text x="211.60254" y="93.30127">26</text><text x="-254.903811" y="-68.30127">55</text><text x="143.30127" y="-25.0">23</text><text x="-136.60254" y="136.60254">8</text><text x="-186.60254" y="-186.60254">58</text><text x="-43.30127" y="298.205081">36</text><text x="50.0" y="136.60254">30</text><text x="-323.205081" y="0.0">51</text><text x="93.30127" y="-161.60254">19</text><text x="-279.903811" y="161.60254">47</text><text x="-68.30127" y="-118.30127">15</text></g></g><metadata><rdf:RDF><cc:Work><dc:source rdf:resource="https://github.com/scala-tessella/tessella">Tessella</dc:source><cc:license rdf:resource="https://www.apache.org/licenses/LICENSE-2.0"/></cc:Work></rdf:RDF></metadata></svg>