<?xml version='1.0' encoding='UTF-8'?>
<svg xmlns:rdf="http://www.w3.org/1999/02/22-rdf-syntax-ns#" xmlns:cc="http://creativecommons.org/ns#" xmlns:dc="http://purl.org/dc/elements/1.1/" viewBox="-275.0 -241.506351 600.0 569.615242" xmlns="http://www.w3.org/2000/svg"><g><title>Tiling</title><desc>Finite tessellation of regular polygons</desc><g style="stroke:black"><title>Edges</title><desc>Sides of the regular polygons</desc><line x1="0.0" y1="0.0" x2="50.0" y2="0.0"/><line x1="50.0" y1="0.0" x2="75.0" y2="43.30127"/><line x1="75.0" y1="43.30127" x2="50.0" y2="86.60254"/><line x1="50.0" y1="86.60254" x2="0.0" y2="86.60254"/><line x1="0.0" y1="86.60254" x2="-25.0" y2="43.30127"/><line x1="0.0" y1="0.0" x2="-25.0" y2="43.30127"/><line x1="50.0" y1="0.0" x2="25.0" y2="-43.30127"/><line x1="0.0" y1="0.0" x2="25.0" y2="-43.30127"/><line x1="-25.0" y1="43.30127" x2="-50.0" y2="0.0"/><line x1="0.0" y1="0.0" x2="-50.0" y2="0.0"/><line x1="25.0" y1="-43.30127" x2="-25.0" y2="-43.30127"/><line x1="0.0" y1="0.0" x2="-25.0" y2="-43.30127"/><line x1="-50.0" y1="0.0" x2="-25.0" y2="-43.30127"/><line x1="75.0" y1="43.30127" x2="100.0" y2="0.0"/><line x1="50.0" y1="0.0" x2="100.0" y2="0.0"/><line x1="25.0" y1="-43.30127" x2="75.0" y2="-43.30127"/><line x1="50.0" y1="0.0" x2="75.0" y2="-43.30127"/><line x1="100.0" y1="0.0" x2="75.0" y2="-43.30127"/><line x1="50.0" y1="86.60254" x2="100.0" y2="86.60254"/><line x1="75.0" y1="43.30127" x2="100.0" y2="86.60254"/><line x1="100.0" y1="0.0" x2="125.0" y2="43.30127"/><line x1="75.0" y1="43.30127" x2="125.0" y2="43.30127"/><line x1="100.0" y1="86.60254" x2="125.0" y2="43.30127"/><line x1="0.0" y1="86.60254" x2="25.0" y2="129.903811"/><line x1="50.0" y1="86.60254" x2="25.0" y2="129.903811"/><line x1="100.0" y1="86.60254" x2="75.0" y2="129.903811"/><line x1="50.0" y1="86.60254" x2="75.0" y2="129.903811"/><line x1="25.0" y1="129.903811" x2="75.0" y2="129.903811"/><line x1="-25.0" y1="43.30127" x2="-50.0" y2="86.60254"/><line x1="0.0" y1="86.60254" x2="-50.0" y2="86.60254"/><line x1="25.0" y1="129.903811" x2="-25.0" y2="129.903811"/><line x1="0.0" y1="86.60254" x2="-25.0" y2="129.903811"/><line x1="-50.0" y1="86.60254" x2="-25.0" y2="129.903811"/><line x1="-50.0" y1="0.0" x2="-75.0" y2="43.30127"/><line x1="-25.0" y1="43.30127" x2="-75.0" y2="43.30127"/><line x1="-50.0" y1="86.60254" x2="-75.0" y2="43.30127"/><line x1="-25.0" y1="-43.30127" x2="-50.0" y2="-86.60254"/><line x1="-50.0" y1="-86.60254" x2="-25.0" y2="-129.903811"/><line x1="-25.0" y1="-129.903811" x2="25.0" y2="-129.903811"/><line x1="25.0" y1="-129.903811" x2="50.0" y2="-86.60254"/><line x1="25.0" y1="-43.30127" x2="50.0" y2="-86.60254"/><line x1="75.0" y1="-43.30127" x2="50.0" y2="-86.60254"/><line x1="-50.0" y1="-86.60254" x2="-75.0" y2="-43.30127"/><line x1="-25.0" y1="-43.30127" x2="-75.0" y2="-43.30127"/><line x1="-50.0" y1="0.0" x2="-75.0" y2="-43.30127"/><line x1="-75.0" y1="43.30127" x2="-125.0" y2="43.30127"/><line x1="-125.0" y1="43.30127" x2="-150.0" y2="0.0"/><line x1="-150.0" y1="0.0" x2="-125.0" y2="-43.30127"/><line x1="-75.0" y1="-43.30127" x2="-125.0" y2="-43.30127"/><line x1="-50.0" y1="86.60254" x2="-100.0" y2="86.60254"/><line x1="-75.0" y1="43.30127" x2="-100.0" y2="86.60254"/><line x1="-125.0" y1="43.30127" x2="-100.0" y2="86.60254"/><line x1="-25.0" y1="129.903811" x2="-50.0" y2="173.205081"/><line x1="-50.0" y1="173.205081" x2="-100.0" y2="173.205081"/><line x1="-100.0" y1="173.205081" x2="-125.0" y2="129.903811"/><line x1="-100.0" y1="86.60254" x2="-125.0" y2="129.903811"/><line x1="25.0" y1="129.903811" x2="0.0" y2="173.205081"/><line x1="-25.0" y1="129.903811" x2="0.0" y2="173.205081"/><line x1="-50.0" y1="173.205081" x2="0.0" y2="173.205081"/><line x1="75.0" y1="129.903811" x2="100.0" y2="173.205081"/><line x1="100.0" y1="173.205081" x2="75.0" y2="216.506351"/><line x1="75.0" y1="216.506351" x2="25.0" y2="216.506351"/><line x1="0.0" y1="173.205081" x2="25.0" y2="216.506351"/><line x1="100.0" y1="86.60254" x2="125.0" y2="129.903811"/><line x1="75.0" y1="129.903811" x2="125.0" y2="129.903811"/><line x1="100.0" y1="173.205081" x2="125.0" y2="129.903811"/><line x1="125.0" y1="43.30127" x2="175.0" y2="43.30127"/><line x1="175.0" y1="43.30127" x2="200.0" y2="86.60254"/><line x1="200.0" y1="86.60254" x2="175.0" y2="129.903811"/><line x1="125.0" y1="129.903811" x2="175.0" y2="129.903811"/><line x1="100.0" y1="0.0" x2="150.0" y2="0.0"/><line x1="125.0" y1="43.30127" x2="150.0" y2="0.0"/><line x1="175.0" y1="43.30127" x2="150.0" y2="0.0"/><line x1="75.0" y1="-43.30127" x2="100.0" y2="-86.60254"/><line x1="100.0" y1="-86.60254" x2="150.0" y2="-86.60254"/><line x1="150.0" y1="-86.60254" x2="175.0" y2="-43.30127"/><line x1="150.0" y1="0.0" x2="175.0" y2="-43.30127"/><line x1="50.0" y1="-86.60254" x2="100.0" y2="-86.60254"/><line x1="100.0" y1="-86.60254" x2="75.0" y2="-129.903811"/><line x1="50.0" y1="-86.60254" x2="75.0" y2="-129.903811"/><line x1="25.0" y1="-129.903811" x2="75.0" y2="-129.903811"/><line x1="-50.0" y1="-86.60254" x2="-100.0" y2="-86.60254"/><line x1="-75.0" y1="-43.30127" x2="-100.0" y2="-86.60254"/><line x1="-125.0" y1="-43.30127" x2="-100.0" y2="-86.60254"/><line x1="-25.0" y1="-129.903811" x2="-75.0" y2="-129.903811"/><line x1="-50.0" y1="-86.60254" x2="-75.0" y2="-129.903811"/><line x1="-100.0" y1="-86.60254" x2="-75.0" y2="-129.903811"/><line x1="-125.0" y1="43.30127" x2="-150.0" y2="86.60254"/><line x1="-100.0" y1="86.60254" x2="-150.0" y2="86.60254"/><line x1="-125.0" y1="129.903811" x2="-150.0" y2="86.60254"/><line x1="-150.0" y1="0.0" x2="-175.0" y2="43.30127"/><line x1="-125.0" y1="43.30127" x2="-175.0" y2="43.30127"/><line x1="-150.0" y1="86.60254" x2="-175.0" y2="43.30127"/><line x1="-50.0" y1="173.205081" x2="-25.0" y2="216.506351"/><line x1="0.0" y1="173.205081" x2="-25.0" y2="216.506351"/><line x1="25.0" y1="216.506351" x2="-25.0" y2="216.506351"/><line x1="-100.0" y1="173.205081" x2="-75.0" y2="216.506351"/><line x1="-50.0" y1="173.205081" x2="-75.0" y2="216.506351"/><line x1="-25.0" y1="216.506351" x2="-75.0" y2="216.506351"/><line x1="100.0" y1="173.205081" x2="150.0" y2="173.205081"/><line x1="125.0" y1="129.903811" x2="150.0" y2="173.205081"/><line x1="175.0" y1="129.903811" x2="150.0" y2="173.205081"/><line x1="75.0" y1="216.506351" x2="125.0" y2="216.506351"/><line x1="100.0" y1="173.205081" x2="125.0" y2="216.506351"/><line x1="150.0" y1="173.205081" x2="125.0" y2="216.506351"/><line x1="175.0" y1="43.30127" x2="200.0" y2="0.0"/><line x1="150.0" y1="0.0" x2="200.0" y2="0.0"/><line x1="175.0" y1="-43.30127" x2="200.0" y2="0.0"/><line x1="200.0" y1="86.60254" x2="225.0" y2="43.30127"/><line x1="175.0" y1="43.30127" x2="225.0" y2="43.30127"/><line x1="200.0" y1="0.0" x2="225.0" y2="43.30127"/><line x1="150.0" y1="-86.60254" x2="125.0" y2="-129.903811"/><line x1="100.0" y1="-86.60254" x2="125.0" y2="-129.903811"/><line x1="75.0" y1="-129.903811" x2="125.0" y2="-129.903811"/><line x1="25.0" y1="-129.903811" x2="0.0" y2="-173.205081"/><line x1="-25.0" y1="-129.903811" x2="0.0" y2="-173.205081"/><line x1="-75.0" y1="-129.903811" x2="-50.0" y2="-173.205081"/><line x1="-25.0" y1="-129.903811" x2="-50.0" y2="-173.205081"/><line x1="0.0" y1="-173.205081" x2="-50.0" y2="-173.205081"/><line x1="75.0" y1="-129.903811" x2="50.0" y2="-173.205081"/><line x1="25.0" y1="-129.903811" x2="50.0" y2="-173.205081"/><line x1="0.0" y1="-173.205081" x2="50.0" y2="-173.205081"/><line x1="125.0" y1="-129.903811" x2="150.0" y2="-173.205081"/><line x1="150.0" y1="-173.205081" x2="125.0" y2="-216.506351"/><line x1="125.0" y1="-216.506351" x2="75.0" y2="-216.506351"/><line x1="50.0" y1="-173.205081" x2="75.0" y2="-216.506351"/><line x1="150.0" y1="-86.60254" x2="175.0" y2="-129.903811"/><line x1="125.0" y1="-129.903811" x2="175.0" y2="-129.903811"/><line x1="150.0" y1="-173.205081" x2="175.0" y2="-129.903811"/><line x1="175.0" y1="-43.30127" x2="200.0" y2="-86.60254"/><line x1="150.0" y1="-86.60254" x2="200.0" y2="-86.60254"/><line x1="175.0" y1="-129.903811" x2="200.0" y2="-86.60254"/><line x1="200.0" y1="0.0" x2="225.0" y2="-43.30127"/><line x1="175.0" y1="-43.30127" x2="225.0" y2="-43.30127"/><line x1="200.0" y1="-86.60254" x2="225.0" y2="-43.30127"/><line x1="225.0" y1="43.30127" x2="275.0" y2="43.30127"/><line x1="275.0" y1="43.30127" x2="300.0" y2="0.0"/><line x1="300.0" y1="0.0" x2="275.0" y2="-43.30127"/><line x1="225.0" y1="-43.30127" x2="275.0" y2="-43.30127"/><line x1="200.0" y1="86.60254" x2="250.0" y2="86.60254"/><line x1="225.0" y1="43.30127" x2="250.0" y2="86.60254"/><line x1="275.0" y1="43.30127" x2="250.0" y2="86.60254"/><line x1="175.0" y1="129.903811" x2="225.0" y2="129.903811"/><line x1="200.0" y1="86.60254" x2="225.0" y2="129.903811"/><line x1="250.0" y1="86.60254" x2="225.0" y2="129.903811"/><line x1="150.0" y1="173.205081" x2="200.0" y2="173.205081"/><line x1="175.0" y1="129.903811" x2="200.0" y2="173.205081"/><line x1="225.0" y1="129.903811" x2="200.0" y2="173.205081"/><line x1="125.0" y1="216.506351" x2="150.0" y2="259.807621"/><line x1="150.0" y1="259.807621" x2="200.0" y2="259.807621"/><line x1="200.0" y1="259.807621" x2="225.0" y2="216.506351"/><line x1="200.0" y1="173.205081" x2="225.0" y2="216.506351"/><line x1="75.0" y1="216.506351" x2="100.0" y2="259.807621"/><line x1="125.0" y1="216.506351" x2="100.0" y2="259.807621"/><line x1="150.0" y1="259.807621" x2="100.0" y2="259.807621"/><line x1="25.0" y1="216.506351" x2="50.0" y2="259.807621"/><line x1="75.0" y1="216.506351" x2="50.0" y2="259.807621"/><line x1="100.0" y1="259.807621" x2="50.0" y2="259.807621"/><line x1="-25.0" y1="216.506351" x2="0.0" y2="259.807621"/><line x1="25.0" y1="216.506351" x2="0.0" y2="259.807621"/><line x1="50.0" y1="259.807621" x2="0.0" y2="259.807621"/><line x1="-75.0" y1="216.506351" x2="-100.0" y2="259.807621"/><line x1="-100.0" y1="259.807621" x2="-75.0" y2="303.108891"/><line x1="-75.0" y1="303.108891" x2="-25.0" y2="303.108891"/><line x1="0.0" y1="259.807621" x2="-25.0" y2="303.108891"/><line x1="-100.0" y1="173.205081" x2="-125.0" y2="216.506351"/><line x1="-75.0" y1="216.506351" x2="-125.0" y2="216.506351"/><line x1="-100.0" y1="259.807621" x2="-125.0" y2="216.506351"/><line x1="-125.0" y1="129.903811" x2="-150.0" y2="173.205081"/><line x1="-100.0" y1="173.205081" x2="-150.0" y2="173.205081"/><line x1="-125.0" y1="216.506351" x2="-150.0" y2="173.205081"/><line x1="-150.0" y1="86.60254" x2="-175.0" y2="129.903811"/><line x1="-125.0" y1="129.903811" x2="-175.0" y2="129.903811"/><line x1="-150.0" y1="173.205081" x2="-175.0" y2="129.903811"/><line x1="-175.0" y1="43.30127" x2="-225.0" y2="43.30127"/><line x1="-225.0" y1="43.30127" x2="-250.0" y2="86.60254"/><line x1="-250.0" y1="86.60254" x2="-225.0" y2="129.903811"/><line x1="-175.0" y1="129.903811" x2="-225.0" y2="129.903811"/><line x1="-150.0" y1="0.0" x2="-200.0" y2="0.0"/><line x1="-175.0" y1="43.30127" x2="-200.0" y2="0.0"/><line x1="-225.0" y1="43.30127" x2="-200.0" y2="0.0"/><line x1="-125.0" y1="-43.30127" x2="-175.0" y2="-43.30127"/><line x1="-150.0" y1="0.0" x2="-175.0" y2="-43.30127"/><line x1="-200.0" y1="0.0" x2="-175.0" y2="-43.30127"/></g><g style="stroke:none"><title>Polygons</title><desc>Regular polygons</desc><g style="fill:grey"><title>Regular 6-gons</title><desc>Regular polygons with 6 sides</desc><polygon points="200.0,173.205081 150.0,173.205081 125.0,216.506351 150.0,259.807621 200.0,259.807621 225.0,216.506351"/><polygon points="-225.0,129.903811 -175.0,129.903811 -150.0,86.60254 -175.0,43.30127 -225.0,43.30127 -250.0,86.60254"/><polygon points="300.0,0.0 275.0,-43.30127 225.0,-43.30127 200.0,0.0 225.0,43.30127 275.0,43.30127"/><polygon points="-75.0,303.108891 -25.0,303.108891 0.0,259.807621 -25.0,216.506351 -75.0,216.506351 -100.0,259.807621"/><polygon points="50.0,-173.205081 75.0,-129.903811 125.0,-129.903811 150.0,-173.205081 125.0,-216.506351 75.0,-216.506351"/><polygon points="-125.0,-43.30127 -150.0,0.0 -125.0,43.30127 -75.0,43.30127 -50.0,0.0 -75.0,-43.30127"/><polygon points="150.0,-86.60254 175.0,-43.30127 150.0,0.0 100.0,0.0 75.0,-43.30127 100.0,-86.60254"/><polygon points="25.0,216.506351 0.0,173.205081 25.0,129.903811 75.0,129.903811 100.0,173.205081 75.0,216.506351"/><polygon points="200.0,86.60254 175.0,129.903811 125.0,129.903811 100.0,86.60254 125.0,43.30127 175.0,43.30127"/><polygon points="-25.0,-129.903811 25.0,-129.903811 50.0,-86.60254 25.0,-43.30127 -25.0,-43.30127 -50.0,-86.60254"/><polygon points="-100.0,173.205081 -125.0,129.903811 -100.0,86.60254 -50.0,86.60254 -25.0,129.903811 -50.0,173.205081"/><polygon points="0.0,0.0 50.0,0.0 75.0,43.30127 50.0,86.60254 0.0,86.60254 -25.0,43.30127"/></g><g style="fill:yellow"><title>Regular 3-gons</title><desc>Regular polygons with 3 sides</desc><polygon points="200.0,173.205081 225.0,129.903811 175.0,129.903811"/><polygon points="200.0,173.205081 175.0,129.903811 150.0,173.205081"/><polygon points="-50.0,-173.205081 -75.0,-129.903811 -25.0,-129.903811"/><polygon points="-50.0,-173.205081 -25.0,-129.903811 0.0,-173.205081"/><polygon points="150.0,259.807621 125.0,216.506351 100.0,259.807621"/><polygon points="100.0,259.807621 125.0,216.506351 75.0,216.506351"/><polygon points="100.0,259.807621 75.0,216.506351 50.0,259.807621"/><polygon points="-150.0,173.205081 -125.0,216.506351 -100.0,173.205081"/><polygon points="-150.0,173.205081 -100.0,173.205081 -125.0,129.903811"/><polygon points="-150.0,173.205081 -125.0,129.903811 -175.0,129.903811"/><polygon points="225.0,-43.30127 200.0,-86.60254 175.0,-43.30127"/><polygon points="225.0,-43.30127 175.0,-43.30127 200.0,0.0"/><polygon points="250.0,86.60254 275.0,43.30127 225.0,43.30127"/><polygon points="250.0,86.60254 225.0,43.30127 200.0,86.60254"/><polygon points="250.0,86.60254 200.0,86.60254 225.0,129.903811"/><polygon points="-125.0,216.506351 -100.0,259.807621 -75.0,216.506351"/><polygon points="-125.0,216.506351 -75.0,216.506351 -100.0,173.205081"/><polygon points="50.0,-173.205081 0.0,-173.205081 25.0,-129.903811"/><polygon points="50.0,-173.205081 25.0,-129.903811 75.0,-129.903811"/><polygon points="175.0,-129.903811 150.0,-173.205081 125.0,-129.903811"/><polygon points="175.0,-129.903811 125.0,-129.903811 150.0,-86.60254"/><polygon points="175.0,-129.903811 150.0,-86.60254 200.0,-86.60254"/><polygon points="50.0,259.807621 75.0,216.506351 25.0,216.506351"/><polygon points="50.0,259.807621 25.0,216.506351 0.0,259.807621"/><polygon points="-200.0,0.0 -225.0,43.30127 -175.0,43.30127"/><polygon points="-200.0,0.0 -175.0,43.30127 -150.0,0.0"/><polygon points="-200.0,0.0 -150.0,0.0 -175.0,-43.30127"/><polygon points="-75.0,-129.903811 -100.0,-86.60254 -50.0,-86.60254"/><polygon points="-75.0,-129.903811 -50.0,-86.60254 -25.0,-129.903811"/><polygon points="-100.0,-86.60254 -125.0,-43.30127 -75.0,-43.30127"/><polygon points="-100.0,-86.60254 -75.0,-43.30127 -50.0,-86.60254"/><polygon points="-175.0,-43.30127 -150.0,0.0 -125.0,-43.30127"/><polygon points="-175.0,129.903811 -125.0,129.903811 -150.0,86.60254"/><polygon points="0.0,-173.205081 -25.0,-129.903811 25.0,-129.903811"/><polygon points="0.0,259.807621 25.0,216.506351 -25.0,216.506351"/><polygon points="225.0,129.903811 200.0,86.60254 175.0,129.903811"/><polygon points="200.0,-86.60254 150.0,-86.60254 175.0,-43.30127"/><polygon points="200.0,0.0 225.0,43.30127 175.0,43.30127"/><polygon points="200.0,0.0 175.0,43.30127 150.0,0.0"/><polygon points="200.0,0.0 150.0,0.0 175.0,-43.30127"/><polygon points="225.0,43.30127 200.0,86.60254 175.0,43.30127"/><polygon points="150.0,-86.60254 100.0,-86.60254 125.0,-129.903811"/><polygon points="25.0,216.506351 -25.0,216.506351 0.0,173.205081"/><polygon points="150.0,173.205081 125.0,216.506351 100.0,173.205081"/><polygon points="150.0,173.205081 100.0,173.205081 125.0,129.903811"/><polygon points="150.0,173.205081 125.0,129.903811 175.0,129.903811"/><polygon points="75.0,-129.903811 125.0,-129.903811 100.0,-86.60254"/><polygon points="75.0,-129.903811 100.0,-86.60254 50.0,-86.60254"/><polygon points="75.0,-129.903811 50.0,-86.60254 25.0,-129.903811"/><polygon points="-75.0,-43.30127 -50.0,-86.60254 -25.0,-43.30127"/><polygon points="-75.0,-43.30127 -25.0,-43.30127 -50.0,0.0"/><polygon points="-50.0,0.0 -25.0,-43.30127 0.0,0.0"/><polygon points="-50.0,0.0 0.0,0.0 -25.0,43.30127"/><polygon points="-50.0,0.0 -25.0,43.30127 -75.0,43.30127"/><polygon points="-175.0,43.30127 -150.0,0.0 -125.0,43.30127"/><polygon points="-175.0,43.30127 -125.0,43.30127 -150.0,86.60254"/><polygon points="-125.0,43.30127 -75.0,43.30127 -100.0,86.60254"/><polygon points="-125.0,43.30127 -100.0,86.60254 -150.0,86.60254"/><polygon points="-150.0,86.60254 -100.0,86.60254 -125.0,129.903811"/><polygon points="-100.0,173.205081 -50.0,173.205081 -75.0,216.506351"/><polygon points="75.0,216.506351 100.0,173.205081 125.0,216.506351"/><polygon points="-75.0,216.506351 -50.0,173.205081 -25.0,216.506351"/><polygon points="-25.0,216.506351 -50.0,173.205081 0.0,173.205081"/><polygon points="-75.0,43.30127 -25.0,43.30127 -50.0,86.60254"/><polygon points="-75.0,43.30127 -50.0,86.60254 -100.0,86.60254"/><polygon points="100.0,0.0 150.0,0.0 125.0,43.30127"/><polygon points="100.0,0.0 125.0,43.30127 75.0,43.30127"/><polygon points="100.0,0.0 75.0,43.30127 50.0,0.0"/><polygon points="100.0,0.0 50.0,0.0 75.0,-43.30127"/><polygon points="25.0,129.903811 0.0,173.205081 -25.0,129.903811"/><polygon points="25.0,129.903811 -25.0,129.903811 0.0,86.60254"/><polygon points="25.0,129.903811 0.0,86.60254 50.0,86.60254"/><polygon points="25.0,129.903811 50.0,86.60254 75.0,129.903811"/><polygon points="0.0,0.0 -25.0,-43.30127 25.0,-43.30127"/><polygon points="0.0,0.0 25.0,-43.30127 50.0,0.0"/><polygon points="-25.0,43.30127 0.0,86.60254 -50.0,86.60254"/><polygon points="-50.0,173.205081 -25.0,129.903811 0.0,173.205081"/><polygon points="125.0,43.30127 100.0,86.60254 75.0,43.30127"/><polygon points="125.0,43.30127 150.0,0.0 175.0,43.30127"/><polygon points="50.0,-86.60254 100.0,-86.60254 75.0,-43.30127"/><polygon points="50.0,-86.60254 75.0,-43.30127 25.0,-43.30127"/><polygon points="100.0,86.60254 125.0,129.903811 75.0,129.903811"/><polygon points="100.0,86.60254 75.0,129.903811 50.0,86.60254"/><polygon points="100.0,86.60254 50.0,86.60254 75.0,43.30127"/><polygon points="125.0,129.903811 100.0,173.205081 75.0,129.903811"/><polygon points="75.0,-43.30127 50.0,0.0 25.0,-43.30127"/><polygon points="-25.0,129.903811 -50.0,86.60254 0.0,86.60254"/></g></g><polygon style="fill:none;stroke:blue;stroke-width:2" points="-125.0,-43.30127 -175.0,-43.30127 -200.0,0.0 -225.0,43.30127 -250.0,86.60254 -225.0,129.903811 -175.0,129.903811 -150.0,173.205081 -125.0,216.506351 -100.0,259.807621 -75.0,303.108891 -25.0,303.108891 0.0,259.807621 50.0,259.807621 100.0,259.807621 150.0,259.807621 200.0,259.807621 225.0,216.506351 200.0,173.205081 225.0,129.903811 250.0,86.60254 275.0,43.30127 300.0,0.0 275.0,-43.30127 225.0,-43.30127 200.0,-86.60254 175.0,-129.903811 150.0,-173.205081 125.0,-216.506351 75.0,-216.506351 50.0,-173.205081 0.0,-173.205081 -50.0,-173.205081 -75.0,-129.903811 -100.0,-86.60254"/><g style="fill:#4a4a4a;text-anchor:middle;font-family:Arial,Helvetica,sans-serif"><title>Node labels</title><desc>Each node showing its value</desc><text x="200.0" y="173.205081">69</text><text x="0.0" y="86.60254">5</text><text x="-225.0" y="129.903811">84</text><text x="300.0" y="0.0">65</text><text x="-75.0" y="303.108891">77</text><text x="275.0" y="-43.30127">66</text><text x="-250.0" y="86.60254">83</text><text x="100.0" y="0.0">10</text><text x="-50.0" y="-173.205081">56</text><text x="175.0" y="-43.30127">42</text><text x="-125.0" y="43.30127">24</text><text x="200.0" y="86.60254">37</text><text x="-150.0" y="0.0">25</text><text x="200.0" y="0.0">52</text><text x="25.0" y="129.903811">14</text><text x="-25.0" y="-129.903811">20</text><text x="-150.0" y="86.60254">46</text><text x="50.0" y="-173.205081">57</text><text x="-25.0" y="303.108891">78</text><text x="-100.0" y="173.205081">29</text><text x="175.0" y="-129.903811">61</text><text x="0.0" y="0.0">1</text><text x="50.0" y="259.807621">74</text><text x="-25.0" y="43.30127">6</text><text x="75.0" y="-216.506351">60</text><text x="-200.0" y="0.0">85</text><text x="150.0" y="259.807621">70</text><text x="25.0" y="-129.903811">21</text><text x="75.0" y="216.506351">33</text><text x="-50.0" y="173.205081">28</text><text x="175.0" y="129.903811">38</text><text x="-25.0" y="-43.30127">9</text><text x="225.0" y="43.30127">53</text><text x="125.0" y="43.30127">13</text><text x="150.0" y="-86.60254">41</text><text x="100.0" y="259.807621">73</text><text x="50.0" y="0.0">2</text><text x="-75.0" y="-129.903811">45</text><text x="275.0" y="43.30127">64</text><text x="-25.0" y="129.903811">17</text><text x="100.0" y="173.205081">32</text><text x="25.0" y="216.506351">34</text><text x="50.0" y="-86.60254">22</text><text x="-100.0" y="-86.60254">44</text><text x="125.0" y="-216.506351">59</text><text x="-100.0" y="86.60254">27</text><text x="200.0" y="259.807621">71</text><text x="100.0" y="86.60254">12</text><text x="125.0" y="-129.903811">54</text><text x="-75.0" y="216.506351">49</text><text x="-175.0" y="-43.30127">86</text><text x="-175.0" y="129.903811">81</text><text x="-100.0" y="259.807621">76</text><text x="25.0" y="-43.30127">7</text><text x="150.0" y="0.0">39</text><text x="75.0" y="43.30127">3</text><text x="-150.0" y="173.205081">80</text><text x="125.0" y="129.903811">35</text><text x="-25.0" y="216.506351">48</text><text x="225.0" y="-43.30127">63</text><text x="-75.0" y="43.30127">18</text><text x="150.0" y="173.205081">50</text><text x="250.0" y="86.60254">67</text><text x="-50.0" y="86.60254">16</text><text x="0.0" y="173.205081">31</text><text x="75.0" y="-43.30127">11</text><text x="225.0" y="216.506351">72</text><text x="75.0" y="-129.903811">43</text><text x="100.0" y="-86.60254">40</text><text x="-125.0" y="-43.30127">26</text><text x="0.0" y="-173.205081">55</text><text x="-75.0" y="-43.30127">23</text><text x="-50.0" y="0.0">8</text><text x="0.0" y="259.807621">75</text><text x="150.0" y="-173.205081">58</text><text x="-225.0" y="43.30127">82</text><text x="175.0" y="43.30127">36</text><text x="-125.0" y="129.903811">30</text><text x="125.0" y="216.506351">51</text><text x="-50.0" y="-86.60254">19</text><text x="50.0" y="86.60254">4</text><text x="-125.0" y="216.506351">79</text><text x="-175.0" y="43.30127">47</text><text x="75.0" y="129.903811">15</text><text x="225.0" y="129.903811">68</text><text x="200.0" y="-86.60254">62</text></g></g><metadata><rdf:RDF><cc:Work><dc:source rdf:resource="https://github.com/scala-tessella/tessella">Tessella</dc:source><cc:license rdf:resource="https://www.apache.org/licenses/LICENSE-2.0"/></cc:Work></rdf:RDF></metadata></svg>
